%FSLAX25Y25*%
%MOIN*%
G70*
G01*
G75*
G04 Layer_Color=8388736*
%ADD10R,0.20000X0.07000*%
%ADD11R,0.20000X0.10500*%
%ADD12R,0.03740X0.02953*%
%ADD13R,0.02953X0.03740*%
%ADD14R,0.05709X0.04331*%
%ADD15R,0.04331X0.05709*%
%ADD16O,0.00984X0.03543*%
%ADD17O,0.03543X0.00984*%
%ADD18R,0.05906X0.05906*%
%ADD19O,0.03740X0.00984*%
%ADD20O,0.00984X0.03740*%
%ADD21R,0.12598X0.12598*%
%ADD22R,0.04331X0.14173*%
%ADD23R,0.31496X0.23622*%
%ADD24R,0.14173X0.04331*%
%ADD25R,0.23622X0.31496*%
G04:AMPARAMS|DCode=26|XSize=118.11mil|YSize=62.99mil|CornerRadius=15.75mil|HoleSize=0mil|Usage=FLASHONLY|Rotation=270.000|XOffset=0mil|YOffset=0mil|HoleType=Round|Shape=RoundedRectangle|*
%AMROUNDEDRECTD26*
21,1,0.11811,0.03150,0,0,270.0*
21,1,0.08661,0.06299,0,0,270.0*
1,1,0.03150,-0.01575,-0.04331*
1,1,0.03150,-0.01575,0.04331*
1,1,0.03150,0.01575,0.04331*
1,1,0.03150,0.01575,-0.04331*
%
%ADD26ROUNDEDRECTD26*%
%ADD27R,0.06299X0.11811*%
G04:AMPARAMS|DCode=28|XSize=118.11mil|YSize=62.99mil|CornerRadius=15.75mil|HoleSize=0mil|Usage=FLASHONLY|Rotation=0.000|XOffset=0mil|YOffset=0mil|HoleType=Round|Shape=RoundedRectangle|*
%AMROUNDEDRECTD28*
21,1,0.11811,0.03150,0,0,0.0*
21,1,0.08661,0.06299,0,0,0.0*
1,1,0.03150,0.04331,-0.01575*
1,1,0.03150,-0.04331,-0.01575*
1,1,0.03150,-0.04331,0.01575*
1,1,0.03150,0.04331,0.01575*
%
%ADD28ROUNDEDRECTD28*%
%ADD29R,0.11811X0.06299*%
%ADD30R,0.10000X0.06496*%
%ADD31C,0.03937*%
%ADD32C,0.00787*%
%ADD33C,0.05906*%
%ADD34C,0.01000*%
%ADD35C,0.11811*%
%ADD36C,0.07874*%
%ADD37C,0.02362*%
%ADD38P,0.10653X8X202.5*%
%ADD39P,0.10653X8X292.5*%
%ADD40O,0.05906X0.07874*%
%ADD41R,0.05906X0.07874*%
%ADD42O,0.05906X0.07874*%
%ADD43C,0.02300*%
%ADD44C,0.02000*%
%ADD45C,0.02500*%
%ADD46C,0.02598*%
%ADD47C,0.00984*%
%ADD48C,0.02362*%
%ADD49C,0.00500*%
%ADD50R,0.21000X0.08000*%
%ADD51R,0.21000X0.11500*%
%ADD52R,0.04740X0.03953*%
%ADD53R,0.03953X0.04740*%
%ADD54R,0.06709X0.05331*%
%ADD55R,0.05331X0.06709*%
%ADD56R,0.05331X0.15173*%
%ADD57R,0.32496X0.24622*%
%ADD58R,0.15173X0.05331*%
%ADD59R,0.24622X0.32496*%
G04:AMPARAMS|DCode=60|XSize=128.11mil|YSize=72.99mil|CornerRadius=20.75mil|HoleSize=0mil|Usage=FLASHONLY|Rotation=270.000|XOffset=0mil|YOffset=0mil|HoleType=Round|Shape=RoundedRectangle|*
%AMROUNDEDRECTD60*
21,1,0.12811,0.03150,0,0,270.0*
21,1,0.08661,0.07299,0,0,270.0*
1,1,0.04150,-0.01575,-0.04331*
1,1,0.04150,-0.01575,0.04331*
1,1,0.04150,0.01575,0.04331*
1,1,0.04150,0.01575,-0.04331*
%
%ADD60ROUNDEDRECTD60*%
%ADD61R,0.07299X0.12811*%
G04:AMPARAMS|DCode=62|XSize=128.11mil|YSize=72.99mil|CornerRadius=20.75mil|HoleSize=0mil|Usage=FLASHONLY|Rotation=0.000|XOffset=0mil|YOffset=0mil|HoleType=Round|Shape=RoundedRectangle|*
%AMROUNDEDRECTD62*
21,1,0.12811,0.03150,0,0,0.0*
21,1,0.08661,0.07299,0,0,0.0*
1,1,0.04150,0.04331,-0.01575*
1,1,0.04150,-0.04331,-0.01575*
1,1,0.04150,-0.04331,0.01575*
1,1,0.04150,0.04331,0.01575*
%
%ADD62ROUNDEDRECTD62*%
%ADD63R,0.12811X0.07299*%
%ADD64R,0.11000X0.07496*%
%ADD65C,0.12811*%
%ADD66C,0.08874*%
%ADD67C,0.03362*%
%ADD68P,0.11736X8X202.5*%
%ADD69P,0.11736X8X292.5*%
%ADD70O,0.06906X0.08874*%
%ADD71R,0.06906X0.08874*%
%ADD72O,0.06906X0.08874*%
D16*
X295253Y73499D02*
D03*
X293284D02*
D03*
X291316D02*
D03*
X289347D02*
D03*
Y60901D02*
D03*
X291316D02*
D03*
X293284D02*
D03*
X295253D02*
D03*
D17*
X286001Y70153D02*
D03*
Y68184D02*
D03*
Y66216D02*
D03*
Y64247D02*
D03*
X298599D02*
D03*
Y66216D02*
D03*
Y68184D02*
D03*
Y70153D02*
D03*
D18*
X292300Y67200D02*
D03*
D19*
X159947Y61594D02*
D03*
Y63563D02*
D03*
Y65531D02*
D03*
Y67500D02*
D03*
Y69468D02*
D03*
Y71437D02*
D03*
Y73405D02*
D03*
X140853D02*
D03*
Y71437D02*
D03*
Y69468D02*
D03*
Y67500D02*
D03*
Y65531D02*
D03*
Y63563D02*
D03*
Y61594D02*
D03*
D20*
X156306Y77047D02*
D03*
X154337D02*
D03*
X152368D02*
D03*
X150400D02*
D03*
X148432D02*
D03*
X146463D02*
D03*
X144494D02*
D03*
Y57953D02*
D03*
X146463D02*
D03*
X148432D02*
D03*
X150400D02*
D03*
X152368D02*
D03*
X154337D02*
D03*
X156306D02*
D03*
D21*
X150400Y67500D02*
D03*
D34*
X0Y0D02*
Y233100D01*
X392500D01*
Y0D02*
Y233100D01*
X0Y0D02*
X392500D01*
D50*
X11316Y105100D02*
D03*
X11300Y29800D02*
D03*
D51*
X11316Y118850D02*
D03*
Y91350D02*
D03*
X11300Y16050D02*
D03*
Y43550D02*
D03*
D52*
X132300Y70945D02*
D03*
Y64055D02*
D03*
X82650Y63755D02*
D03*
Y70645D02*
D03*
X96300Y64055D02*
D03*
Y70945D02*
D03*
X110300Y64055D02*
D03*
Y70945D02*
D03*
X124300Y64055D02*
D03*
Y70945D02*
D03*
X168300Y64055D02*
D03*
Y70945D02*
D03*
X180300Y64055D02*
D03*
Y70945D02*
D03*
X252800Y70645D02*
D03*
Y63755D02*
D03*
X329800D02*
D03*
Y70645D02*
D03*
X337800Y63755D02*
D03*
Y70645D02*
D03*
X246800Y63755D02*
D03*
Y70645D02*
D03*
X312800Y154555D02*
D03*
Y161445D02*
D03*
X75500Y167945D02*
D03*
Y161055D02*
D03*
X65300Y207245D02*
D03*
Y200355D02*
D03*
X65275Y167945D02*
D03*
Y161055D02*
D03*
X312800Y168255D02*
D03*
Y175145D02*
D03*
X55200Y207245D02*
D03*
Y200355D02*
D03*
X55050Y167945D02*
D03*
Y161055D02*
D03*
X45100Y207245D02*
D03*
Y200355D02*
D03*
X44825Y167945D02*
D03*
Y161055D02*
D03*
X35000Y207245D02*
D03*
Y200355D02*
D03*
X34600Y167945D02*
D03*
Y161055D02*
D03*
X285000Y142555D02*
D03*
Y149445D02*
D03*
X285100Y155355D02*
D03*
Y162245D02*
D03*
X234800Y129745D02*
D03*
Y122855D02*
D03*
X195300Y64545D02*
D03*
Y57655D02*
D03*
Y77345D02*
D03*
Y70455D02*
D03*
X51200Y94994D02*
D03*
Y88105D02*
D03*
Y39555D02*
D03*
Y46445D02*
D03*
X82400Y209345D02*
D03*
Y202455D02*
D03*
X306600Y117245D02*
D03*
Y110355D02*
D03*
X196500Y138455D02*
D03*
Y145345D02*
D03*
Y151855D02*
D03*
Y158745D02*
D03*
X370500Y96745D02*
D03*
Y89855D02*
D03*
X187500Y63955D02*
D03*
Y70845D02*
D03*
X376900Y53245D02*
D03*
Y46355D02*
D03*
D53*
X33155Y67300D02*
D03*
X40045D02*
D03*
X82355Y83000D02*
D03*
X89245D02*
D03*
X96355D02*
D03*
X103245D02*
D03*
X110355D02*
D03*
X117245D02*
D03*
X82355Y51000D02*
D03*
X89245D02*
D03*
X96355D02*
D03*
X103245D02*
D03*
X110355D02*
D03*
X117245D02*
D03*
X219355Y87200D02*
D03*
X226245D02*
D03*
X252855Y51200D02*
D03*
X259745D02*
D03*
X252855Y83200D02*
D03*
X259745D02*
D03*
X82355Y77000D02*
D03*
X89245D02*
D03*
X96355D02*
D03*
X103245D02*
D03*
X110355D02*
D03*
X117245D02*
D03*
X168855Y77500D02*
D03*
X175745D02*
D03*
X82355Y57000D02*
D03*
X89245D02*
D03*
X96355D02*
D03*
X103245D02*
D03*
X110355D02*
D03*
X117245D02*
D03*
X168855Y57500D02*
D03*
X175745D02*
D03*
X264855Y51200D02*
D03*
X271745D02*
D03*
X264855Y83200D02*
D03*
X271745D02*
D03*
X219355Y94233D02*
D03*
X226245D02*
D03*
X219355Y40000D02*
D03*
X226245D02*
D03*
X208145Y67400D02*
D03*
X201255D02*
D03*
X43245Y46150D02*
D03*
X36355D02*
D03*
X124355Y77000D02*
D03*
X131245D02*
D03*
X180855Y77500D02*
D03*
X187745D02*
D03*
X36355Y88400D02*
D03*
X43245D02*
D03*
X124355Y57000D02*
D03*
X131245D02*
D03*
X180855Y57500D02*
D03*
X187745D02*
D03*
X288855Y55200D02*
D03*
X295745D02*
D03*
X276855Y51200D02*
D03*
X283745D02*
D03*
X331355Y57200D02*
D03*
X338245D02*
D03*
X331355Y77200D02*
D03*
X338245D02*
D03*
X276855Y83200D02*
D03*
X283745D02*
D03*
X288855Y79200D02*
D03*
X295745D02*
D03*
D54*
X146300Y95437D02*
D03*
Y87563D02*
D03*
X142200Y39263D02*
D03*
Y47137D02*
D03*
X154300Y95437D02*
D03*
Y87563D02*
D03*
X164500Y142663D02*
D03*
Y150537D02*
D03*
X183600Y210037D02*
D03*
Y202163D02*
D03*
X191600Y210037D02*
D03*
Y202163D02*
D03*
X199600Y210037D02*
D03*
Y202163D02*
D03*
X379800Y182063D02*
D03*
Y189937D02*
D03*
X89600Y200759D02*
D03*
Y208633D02*
D03*
X376800Y201663D02*
D03*
Y209537D02*
D03*
X74700Y200946D02*
D03*
Y208820D02*
D03*
X209900Y202863D02*
D03*
Y210737D02*
D03*
D55*
X264863Y59200D02*
D03*
X272737D02*
D03*
X260863Y67200D02*
D03*
X268737D02*
D03*
X264863Y75200D02*
D03*
X272737D02*
D03*
X261363Y161700D02*
D03*
X269237D02*
D03*
X323737Y67200D02*
D03*
X315863D02*
D03*
X319737Y59200D02*
D03*
X311863D02*
D03*
X319737Y75200D02*
D03*
X311863D02*
D03*
X226863Y115100D02*
D03*
X234737D02*
D03*
X332163Y142900D02*
D03*
X340037D02*
D03*
D56*
X326245Y158584D02*
D03*
X344355D02*
D03*
D57*
X335300Y190474D02*
D03*
D58*
X296316Y177445D02*
D03*
Y195555D02*
D03*
X198616Y171245D02*
D03*
Y189355D02*
D03*
D59*
X264426Y186500D02*
D03*
X166726Y180300D02*
D03*
D60*
X363900Y177139D02*
D03*
X181200Y155761D02*
D03*
X226900Y198739D02*
D03*
D61*
X363900Y194461D02*
D03*
X181200Y138439D02*
D03*
X226900Y216061D02*
D03*
D62*
X274461Y145900D02*
D03*
D63*
X257139D02*
D03*
D64*
X52300Y77500D02*
D03*
Y67500D02*
D03*
Y57500D02*
D03*
X72300Y77500D02*
D03*
Y67500D02*
D03*
Y57500D02*
D03*
X237800Y57200D02*
D03*
Y67200D02*
D03*
Y77200D02*
D03*
X217800Y57200D02*
D03*
Y67200D02*
D03*
Y77200D02*
D03*
X348800D02*
D03*
Y67200D02*
D03*
Y57200D02*
D03*
X368800Y77200D02*
D03*
Y67200D02*
D03*
Y57200D02*
D03*
D65*
X383961Y10600D02*
D03*
X354039D02*
D03*
D66*
X369000Y41309D02*
D03*
X184100Y85800D02*
D03*
X160100Y45100D02*
D03*
X280300Y76100D02*
D03*
X210400Y48800D02*
D03*
Y84200D02*
D03*
D67*
X310300Y67200D02*
D03*
D68*
X375200Y147010D02*
D03*
Y160790D02*
D03*
D69*
X165890Y215700D02*
D03*
X152110D02*
D03*
D70*
X326800Y101200D02*
D03*
X316800D02*
D03*
X306800D02*
D03*
X326800Y31200D02*
D03*
X316800D02*
D03*
X306800D02*
D03*
D71*
X35300Y179400D02*
D03*
D72*
X45300D02*
D03*
X55300D02*
D03*
X65300D02*
D03*
X75300D02*
D03*
X85300D02*
D03*
X95300D02*
D03*
X105300D02*
D03*
X115300D02*
D03*
X125300D02*
D03*
X35300Y189400D02*
D03*
X45300D02*
D03*
X55300D02*
D03*
X65300D02*
D03*
X75300D02*
D03*
X85300D02*
D03*
X95300D02*
D03*
X105300D02*
D03*
X115300D02*
D03*
X125300D02*
D03*
M02*
