%FSLAX25Y25*%
%MOIN*%
G70*
G01*
G75*
G04 Layer_Color=65535*
%ADD10R,0.20000X0.07000*%
%ADD11R,0.20000X0.10500*%
%ADD12R,0.03740X0.02953*%
%ADD13R,0.02953X0.03740*%
%ADD14R,0.05709X0.04331*%
%ADD15R,0.04331X0.05709*%
%ADD16O,0.00984X0.03543*%
%ADD17O,0.03543X0.00984*%
%ADD18R,0.05906X0.05906*%
%ADD19O,0.03740X0.00984*%
%ADD20O,0.00984X0.03740*%
%ADD21R,0.12598X0.12598*%
%ADD22R,0.04331X0.14173*%
%ADD23R,0.31496X0.23622*%
%ADD24R,0.14173X0.04331*%
%ADD25R,0.23622X0.31496*%
G04:AMPARAMS|DCode=26|XSize=118.11mil|YSize=62.99mil|CornerRadius=15.75mil|HoleSize=0mil|Usage=FLASHONLY|Rotation=270.000|XOffset=0mil|YOffset=0mil|HoleType=Round|Shape=RoundedRectangle|*
%AMROUNDEDRECTD26*
21,1,0.11811,0.03150,0,0,270.0*
21,1,0.08661,0.06299,0,0,270.0*
1,1,0.03150,-0.01575,-0.04331*
1,1,0.03150,-0.01575,0.04331*
1,1,0.03150,0.01575,0.04331*
1,1,0.03150,0.01575,-0.04331*
%
%ADD26ROUNDEDRECTD26*%
%ADD27R,0.06299X0.11811*%
G04:AMPARAMS|DCode=28|XSize=118.11mil|YSize=62.99mil|CornerRadius=15.75mil|HoleSize=0mil|Usage=FLASHONLY|Rotation=0.000|XOffset=0mil|YOffset=0mil|HoleType=Round|Shape=RoundedRectangle|*
%AMROUNDEDRECTD28*
21,1,0.11811,0.03150,0,0,0.0*
21,1,0.08661,0.06299,0,0,0.0*
1,1,0.03150,0.04331,-0.01575*
1,1,0.03150,-0.04331,-0.01575*
1,1,0.03150,-0.04331,0.01575*
1,1,0.03150,0.04331,0.01575*
%
%ADD28ROUNDEDRECTD28*%
%ADD29R,0.11811X0.06299*%
%ADD30R,0.10000X0.06496*%
%ADD31C,0.03937*%
%ADD32C,0.00787*%
%ADD33C,0.05906*%
%ADD34C,0.01000*%
%ADD35C,0.11811*%
%ADD36C,0.07874*%
%ADD37C,0.02362*%
%ADD38P,0.10653X8X202.5*%
%ADD39P,0.10653X8X292.5*%
%ADD40O,0.05906X0.07874*%
%ADD41R,0.05906X0.07874*%
%ADD42O,0.05906X0.07874*%
%ADD43C,0.02300*%
%ADD44C,0.02000*%
%ADD45C,0.02500*%
%ADD46C,0.02598*%
%ADD47C,0.00984*%
%ADD48C,0.02362*%
%ADD49C,0.00500*%
D32*
X133776Y67106D02*
Y67894D01*
X130824Y67106D02*
Y67894D01*
X36206Y68776D02*
X36994D01*
X36206Y65824D02*
X36994D01*
X85406Y84476D02*
X86194D01*
X85406Y81524D02*
X86194D01*
X99406Y84476D02*
X100194D01*
X99406Y81524D02*
X100194D01*
X113406Y84476D02*
X114194D01*
X113406Y81524D02*
X114194D01*
X81174Y66806D02*
Y67594D01*
X84127Y66806D02*
Y67594D01*
X94824Y67106D02*
Y67894D01*
X97776Y67106D02*
Y67894D01*
X108824Y67106D02*
Y67894D01*
X111776Y67106D02*
Y67894D01*
X122824Y67106D02*
Y67894D01*
X125776Y67106D02*
Y67894D01*
X166824Y67106D02*
Y67894D01*
X169776Y67106D02*
Y67894D01*
X178824Y67106D02*
Y67894D01*
X181776Y67106D02*
Y67894D01*
X85406Y52476D02*
X86194D01*
X85406Y49524D02*
X86194D01*
X99406Y52476D02*
X100194D01*
X99406Y49524D02*
X100194D01*
X113406Y52476D02*
X114194D01*
X113406Y49524D02*
X114194D01*
X222406Y88676D02*
X223194D01*
X222406Y85724D02*
X223194D01*
X255906Y52676D02*
X256694D01*
X255906Y49724D02*
X256694D01*
X254276Y66806D02*
Y67594D01*
X251324Y66806D02*
Y67594D01*
X328324Y66806D02*
Y67594D01*
X331276Y66806D02*
Y67594D01*
X336324Y66806D02*
Y67594D01*
X339276Y66806D02*
Y67594D01*
X255906Y84676D02*
X256694D01*
X255906Y81724D02*
X256694D01*
X85406Y78476D02*
X86194D01*
X85406Y75524D02*
X86194D01*
X99406Y78476D02*
X100194D01*
X99406Y75524D02*
X100194D01*
X113406Y78476D02*
X114194D01*
X113406Y75524D02*
X114194D01*
X171906Y78976D02*
X172694D01*
X171906Y76024D02*
X172694D01*
X85406Y58476D02*
X86194D01*
X85406Y55524D02*
X86194D01*
X99406Y58476D02*
X100194D01*
X99406Y55524D02*
X100194D01*
X113406Y58476D02*
X114194D01*
X113406Y55524D02*
X114194D01*
X171906Y58976D02*
X172694D01*
X171906Y56024D02*
X172694D01*
X267906Y52676D02*
X268694D01*
X267906Y49724D02*
X268694D01*
X245324Y66806D02*
Y67594D01*
X248276Y66806D02*
Y67594D01*
X267906Y84676D02*
X268694D01*
X267906Y81724D02*
X268694D01*
X298009Y72909D02*
X298304D01*
X298009D02*
Y73204D01*
Y61196D02*
Y61491D01*
X298304D01*
X286296D02*
X286591D01*
Y61196D02*
Y61491D01*
Y72909D02*
Y73204D01*
X286296Y72909D02*
X286591D01*
X160636Y57264D02*
Y59528D01*
X158372Y57264D02*
X160636D01*
X140164D02*
X142428D01*
X140164D02*
Y59528D01*
Y75472D02*
Y77736D01*
X142428D01*
X158372D02*
X160636D01*
Y75472D02*
Y77736D01*
X311324Y157606D02*
Y158394D01*
X314276Y157606D02*
Y158394D01*
X76976Y164106D02*
Y164894D01*
X74024Y164106D02*
Y164894D01*
X66776Y203406D02*
Y204194D01*
X63824Y203406D02*
Y204194D01*
X66751Y164106D02*
Y164894D01*
X63799Y164106D02*
Y164894D01*
X311324Y171306D02*
Y172094D01*
X314276Y171306D02*
Y172094D01*
X56676Y203406D02*
Y204194D01*
X53724Y203406D02*
Y204194D01*
X56526Y164106D02*
Y164894D01*
X53574Y164106D02*
Y164894D01*
X46576Y203406D02*
Y204194D01*
X43624Y203406D02*
Y204194D01*
X46301Y164106D02*
Y164894D01*
X43349Y164106D02*
Y164894D01*
X36476Y203406D02*
Y204194D01*
X33524Y203406D02*
Y204194D01*
X36076Y164106D02*
Y164894D01*
X33124Y164106D02*
Y164894D01*
X283524Y145606D02*
Y146394D01*
X286476Y145606D02*
Y146394D01*
X283624Y158406D02*
Y159194D01*
X286576Y158406D02*
Y159194D01*
X236276Y125906D02*
Y126694D01*
X233324Y125906D02*
Y126694D01*
X222406Y95710D02*
X223194D01*
X222406Y92757D02*
X223194D01*
X222406Y41476D02*
X223194D01*
X222406Y38524D02*
X223194D01*
X196776Y60706D02*
Y61494D01*
X193824Y60706D02*
Y61494D01*
X204306Y65924D02*
X205094D01*
X204306Y68876D02*
X205094D01*
X196776Y73506D02*
Y74294D01*
X193824Y73506D02*
Y74294D01*
X39406Y44673D02*
X40194D01*
X39406Y47626D02*
X40194D01*
X52676Y91156D02*
Y91943D01*
X49724Y91156D02*
Y91943D01*
Y42606D02*
Y43394D01*
X52676Y42606D02*
Y43394D01*
X83876Y205506D02*
Y206294D01*
X80924Y205506D02*
Y206294D01*
X308076Y113406D02*
Y114194D01*
X305124Y113406D02*
Y114194D01*
X195024Y141506D02*
Y142294D01*
X197976Y141506D02*
Y142294D01*
X195024Y154906D02*
Y155694D01*
X197976Y154906D02*
Y155694D01*
X127406Y78476D02*
X128194D01*
X127406Y75524D02*
X128194D01*
X183906Y78976D02*
X184694D01*
X183906Y76024D02*
X184694D01*
X39406Y89876D02*
X40194D01*
X39406Y86924D02*
X40194D01*
X127406Y58476D02*
X128194D01*
X127406Y55524D02*
X128194D01*
X183906Y58976D02*
X184694D01*
X183906Y56024D02*
X184694D01*
X291906Y56676D02*
X292694D01*
X291906Y53724D02*
X292694D01*
X371976Y92906D02*
Y93694D01*
X369024Y92906D02*
Y93694D01*
X279906Y52676D02*
X280694D01*
X279906Y49724D02*
X280694D01*
X334406Y58676D02*
X335194D01*
X334406Y55724D02*
X335194D01*
X186024Y67006D02*
Y67794D01*
X188976Y67006D02*
Y67794D01*
X334406Y78676D02*
X335194D01*
X334406Y75724D02*
X335194D01*
X378376Y49406D02*
Y50194D01*
X375424Y49406D02*
Y50194D01*
X279906Y84676D02*
X280694D01*
X279906Y81724D02*
X280694D01*
X291906Y80676D02*
X292694D01*
X291906Y77724D02*
X292694D01*
X317900Y176700D02*
Y187600D01*
Y176700D02*
X352700D01*
Y187600D01*
X267300Y169100D02*
X278200D01*
Y203900D01*
X267300D02*
X278200D01*
X169600Y162900D02*
X180500D01*
Y197700D01*
X169600D02*
X180500D01*
X390000Y140120D02*
Y168210D01*
X361800D02*
X390000D01*
X361800Y140120D02*
X390000D01*
X361800D02*
Y168210D01*
X144690Y230500D02*
X172780D01*
X144690Y202300D02*
Y230500D01*
X172780Y202300D02*
Y230500D01*
X144690Y202300D02*
X172780D01*
X30300Y181900D02*
Y194900D01*
Y173900D02*
Y186900D01*
Y173900D02*
X130300D01*
Y194400D01*
X30300Y194900D02*
X130300D01*
X56394Y82854D02*
X68205D01*
X56394Y52146D02*
X68205D01*
X221895Y51846D02*
X233705D01*
X221895Y82554D02*
X233705D01*
X352894D02*
X364705D01*
X352894Y51846D02*
X364705D01*
D34*
X359498Y194603D02*
G03*
X359498Y176997I4402J-8803D01*
G01*
X368302D02*
G03*
X368302Y194603I-4402J8803D01*
G01*
X256997Y141498D02*
G03*
X274603Y141498I8803J4402D01*
G01*
Y150302D02*
G03*
X256997Y150302I-8803J-4402D01*
G01*
X185602Y138297D02*
G03*
X185602Y155903I-4402J8803D01*
G01*
X176798D02*
G03*
X176798Y138297I4402J-8803D01*
G01*
X222498Y216203D02*
G03*
X222498Y198597I4402J-8803D01*
G01*
X231302D02*
G03*
X231302Y216203I-4402J8803D01*
G01*
X326600Y138400D02*
X328100D01*
Y147400D01*
X326600Y138400D02*
Y147400D01*
X328100D01*
Y138400D02*
X344100D01*
X328100Y147400D02*
X344100D01*
Y138400D02*
Y147400D01*
X214400Y197300D02*
Y198800D01*
X205400D02*
X214400D01*
X205400Y197300D02*
X214400D01*
X205400D02*
Y198800D01*
X214400D02*
Y214800D01*
X205400Y198800D02*
Y214800D01*
X214400D01*
X332154Y96100D02*
Y106300D01*
X301446Y96100D02*
X332154D01*
X301446D02*
Y106300D01*
X332154D01*
Y26100D02*
Y36300D01*
X301446Y26100D02*
X332154D01*
X301446D02*
Y36300D01*
X332154D01*
X223399Y9498D02*
X219400D01*
Y6499D01*
X221399Y7499D01*
X222399D01*
X223399Y6499D01*
Y4500D01*
X222399Y3500D01*
X220400D01*
X219400Y4500D01*
X228397Y3500D02*
Y9498D01*
X225398Y6499D01*
X229397D01*
X235395Y9498D02*
X231396D01*
Y6499D01*
X233396Y7499D01*
X234395D01*
X235395Y6499D01*
Y4500D01*
X234395Y3500D01*
X232396D01*
X231396Y4500D01*
X237394Y8498D02*
X238394Y9498D01*
X240393D01*
X241393Y8498D01*
Y7499D01*
X240393Y6499D01*
X239393D01*
X240393D01*
X241393Y5499D01*
Y4500D01*
X240393Y3500D01*
X238394D01*
X237394Y4500D01*
X243392Y8498D02*
X244392Y9498D01*
X246391D01*
X247391Y8498D01*
Y7499D01*
X246391Y6499D01*
X247391Y5499D01*
Y4500D01*
X246391Y3500D01*
X244392D01*
X243392Y4500D01*
Y5499D01*
X244392Y6499D01*
X243392Y7499D01*
Y8498D01*
X244392Y6499D02*
X246391D01*
X255388Y4500D02*
X256388Y3500D01*
X258387D01*
X259387Y4500D01*
Y8498D01*
X258387Y9498D01*
X256388D01*
X255388Y8498D01*
Y7499D01*
X256388Y6499D01*
X259387D01*
X261386Y3500D02*
Y4500D01*
X262386D01*
Y3500D01*
X261386D01*
X266385Y4500D02*
X267385Y3500D01*
X269384D01*
X270384Y4500D01*
Y8498D01*
X269384Y9498D01*
X267385D01*
X266385Y8498D01*
Y7499D01*
X267385Y6499D01*
X270384D01*
X272383Y7499D02*
X276382Y3500D01*
X274382Y5499D01*
X276382Y7499D01*
X272383Y3500D01*
X282380Y9498D02*
X278381D01*
Y6499D01*
X280380Y7499D01*
X281380D01*
X282380Y6499D01*
Y4500D01*
X281380Y3500D01*
X279381D01*
X278381Y4500D01*
X284379Y3500D02*
Y4500D01*
X285379D01*
Y3500D01*
X284379D01*
X293376Y9498D02*
X291377Y8498D01*
X289377Y6499D01*
Y4500D01*
X290377Y3500D01*
X292376D01*
X293376Y4500D01*
Y5499D01*
X292376Y6499D01*
X289377D01*
X27200Y3900D02*
Y9898D01*
X30199D01*
X31199Y8898D01*
Y6899D01*
X30199Y5899D01*
X27200D01*
X34198Y7899D02*
X36197D01*
X37197Y6899D01*
Y3900D01*
X34198D01*
X33198Y4900D01*
X34198Y5899D01*
X37197D01*
X39196Y7899D02*
Y3900D01*
Y5899D01*
X40196Y6899D01*
X41195Y7899D01*
X42195D01*
X46194Y8898D02*
Y7899D01*
X45194D01*
X47194D01*
X46194D01*
Y4900D01*
X47194Y3900D01*
X50193D02*
X52192D01*
X51192D01*
Y7899D01*
X50193D01*
X56191D02*
X58190D01*
X59190Y6899D01*
Y3900D01*
X56191D01*
X55191Y4900D01*
X56191Y5899D01*
X59190D01*
X61189Y3900D02*
X63188D01*
X62189D01*
Y9898D01*
X61189D01*
X72185D02*
Y3900D01*
X75185D01*
X76184Y4900D01*
Y8898D01*
X75185Y9898D01*
X72185D01*
X78184Y3900D02*
X80183D01*
X79183D01*
Y7899D01*
X78184D01*
X83182Y3900D02*
X86181D01*
X87181Y4900D01*
X86181Y5899D01*
X84182D01*
X83182Y6899D01*
X84182Y7899D01*
X87181D01*
X93179D02*
X90180D01*
X89180Y6899D01*
Y4900D01*
X90180Y3900D01*
X93179D01*
X95178Y9898D02*
Y3900D01*
Y6899D01*
X96178Y7899D01*
X98177D01*
X99177Y6899D01*
Y3900D01*
X102176Y7899D02*
X104175D01*
X105175Y6899D01*
Y3900D01*
X102176D01*
X101176Y4900D01*
X102176Y5899D01*
X105175D01*
X107174Y7899D02*
Y3900D01*
Y5899D01*
X108174Y6899D01*
X109174Y7899D01*
X110173D01*
X115172Y1901D02*
X116171D01*
X117171Y2900D01*
Y7899D01*
X114172D01*
X113172Y6899D01*
Y4900D01*
X114172Y3900D01*
X117171D01*
X122169D02*
X120170D01*
X119170Y4900D01*
Y6899D01*
X120170Y7899D01*
X122169D01*
X123169Y6899D01*
Y5899D01*
X119170D01*
X131166Y3900D02*
Y9898D01*
X134165D01*
X135165Y8898D01*
Y6899D01*
X134165Y5899D01*
X131166D01*
X137164Y7899D02*
Y3900D01*
Y5899D01*
X138164Y6899D01*
X139164Y7899D01*
X140163D01*
X146161Y3900D02*
X144162D01*
X143163Y4900D01*
Y6899D01*
X144162Y7899D01*
X146161D01*
X147161Y6899D01*
Y5899D01*
X143163D01*
X150160Y7899D02*
X152160D01*
X153159Y6899D01*
Y3900D01*
X150160D01*
X149161Y4900D01*
X150160Y5899D01*
X153159D01*
X155159Y3900D02*
Y7899D01*
X156158D01*
X157158Y6899D01*
Y3900D01*
Y6899D01*
X158158Y7899D01*
X159157Y6899D01*
Y3900D01*
X161157Y1901D02*
Y7899D01*
X164156D01*
X165155Y6899D01*
Y4900D01*
X164156Y3900D01*
X161157D01*
X173153Y7899D02*
X175152Y3900D01*
X177152Y7899D01*
X179151Y3900D02*
X181150D01*
X180150D01*
Y9898D01*
X179151Y8898D01*
X184149Y3900D02*
Y4900D01*
X185149D01*
Y3900D01*
X184149D01*
X189148Y8898D02*
X190147Y9898D01*
X192147D01*
X193146Y8898D01*
Y4900D01*
X192147Y3900D01*
X190147D01*
X189148Y4900D01*
Y8898D01*
X387498Y33001D02*
Y35001D01*
Y34001D01*
X382500D01*
X381500Y35001D01*
Y36000D01*
X382500Y37000D01*
X381500Y27003D02*
Y31002D01*
X385499Y27003D01*
X386498D01*
X387498Y28003D01*
Y30002D01*
X386498Y31002D01*
X20502Y180599D02*
Y178599D01*
Y179599D01*
X25500D01*
X26500Y178599D01*
Y177600D01*
X25500Y176600D01*
X26500Y182598D02*
Y184597D01*
Y183598D01*
X20502D01*
X21502Y182598D01*
X26500Y187596D02*
Y189596D01*
Y188596D01*
X20502D01*
X21502Y187596D01*
X0Y0D02*
Y233100D01*
X392500D01*
Y0D02*
Y233100D01*
X0Y0D02*
X392500D01*
D47*
X295745Y77436D02*
G03*
X295745Y77436I-492J0D01*
G01*
X164475Y61594D02*
G03*
X164475Y61594I-492J0D01*
G01*
D48*
X65450Y56083D02*
G03*
X65450Y56083I-1181J0D01*
G01*
X230950Y55783D02*
G03*
X230950Y55783I-1181J0D01*
G01*
X361950D02*
G03*
X361950Y55783I-1181J0D01*
G01*
D49*
X386599Y188101D02*
X387099Y188601D01*
Y189600D01*
X386599Y190100D01*
X384600D01*
X384100Y189600D01*
Y188601D01*
X384600Y188101D01*
X384100Y185601D02*
X387099D01*
X385599Y187101D01*
Y185102D01*
X386599Y184102D02*
X387099Y183602D01*
Y182602D01*
X386599Y182103D01*
X386099D01*
X385599Y182602D01*
Y183102D01*
Y182602D01*
X385100Y182103D01*
X384600D01*
X384100Y182602D01*
Y183602D01*
X384600Y184102D01*
X313699Y82799D02*
X313199Y83299D01*
X312200D01*
X311700Y82799D01*
Y80800D01*
X312200Y80300D01*
X313199D01*
X313699Y80800D01*
X316698Y83299D02*
X314699D01*
Y81800D01*
X315699Y82299D01*
X316198D01*
X316698Y81800D01*
Y80800D01*
X316198Y80300D01*
X315199D01*
X314699Y80800D01*
X319697Y83299D02*
X317698D01*
Y81800D01*
X318698Y82299D01*
X319198D01*
X319697Y81800D01*
Y80800D01*
X319198Y80300D01*
X318198D01*
X317698Y80800D01*
X314099Y53799D02*
X313599Y54299D01*
X312600D01*
X312100Y53799D01*
Y51800D01*
X312600Y51300D01*
X313599D01*
X314099Y51800D01*
X317098Y54299D02*
X315099D01*
Y52799D01*
X316099Y53299D01*
X316599D01*
X317098Y52799D01*
Y51800D01*
X316599Y51300D01*
X315599D01*
X315099Y51800D01*
X319598Y51300D02*
Y54299D01*
X318098Y52799D01*
X320097D01*
X304199Y68499D02*
X303699Y68999D01*
X302700D01*
X302200Y68499D01*
Y66500D01*
X302700Y66000D01*
X303699D01*
X304199Y66500D01*
X307198Y68999D02*
X305199D01*
Y67500D01*
X306199Y67999D01*
X306698D01*
X307198Y67500D01*
Y66500D01*
X306698Y66000D01*
X305699D01*
X305199Y66500D01*
X308198Y68499D02*
X308698Y68999D01*
X309698D01*
X310197Y68499D01*
Y67999D01*
X309698Y67500D01*
X309198D01*
X309698D01*
X310197Y67000D01*
Y66500D01*
X309698Y66000D01*
X308698D01*
X308198Y66500D01*
X255899Y89899D02*
X255399Y90399D01*
X254400D01*
X253900Y89899D01*
Y87900D01*
X254400Y87400D01*
X255399D01*
X255899Y87900D01*
X256899Y87400D02*
X257899D01*
X257399D01*
Y90399D01*
X256899Y89899D01*
X343199Y63499D02*
X342700Y63999D01*
X341700D01*
X341200Y63499D01*
Y61500D01*
X341700Y61000D01*
X342700D01*
X343199Y61500D01*
X346198Y61000D02*
X344199D01*
X346198Y62999D01*
Y63499D01*
X345698Y63999D01*
X344699D01*
X344199Y63499D01*
X326599Y59701D02*
X327099Y60201D01*
Y61200D01*
X326599Y61700D01*
X324600D01*
X324100Y61200D01*
Y60201D01*
X324600Y59701D01*
X326599Y58701D02*
X327099Y58201D01*
Y57201D01*
X326599Y56702D01*
X326099D01*
X325600Y57201D01*
Y57701D01*
Y57201D01*
X325100Y56702D01*
X324600D01*
X324100Y57201D01*
Y58201D01*
X324600Y58701D01*
X251599Y60299D02*
X251099Y60799D01*
X250100D01*
X249600Y60299D01*
Y58300D01*
X250100Y57800D01*
X251099D01*
X251599Y58300D01*
X254099Y57800D02*
Y60799D01*
X252599Y59299D01*
X254598D01*
X255399Y46199D02*
X254900Y46699D01*
X253900D01*
X253400Y46199D01*
Y44200D01*
X253900Y43700D01*
X254900D01*
X255399Y44200D01*
X258398Y46699D02*
X256399D01*
Y45199D01*
X257399Y45699D01*
X257898D01*
X258398Y45199D01*
Y44200D01*
X257898Y43700D01*
X256899D01*
X256399Y44200D01*
X232399Y88199D02*
X231899Y88699D01*
X230900D01*
X230400Y88199D01*
Y86200D01*
X230900Y85700D01*
X231899D01*
X232399Y86200D01*
X233399Y88699D02*
X235398D01*
Y88199D01*
X233399Y86200D01*
Y85700D01*
X112299Y41199D02*
X111800Y41699D01*
X110800D01*
X110300Y41199D01*
Y39200D01*
X110800Y38700D01*
X111800D01*
X112299Y39200D01*
X113299Y38700D02*
X114299D01*
X113799D01*
Y41699D01*
X113299Y41199D01*
X117798Y38700D02*
X115798D01*
X117798Y40699D01*
Y41199D01*
X117298Y41699D01*
X116298D01*
X115798Y41199D01*
X99349Y41399D02*
X98849Y41899D01*
X97850D01*
X97350Y41399D01*
Y39400D01*
X97850Y38900D01*
X98849D01*
X99349Y39400D01*
X100349Y38900D02*
X101349D01*
X100849D01*
Y41899D01*
X100349Y41399D01*
X102848D02*
X103348Y41899D01*
X104348D01*
X104848Y41399D01*
Y40899D01*
X104348Y40400D01*
X103848D01*
X104348D01*
X104848Y39900D01*
Y39400D01*
X104348Y38900D01*
X103348D01*
X102848Y39400D01*
X85599Y41699D02*
X85100Y42199D01*
X84100D01*
X83600Y41699D01*
Y39700D01*
X84100Y39200D01*
X85100D01*
X85599Y39700D01*
X86599Y39200D02*
X87599D01*
X87099D01*
Y42199D01*
X86599Y41699D01*
X90598Y39200D02*
Y42199D01*
X89098Y40699D01*
X91098D01*
X176599Y69501D02*
X177099Y70000D01*
Y71000D01*
X176599Y71500D01*
X174600D01*
X174100Y71000D01*
Y70000D01*
X174600Y69501D01*
X174100Y68501D02*
Y67501D01*
Y68001D01*
X177099D01*
X176599Y68501D01*
X177099Y64002D02*
Y66002D01*
X175600D01*
X176099Y65002D01*
Y64502D01*
X175600Y64002D01*
X174600D01*
X174100Y64502D01*
Y65502D01*
X174600Y66002D01*
X165499Y79301D02*
X165999Y79800D01*
Y80800D01*
X165499Y81300D01*
X163500D01*
X163000Y80800D01*
Y79800D01*
X163500Y79301D01*
X163000Y78301D02*
Y77301D01*
Y77801D01*
X165999D01*
X165499Y78301D01*
X165999Y73802D02*
X165499Y74802D01*
X164499Y75802D01*
X163500D01*
X163000Y75302D01*
Y74302D01*
X163500Y73802D01*
X164000D01*
X164499Y74302D01*
Y75802D01*
X120299Y69201D02*
X120799Y69700D01*
Y70700D01*
X120299Y71200D01*
X118300D01*
X117800Y70700D01*
Y69700D01*
X118300Y69201D01*
X117800Y68201D02*
Y67201D01*
Y67701D01*
X120799D01*
X120299Y68201D01*
X120799Y65702D02*
Y63702D01*
X120299D01*
X118300Y65702D01*
X117800D01*
X106399Y69201D02*
X106899Y69700D01*
Y70700D01*
X106399Y71200D01*
X104400D01*
X103900Y70700D01*
Y69700D01*
X104400Y69201D01*
X103900Y68201D02*
Y67201D01*
Y67701D01*
X106899D01*
X106399Y68201D01*
Y65702D02*
X106899Y65202D01*
Y64202D01*
X106399Y63702D01*
X105899D01*
X105400Y64202D01*
X104900Y63702D01*
X104400D01*
X103900Y64202D01*
Y65202D01*
X104400Y65702D01*
X104900D01*
X105400Y65202D01*
X105899Y65702D01*
X106399D01*
X105400Y65202D02*
Y64202D01*
X92599Y69201D02*
X93099Y69700D01*
Y70700D01*
X92599Y71200D01*
X90600D01*
X90100Y70700D01*
Y69700D01*
X90600Y69201D01*
X90100Y68201D02*
Y67201D01*
Y67701D01*
X93099D01*
X92599Y68201D01*
X90600Y65702D02*
X90100Y65202D01*
Y64202D01*
X90600Y63702D01*
X92599D01*
X93099Y64202D01*
Y65202D01*
X92599Y65702D01*
X92099D01*
X91600Y65202D01*
Y63702D01*
X88499Y69201D02*
X88999Y69700D01*
Y70700D01*
X88499Y71200D01*
X86500D01*
X86000Y70700D01*
Y69700D01*
X86500Y69201D01*
X86000Y66202D02*
Y68201D01*
X87999Y66202D01*
X88499D01*
X88999Y66701D01*
Y67701D01*
X88499Y68201D01*
Y65202D02*
X88999Y64702D01*
Y63702D01*
X88499Y63203D01*
X86500D01*
X86000Y63702D01*
Y64702D01*
X86500Y65202D01*
X88499D01*
X111899Y95199D02*
X111399Y95699D01*
X110400D01*
X109900Y95199D01*
Y93200D01*
X110400Y92700D01*
X111399D01*
X111899Y93200D01*
X114898Y92700D02*
X112899D01*
X114898Y94699D01*
Y95199D01*
X114399Y95699D01*
X113399D01*
X112899Y95199D01*
X115898Y92700D02*
X116898D01*
X116398D01*
Y95699D01*
X115898Y95199D01*
X97499D02*
X97000Y95699D01*
X96000D01*
X95500Y95199D01*
Y93200D01*
X96000Y92700D01*
X97000D01*
X97499Y93200D01*
X100498Y92700D02*
X98499D01*
X100498Y94699D01*
Y95199D01*
X99999Y95699D01*
X98999D01*
X98499Y95199D01*
X103497Y92700D02*
X101498D01*
X103497Y94699D01*
Y95199D01*
X102998Y95699D01*
X101998D01*
X101498Y95199D01*
X83699D02*
X83200Y95699D01*
X82200D01*
X81700Y95199D01*
Y93200D01*
X82200Y92700D01*
X83200D01*
X83699Y93200D01*
X86698Y92700D02*
X84699D01*
X86698Y94699D01*
Y95199D01*
X86199Y95699D01*
X85199D01*
X84699Y95199D01*
X87698D02*
X88198Y95699D01*
X89198D01*
X89697Y95199D01*
Y94699D01*
X89198Y94200D01*
X88698D01*
X89198D01*
X89697Y93700D01*
Y93200D01*
X89198Y92700D01*
X88198D01*
X87698Y93200D01*
X23199Y68699D02*
X22700Y69199D01*
X21700D01*
X21200Y68699D01*
Y66700D01*
X21700Y66200D01*
X22700D01*
X23199Y66700D01*
X26198Y66200D02*
X24199D01*
X26198Y68199D01*
Y68699D01*
X25699Y69199D01*
X24699D01*
X24199Y68699D01*
X28698Y66200D02*
Y69199D01*
X27198Y67699D01*
X29197D01*
X233999Y229299D02*
X233500Y229799D01*
X232500D01*
X232000Y229299D01*
Y227300D01*
X232500Y226800D01*
X233500D01*
X233999Y227300D01*
X236998Y226800D02*
X234999D01*
X236998Y228799D01*
Y229299D01*
X236498Y229799D01*
X235499D01*
X234999Y229299D01*
X237998Y229799D02*
X239997D01*
Y229299D01*
X237998Y227300D01*
Y226800D01*
X198201Y216899D02*
X197701Y216400D01*
Y215400D01*
X198201Y214900D01*
X200200D01*
X200700Y215400D01*
Y216400D01*
X200200Y216899D01*
X200700Y219898D02*
Y217899D01*
X198701Y219898D01*
X198201D01*
X197701Y219398D01*
Y218399D01*
X198201Y217899D01*
Y220898D02*
X197701Y221398D01*
Y222398D01*
X198201Y222897D01*
X198701D01*
X199200Y222398D01*
X199700Y222897D01*
X200200D01*
X200700Y222398D01*
Y221398D01*
X200200Y220898D01*
X199700D01*
X199200Y221398D01*
X198701Y220898D01*
X198201D01*
X199200Y221398D02*
Y222398D01*
X190101Y216899D02*
X189601Y216400D01*
Y215400D01*
X190101Y214900D01*
X192100D01*
X192600Y215400D01*
Y216400D01*
X192100Y216899D01*
X192600Y219898D02*
Y217899D01*
X190601Y219898D01*
X190101D01*
X189601Y219398D01*
Y218399D01*
X190101Y217899D01*
X192100Y220898D02*
X192600Y221398D01*
Y222398D01*
X192100Y222897D01*
X190101D01*
X189601Y222398D01*
Y221398D01*
X190101Y220898D01*
X190601D01*
X191101Y221398D01*
Y222897D01*
X182201Y216699D02*
X181701Y216199D01*
Y215200D01*
X182201Y214700D01*
X184200D01*
X184700Y215200D01*
Y216199D01*
X184200Y216699D01*
X182201Y217699D02*
X181701Y218199D01*
Y219198D01*
X182201Y219698D01*
X182701D01*
X183201Y219198D01*
Y218699D01*
Y219198D01*
X183700Y219698D01*
X184200D01*
X184700Y219198D01*
Y218199D01*
X184200Y217699D01*
X182201Y220698D02*
X181701Y221198D01*
Y222198D01*
X182201Y222697D01*
X184200D01*
X184700Y222198D01*
Y221198D01*
X184200Y220698D01*
X182201D01*
X168451Y139349D02*
X167951Y138849D01*
Y137850D01*
X168451Y137350D01*
X170450D01*
X170950Y137850D01*
Y138849D01*
X170450Y139349D01*
X168451Y140349D02*
X167951Y140849D01*
Y141849D01*
X168451Y142348D01*
X168951D01*
X169450Y141849D01*
Y141349D01*
Y141849D01*
X169950Y142348D01*
X170450D01*
X170950Y141849D01*
Y140849D01*
X170450Y140349D01*
X170950Y143348D02*
Y144348D01*
Y143848D01*
X167951D01*
X168451Y143348D01*
X162199Y156699D02*
X161699Y157199D01*
X160700D01*
X160200Y156699D01*
Y154700D01*
X160700Y154200D01*
X161699D01*
X162199Y154700D01*
X163199Y156699D02*
X163699Y157199D01*
X164699D01*
X165198Y156699D01*
Y156199D01*
X164699Y155700D01*
X164199D01*
X164699D01*
X165198Y155200D01*
Y154700D01*
X164699Y154200D01*
X163699D01*
X163199Y154700D01*
X168197Y154200D02*
X166198D01*
X168197Y156199D01*
Y156699D01*
X167698Y157199D01*
X166698D01*
X166198Y156699D01*
X252201Y153599D02*
X251701Y153100D01*
Y152100D01*
X252201Y151600D01*
X254200D01*
X254700Y152100D01*
Y153100D01*
X254200Y153599D01*
X252201Y154599D02*
X251701Y155099D01*
Y156099D01*
X252201Y156598D01*
X252701D01*
X253201Y156099D01*
Y155599D01*
Y156099D01*
X253700Y156598D01*
X254200D01*
X254700Y156099D01*
Y155099D01*
X254200Y154599D01*
X251701Y159597D02*
X252201Y158598D01*
X253201Y157598D01*
X254200D01*
X254700Y158098D01*
Y159098D01*
X254200Y159597D01*
X253700D01*
X253201Y159098D01*
Y157598D01*
X257699Y168599D02*
X257200Y169099D01*
X256200D01*
X255700Y168599D01*
Y166600D01*
X256200Y166100D01*
X257200D01*
X257699Y166600D01*
X258699Y168599D02*
X259199Y169099D01*
X260198D01*
X260698Y168599D01*
Y168099D01*
X260198Y167599D01*
X259699D01*
X260198D01*
X260698Y167100D01*
Y166600D01*
X260198Y166100D01*
X259199D01*
X258699Y166600D01*
X261698Y169099D02*
X263697D01*
Y168599D01*
X261698Y166600D01*
Y166100D01*
X356299Y206599D02*
X355800Y207099D01*
X354800D01*
X354300Y206599D01*
Y204600D01*
X354800Y204100D01*
X355800D01*
X356299Y204600D01*
X358799Y204100D02*
Y207099D01*
X357299Y205599D01*
X359298D01*
X362297Y204100D02*
X360298D01*
X362297Y206099D01*
Y206599D01*
X361798Y207099D01*
X360798D01*
X360298Y206599D01*
X72940Y213700D02*
X75939D01*
Y215199D01*
X75439Y215699D01*
X73439D01*
X72940Y215199D01*
Y213700D01*
X75939Y218698D02*
Y216699D01*
X73939Y218698D01*
X73439D01*
X72940Y218198D01*
Y217199D01*
X73439Y216699D01*
X234751Y105351D02*
X236750D01*
Y106851D01*
X235750D01*
X236750D01*
Y108350D01*
X233751Y105351D02*
Y108350D01*
X232252D01*
X231752Y107850D01*
Y107350D01*
X232252Y106851D01*
X233751D01*
X232252D01*
X231752Y106351D01*
Y105851D01*
X232252Y105351D01*
X233751D01*
X230752Y108350D02*
X229752D01*
X230252D01*
Y105351D01*
X230752Y105851D01*
X204599Y90799D02*
X203600D01*
X204099D01*
Y88300D01*
X203600Y87800D01*
X203100D01*
X202600Y88300D01*
X205599Y87800D02*
X206599D01*
X206099D01*
Y90799D01*
X205599Y90299D01*
X202199Y50099D02*
X201200D01*
X201699D01*
Y47600D01*
X201200Y47100D01*
X200700D01*
X200200Y47600D01*
X204699Y47100D02*
Y50099D01*
X203199Y48599D01*
X205198D01*
X3999Y54999D02*
X3000D01*
X3500D01*
Y52500D01*
X3000Y52000D01*
X2500D01*
X2000Y52500D01*
X6998Y54999D02*
X5999Y54499D01*
X4999Y53500D01*
Y52500D01*
X5499Y52000D01*
X6499D01*
X6998Y52500D01*
Y53000D01*
X6499Y53500D01*
X4999D01*
X5615Y129399D02*
X4615D01*
X5115D01*
Y126900D01*
X4615Y126400D01*
X4116D01*
X3616Y126900D01*
X6615Y129399D02*
X8614D01*
Y128899D01*
X6615Y126900D01*
Y126400D01*
X175501Y225199D02*
Y224200D01*
Y224699D01*
X178000D01*
X178500Y224200D01*
Y223700D01*
X178000Y223200D01*
Y226199D02*
X178500Y226699D01*
Y227698D01*
X178000Y228198D01*
X176001D01*
X175501Y227698D01*
Y226699D01*
X176001Y226199D01*
X176501D01*
X177000Y226699D01*
Y228198D01*
X383399Y137199D02*
X382400D01*
X382899D01*
Y134700D01*
X382400Y134200D01*
X381900D01*
X381400Y134700D01*
X384399Y134200D02*
X385399D01*
X384899D01*
Y137199D01*
X384399Y136699D01*
X386898D02*
X387398Y137199D01*
X388398D01*
X388898Y136699D01*
Y134700D01*
X388398Y134200D01*
X387398D01*
X386898Y134700D01*
Y136699D01*
X338649Y33751D02*
Y34750D01*
Y34251D01*
X336150D01*
X335650Y34750D01*
Y35250D01*
X336150Y35750D01*
X335650Y32751D02*
X338649D01*
Y31251D01*
X338149Y30752D01*
X337150D01*
X336650Y31251D01*
Y32751D01*
X335650Y29752D02*
Y28752D01*
Y29252D01*
X338649D01*
X338149Y29752D01*
X338649Y103751D02*
Y104750D01*
Y104251D01*
X336150D01*
X335650Y104750D01*
Y105250D01*
X336150Y105750D01*
X335650Y102751D02*
X338649D01*
Y101251D01*
X338149Y100752D01*
X337150D01*
X336650Y101251D01*
Y102751D01*
X335650Y97753D02*
Y99752D01*
X337649Y97753D01*
X338149D01*
X338649Y98252D01*
Y99252D01*
X338149Y99752D01*
X266800Y90799D02*
Y87800D01*
X268799D01*
X269799D02*
X270799D01*
X270299D01*
Y90799D01*
X269799Y90299D01*
X248499Y79300D02*
X245500D01*
Y77301D01*
Y74302D02*
Y76301D01*
X247499Y74302D01*
X247999D01*
X248499Y74801D01*
Y75801D01*
X247999Y76301D01*
X265600Y46699D02*
Y43700D01*
X267599D01*
X268599Y46199D02*
X269099Y46699D01*
X270098D01*
X270598Y46199D01*
Y45699D01*
X270098Y45199D01*
X269599D01*
X270098D01*
X270598Y44700D01*
Y44200D01*
X270098Y43700D01*
X269099D01*
X268599Y44200D01*
X169300Y53799D02*
Y50800D01*
X171299D01*
X173799D02*
Y53799D01*
X172299Y52299D01*
X174298D01*
X110300Y46799D02*
Y43800D01*
X112299D01*
X115298Y46799D02*
X113299D01*
Y45300D01*
X114299Y45799D01*
X114799D01*
X115298Y45300D01*
Y44300D01*
X114799Y43800D01*
X113799D01*
X113299Y44300D01*
X97350Y46799D02*
Y43800D01*
X99349D01*
X102348Y46799D02*
X101349Y46299D01*
X100349Y45300D01*
Y44300D01*
X100849Y43800D01*
X101849D01*
X102348Y44300D01*
Y44800D01*
X101849Y45300D01*
X100349D01*
X83600Y46799D02*
Y43800D01*
X85599D01*
X86599Y46799D02*
X88598D01*
Y46299D01*
X86599Y44300D01*
Y43800D01*
X168000Y84099D02*
Y81100D01*
X169999D01*
X170999Y83599D02*
X171499Y84099D01*
X172499D01*
X172998Y83599D01*
Y83099D01*
X172499Y82600D01*
X172998Y82100D01*
Y81600D01*
X172499Y81100D01*
X171499D01*
X170999Y81600D01*
Y82100D01*
X171499Y82600D01*
X170999Y83099D01*
Y83599D01*
X171499Y82600D02*
X172499D01*
X109900Y90599D02*
Y87600D01*
X111899D01*
X112899Y88100D02*
X113399Y87600D01*
X114399D01*
X114898Y88100D01*
Y90099D01*
X114399Y90599D01*
X113399D01*
X112899Y90099D01*
Y89599D01*
X113399Y89100D01*
X114898D01*
X95500Y90599D02*
Y87600D01*
X97499D01*
X98499D02*
X99499D01*
X98999D01*
Y90599D01*
X98499Y90099D01*
X100998D02*
X101498Y90599D01*
X102498D01*
X102998Y90099D01*
Y88100D01*
X102498Y87600D01*
X101498D01*
X100998Y88100D01*
Y90099D01*
X81700Y90599D02*
Y87600D01*
X83699D01*
X84699D02*
X85699D01*
X85199D01*
Y90599D01*
X84699Y90099D01*
X87198Y87600D02*
X88198D01*
X87698D01*
Y90599D01*
X87198Y90099D01*
X290600Y83500D02*
Y86499D01*
X292099D01*
X292599Y85999D01*
Y85000D01*
X292099Y84500D01*
X290600D01*
X291600D02*
X292599Y83500D01*
X293599D02*
X294599D01*
X294099D01*
Y86499D01*
X293599Y85999D01*
X277900Y87800D02*
Y90799D01*
X279399D01*
X279899Y90299D01*
Y89299D01*
X279399Y88800D01*
X277900D01*
X278900D02*
X279899Y87800D01*
X280899Y90299D02*
X281399Y90799D01*
X282399D01*
X282898Y90299D01*
Y89799D01*
X282399Y89299D01*
X281899D01*
X282399D01*
X282898Y88800D01*
Y88300D01*
X282399Y87800D01*
X281399D01*
X280899Y88300D01*
X380700Y52400D02*
X383699D01*
Y50901D01*
X383199Y50401D01*
X382200D01*
X381700Y50901D01*
Y52400D01*
Y51400D02*
X380700Y50401D01*
Y47901D02*
X383699D01*
X382200Y49401D01*
Y47402D01*
X332400Y81000D02*
Y83999D01*
X333899D01*
X334399Y83499D01*
Y82499D01*
X333899Y82000D01*
X332400D01*
X333400D02*
X334399Y81000D01*
X337398Y83999D02*
X335399D01*
Y82499D01*
X336399Y82999D01*
X336898D01*
X337398Y82499D01*
Y81500D01*
X336898Y81000D01*
X335899D01*
X335399Y81500D01*
X189900Y69900D02*
X192899D01*
Y68401D01*
X192399Y67901D01*
X191400D01*
X190900Y68401D01*
Y69900D01*
Y68900D02*
X189900Y67901D01*
X192899Y64902D02*
X192399Y65901D01*
X191400Y66901D01*
X190400D01*
X189900Y66401D01*
Y65401D01*
X190400Y64902D01*
X190900D01*
X191400Y65401D01*
Y66901D01*
X332400Y50400D02*
Y53399D01*
X333899D01*
X334399Y52899D01*
Y51899D01*
X333899Y51400D01*
X332400D01*
X333400D02*
X334399Y50400D01*
X335399Y53399D02*
X337398D01*
Y52899D01*
X335399Y50900D01*
Y50400D01*
X277700Y44200D02*
Y47199D01*
X279200D01*
X279699Y46699D01*
Y45700D01*
X279200Y45200D01*
X277700D01*
X278700D02*
X279699Y44200D01*
X280699Y46699D02*
X281199Y47199D01*
X282199D01*
X282698Y46699D01*
Y46199D01*
X282199Y45700D01*
X282698Y45200D01*
Y44700D01*
X282199Y44200D01*
X281199D01*
X280699Y44700D01*
Y45200D01*
X281199Y45700D01*
X280699Y46199D01*
Y46699D01*
X281199Y45700D02*
X282199D01*
X375973Y95683D02*
X378972D01*
Y94183D01*
X378472Y93683D01*
X377472D01*
X376972Y94183D01*
Y95683D01*
Y94683D02*
X375973Y93683D01*
X376472Y92684D02*
X375973Y92184D01*
Y91184D01*
X376472Y90684D01*
X378472D01*
X378972Y91184D01*
Y92184D01*
X378472Y92684D01*
X377972D01*
X377472Y92184D01*
Y90684D01*
X288100Y47900D02*
Y50899D01*
X289599D01*
X290099Y50399D01*
Y49400D01*
X289599Y48900D01*
X288100D01*
X289100D02*
X290099Y47900D01*
X291099D02*
X292099D01*
X291599D01*
Y50899D01*
X291099Y50399D01*
X293598D02*
X294098Y50899D01*
X295098D01*
X295598Y50399D01*
Y48400D01*
X295098Y47900D01*
X294098D01*
X293598Y48400D01*
Y50399D01*
X182100Y50700D02*
Y53699D01*
X183599D01*
X184099Y53199D01*
Y52200D01*
X183599Y51700D01*
X182100D01*
X183100D02*
X184099Y50700D01*
X185099D02*
X186099D01*
X185599D01*
Y53699D01*
X185099Y53199D01*
X187598Y50700D02*
X188598D01*
X188098D01*
Y53699D01*
X187598Y53199D01*
X123900Y50300D02*
Y53299D01*
X125399D01*
X125899Y52799D01*
Y51799D01*
X125399Y51300D01*
X123900D01*
X124900D02*
X125899Y50300D01*
X126899D02*
X127899D01*
X127399D01*
Y53299D01*
X126899Y52799D01*
X131398Y50300D02*
X129398D01*
X131398Y52299D01*
Y52799D01*
X130898Y53299D01*
X129898D01*
X129398Y52799D01*
X32950Y87150D02*
X29951D01*
Y88649D01*
X30451Y89149D01*
X31450D01*
X31950Y88649D01*
Y87150D01*
Y88150D02*
X32950Y89149D01*
Y90149D02*
Y91149D01*
Y90649D01*
X29951D01*
X30451Y90149D01*
Y92648D02*
X29951Y93148D01*
Y94148D01*
X30451Y94648D01*
X30951D01*
X31450Y94148D01*
Y93648D01*
Y94148D01*
X31950Y94648D01*
X32450D01*
X32950Y94148D01*
Y93148D01*
X32450Y92648D01*
X192000Y81300D02*
X189001D01*
Y82800D01*
X189501Y83299D01*
X190500D01*
X191000Y82800D01*
Y81300D01*
Y82300D02*
X192000Y83299D01*
Y84299D02*
Y85299D01*
Y84799D01*
X189001D01*
X189501Y84299D01*
X189001Y88798D02*
Y86798D01*
X190500D01*
X190001Y87798D01*
Y88298D01*
X190500Y88798D01*
X191500D01*
X192000Y88298D01*
Y87298D01*
X191500Y86798D01*
X123700Y81100D02*
Y84099D01*
X125199D01*
X125699Y83599D01*
Y82600D01*
X125199Y82100D01*
X123700D01*
X124700D02*
X125699Y81100D01*
X126699D02*
X127699D01*
X127199D01*
Y84099D01*
X126699Y83599D01*
X131198Y84099D02*
X130198Y83599D01*
X129198Y82600D01*
Y81600D01*
X129698Y81100D01*
X130698D01*
X131198Y81600D01*
Y82100D01*
X130698Y82600D01*
X129198D01*
X200100Y158800D02*
X203099D01*
Y157300D01*
X202599Y156801D01*
X201600D01*
X201100Y157300D01*
Y158800D01*
Y157800D02*
X200100Y156801D01*
Y155801D02*
Y154801D01*
Y155301D01*
X203099D01*
X202599Y155801D01*
Y153302D02*
X203099Y152802D01*
Y151802D01*
X202599Y151302D01*
X202099D01*
X201600Y151802D01*
X201100Y151302D01*
X200600D01*
X200100Y151802D01*
Y152802D01*
X200600Y153302D01*
X201100D01*
X201600Y152802D01*
X202099Y153302D01*
X202599D01*
X201600Y152802D02*
Y151802D01*
X199800Y145900D02*
X202799D01*
Y144401D01*
X202299Y143901D01*
X201300D01*
X200800Y144401D01*
Y145900D01*
Y144900D02*
X199800Y143901D01*
Y142901D02*
Y141901D01*
Y142401D01*
X202799D01*
X202299Y142901D01*
X200300Y140402D02*
X199800Y139902D01*
Y138902D01*
X200300Y138402D01*
X202299D01*
X202799Y138902D01*
Y139902D01*
X202299Y140402D01*
X201799D01*
X201300Y139902D01*
Y138402D01*
X299100Y117500D02*
X302099D01*
Y116000D01*
X301599Y115501D01*
X300600D01*
X300100Y116000D01*
Y117500D01*
Y116500D02*
X299100Y115501D01*
Y112502D02*
Y114501D01*
X301099Y112502D01*
X301599D01*
X302099Y113001D01*
Y114001D01*
X301599Y114501D01*
Y111502D02*
X302099Y111002D01*
Y110002D01*
X301599Y109503D01*
X299600D01*
X299100Y110002D01*
Y111002D01*
X299600Y111502D01*
X301599D01*
X84200Y212500D02*
X81201D01*
Y214000D01*
X81701Y214499D01*
X82701D01*
X83200Y214000D01*
Y212500D01*
Y213500D02*
X84200Y214499D01*
Y217498D02*
Y215499D01*
X82201Y217498D01*
X81701D01*
X81201Y216999D01*
Y215999D01*
X81701Y215499D01*
X84200Y218498D02*
Y219498D01*
Y218998D01*
X81201D01*
X81701Y218498D01*
X342800Y87699D02*
X344799D01*
X343800D01*
Y84700D01*
X345799D02*
X346799D01*
X346299D01*
Y87699D01*
X345799Y87199D01*
X237200Y48999D02*
X239199D01*
X238200D01*
Y46000D01*
X242198D02*
X240199D01*
X242198Y47999D01*
Y48499D01*
X241699Y48999D01*
X240699D01*
X240199Y48499D01*
X67400Y48399D02*
X69399D01*
X68400D01*
Y45400D01*
X70399Y47899D02*
X70899Y48399D01*
X71899D01*
X72398Y47899D01*
Y47399D01*
X71899Y46900D01*
X71399D01*
X71899D01*
X72398Y46400D01*
Y45900D01*
X71899Y45400D01*
X70899D01*
X70399Y45900D01*
X299400Y79399D02*
Y76900D01*
X299900Y76400D01*
X300900D01*
X301399Y76900D01*
Y79399D01*
X302399Y76400D02*
X303399D01*
X302899D01*
Y79399D01*
X302399Y78899D01*
X148251Y163550D02*
X150750D01*
X151250Y164050D01*
Y165050D01*
X150750Y165549D01*
X148251D01*
X148751Y166549D02*
X148251Y167049D01*
Y168049D01*
X148751Y168548D01*
X149251D01*
X149750Y168049D01*
Y167549D01*
Y168049D01*
X150250Y168548D01*
X150750D01*
X151250Y168049D01*
Y167049D01*
X150750Y166549D01*
X260199Y77701D02*
X260699Y78201D01*
Y79200D01*
X260199Y79700D01*
X258200D01*
X257700Y79200D01*
Y78201D01*
X258200Y77701D01*
X257700Y75201D02*
X260699D01*
X259200Y76701D01*
Y74702D01*
X260699Y73702D02*
Y71703D01*
X260199D01*
X258200Y73702D01*
X257700D01*
X276699Y69301D02*
X277199Y69801D01*
Y70800D01*
X276699Y71300D01*
X274700D01*
X274200Y70800D01*
Y69801D01*
X274700Y69301D01*
X274200Y66801D02*
X277199D01*
X275699Y68301D01*
Y66302D01*
X276699Y65302D02*
X277199Y64802D01*
Y63802D01*
X276699Y63303D01*
X276199D01*
X275699Y63802D01*
X275200Y63303D01*
X274700D01*
X274200Y63802D01*
Y64802D01*
X274700Y65302D01*
X275200D01*
X275699Y64802D01*
X276199Y65302D01*
X276699D01*
X275699Y64802D02*
Y63802D01*
X260299Y60801D02*
X260799Y61300D01*
Y62300D01*
X260299Y62800D01*
X258300D01*
X257800Y62300D01*
Y61300D01*
X258300Y60801D01*
X257800Y58301D02*
X260799D01*
X259299Y59801D01*
Y57802D01*
X258300Y56802D02*
X257800Y56302D01*
Y55302D01*
X258300Y54803D01*
X260299D01*
X260799Y55302D01*
Y56302D01*
X260299Y56802D01*
X259799D01*
X259299Y56302D01*
Y54803D01*
X153301Y102599D02*
X152801Y102100D01*
Y101100D01*
X153301Y100600D01*
X155300D01*
X155800Y101100D01*
Y102100D01*
X155300Y102599D01*
X152801Y105598D02*
Y103599D01*
X154300D01*
X153801Y104599D01*
Y105099D01*
X154300Y105598D01*
X155300D01*
X155800Y105099D01*
Y104099D01*
X155300Y103599D01*
X153301Y106598D02*
X152801Y107098D01*
Y108098D01*
X153301Y108597D01*
X155300D01*
X155800Y108098D01*
Y107098D01*
X155300Y106598D01*
X153301D01*
X142799Y32101D02*
X143299Y32601D01*
Y33600D01*
X142799Y34100D01*
X140800D01*
X140300Y33600D01*
Y32601D01*
X140800Y32101D01*
X143299Y29102D02*
Y31101D01*
X141799D01*
X142299Y30101D01*
Y29601D01*
X141799Y29102D01*
X140800D01*
X140300Y29601D01*
Y30601D01*
X140800Y31101D01*
X140300Y28102D02*
Y27102D01*
Y27602D01*
X143299D01*
X142799Y28102D01*
X145001Y102299D02*
X144501Y101799D01*
Y100800D01*
X145001Y100300D01*
X147000D01*
X147500Y100800D01*
Y101799D01*
X147000Y102299D01*
X144501Y105298D02*
Y103299D01*
X146001D01*
X145501Y104299D01*
Y104799D01*
X146001Y105298D01*
X147000D01*
X147500Y104799D01*
Y103799D01*
X147000Y103299D01*
X147500Y108297D02*
Y106298D01*
X145501Y108297D01*
X145001D01*
X144501Y107798D01*
Y106798D01*
X145001Y106298D01*
X279899Y70799D02*
X278900D01*
X279399D01*
Y68300D01*
X278900Y67800D01*
X278400D01*
X277900Y68300D01*
X280899Y70299D02*
X281399Y70799D01*
X282399D01*
X282898Y70299D01*
Y69799D01*
X282399Y69300D01*
X281899D01*
X282399D01*
X282898Y68800D01*
Y68300D01*
X282399Y67800D01*
X281399D01*
X280899Y68300D01*
X129299Y69201D02*
X129799Y69700D01*
Y70700D01*
X129299Y71200D01*
X127300D01*
X126800Y70700D01*
Y69700D01*
X127300Y69201D01*
X129799Y66202D02*
Y68201D01*
X128299D01*
X128799Y67201D01*
Y66701D01*
X128299Y66202D01*
X127300D01*
X126800Y66701D01*
Y67701D01*
X127300Y68201D01*
X129799Y63203D02*
X129299Y64202D01*
X128299Y65202D01*
X127300D01*
X126800Y64702D01*
Y63702D01*
X127300Y63203D01*
X127800D01*
X128299Y63702D01*
Y65202D01*
X208301Y217000D02*
X211300D01*
Y218499D01*
X210800Y218999D01*
X208801D01*
X208301Y218499D01*
Y217000D01*
X211300Y219999D02*
Y220999D01*
Y220499D01*
X208301D01*
X208801Y219999D01*
X331200Y135999D02*
Y133000D01*
X332699D01*
X333199Y133500D01*
Y135499D01*
X332699Y135999D01*
X331200D01*
X334199Y135499D02*
X334699Y135999D01*
X335699D01*
X336198Y135499D01*
Y134999D01*
X335699Y134500D01*
X335199D01*
X335699D01*
X336198Y134000D01*
Y133500D01*
X335699Y133000D01*
X334699D01*
X334199Y133500D01*
X55700Y47600D02*
X58699D01*
Y46101D01*
X58199Y45601D01*
X57200D01*
X56700Y46101D01*
Y47600D01*
Y46600D02*
X55700Y45601D01*
Y42602D02*
Y44601D01*
X57699Y42602D01*
X58199D01*
X58699Y43101D01*
Y44101D01*
X58199Y44601D01*
X55700Y39603D02*
Y41602D01*
X57699Y39603D01*
X58199D01*
X58699Y40102D01*
Y41102D01*
X58199Y41602D01*
X55900Y96100D02*
X58899D01*
Y94600D01*
X58399Y94101D01*
X57399D01*
X56900Y94600D01*
Y96100D01*
Y95100D02*
X55900Y94101D01*
Y91102D02*
Y93101D01*
X57899Y91102D01*
X58399D01*
X58899Y91601D01*
Y92601D01*
X58399Y93101D01*
Y90102D02*
X58899Y89602D01*
Y88602D01*
X58399Y88103D01*
X57899D01*
X57399Y88602D01*
Y89102D01*
Y88602D01*
X56900Y88103D01*
X56400D01*
X55900Y88602D01*
Y89602D01*
X56400Y90102D01*
X32950Y41800D02*
X29951D01*
Y43299D01*
X30451Y43799D01*
X31450D01*
X31950Y43299D01*
Y41800D01*
Y42800D02*
X32950Y43799D01*
Y46798D02*
Y44799D01*
X30951Y46798D01*
X30451D01*
X29951Y46299D01*
Y45299D01*
X30451Y44799D01*
X32950Y49298D02*
X29951D01*
X31450Y47798D01*
Y49797D01*
X369001Y203199D02*
Y201200D01*
X370500D01*
Y202200D01*
Y201200D01*
X372000D01*
X369001Y204199D02*
X372000D01*
Y205698D01*
X371500Y206198D01*
X371000D01*
X370500Y205698D01*
Y204199D01*
Y205698D01*
X370001Y206198D01*
X369501D01*
X369001Y205698D01*
Y204199D01*
Y209197D02*
X369501Y208198D01*
X370500Y207198D01*
X371500D01*
X372000Y207698D01*
Y208698D01*
X371500Y209197D01*
X371000D01*
X370500Y208698D01*
Y207198D01*
X88001Y214799D02*
Y212800D01*
X89500D01*
Y213800D01*
Y212800D01*
X91000D01*
X88001Y215799D02*
X91000D01*
Y217299D01*
X90500Y217798D01*
X90000D01*
X89500Y217299D01*
Y215799D01*
Y217299D01*
X89001Y217798D01*
X88501D01*
X88001Y217299D01*
Y215799D01*
Y218798D02*
Y220797D01*
X88501D01*
X90500Y218798D01*
X91000D01*
X157501Y36199D02*
Y35200D01*
Y35699D01*
X160000D01*
X160500Y35200D01*
Y34700D01*
X160000Y34200D01*
X157501Y39198D02*
Y37199D01*
X159001D01*
X158501Y38199D01*
Y38699D01*
X159001Y39198D01*
X160000D01*
X160500Y38699D01*
Y37699D01*
X160000Y37199D01*
X182749Y96149D02*
X181750D01*
X182249D01*
Y93650D01*
X181750Y93150D01*
X181250D01*
X180750Y93650D01*
X183749Y95649D02*
X184249Y96149D01*
X185249D01*
X185748Y95649D01*
Y95149D01*
X185249Y94649D01*
X185748Y94150D01*
Y93650D01*
X185249Y93150D01*
X184249D01*
X183749Y93650D01*
Y94150D01*
X184249Y94649D01*
X183749Y95149D01*
Y95649D01*
X184249Y94649D02*
X185249D01*
X196800Y82500D02*
X193801D01*
Y84000D01*
X194301Y84499D01*
X195300D01*
X195800Y84000D01*
Y82500D01*
Y83500D02*
X196800Y84499D01*
Y85499D02*
Y86499D01*
Y85999D01*
X193801D01*
X194301Y85499D01*
X196800Y89498D02*
X193801D01*
X195300Y87998D01*
Y89998D01*
X201200Y71000D02*
Y73999D01*
X202699D01*
X203199Y73499D01*
Y72500D01*
X202699Y72000D01*
X201200D01*
X202200D02*
X203199Y71000D01*
X204199D02*
X205199D01*
X204699D01*
Y73999D01*
X204199Y73499D01*
X206698Y73999D02*
X208698D01*
Y73499D01*
X206698Y71500D01*
Y71000D01*
X196900Y45900D02*
X193901D01*
Y47400D01*
X194401Y47899D01*
X195401D01*
X195900Y47400D01*
Y45900D01*
Y46900D02*
X196900Y47899D01*
Y50898D02*
Y48899D01*
X194901Y50898D01*
X194401D01*
X193901Y50399D01*
Y49399D01*
X194401Y48899D01*
X193901Y53897D02*
Y51898D01*
X195401D01*
X194901Y52898D01*
Y53398D01*
X195401Y53897D01*
X196400D01*
X196900Y53398D01*
Y52398D01*
X196400Y51898D01*
X218700Y32900D02*
Y35899D01*
X220199D01*
X220699Y35399D01*
Y34400D01*
X220199Y33900D01*
X218700D01*
X219700D02*
X220699Y32900D01*
X223698D02*
X221699D01*
X223698Y34899D01*
Y35399D01*
X223199Y35899D01*
X222199D01*
X221699Y35399D01*
X224698D02*
X225198Y35899D01*
X226198D01*
X226697Y35399D01*
Y34899D01*
X226198Y34400D01*
X226697Y33900D01*
Y33400D01*
X226198Y32900D01*
X225198D01*
X224698Y33400D01*
Y33900D01*
X225198Y34400D01*
X224698Y34899D01*
Y35399D01*
X225198Y34400D02*
X226198D01*
X219300Y98600D02*
Y101599D01*
X220799D01*
X221299Y101099D01*
Y100100D01*
X220799Y99600D01*
X219300D01*
X220300D02*
X221299Y98600D01*
X222299Y101099D02*
X222799Y101599D01*
X223798D01*
X224298Y101099D01*
Y100599D01*
X223798Y100100D01*
X223299D01*
X223798D01*
X224298Y99600D01*
Y99100D01*
X223798Y98600D01*
X222799D01*
X222299Y99100D01*
X225298Y98600D02*
X226298D01*
X225798D01*
Y101599D01*
X225298Y101099D01*
X229100Y134300D02*
Y137299D01*
X230599D01*
X231099Y136799D01*
Y135800D01*
X230599Y135300D01*
X229100D01*
X230100D02*
X231099Y134300D01*
X232099Y136799D02*
X232599Y137299D01*
X233598D01*
X234098Y136799D01*
Y136299D01*
X233598Y135800D01*
X233099D01*
X233598D01*
X234098Y135300D01*
Y134800D01*
X233598Y134300D01*
X232599D01*
X232099Y134800D01*
X237097Y134300D02*
X235098D01*
X237097Y136299D01*
Y136799D01*
X236598Y137299D01*
X235598D01*
X235098Y136799D01*
X282600Y167000D02*
Y169999D01*
X284100D01*
X284599Y169499D01*
Y168500D01*
X284100Y168000D01*
X282600D01*
X283600D02*
X284599Y167000D01*
X285599Y169499D02*
X286099Y169999D01*
X287099D01*
X287598Y169499D01*
Y168999D01*
X287099Y168500D01*
X286599D01*
X287099D01*
X287598Y168000D01*
Y167500D01*
X287099Y167000D01*
X286099D01*
X285599Y167500D01*
X288598Y169499D02*
X289098Y169999D01*
X290098D01*
X290597Y169499D01*
Y168999D01*
X290098Y168500D01*
X289598D01*
X290098D01*
X290597Y168000D01*
Y167500D01*
X290098Y167000D01*
X289098D01*
X288598Y167500D01*
X291600Y141700D02*
X288601D01*
Y143200D01*
X289101Y143699D01*
X290101D01*
X290600Y143200D01*
Y141700D01*
Y142700D02*
X291600Y143699D01*
X289101Y144699D02*
X288601Y145199D01*
Y146199D01*
X289101Y146698D01*
X289601D01*
X290101Y146199D01*
Y145699D01*
Y146199D01*
X290600Y146698D01*
X291100D01*
X291600Y146199D01*
Y145199D01*
X291100Y144699D01*
X291600Y149198D02*
X288601D01*
X290101Y147698D01*
Y149697D01*
X36200Y148600D02*
X33201D01*
Y150100D01*
X33701Y150599D01*
X34701D01*
X35200Y150100D01*
Y148600D01*
Y149600D02*
X36200Y150599D01*
X33701Y151599D02*
X33201Y152099D01*
Y153099D01*
X33701Y153598D01*
X34201D01*
X34701Y153099D01*
Y152599D01*
Y153099D01*
X35200Y153598D01*
X35700D01*
X36200Y153099D01*
Y152099D01*
X35700Y151599D01*
X33201Y156597D02*
Y154598D01*
X34701D01*
X34201Y155598D01*
Y156098D01*
X34701Y156597D01*
X35700D01*
X36200Y156098D01*
Y155098D01*
X35700Y154598D01*
X36500Y211300D02*
X33501D01*
Y212800D01*
X34001Y213299D01*
X35001D01*
X35500Y212800D01*
Y211300D01*
Y212300D02*
X36500Y213299D01*
X34001Y214299D02*
X33501Y214799D01*
Y215798D01*
X34001Y216298D01*
X34501D01*
X35001Y215798D01*
Y215299D01*
Y215798D01*
X35500Y216298D01*
X36000D01*
X36500Y215798D01*
Y214799D01*
X36000Y214299D01*
X33501Y219297D02*
X34001Y218298D01*
X35001Y217298D01*
X36000D01*
X36500Y217798D01*
Y218798D01*
X36000Y219297D01*
X35500D01*
X35001Y218798D01*
Y217298D01*
X47000Y148700D02*
X44001D01*
Y150199D01*
X44501Y150699D01*
X45500D01*
X46000Y150199D01*
Y148700D01*
Y149700D02*
X47000Y150699D01*
X44501Y151699D02*
X44001Y152199D01*
Y153199D01*
X44501Y153698D01*
X45001D01*
X45500Y153199D01*
Y152699D01*
Y153199D01*
X46000Y153698D01*
X46500D01*
X47000Y153199D01*
Y152199D01*
X46500Y151699D01*
X44001Y154698D02*
Y156697D01*
X44501D01*
X46500Y154698D01*
X47000D01*
X46700Y211300D02*
X43701D01*
Y212800D01*
X44201Y213299D01*
X45200D01*
X45700Y212800D01*
Y211300D01*
Y212300D02*
X46700Y213299D01*
X44201Y214299D02*
X43701Y214799D01*
Y215798D01*
X44201Y216298D01*
X44701D01*
X45200Y215798D01*
Y215299D01*
Y215798D01*
X45700Y216298D01*
X46200D01*
X46700Y215798D01*
Y214799D01*
X46200Y214299D01*
X44201Y217298D02*
X43701Y217798D01*
Y218798D01*
X44201Y219297D01*
X44701D01*
X45200Y218798D01*
X45700Y219297D01*
X46200D01*
X46700Y218798D01*
Y217798D01*
X46200Y217298D01*
X45700D01*
X45200Y217798D01*
X44701Y217298D01*
X44201D01*
X45200Y217798D02*
Y218798D01*
X56700Y148900D02*
X53701D01*
Y150399D01*
X54201Y150899D01*
X55200D01*
X55700Y150399D01*
Y148900D01*
Y149900D02*
X56700Y150899D01*
X54201Y151899D02*
X53701Y152399D01*
Y153399D01*
X54201Y153898D01*
X54701D01*
X55200Y153399D01*
Y152899D01*
Y153399D01*
X55700Y153898D01*
X56200D01*
X56700Y153399D01*
Y152399D01*
X56200Y151899D01*
Y154898D02*
X56700Y155398D01*
Y156398D01*
X56200Y156897D01*
X54201D01*
X53701Y156398D01*
Y155398D01*
X54201Y154898D01*
X54701D01*
X55200Y155398D01*
Y156897D01*
X56900Y211700D02*
X53901D01*
Y213199D01*
X54401Y213699D01*
X55401D01*
X55900Y213199D01*
Y211700D01*
Y212700D02*
X56900Y213699D01*
Y216198D02*
X53901D01*
X55401Y214699D01*
Y216698D01*
X54401Y217698D02*
X53901Y218198D01*
Y219198D01*
X54401Y219697D01*
X56400D01*
X56900Y219198D01*
Y218198D01*
X56400Y217698D01*
X54401D01*
X311000Y186700D02*
X313999D01*
Y185201D01*
X313499Y184701D01*
X312499D01*
X312000Y185201D01*
Y186700D01*
Y185700D02*
X311000Y184701D01*
Y182201D02*
X313999D01*
X312499Y183701D01*
Y181702D01*
X311000Y180702D02*
Y179702D01*
Y180202D01*
X313999D01*
X313499Y180702D01*
X67200Y148800D02*
X64201D01*
Y150300D01*
X64701Y150799D01*
X65701D01*
X66200Y150300D01*
Y148800D01*
Y149800D02*
X67200Y150799D01*
Y153299D02*
X64201D01*
X65701Y151799D01*
Y153798D01*
X67200Y156797D02*
Y154798D01*
X65201Y156797D01*
X64701D01*
X64201Y156298D01*
Y155298D01*
X64701Y154798D01*
X66600Y211700D02*
X63601D01*
Y213199D01*
X64101Y213699D01*
X65101D01*
X65600Y213199D01*
Y211700D01*
Y212700D02*
X66600Y213699D01*
Y216198D02*
X63601D01*
X65101Y214699D01*
Y216698D01*
X64101Y217698D02*
X63601Y218198D01*
Y219198D01*
X64101Y219697D01*
X64601D01*
X65101Y219198D01*
Y218698D01*
Y219198D01*
X65600Y219697D01*
X66100D01*
X66600Y219198D01*
Y218198D01*
X66100Y217698D01*
X77300Y148700D02*
X74301D01*
Y150199D01*
X74801Y150699D01*
X75801D01*
X76300Y150199D01*
Y148700D01*
Y149700D02*
X77300Y150699D01*
Y153199D02*
X74301D01*
X75801Y151699D01*
Y153698D01*
X77300Y156198D02*
X74301D01*
X75801Y154698D01*
Y156697D01*
X311400Y150300D02*
X314399D01*
Y148801D01*
X313899Y148301D01*
X312899D01*
X312400Y148801D01*
Y150300D01*
Y149300D02*
X311400Y148301D01*
Y145801D02*
X314399D01*
X312899Y147301D01*
Y145302D01*
X314399Y142303D02*
Y144302D01*
X312899D01*
X313399Y143302D01*
Y142802D01*
X312899Y142303D01*
X311900D01*
X311400Y142802D01*
Y143802D01*
X311900Y144302D01*
X245951Y169750D02*
X248450D01*
X248950Y170250D01*
Y171249D01*
X248450Y171749D01*
X245951D01*
X248950Y174249D02*
X245951D01*
X247450Y172749D01*
Y174748D01*
X318550Y208949D02*
Y206450D01*
X319050Y205950D01*
X320050D01*
X320549Y206450D01*
Y208949D01*
X323548D02*
X321549D01*
Y207450D01*
X322549Y207949D01*
X323048D01*
X323548Y207450D01*
Y206450D01*
X323048Y205950D01*
X322049D01*
X321549Y206450D01*
X136500Y86699D02*
Y84200D01*
X137000Y83700D01*
X137999D01*
X138499Y84200D01*
Y86699D01*
X141498Y83700D02*
X139499D01*
X141498Y85699D01*
Y86199D01*
X140999Y86699D01*
X139999D01*
X139499Y86199D01*
M02*
