%FSLAX25Y25*%
%MOIN*%
G70*
G01*
G75*
G04 Layer_Color=65535*
%ADD10R,0.10000X0.06496*%
%ADD11R,0.06299X0.11811*%
G04:AMPARAMS|DCode=12|XSize=118.11mil|YSize=62.99mil|CornerRadius=15.75mil|HoleSize=0mil|Usage=FLASHONLY|Rotation=270.000|XOffset=0mil|YOffset=0mil|HoleType=Round|Shape=RoundedRectangle|*
%AMROUNDEDRECTD12*
21,1,0.11811,0.03150,0,0,270.0*
21,1,0.08661,0.06299,0,0,270.0*
1,1,0.03150,-0.01575,-0.04331*
1,1,0.03150,-0.01575,0.04331*
1,1,0.03150,0.01575,0.04331*
1,1,0.03150,0.01575,-0.04331*
%
%ADD12ROUNDEDRECTD12*%
%ADD13R,0.11811X0.06299*%
G04:AMPARAMS|DCode=14|XSize=118.11mil|YSize=62.99mil|CornerRadius=15.75mil|HoleSize=0mil|Usage=FLASHONLY|Rotation=0.000|XOffset=0mil|YOffset=0mil|HoleType=Round|Shape=RoundedRectangle|*
%AMROUNDEDRECTD14*
21,1,0.11811,0.03150,0,0,0.0*
21,1,0.08661,0.06299,0,0,0.0*
1,1,0.03150,0.04331,-0.01575*
1,1,0.03150,-0.04331,-0.01575*
1,1,0.03150,-0.04331,0.01575*
1,1,0.03150,0.04331,0.01575*
%
%ADD14ROUNDEDRECTD14*%
%ADD15R,0.05709X0.04331*%
%ADD16R,0.04331X0.05709*%
%ADD17R,0.23622X0.31496*%
%ADD18R,0.14173X0.04331*%
%ADD19R,0.31496X0.23622*%
%ADD20R,0.04331X0.14173*%
%ADD21R,0.02953X0.03740*%
%ADD22R,0.03740X0.02953*%
%ADD23R,0.12598X0.12598*%
%ADD24O,0.00984X0.03740*%
%ADD25O,0.03740X0.00984*%
%ADD26R,0.05906X0.05906*%
%ADD27O,0.03543X0.00984*%
%ADD28O,0.00984X0.03543*%
%ADD29R,0.20000X0.10500*%
%ADD30R,0.20000X0.07000*%
%ADD31C,0.00787*%
%ADD32C,0.03937*%
%ADD33C,0.05906*%
%ADD34C,0.01000*%
%ADD35O,0.05906X0.07874*%
%ADD36R,0.05906X0.07874*%
%ADD37O,0.05906X0.07874*%
%ADD38C,0.07874*%
%ADD39P,0.10653X8X292.5*%
%ADD40P,0.10653X8X202.5*%
%ADD41C,0.02362*%
%ADD42C,0.11811*%
%ADD43C,0.02500*%
%ADD44C,0.02598*%
%ADD45C,0.02000*%
%ADD46C,0.02300*%
%ADD47C,0.02362*%
%ADD48C,0.00984*%
%ADD49C,0.00500*%
D31*
X1164594Y424346D02*
X1176406D01*
X1164594Y455054D02*
X1176406D01*
X1033595D02*
X1045405D01*
X1033595Y424346D02*
X1045405D01*
X868095Y424646D02*
X879906D01*
X868095Y455354D02*
X879906D01*
X842000Y567400D02*
X942000D01*
Y546400D02*
Y566900D01*
X842000Y546400D02*
X942000D01*
X842000D02*
Y559400D01*
Y554400D02*
Y567400D01*
X956390Y574800D02*
X984480D01*
Y603000D01*
X956390Y574800D02*
Y603000D01*
X984480D01*
X1173500Y512620D02*
Y540710D01*
Y512620D02*
X1201700D01*
X1173500Y540710D02*
X1201700D01*
Y512620D02*
Y540710D01*
X981300Y570200D02*
X992200D01*
Y535400D02*
Y570200D01*
X981300Y535400D02*
X992200D01*
X1079000Y576400D02*
X1089900D01*
Y541600D02*
Y576400D01*
X1079000Y541600D02*
X1089900D01*
X1164400Y549200D02*
Y560100D01*
X1129600Y549200D02*
X1164400D01*
X1129600D02*
Y560100D01*
X1103606Y450224D02*
X1104394D01*
X1103606Y453176D02*
X1104394D01*
X1091606Y454224D02*
X1092394D01*
X1091606Y457176D02*
X1092394D01*
X1187124Y421906D02*
Y422694D01*
X1190076Y421906D02*
Y422694D01*
X1146106Y448224D02*
X1146894D01*
X1146106Y451176D02*
X1146894D01*
X1000676Y439506D02*
Y440294D01*
X997724Y439506D02*
Y440294D01*
X1146106Y428224D02*
X1146894D01*
X1146106Y431176D02*
X1146894D01*
X1091606Y422224D02*
X1092394D01*
X1091606Y425176D02*
X1092394D01*
X1180724Y465406D02*
Y466194D01*
X1183676Y465406D02*
Y466194D01*
X1103606Y426224D02*
X1104394D01*
X1103606Y429176D02*
X1104394D01*
X995606Y428524D02*
X996394D01*
X995606Y431476D02*
X996394D01*
X939106Y428024D02*
X939894D01*
X939106Y430976D02*
X939894D01*
X851106Y459424D02*
X851894D01*
X851106Y462376D02*
X851894D01*
X995606Y448524D02*
X996394D01*
X995606Y451476D02*
X996394D01*
X939106Y448024D02*
X939894D01*
X939106Y450976D02*
X939894D01*
X1009676Y527406D02*
Y528194D01*
X1006724Y527406D02*
Y528194D01*
X1009676Y514006D02*
Y514794D01*
X1006724Y514006D02*
Y514794D01*
X1116824Y485906D02*
Y486694D01*
X1119776Y485906D02*
Y486694D01*
X892624Y578006D02*
Y578794D01*
X895576Y578006D02*
Y578794D01*
X864376Y415106D02*
Y415894D01*
X861424Y415106D02*
Y415894D01*
Y463656D02*
Y464443D01*
X864376Y463656D02*
Y464443D01*
X851106Y420126D02*
X851894D01*
X851106Y417173D02*
X851894D01*
X1005524Y446006D02*
Y446794D01*
X1008476Y446006D02*
Y446794D01*
X1016006Y441376D02*
X1016794D01*
X1016006Y438424D02*
X1016794D01*
X1005524Y433206D02*
Y433994D01*
X1008476Y433206D02*
Y433994D01*
X1034106Y411024D02*
X1034894D01*
X1034106Y413976D02*
X1034894D01*
X1034106Y465257D02*
X1034894D01*
X1034106Y468210D02*
X1034894D01*
X1045024Y498406D02*
Y499194D01*
X1047976Y498406D02*
Y499194D01*
X1098276Y530906D02*
Y531694D01*
X1095324Y530906D02*
Y531694D01*
X1098176Y518106D02*
Y518894D01*
X1095224Y518106D02*
Y518894D01*
X844824Y536606D02*
Y537394D01*
X847776Y536606D02*
Y537394D01*
X845224Y575906D02*
Y576694D01*
X848176Y575906D02*
Y576694D01*
X855049Y536606D02*
Y537394D01*
X858001Y536606D02*
Y537394D01*
X855324Y575906D02*
Y576694D01*
X858276Y575906D02*
Y576694D01*
X865274Y536606D02*
Y537394D01*
X868226Y536606D02*
Y537394D01*
X865424Y575906D02*
Y576694D01*
X868376Y575906D02*
Y576694D01*
X1125976Y543806D02*
Y544594D01*
X1123024Y543806D02*
Y544594D01*
X875499Y536606D02*
Y537394D01*
X878451Y536606D02*
Y537394D01*
X875524Y575906D02*
Y576694D01*
X878476Y575906D02*
Y576694D01*
X885724Y536606D02*
Y537394D01*
X888676Y536606D02*
Y537394D01*
X1125976Y530106D02*
Y530894D01*
X1123024Y530106D02*
Y530894D01*
X972336Y447972D02*
Y450236D01*
X970072D02*
X972336D01*
X951864D02*
X954128D01*
X951864Y447972D02*
Y450236D01*
Y429764D02*
Y432028D01*
Y429764D02*
X954128D01*
X970072D02*
X972336D01*
Y432028D01*
X1097996Y445409D02*
X1098291D01*
Y445704D01*
Y433696D02*
Y433991D01*
X1097996D02*
X1098291D01*
X1109709D02*
X1110004D01*
X1109709Y433696D02*
Y433991D01*
Y445409D02*
Y445704D01*
Y445409D02*
X1110004D01*
X1079606Y454224D02*
X1080394D01*
X1079606Y457176D02*
X1080394D01*
X1059976Y439306D02*
Y440094D01*
X1057024Y439306D02*
Y440094D01*
X1079606Y422224D02*
X1080394D01*
X1079606Y425176D02*
X1080394D01*
X983606Y428524D02*
X984394D01*
X983606Y431476D02*
X984394D01*
X925106Y428024D02*
X925894D01*
X925106Y430976D02*
X925894D01*
X911106Y428024D02*
X911894D01*
X911106Y430976D02*
X911894D01*
X897106Y428024D02*
X897894D01*
X897106Y430976D02*
X897894D01*
X983606Y448524D02*
X984394D01*
X983606Y451476D02*
X984394D01*
X925106Y448024D02*
X925894D01*
X925106Y450976D02*
X925894D01*
X911106Y448024D02*
X911894D01*
X911106Y450976D02*
X911894D01*
X897106Y448024D02*
X897894D01*
X897106Y450976D02*
X897894D01*
X1067606Y454224D02*
X1068394D01*
X1067606Y457176D02*
X1068394D01*
X1150976Y439306D02*
Y440094D01*
X1148024Y439306D02*
Y440094D01*
X1142976Y439306D02*
Y440094D01*
X1140024Y439306D02*
Y440094D01*
X1063024Y439306D02*
Y440094D01*
X1065976Y439306D02*
Y440094D01*
X1067606Y422224D02*
X1068394D01*
X1067606Y425176D02*
X1068394D01*
X1034106Y458224D02*
X1034894D01*
X1034106Y461176D02*
X1034894D01*
X925106Y422024D02*
X925894D01*
X925106Y424976D02*
X925894D01*
X911106Y422024D02*
X911894D01*
X911106Y424976D02*
X911894D01*
X897106Y422024D02*
X897894D01*
X897106Y424976D02*
X897894D01*
X993476Y439606D02*
Y440394D01*
X990524Y439606D02*
Y440394D01*
X981476Y439606D02*
Y440394D01*
X978524Y439606D02*
Y440394D01*
X937476Y439606D02*
Y440394D01*
X934524Y439606D02*
Y440394D01*
X923476Y439606D02*
Y440394D01*
X920524Y439606D02*
Y440394D01*
X909476Y439606D02*
Y440394D01*
X906524Y439606D02*
Y440394D01*
X895827Y439306D02*
Y440094D01*
X892874Y439306D02*
Y440094D01*
X925106Y454024D02*
X925894D01*
X925106Y456976D02*
X925894D01*
X911106Y454024D02*
X911894D01*
X911106Y456976D02*
X911894D01*
X897106Y454024D02*
X897894D01*
X897106Y456976D02*
X897894D01*
X847906Y438324D02*
X848694D01*
X847906Y441276D02*
X848694D01*
X942524Y439606D02*
Y440394D01*
X945476Y439606D02*
Y440394D01*
D34*
X1043002Y571097D02*
G03*
X1043002Y588703I-4402J8803D01*
G01*
X1034198D02*
G03*
X1034198Y571097I4402J-8803D01*
G01*
X988498Y528403D02*
G03*
X988498Y510797I4402J-8803D01*
G01*
X997302D02*
G03*
X997302Y528403I-4402J8803D01*
G01*
X1086303Y522802D02*
G03*
X1068697Y522802I-8803J-4402D01*
G01*
Y513998D02*
G03*
X1086303Y513998I8803J4402D01*
G01*
X1180002Y549497D02*
G03*
X1180002Y567103I-4402J8803D01*
G01*
X1171198D02*
G03*
X1171198Y549497I4402J-8803D01*
G01*
X1113146Y408800D02*
X1143854D01*
X1113146Y398600D02*
Y408800D01*
Y398600D02*
X1143854D01*
Y408800D01*
X1113146Y478800D02*
X1143854D01*
X1113146Y468600D02*
Y478800D01*
Y468600D02*
X1143854D01*
Y478800D01*
X1017100Y587300D02*
X1026100D01*
X1017100Y571300D02*
Y587300D01*
X1026100Y571300D02*
Y587300D01*
X1017100Y569800D02*
Y571300D01*
Y569800D02*
X1026100D01*
X1017100Y571300D02*
X1026100D01*
Y569800D02*
Y571300D01*
X1155800Y510900D02*
Y519900D01*
X1139800D02*
X1155800D01*
X1139800Y510900D02*
X1155800D01*
X1138300Y519900D02*
X1139800D01*
X1138300Y510900D02*
Y519900D01*
X1139800Y510900D02*
Y519900D01*
X1138300Y510900D02*
X1139800D01*
X832202Y553099D02*
Y551099D01*
Y552099D01*
X837200D01*
X838200Y551099D01*
Y550100D01*
X837200Y549100D01*
X838200Y555098D02*
Y557097D01*
Y556098D01*
X832202D01*
X833202Y555098D01*
X838200Y560096D02*
Y562096D01*
Y561096D01*
X832202D01*
X833202Y560096D01*
X1199198Y405501D02*
Y407501D01*
Y406501D01*
X1194200D01*
X1193200Y407501D01*
Y408500D01*
X1194200Y409500D01*
X1193200Y399503D02*
Y403502D01*
X1197199Y399503D01*
X1198198D01*
X1199198Y400503D01*
Y402502D01*
X1198198Y403502D01*
X811700Y372500D02*
X1204200D01*
Y605600D01*
X811700D02*
X1204200D01*
X811700Y372500D02*
Y605600D01*
D47*
X1173650Y428283D02*
G03*
X1173650Y428283I-1181J0D01*
G01*
X1042650D02*
G03*
X1042650Y428283I-1181J0D01*
G01*
X877150Y428583D02*
G03*
X877150Y428583I-1181J0D01*
G01*
D48*
X976175Y434094D02*
G03*
X976175Y434094I-492J0D01*
G01*
X1107445Y449936D02*
G03*
X1107445Y449936I-492J0D01*
G01*
D49*
X948200Y459199D02*
Y456700D01*
X948700Y456200D01*
X949699D01*
X950199Y456700D01*
Y459199D01*
X953198Y456200D02*
X951199D01*
X953198Y458199D01*
Y458699D01*
X952699Y459199D01*
X951699D01*
X951199Y458699D01*
X1130250Y581449D02*
Y578950D01*
X1130750Y578450D01*
X1131750D01*
X1132249Y578950D01*
Y581449D01*
X1135248D02*
X1133249D01*
Y579950D01*
X1134249Y580449D01*
X1134749D01*
X1135248Y579950D01*
Y578950D01*
X1134749Y578450D01*
X1133749D01*
X1133249Y578950D01*
X1057651Y542250D02*
X1060150D01*
X1060650Y542750D01*
Y543750D01*
X1060150Y544249D01*
X1057651D01*
X1060650Y546748D02*
X1057651D01*
X1059151Y545249D01*
Y547248D01*
X1123100Y522800D02*
X1126099D01*
Y521301D01*
X1125599Y520801D01*
X1124599D01*
X1124100Y521301D01*
Y522800D01*
Y521800D02*
X1123100Y520801D01*
Y518301D02*
X1126099D01*
X1124599Y519801D01*
Y517802D01*
X1126099Y514803D02*
Y516802D01*
X1124599D01*
X1125099Y515802D01*
Y515302D01*
X1124599Y514803D01*
X1123600D01*
X1123100Y515302D01*
Y516302D01*
X1123600Y516802D01*
X889000Y521200D02*
X886001D01*
Y522699D01*
X886501Y523199D01*
X887500D01*
X888000Y522699D01*
Y521200D01*
Y522200D02*
X889000Y523199D01*
Y525699D02*
X886001D01*
X887500Y524199D01*
Y526198D01*
X889000Y528698D02*
X886001D01*
X887500Y527198D01*
Y529197D01*
X878300Y584200D02*
X875301D01*
Y585700D01*
X875801Y586199D01*
X876801D01*
X877300Y585700D01*
Y584200D01*
Y585200D02*
X878300Y586199D01*
Y588698D02*
X875301D01*
X876801Y587199D01*
Y589198D01*
X875801Y590198D02*
X875301Y590698D01*
Y591698D01*
X875801Y592197D01*
X876301D01*
X876801Y591698D01*
Y591198D01*
Y591698D01*
X877300Y592197D01*
X877800D01*
X878300Y591698D01*
Y590698D01*
X877800Y590198D01*
X878900Y521300D02*
X875901D01*
Y522799D01*
X876401Y523299D01*
X877400D01*
X877900Y522799D01*
Y521300D01*
Y522300D02*
X878900Y523299D01*
Y525799D02*
X875901D01*
X877400Y524299D01*
Y526298D01*
X878900Y529297D02*
Y527298D01*
X876901Y529297D01*
X876401D01*
X875901Y528798D01*
Y527798D01*
X876401Y527298D01*
X1122700Y559200D02*
X1125699D01*
Y557700D01*
X1125199Y557201D01*
X1124199D01*
X1123700Y557700D01*
Y559200D01*
Y558200D02*
X1122700Y557201D01*
Y554702D02*
X1125699D01*
X1124199Y556201D01*
Y554202D01*
X1122700Y553202D02*
Y552202D01*
Y552702D01*
X1125699D01*
X1125199Y553202D01*
X868600Y584200D02*
X865601D01*
Y585700D01*
X866101Y586199D01*
X867101D01*
X867600Y585700D01*
Y584200D01*
Y585200D02*
X868600Y586199D01*
Y588698D02*
X865601D01*
X867101Y587199D01*
Y589198D01*
X866101Y590198D02*
X865601Y590698D01*
Y591698D01*
X866101Y592197D01*
X868100D01*
X868600Y591698D01*
Y590698D01*
X868100Y590198D01*
X866101D01*
X868400Y521400D02*
X865401D01*
Y522899D01*
X865901Y523399D01*
X866901D01*
X867400Y522899D01*
Y521400D01*
Y522400D02*
X868400Y523399D01*
X865901Y524399D02*
X865401Y524899D01*
Y525899D01*
X865901Y526398D01*
X866401D01*
X866901Y525899D01*
Y525399D01*
Y525899D01*
X867400Y526398D01*
X867900D01*
X868400Y525899D01*
Y524899D01*
X867900Y524399D01*
Y527398D02*
X868400Y527898D01*
Y528898D01*
X867900Y529397D01*
X865901D01*
X865401Y528898D01*
Y527898D01*
X865901Y527398D01*
X866401D01*
X866901Y527898D01*
Y529397D01*
X858400Y583800D02*
X855401D01*
Y585299D01*
X855901Y585799D01*
X856901D01*
X857400Y585299D01*
Y583800D01*
Y584800D02*
X858400Y585799D01*
X855901Y586799D02*
X855401Y587299D01*
Y588299D01*
X855901Y588798D01*
X856401D01*
X856901Y588299D01*
Y587799D01*
Y588299D01*
X857400Y588798D01*
X857900D01*
X858400Y588299D01*
Y587299D01*
X857900Y586799D01*
X855901Y589798D02*
X855401Y590298D01*
Y591298D01*
X855901Y591797D01*
X856401D01*
X856901Y591298D01*
X857400Y591797D01*
X857900D01*
X858400Y591298D01*
Y590298D01*
X857900Y589798D01*
X857400D01*
X856901Y590298D01*
X856401Y589798D01*
X855901D01*
X856901Y590298D02*
Y591298D01*
X858700Y521200D02*
X855701D01*
Y522699D01*
X856201Y523199D01*
X857201D01*
X857700Y522699D01*
Y521200D01*
Y522200D02*
X858700Y523199D01*
X856201Y524199D02*
X855701Y524699D01*
Y525699D01*
X856201Y526198D01*
X856701D01*
X857201Y525699D01*
Y525199D01*
Y525699D01*
X857700Y526198D01*
X858200D01*
X858700Y525699D01*
Y524699D01*
X858200Y524199D01*
X855701Y527198D02*
Y529197D01*
X856201D01*
X858200Y527198D01*
X858700D01*
X848200Y583800D02*
X845201D01*
Y585299D01*
X845701Y585799D01*
X846700D01*
X847200Y585299D01*
Y583800D01*
Y584800D02*
X848200Y585799D01*
X845701Y586799D02*
X845201Y587299D01*
Y588299D01*
X845701Y588798D01*
X846201D01*
X846700Y588299D01*
Y587799D01*
Y588299D01*
X847200Y588798D01*
X847700D01*
X848200Y588299D01*
Y587299D01*
X847700Y586799D01*
X845201Y591797D02*
X845701Y590798D01*
X846700Y589798D01*
X847700D01*
X848200Y590298D01*
Y591298D01*
X847700Y591797D01*
X847200D01*
X846700Y591298D01*
Y589798D01*
X847900Y521100D02*
X844901D01*
Y522600D01*
X845401Y523099D01*
X846401D01*
X846900Y522600D01*
Y521100D01*
Y522100D02*
X847900Y523099D01*
X845401Y524099D02*
X844901Y524599D01*
Y525598D01*
X845401Y526098D01*
X845901D01*
X846401Y525598D01*
Y525099D01*
Y525598D01*
X846900Y526098D01*
X847400D01*
X847900Y525598D01*
Y524599D01*
X847400Y524099D01*
X844901Y529097D02*
Y527098D01*
X846401D01*
X845901Y528098D01*
Y528598D01*
X846401Y529097D01*
X847400D01*
X847900Y528598D01*
Y527598D01*
X847400Y527098D01*
X1103300Y514200D02*
X1100301D01*
Y515699D01*
X1100801Y516199D01*
X1101801D01*
X1102300Y515699D01*
Y514200D01*
Y515200D02*
X1103300Y516199D01*
X1100801Y517199D02*
X1100301Y517699D01*
Y518699D01*
X1100801Y519198D01*
X1101301D01*
X1101801Y518699D01*
Y518199D01*
Y518699D01*
X1102300Y519198D01*
X1102800D01*
X1103300Y518699D01*
Y517699D01*
X1102800Y517199D01*
X1103300Y521698D02*
X1100301D01*
X1101801Y520198D01*
Y522197D01*
X1094300Y539500D02*
Y542499D01*
X1095800D01*
X1096299Y541999D01*
Y541000D01*
X1095800Y540500D01*
X1094300D01*
X1095300D02*
X1096299Y539500D01*
X1097299Y541999D02*
X1097799Y542499D01*
X1098799D01*
X1099298Y541999D01*
Y541499D01*
X1098799Y541000D01*
X1098299D01*
X1098799D01*
X1099298Y540500D01*
Y540000D01*
X1098799Y539500D01*
X1097799D01*
X1097299Y540000D01*
X1100298Y541999D02*
X1100798Y542499D01*
X1101798D01*
X1102297Y541999D01*
Y541499D01*
X1101798Y541000D01*
X1101298D01*
X1101798D01*
X1102297Y540500D01*
Y540000D01*
X1101798Y539500D01*
X1100798D01*
X1100298Y540000D01*
X1040800Y506800D02*
Y509799D01*
X1042299D01*
X1042799Y509299D01*
Y508299D01*
X1042299Y507800D01*
X1040800D01*
X1041800D02*
X1042799Y506800D01*
X1043799Y509299D02*
X1044299Y509799D01*
X1045299D01*
X1045798Y509299D01*
Y508799D01*
X1045299Y508299D01*
X1044799D01*
X1045299D01*
X1045798Y507800D01*
Y507300D01*
X1045299Y506800D01*
X1044299D01*
X1043799Y507300D01*
X1048797Y506800D02*
X1046798D01*
X1048797Y508799D01*
Y509299D01*
X1048298Y509799D01*
X1047298D01*
X1046798Y509299D01*
X1031000Y471100D02*
Y474099D01*
X1032500D01*
X1032999Y473599D01*
Y472600D01*
X1032500Y472100D01*
X1031000D01*
X1032000D02*
X1032999Y471100D01*
X1033999Y473599D02*
X1034499Y474099D01*
X1035499D01*
X1035998Y473599D01*
Y473099D01*
X1035499Y472600D01*
X1034999D01*
X1035499D01*
X1035998Y472100D01*
Y471600D01*
X1035499Y471100D01*
X1034499D01*
X1033999Y471600D01*
X1036998Y471100D02*
X1037998D01*
X1037498D01*
Y474099D01*
X1036998Y473599D01*
X1030400Y405400D02*
Y408399D01*
X1031900D01*
X1032399Y407899D01*
Y406899D01*
X1031900Y406400D01*
X1030400D01*
X1031400D02*
X1032399Y405400D01*
X1035398D02*
X1033399D01*
X1035398Y407399D01*
Y407899D01*
X1034899Y408399D01*
X1033899D01*
X1033399Y407899D01*
X1036398D02*
X1036898Y408399D01*
X1037898D01*
X1038397Y407899D01*
Y407399D01*
X1037898Y406899D01*
X1038397Y406400D01*
Y405900D01*
X1037898Y405400D01*
X1036898D01*
X1036398Y405900D01*
Y406400D01*
X1036898Y406899D01*
X1036398Y407399D01*
Y407899D01*
X1036898Y406899D02*
X1037898D01*
X1008600Y418400D02*
X1005601D01*
Y419900D01*
X1006101Y420399D01*
X1007100D01*
X1007600Y419900D01*
Y418400D01*
Y419400D02*
X1008600Y420399D01*
Y423398D02*
Y421399D01*
X1006601Y423398D01*
X1006101D01*
X1005601Y422898D01*
Y421899D01*
X1006101Y421399D01*
X1005601Y426397D02*
Y424398D01*
X1007100D01*
X1006601Y425398D01*
Y425898D01*
X1007100Y426397D01*
X1008100D01*
X1008600Y425898D01*
Y424898D01*
X1008100Y424398D01*
X1012900Y443500D02*
Y446499D01*
X1014400D01*
X1014899Y445999D01*
Y445000D01*
X1014400Y444500D01*
X1012900D01*
X1013900D02*
X1014899Y443500D01*
X1015899D02*
X1016899D01*
X1016399D01*
Y446499D01*
X1015899Y445999D01*
X1018398Y446499D02*
X1020398D01*
Y445999D01*
X1018398Y444000D01*
Y443500D01*
X1008500Y455000D02*
X1005501D01*
Y456499D01*
X1006001Y456999D01*
X1007001D01*
X1007500Y456499D01*
Y455000D01*
Y456000D02*
X1008500Y456999D01*
Y457999D02*
Y458999D01*
Y458499D01*
X1005501D01*
X1006001Y457999D01*
X1008500Y461998D02*
X1005501D01*
X1007001Y460498D01*
Y462498D01*
X994449Y468649D02*
X993450D01*
X993950D01*
Y466150D01*
X993450Y465650D01*
X992950D01*
X992450Y466150D01*
X995449Y468149D02*
X995949Y468649D01*
X996949D01*
X997448Y468149D01*
Y467649D01*
X996949Y467149D01*
X997448Y466650D01*
Y466150D01*
X996949Y465650D01*
X995949D01*
X995449Y466150D01*
Y466650D01*
X995949Y467149D01*
X995449Y467649D01*
Y468149D01*
X995949Y467149D02*
X996949D01*
X969201Y408699D02*
Y407700D01*
Y408200D01*
X971700D01*
X972200Y407700D01*
Y407200D01*
X971700Y406700D01*
X969201Y411698D02*
Y409699D01*
X970700D01*
X970201Y410699D01*
Y411199D01*
X970700Y411698D01*
X971700D01*
X972200Y411199D01*
Y410199D01*
X971700Y409699D01*
X899701Y587299D02*
Y585300D01*
X901200D01*
Y586300D01*
Y585300D01*
X902700D01*
X899701Y588299D02*
X902700D01*
Y589798D01*
X902200Y590298D01*
X901700D01*
X901200Y589798D01*
Y588299D01*
Y589798D01*
X900701Y590298D01*
X900201D01*
X899701Y589798D01*
Y588299D01*
Y591298D02*
Y593297D01*
X900201D01*
X902200Y591298D01*
X902700D01*
X1180701Y575699D02*
Y573700D01*
X1182201D01*
Y574700D01*
Y573700D01*
X1183700D01*
X1180701Y576699D02*
X1183700D01*
Y578198D01*
X1183200Y578698D01*
X1182700D01*
X1182201Y578198D01*
Y576699D01*
Y578198D01*
X1181701Y578698D01*
X1181201D01*
X1180701Y578198D01*
Y576699D01*
Y581697D02*
X1181201Y580698D01*
X1182201Y579698D01*
X1183200D01*
X1183700Y580198D01*
Y581198D01*
X1183200Y581697D01*
X1182700D01*
X1182201Y581198D01*
Y579698D01*
X844650Y414300D02*
X841651D01*
Y415800D01*
X842151Y416299D01*
X843150D01*
X843650Y415800D01*
Y414300D01*
Y415300D02*
X844650Y416299D01*
Y419298D02*
Y417299D01*
X842651Y419298D01*
X842151D01*
X841651Y418798D01*
Y417799D01*
X842151Y417299D01*
X844650Y421798D02*
X841651D01*
X843150Y420298D01*
Y422297D01*
X867600Y468600D02*
X870599D01*
Y467100D01*
X870099Y466601D01*
X869100D01*
X868600Y467100D01*
Y468600D01*
Y467600D02*
X867600Y466601D01*
Y463602D02*
Y465601D01*
X869599Y463602D01*
X870099D01*
X870599Y464102D01*
Y465101D01*
X870099Y465601D01*
Y462602D02*
X870599Y462102D01*
Y461102D01*
X870099Y460603D01*
X869599D01*
X869100Y461102D01*
Y461602D01*
Y461102D01*
X868600Y460603D01*
X868100D01*
X867600Y461102D01*
Y462102D01*
X868100Y462602D01*
X867400Y420100D02*
X870399D01*
Y418601D01*
X869899Y418101D01*
X868900D01*
X868400Y418601D01*
Y420100D01*
Y419100D02*
X867400Y418101D01*
Y415102D02*
Y417101D01*
X869399Y415102D01*
X869899D01*
X870399Y415601D01*
Y416601D01*
X869899Y417101D01*
X867400Y412103D02*
Y414102D01*
X869399Y412103D01*
X869899D01*
X870399Y412602D01*
Y413602D01*
X869899Y414102D01*
X1142900Y508499D02*
Y505500D01*
X1144400D01*
X1144899Y506000D01*
Y507999D01*
X1144400Y508499D01*
X1142900D01*
X1145899Y507999D02*
X1146399Y508499D01*
X1147399D01*
X1147898Y507999D01*
Y507499D01*
X1147399Y506999D01*
X1146899D01*
X1147399D01*
X1147898Y506500D01*
Y506000D01*
X1147399Y505500D01*
X1146399D01*
X1145899Y506000D01*
X1020001Y589500D02*
X1023000D01*
Y591000D01*
X1022500Y591499D01*
X1020501D01*
X1020001Y591000D01*
Y589500D01*
X1023000Y592499D02*
Y593499D01*
Y592999D01*
X1020001D01*
X1020501Y592499D01*
X940999Y441701D02*
X941499Y442201D01*
Y443200D01*
X940999Y443700D01*
X939000D01*
X938500Y443200D01*
Y442201D01*
X939000Y441701D01*
X941499Y438702D02*
Y440701D01*
X939999D01*
X940499Y439701D01*
Y439201D01*
X939999Y438702D01*
X939000D01*
X938500Y439201D01*
Y440201D01*
X939000Y440701D01*
X941499Y435703D02*
X940999Y436702D01*
X939999Y437702D01*
X939000D01*
X938500Y437202D01*
Y436202D01*
X939000Y435703D01*
X939500D01*
X939999Y436202D01*
Y437702D01*
X1091599Y443299D02*
X1090600D01*
X1091099D01*
Y440800D01*
X1090600Y440300D01*
X1090100D01*
X1089600Y440800D01*
X1092599Y442799D02*
X1093099Y443299D01*
X1094099D01*
X1094598Y442799D01*
Y442299D01*
X1094099Y441799D01*
X1093599D01*
X1094099D01*
X1094598Y441300D01*
Y440800D01*
X1094099Y440300D01*
X1093099D01*
X1092599Y440800D01*
X956701Y474799D02*
X956201Y474299D01*
Y473300D01*
X956701Y472800D01*
X958700D01*
X959200Y473300D01*
Y474299D01*
X958700Y474799D01*
X956201Y477798D02*
Y475799D01*
X957701D01*
X957201Y476799D01*
Y477298D01*
X957701Y477798D01*
X958700D01*
X959200Y477298D01*
Y476299D01*
X958700Y475799D01*
X959200Y480797D02*
Y478798D01*
X957201Y480797D01*
X956701D01*
X956201Y480298D01*
Y479298D01*
X956701Y478798D01*
X954499Y404601D02*
X954999Y405100D01*
Y406100D01*
X954499Y406600D01*
X952500D01*
X952000Y406100D01*
Y405100D01*
X952500Y404601D01*
X954999Y401602D02*
Y403601D01*
X953500D01*
X953999Y402601D01*
Y402102D01*
X953500Y401602D01*
X952500D01*
X952000Y402102D01*
Y403101D01*
X952500Y403601D01*
X952000Y400602D02*
Y399602D01*
Y400102D01*
X954999D01*
X954499Y400602D01*
X965001Y475099D02*
X964501Y474600D01*
Y473600D01*
X965001Y473100D01*
X967000D01*
X967500Y473600D01*
Y474600D01*
X967000Y475099D01*
X964501Y478098D02*
Y476099D01*
X966000D01*
X965501Y477099D01*
Y477598D01*
X966000Y478098D01*
X967000D01*
X967500Y477598D01*
Y476599D01*
X967000Y476099D01*
X965001Y479098D02*
X964501Y479598D01*
Y480598D01*
X965001Y481097D01*
X967000D01*
X967500Y480598D01*
Y479598D01*
X967000Y479098D01*
X965001D01*
X1071999Y433301D02*
X1072499Y433801D01*
Y434800D01*
X1071999Y435300D01*
X1070000D01*
X1069500Y434800D01*
Y433801D01*
X1070000Y433301D01*
X1069500Y430801D02*
X1072499D01*
X1071000Y432301D01*
Y430302D01*
X1070000Y429302D02*
X1069500Y428802D01*
Y427802D01*
X1070000Y427303D01*
X1071999D01*
X1072499Y427802D01*
Y428802D01*
X1071999Y429302D01*
X1071499D01*
X1071000Y428802D01*
Y427303D01*
X1088399Y441801D02*
X1088899Y442301D01*
Y443300D01*
X1088399Y443800D01*
X1086400D01*
X1085900Y443300D01*
Y442301D01*
X1086400Y441801D01*
X1085900Y439301D02*
X1088899D01*
X1087399Y440801D01*
Y438802D01*
X1088399Y437802D02*
X1088899Y437302D01*
Y436302D01*
X1088399Y435803D01*
X1087899D01*
X1087399Y436302D01*
X1086900Y435803D01*
X1086400D01*
X1085900Y436302D01*
Y437302D01*
X1086400Y437802D01*
X1086900D01*
X1087399Y437302D01*
X1087899Y437802D01*
X1088399D01*
X1087399Y437302D02*
Y436302D01*
X1071899Y450201D02*
X1072399Y450701D01*
Y451700D01*
X1071899Y452200D01*
X1069900D01*
X1069400Y451700D01*
Y450701D01*
X1069900Y450201D01*
X1069400Y447702D02*
X1072399D01*
X1070899Y449201D01*
Y447202D01*
X1072399Y446202D02*
Y444203D01*
X1071899D01*
X1069900Y446202D01*
X1069400D01*
X959951Y536050D02*
X962450D01*
X962950Y536550D01*
Y537549D01*
X962450Y538049D01*
X959951D01*
X960451Y539049D02*
X959951Y539549D01*
Y540549D01*
X960451Y541048D01*
X960951D01*
X961450Y540549D01*
Y540049D01*
Y540549D01*
X961950Y541048D01*
X962450D01*
X962950Y540549D01*
Y539549D01*
X962450Y539049D01*
X1111100Y451899D02*
Y449400D01*
X1111600Y448900D01*
X1112599D01*
X1113099Y449400D01*
Y451899D01*
X1114099Y448900D02*
X1115099D01*
X1114599D01*
Y451899D01*
X1114099Y451399D01*
X879100Y420899D02*
X881099D01*
X880100D01*
Y417900D01*
X882099Y420399D02*
X882599Y420899D01*
X883599D01*
X884098Y420399D01*
Y419899D01*
X883599Y419399D01*
X883099D01*
X883599D01*
X884098Y418900D01*
Y418400D01*
X883599Y417900D01*
X882599D01*
X882099Y418400D01*
X1048900Y421499D02*
X1050899D01*
X1049900D01*
Y418500D01*
X1053898D02*
X1051899D01*
X1053898Y420499D01*
Y420999D01*
X1053399Y421499D01*
X1052399D01*
X1051899Y420999D01*
X1154500Y460199D02*
X1156499D01*
X1155500D01*
Y457200D01*
X1157499D02*
X1158499D01*
X1157999D01*
Y460199D01*
X1157499Y459699D01*
X895900Y585000D02*
X892901D01*
Y586500D01*
X893401Y586999D01*
X894401D01*
X894900Y586500D01*
Y585000D01*
Y586000D02*
X895900Y586999D01*
Y589998D02*
Y587999D01*
X893901Y589998D01*
X893401D01*
X892901Y589499D01*
Y588499D01*
X893401Y587999D01*
X895900Y590998D02*
Y591998D01*
Y591498D01*
X892901D01*
X893401Y590998D01*
X1110800Y490000D02*
X1113799D01*
Y488500D01*
X1113299Y488001D01*
X1112300D01*
X1111800Y488500D01*
Y490000D01*
Y489000D02*
X1110800Y488001D01*
Y485002D02*
Y487001D01*
X1112799Y485002D01*
X1113299D01*
X1113799Y485501D01*
Y486501D01*
X1113299Y487001D01*
Y484002D02*
X1113799Y483502D01*
Y482502D01*
X1113299Y482003D01*
X1111300D01*
X1110800Y482502D01*
Y483502D01*
X1111300Y484002D01*
X1113299D01*
X1011500Y518400D02*
X1014499D01*
Y516900D01*
X1013999Y516401D01*
X1013000D01*
X1012500Y516900D01*
Y518400D01*
Y517400D02*
X1011500Y516401D01*
Y515401D02*
Y514401D01*
Y514901D01*
X1014499D01*
X1013999Y515401D01*
X1012000Y512902D02*
X1011500Y512402D01*
Y511402D01*
X1012000Y510902D01*
X1013999D01*
X1014499Y511402D01*
Y512402D01*
X1013999Y512902D01*
X1013499D01*
X1013000Y512402D01*
Y510902D01*
X1011800Y531300D02*
X1014799D01*
Y529801D01*
X1014299Y529301D01*
X1013299D01*
X1012800Y529801D01*
Y531300D01*
Y530300D02*
X1011800Y529301D01*
Y528301D02*
Y527301D01*
Y527801D01*
X1014799D01*
X1014299Y528301D01*
Y525802D02*
X1014799Y525302D01*
Y524302D01*
X1014299Y523802D01*
X1013799D01*
X1013299Y524302D01*
X1012800Y523802D01*
X1012300D01*
X1011800Y524302D01*
Y525302D01*
X1012300Y525802D01*
X1012800D01*
X1013299Y525302D01*
X1013799Y525802D01*
X1014299D01*
X1013299Y525302D02*
Y524302D01*
X935400Y453600D02*
Y456599D01*
X936899D01*
X937399Y456099D01*
Y455099D01*
X936899Y454600D01*
X935400D01*
X936400D02*
X937399Y453600D01*
X938399D02*
X939399D01*
X938899D01*
Y456599D01*
X938399Y456099D01*
X942898Y456599D02*
X941898Y456099D01*
X940898Y455099D01*
Y454100D01*
X941398Y453600D01*
X942398D01*
X942898Y454100D01*
Y454600D01*
X942398Y455099D01*
X940898D01*
X1003700Y453800D02*
X1000701D01*
Y455300D01*
X1001201Y455799D01*
X1002201D01*
X1002700Y455300D01*
Y453800D01*
Y454800D02*
X1003700Y455799D01*
Y456799D02*
Y457799D01*
Y457299D01*
X1000701D01*
X1001201Y456799D01*
X1000701Y461298D02*
Y459298D01*
X1002201D01*
X1001701Y460298D01*
Y460798D01*
X1002201Y461298D01*
X1003200D01*
X1003700Y460798D01*
Y459798D01*
X1003200Y459298D01*
X844650Y459650D02*
X841651D01*
Y461150D01*
X842151Y461649D01*
X843150D01*
X843650Y461150D01*
Y459650D01*
Y460650D02*
X844650Y461649D01*
Y462649D02*
Y463649D01*
Y463149D01*
X841651D01*
X842151Y462649D01*
Y465148D02*
X841651Y465648D01*
Y466648D01*
X842151Y467148D01*
X842651D01*
X843150Y466648D01*
Y466148D01*
Y466648D01*
X843650Y467148D01*
X844150D01*
X844650Y466648D01*
Y465648D01*
X844150Y465148D01*
X935600Y422800D02*
Y425799D01*
X937099D01*
X937599Y425299D01*
Y424299D01*
X937099Y423800D01*
X935600D01*
X936600D02*
X937599Y422800D01*
X938599D02*
X939599D01*
X939099D01*
Y425799D01*
X938599Y425299D01*
X943098Y422800D02*
X941098D01*
X943098Y424799D01*
Y425299D01*
X942598Y425799D01*
X941598D01*
X941098Y425299D01*
X993800Y423200D02*
Y426199D01*
X995300D01*
X995799Y425699D01*
Y424699D01*
X995300Y424200D01*
X993800D01*
X994800D02*
X995799Y423200D01*
X996799D02*
X997799D01*
X997299D01*
Y426199D01*
X996799Y425699D01*
X999298Y423200D02*
X1000298D01*
X999798D01*
Y426199D01*
X999298Y425699D01*
X1099800Y420400D02*
Y423399D01*
X1101299D01*
X1101799Y422899D01*
Y421900D01*
X1101299Y421400D01*
X1099800D01*
X1100800D02*
X1101799Y420400D01*
X1102799D02*
X1103799D01*
X1103299D01*
Y423399D01*
X1102799Y422899D01*
X1105298D02*
X1105798Y423399D01*
X1106798D01*
X1107298Y422899D01*
Y420900D01*
X1106798Y420400D01*
X1105798D01*
X1105298Y420900D01*
Y422899D01*
X1187673Y468183D02*
X1190672D01*
Y466683D01*
X1190172Y466183D01*
X1189172D01*
X1188672Y466683D01*
Y468183D01*
Y467183D02*
X1187673Y466183D01*
X1188172Y465184D02*
X1187673Y464684D01*
Y463684D01*
X1188172Y463184D01*
X1190172D01*
X1190672Y463684D01*
Y464684D01*
X1190172Y465184D01*
X1189672D01*
X1189172Y464684D01*
Y463184D01*
X1089400Y416700D02*
Y419699D01*
X1090899D01*
X1091399Y419199D01*
Y418199D01*
X1090899Y417700D01*
X1089400D01*
X1090400D02*
X1091399Y416700D01*
X1092399Y419199D02*
X1092899Y419699D01*
X1093899D01*
X1094398Y419199D01*
Y418699D01*
X1093899Y418199D01*
X1094398Y417700D01*
Y417200D01*
X1093899Y416700D01*
X1092899D01*
X1092399Y417200D01*
Y417700D01*
X1092899Y418199D01*
X1092399Y418699D01*
Y419199D01*
X1092899Y418199D02*
X1093899D01*
X1144100Y422900D02*
Y425899D01*
X1145599D01*
X1146099Y425399D01*
Y424400D01*
X1145599Y423900D01*
X1144100D01*
X1145100D02*
X1146099Y422900D01*
X1147099Y425899D02*
X1149098D01*
Y425399D01*
X1147099Y423400D01*
Y422900D01*
X1001600Y442400D02*
X1004599D01*
Y440901D01*
X1004099Y440401D01*
X1003100D01*
X1002600Y440901D01*
Y442400D01*
Y441400D02*
X1001600Y440401D01*
X1004599Y437402D02*
X1004099Y438401D01*
X1003100Y439401D01*
X1002100D01*
X1001600Y438901D01*
Y437901D01*
X1002100Y437402D01*
X1002600D01*
X1003100Y437901D01*
Y439401D01*
X1144100Y453500D02*
Y456499D01*
X1145599D01*
X1146099Y455999D01*
Y454999D01*
X1145599Y454500D01*
X1144100D01*
X1145100D02*
X1146099Y453500D01*
X1149098Y456499D02*
X1147099D01*
Y454999D01*
X1148099Y455499D01*
X1148599D01*
X1149098Y454999D01*
Y454000D01*
X1148599Y453500D01*
X1147599D01*
X1147099Y454000D01*
X1192400Y424900D02*
X1195399D01*
Y423400D01*
X1194899Y422901D01*
X1193900D01*
X1193400Y423400D01*
Y424900D01*
Y423900D02*
X1192400Y422901D01*
Y420401D02*
X1195399D01*
X1193900Y421901D01*
Y419902D01*
X1089600Y460300D02*
Y463299D01*
X1091099D01*
X1091599Y462799D01*
Y461799D01*
X1091099Y461300D01*
X1089600D01*
X1090600D02*
X1091599Y460300D01*
X1092599Y462799D02*
X1093099Y463299D01*
X1094099D01*
X1094598Y462799D01*
Y462299D01*
X1094099Y461799D01*
X1093599D01*
X1094099D01*
X1094598Y461300D01*
Y460800D01*
X1094099Y460300D01*
X1093099D01*
X1092599Y460800D01*
X1102300Y456000D02*
Y458999D01*
X1103800D01*
X1104299Y458499D01*
Y457500D01*
X1103800Y457000D01*
X1102300D01*
X1103300D02*
X1104299Y456000D01*
X1105299D02*
X1106299D01*
X1105799D01*
Y458999D01*
X1105299Y458499D01*
X893400Y463099D02*
Y460100D01*
X895399D01*
X896399D02*
X897399D01*
X896899D01*
Y463099D01*
X896399Y462599D01*
X898898Y460100D02*
X899898D01*
X899398D01*
Y463099D01*
X898898Y462599D01*
X907200Y463099D02*
Y460100D01*
X909199D01*
X910199D02*
X911199D01*
X910699D01*
Y463099D01*
X910199Y462599D01*
X912698D02*
X913198Y463099D01*
X914198D01*
X914698Y462599D01*
Y460600D01*
X914198Y460100D01*
X913198D01*
X912698Y460600D01*
Y462599D01*
X921600Y463099D02*
Y460100D01*
X923599D01*
X924599Y460600D02*
X925099Y460100D01*
X926099D01*
X926598Y460600D01*
Y462599D01*
X926099Y463099D01*
X925099D01*
X924599Y462599D01*
Y462099D01*
X925099Y461599D01*
X926598D01*
X979700Y456599D02*
Y453600D01*
X981699D01*
X982699Y456099D02*
X983199Y456599D01*
X984199D01*
X984698Y456099D01*
Y455599D01*
X984199Y455099D01*
X984698Y454600D01*
Y454100D01*
X984199Y453600D01*
X983199D01*
X982699Y454100D01*
Y454600D01*
X983199Y455099D01*
X982699Y455599D01*
Y456099D01*
X983199Y455099D02*
X984199D01*
X895300Y419299D02*
Y416300D01*
X897299D01*
X898299Y419299D02*
X900298D01*
Y418799D01*
X898299Y416800D01*
Y416300D01*
X909050Y419299D02*
Y416300D01*
X911049D01*
X914048Y419299D02*
X913049Y418799D01*
X912049Y417800D01*
Y416800D01*
X912549Y416300D01*
X913549D01*
X914048Y416800D01*
Y417300D01*
X913549Y417800D01*
X912049D01*
X922000Y419299D02*
Y416300D01*
X923999D01*
X926998Y419299D02*
X924999D01*
Y417800D01*
X925999Y418299D01*
X926499D01*
X926998Y417800D01*
Y416800D01*
X926499Y416300D01*
X925499D01*
X924999Y416800D01*
X981000Y426299D02*
Y423300D01*
X982999D01*
X985499D02*
Y426299D01*
X983999Y424799D01*
X985998D01*
X1077300Y419199D02*
Y416200D01*
X1079299D01*
X1080299Y418699D02*
X1080799Y419199D01*
X1081799D01*
X1082298Y418699D01*
Y418199D01*
X1081799Y417699D01*
X1081299D01*
X1081799D01*
X1082298Y417200D01*
Y416700D01*
X1081799Y416200D01*
X1080799D01*
X1080299Y416700D01*
X1060199Y451800D02*
X1057200D01*
Y449801D01*
Y446802D02*
Y448801D01*
X1059199Y446802D01*
X1059699D01*
X1060199Y447301D01*
Y448301D01*
X1059699Y448801D01*
X1078500Y463299D02*
Y460300D01*
X1080499D01*
X1081499D02*
X1082499D01*
X1081999D01*
Y463299D01*
X1081499Y462799D01*
X1150349Y476251D02*
Y477250D01*
Y476751D01*
X1147850D01*
X1147350Y477250D01*
Y477750D01*
X1147850Y478250D01*
X1147350Y475251D02*
X1150349D01*
Y473751D01*
X1149849Y473252D01*
X1148849D01*
X1148350Y473751D01*
Y475251D01*
X1147350Y470253D02*
Y472252D01*
X1149349Y470253D01*
X1149849D01*
X1150349Y470752D01*
Y471752D01*
X1149849Y472252D01*
X1150349Y406251D02*
Y407250D01*
Y406750D01*
X1147850D01*
X1147350Y407250D01*
Y407750D01*
X1147850Y408250D01*
X1147350Y405251D02*
X1150349D01*
Y403752D01*
X1149849Y403252D01*
X1148849D01*
X1148350Y403752D01*
Y405251D01*
X1147350Y402252D02*
Y401252D01*
Y401752D01*
X1150349D01*
X1149849Y402252D01*
X1195099Y509699D02*
X1194100D01*
X1194600D01*
Y507200D01*
X1194100Y506700D01*
X1193600D01*
X1193100Y507200D01*
X1196099Y506700D02*
X1197099D01*
X1196599D01*
Y509699D01*
X1196099Y509199D01*
X1198598D02*
X1199098Y509699D01*
X1200098D01*
X1200598Y509199D01*
Y507200D01*
X1200098Y506700D01*
X1199098D01*
X1198598Y507200D01*
Y509199D01*
X987201Y597699D02*
Y596700D01*
Y597199D01*
X989700D01*
X990200Y596700D01*
Y596200D01*
X989700Y595700D01*
Y598699D02*
X990200Y599199D01*
Y600199D01*
X989700Y600698D01*
X987701D01*
X987201Y600199D01*
Y599199D01*
X987701Y598699D01*
X988201D01*
X988700Y599199D01*
Y600698D01*
X817315Y501899D02*
X816315D01*
X816815D01*
Y499400D01*
X816315Y498900D01*
X815816D01*
X815316Y499400D01*
X818315Y501899D02*
X820314D01*
Y501399D01*
X818315Y499400D01*
Y498900D01*
X815699Y427499D02*
X814700D01*
X815199D01*
Y425000D01*
X814700Y424500D01*
X814200D01*
X813700Y425000D01*
X818698Y427499D02*
X817699Y426999D01*
X816699Y425999D01*
Y425000D01*
X817199Y424500D01*
X818198D01*
X818698Y425000D01*
Y425500D01*
X818198Y425999D01*
X816699D01*
X1013899Y422599D02*
X1012900D01*
X1013400D01*
Y420100D01*
X1012900Y419600D01*
X1012400D01*
X1011900Y420100D01*
X1016399Y419600D02*
Y422599D01*
X1014899Y421100D01*
X1016898D01*
X1016299Y463299D02*
X1015300D01*
X1015800D01*
Y460800D01*
X1015300Y460300D01*
X1014800D01*
X1014300Y460800D01*
X1017299Y460300D02*
X1018299D01*
X1017799D01*
Y463299D01*
X1017299Y462799D01*
X1046451Y477851D02*
X1048450D01*
Y479351D01*
X1047450D01*
X1048450D01*
Y480850D01*
X1045451Y477851D02*
Y480850D01*
X1043951D01*
X1043452Y480350D01*
Y479850D01*
X1043951Y479351D01*
X1045451D01*
X1043951D01*
X1043452Y478851D01*
Y478351D01*
X1043951Y477851D01*
X1045451D01*
X1042452Y480850D02*
X1041452D01*
X1041952D01*
Y477851D01*
X1042452Y478351D01*
X884640Y586200D02*
X887639D01*
Y587700D01*
X887139Y588199D01*
X885139D01*
X884640Y587700D01*
Y586200D01*
X887639Y591198D02*
Y589199D01*
X885639Y591198D01*
X885139D01*
X884640Y590698D01*
Y589699D01*
X885139Y589199D01*
X1167999Y579099D02*
X1167500Y579599D01*
X1166500D01*
X1166000Y579099D01*
Y577100D01*
X1166500Y576600D01*
X1167500D01*
X1167999Y577100D01*
X1170499Y576600D02*
Y579599D01*
X1168999Y578099D01*
X1170998D01*
X1173997Y576600D02*
X1171998D01*
X1173997Y578599D01*
Y579099D01*
X1173498Y579599D01*
X1172498D01*
X1171998Y579099D01*
X1069399Y541099D02*
X1068900Y541599D01*
X1067900D01*
X1067400Y541099D01*
Y539100D01*
X1067900Y538600D01*
X1068900D01*
X1069399Y539100D01*
X1070399Y541099D02*
X1070899Y541599D01*
X1071899D01*
X1072398Y541099D01*
Y540599D01*
X1071899Y540099D01*
X1071399D01*
X1071899D01*
X1072398Y539600D01*
Y539100D01*
X1071899Y538600D01*
X1070899D01*
X1070399Y539100D01*
X1073398Y541599D02*
X1075397D01*
Y541099D01*
X1073398Y539100D01*
Y538600D01*
X1063901Y526099D02*
X1063401Y525599D01*
Y524600D01*
X1063901Y524100D01*
X1065900D01*
X1066400Y524600D01*
Y525599D01*
X1065900Y526099D01*
X1063901Y527099D02*
X1063401Y527599D01*
Y528598D01*
X1063901Y529098D01*
X1064401D01*
X1064900Y528598D01*
Y528099D01*
Y528598D01*
X1065400Y529098D01*
X1065900D01*
X1066400Y528598D01*
Y527599D01*
X1065900Y527099D01*
X1063401Y532097D02*
X1063901Y531098D01*
X1064900Y530098D01*
X1065900D01*
X1066400Y530598D01*
Y531598D01*
X1065900Y532097D01*
X1065400D01*
X1064900Y531598D01*
Y530098D01*
X973899Y529199D02*
X973400Y529699D01*
X972400D01*
X971900Y529199D01*
Y527200D01*
X972400Y526700D01*
X973400D01*
X973899Y527200D01*
X974899Y529199D02*
X975399Y529699D01*
X976399D01*
X976898Y529199D01*
Y528699D01*
X976399Y528199D01*
X975899D01*
X976399D01*
X976898Y527700D01*
Y527200D01*
X976399Y526700D01*
X975399D01*
X974899Y527200D01*
X979897Y526700D02*
X977898D01*
X979897Y528699D01*
Y529199D01*
X979398Y529699D01*
X978398D01*
X977898Y529199D01*
X980151Y511849D02*
X979651Y511349D01*
Y510350D01*
X980151Y509850D01*
X982150D01*
X982650Y510350D01*
Y511349D01*
X982150Y511849D01*
X980151Y512849D02*
X979651Y513349D01*
Y514349D01*
X980151Y514848D01*
X980651D01*
X981151Y514349D01*
Y513849D01*
Y514349D01*
X981650Y514848D01*
X982150D01*
X982650Y514349D01*
Y513349D01*
X982150Y512849D01*
X982650Y515848D02*
Y516848D01*
Y516348D01*
X979651D01*
X980151Y515848D01*
X993901Y589199D02*
X993401Y588699D01*
Y587700D01*
X993901Y587200D01*
X995900D01*
X996400Y587700D01*
Y588699D01*
X995900Y589199D01*
X993901Y590199D02*
X993401Y590699D01*
Y591699D01*
X993901Y592198D01*
X994401D01*
X994901Y591699D01*
Y591199D01*
Y591699D01*
X995400Y592198D01*
X995900D01*
X996400Y591699D01*
Y590699D01*
X995900Y590199D01*
X993901Y593198D02*
X993401Y593698D01*
Y594698D01*
X993901Y595197D01*
X995900D01*
X996400Y594698D01*
Y593698D01*
X995900Y593198D01*
X993901D01*
X1001801Y589399D02*
X1001301Y588900D01*
Y587900D01*
X1001801Y587400D01*
X1003800D01*
X1004300Y587900D01*
Y588900D01*
X1003800Y589399D01*
X1004300Y592398D02*
Y590399D01*
X1002301Y592398D01*
X1001801D01*
X1001301Y591898D01*
Y590899D01*
X1001801Y590399D01*
X1003800Y593398D02*
X1004300Y593898D01*
Y594898D01*
X1003800Y595397D01*
X1001801D01*
X1001301Y594898D01*
Y593898D01*
X1001801Y593398D01*
X1002301D01*
X1002800Y593898D01*
Y595397D01*
X1009901Y589399D02*
X1009401Y588900D01*
Y587900D01*
X1009901Y587400D01*
X1011900D01*
X1012400Y587900D01*
Y588900D01*
X1011900Y589399D01*
X1012400Y592398D02*
Y590399D01*
X1010401Y592398D01*
X1009901D01*
X1009401Y591898D01*
Y590899D01*
X1009901Y590399D01*
Y593398D02*
X1009401Y593898D01*
Y594898D01*
X1009901Y595397D01*
X1010401D01*
X1010900Y594898D01*
X1011400Y595397D01*
X1011900D01*
X1012400Y594898D01*
Y593898D01*
X1011900Y593398D01*
X1011400D01*
X1010900Y593898D01*
X1010401Y593398D01*
X1009901D01*
X1010900Y593898D02*
Y594898D01*
X1045699Y601799D02*
X1045199Y602299D01*
X1044200D01*
X1043700Y601799D01*
Y599800D01*
X1044200Y599300D01*
X1045199D01*
X1045699Y599800D01*
X1048698Y599300D02*
X1046699D01*
X1048698Y601299D01*
Y601799D01*
X1048199Y602299D01*
X1047199D01*
X1046699Y601799D01*
X1049698Y602299D02*
X1051697D01*
Y601799D01*
X1049698Y599800D01*
Y599300D01*
X834899Y441199D02*
X834400Y441699D01*
X833400D01*
X832900Y441199D01*
Y439200D01*
X833400Y438700D01*
X834400D01*
X834899Y439200D01*
X837898Y438700D02*
X835899D01*
X837898Y440699D01*
Y441199D01*
X837399Y441699D01*
X836399D01*
X835899Y441199D01*
X840398Y438700D02*
Y441699D01*
X838898Y440200D01*
X840897D01*
X895399Y467699D02*
X894899Y468199D01*
X893900D01*
X893400Y467699D01*
Y465700D01*
X893900Y465200D01*
X894899D01*
X895399Y465700D01*
X898398Y465200D02*
X896399D01*
X898398Y467199D01*
Y467699D01*
X897899Y468199D01*
X896899D01*
X896399Y467699D01*
X899398D02*
X899898Y468199D01*
X900898D01*
X901397Y467699D01*
Y467199D01*
X900898Y466700D01*
X900398D01*
X900898D01*
X901397Y466200D01*
Y465700D01*
X900898Y465200D01*
X899898D01*
X899398Y465700D01*
X909199Y467699D02*
X908700Y468199D01*
X907700D01*
X907200Y467699D01*
Y465700D01*
X907700Y465200D01*
X908700D01*
X909199Y465700D01*
X912198Y465200D02*
X910199D01*
X912198Y467199D01*
Y467699D01*
X911699Y468199D01*
X910699D01*
X910199Y467699D01*
X915197Y465200D02*
X913198D01*
X915197Y467199D01*
Y467699D01*
X914698Y468199D01*
X913698D01*
X913198Y467699D01*
X923599D02*
X923100Y468199D01*
X922100D01*
X921600Y467699D01*
Y465700D01*
X922100Y465200D01*
X923100D01*
X923599Y465700D01*
X926598Y465200D02*
X924599D01*
X926598Y467199D01*
Y467699D01*
X926099Y468199D01*
X925099D01*
X924599Y467699D01*
X927598Y465200D02*
X928598D01*
X928098D01*
Y468199D01*
X927598Y467699D01*
X900199Y441701D02*
X900699Y442201D01*
Y443200D01*
X900199Y443700D01*
X898200D01*
X897700Y443200D01*
Y442201D01*
X898200Y441701D01*
X897700Y438702D02*
Y440701D01*
X899699Y438702D01*
X900199D01*
X900699Y439201D01*
Y440201D01*
X900199Y440701D01*
Y437702D02*
X900699Y437202D01*
Y436202D01*
X900199Y435703D01*
X898200D01*
X897700Y436202D01*
Y437202D01*
X898200Y437702D01*
X900199D01*
X904299Y441701D02*
X904799Y442201D01*
Y443200D01*
X904299Y443700D01*
X902300D01*
X901800Y443200D01*
Y442201D01*
X902300Y441701D01*
X901800Y440701D02*
Y439701D01*
Y440201D01*
X904799D01*
X904299Y440701D01*
X902300Y438202D02*
X901800Y437702D01*
Y436702D01*
X902300Y436202D01*
X904299D01*
X904799Y436702D01*
Y437702D01*
X904299Y438202D01*
X903799D01*
X903300Y437702D01*
Y436202D01*
X918099Y441701D02*
X918599Y442201D01*
Y443200D01*
X918099Y443700D01*
X916100D01*
X915600Y443200D01*
Y442201D01*
X916100Y441701D01*
X915600Y440701D02*
Y439701D01*
Y440201D01*
X918599D01*
X918099Y440701D01*
Y438202D02*
X918599Y437702D01*
Y436702D01*
X918099Y436202D01*
X917599D01*
X917099Y436702D01*
X916600Y436202D01*
X916100D01*
X915600Y436702D01*
Y437702D01*
X916100Y438202D01*
X916600D01*
X917099Y437702D01*
X917599Y438202D01*
X918099D01*
X917099Y437702D02*
Y436702D01*
X931999Y441701D02*
X932499Y442201D01*
Y443200D01*
X931999Y443700D01*
X930000D01*
X929500Y443200D01*
Y442201D01*
X930000Y441701D01*
X929500Y440701D02*
Y439701D01*
Y440201D01*
X932499D01*
X931999Y440701D01*
X932499Y438202D02*
Y436202D01*
X931999D01*
X930000Y438202D01*
X929500D01*
X977199Y451801D02*
X977699Y452301D01*
Y453300D01*
X977199Y453800D01*
X975200D01*
X974700Y453300D01*
Y452301D01*
X975200Y451801D01*
X974700Y450801D02*
Y449801D01*
Y450301D01*
X977699D01*
X977199Y450801D01*
X977699Y446302D02*
X977199Y447302D01*
X976200Y448302D01*
X975200D01*
X974700Y447802D01*
Y446802D01*
X975200Y446302D01*
X975700D01*
X976200Y446802D01*
Y448302D01*
X988299Y442001D02*
X988799Y442500D01*
Y443500D01*
X988299Y444000D01*
X986300D01*
X985800Y443500D01*
Y442500D01*
X986300Y442001D01*
X985800Y441001D02*
Y440001D01*
Y440501D01*
X988799D01*
X988299Y441001D01*
X988799Y436502D02*
Y438502D01*
X987300D01*
X987799Y437502D01*
Y437002D01*
X987300Y436502D01*
X986300D01*
X985800Y437002D01*
Y438002D01*
X986300Y438502D01*
X897299Y414199D02*
X896799Y414699D01*
X895800D01*
X895300Y414199D01*
Y412200D01*
X895800Y411700D01*
X896799D01*
X897299Y412200D01*
X898299Y411700D02*
X899299D01*
X898799D01*
Y414699D01*
X898299Y414199D01*
X902298Y411700D02*
Y414699D01*
X900798Y413200D01*
X902798D01*
X911049Y413899D02*
X910550Y414399D01*
X909550D01*
X909050Y413899D01*
Y411900D01*
X909550Y411400D01*
X910550D01*
X911049Y411900D01*
X912049Y411400D02*
X913049D01*
X912549D01*
Y414399D01*
X912049Y413899D01*
X914548D02*
X915048Y414399D01*
X916048D01*
X916548Y413899D01*
Y413399D01*
X916048Y412899D01*
X915548D01*
X916048D01*
X916548Y412400D01*
Y411900D01*
X916048Y411400D01*
X915048D01*
X914548Y411900D01*
X923999Y413699D02*
X923499Y414199D01*
X922500D01*
X922000Y413699D01*
Y411700D01*
X922500Y411200D01*
X923499D01*
X923999Y411700D01*
X924999Y411200D02*
X925999D01*
X925499D01*
Y414199D01*
X924999Y413699D01*
X929498Y411200D02*
X927498D01*
X929498Y413199D01*
Y413699D01*
X928998Y414199D01*
X927998D01*
X927498Y413699D01*
X1044099Y460699D02*
X1043600Y461199D01*
X1042600D01*
X1042100Y460699D01*
Y458700D01*
X1042600Y458200D01*
X1043600D01*
X1044099Y458700D01*
X1045099Y461199D02*
X1047098D01*
Y460699D01*
X1045099Y458700D01*
Y458200D01*
X1067099Y418699D02*
X1066599Y419199D01*
X1065600D01*
X1065100Y418699D01*
Y416700D01*
X1065600Y416200D01*
X1066599D01*
X1067099Y416700D01*
X1070098Y419199D02*
X1068099D01*
Y417699D01*
X1069099Y418199D01*
X1069599D01*
X1070098Y417699D01*
Y416700D01*
X1069599Y416200D01*
X1068599D01*
X1068099Y416700D01*
X1063299Y432799D02*
X1062799Y433299D01*
X1061800D01*
X1061300Y432799D01*
Y430800D01*
X1061800Y430300D01*
X1062799D01*
X1063299Y430800D01*
X1065799Y430300D02*
Y433299D01*
X1064299Y431800D01*
X1066298D01*
X1138299Y432201D02*
X1138799Y432700D01*
Y433700D01*
X1138299Y434200D01*
X1136300D01*
X1135800Y433700D01*
Y432700D01*
X1136300Y432201D01*
X1138299Y431201D02*
X1138799Y430701D01*
Y429702D01*
X1138299Y429202D01*
X1137799D01*
X1137300Y429702D01*
Y430201D01*
Y429702D01*
X1136800Y429202D01*
X1136300D01*
X1135800Y429702D01*
Y430701D01*
X1136300Y431201D01*
X1154899Y435999D02*
X1154399Y436499D01*
X1153400D01*
X1152900Y435999D01*
Y434000D01*
X1153400Y433500D01*
X1154399D01*
X1154899Y434000D01*
X1157898Y433500D02*
X1155899D01*
X1157898Y435499D01*
Y435999D01*
X1157399Y436499D01*
X1156399D01*
X1155899Y435999D01*
X1067599Y462399D02*
X1067099Y462899D01*
X1066100D01*
X1065600Y462399D01*
Y460400D01*
X1066100Y459900D01*
X1067099D01*
X1067599Y460400D01*
X1068599Y459900D02*
X1069599D01*
X1069099D01*
Y462899D01*
X1068599Y462399D01*
X1115899Y440999D02*
X1115399Y441499D01*
X1114400D01*
X1113900Y440999D01*
Y439000D01*
X1114400Y438500D01*
X1115399D01*
X1115899Y439000D01*
X1118898Y441499D02*
X1116899D01*
Y439999D01*
X1117899Y440499D01*
X1118399D01*
X1118898Y439999D01*
Y439000D01*
X1118399Y438500D01*
X1117399D01*
X1116899Y439000D01*
X1119898Y440999D02*
X1120398Y441499D01*
X1121398D01*
X1121897Y440999D01*
Y440499D01*
X1121398Y439999D01*
X1120898D01*
X1121398D01*
X1121897Y439500D01*
Y439000D01*
X1121398Y438500D01*
X1120398D01*
X1119898Y439000D01*
X1125799Y426299D02*
X1125299Y426799D01*
X1124300D01*
X1123800Y426299D01*
Y424300D01*
X1124300Y423800D01*
X1125299D01*
X1125799Y424300D01*
X1128798Y426799D02*
X1126799D01*
Y425300D01*
X1127799Y425799D01*
X1128299D01*
X1128798Y425300D01*
Y424300D01*
X1128299Y423800D01*
X1127299D01*
X1126799Y424300D01*
X1131298Y423800D02*
Y426799D01*
X1129798Y425300D01*
X1131797D01*
X1125399Y455299D02*
X1124899Y455799D01*
X1123900D01*
X1123400Y455299D01*
Y453300D01*
X1123900Y452800D01*
X1124899D01*
X1125399Y453300D01*
X1128398Y455799D02*
X1126399D01*
Y454299D01*
X1127399Y454799D01*
X1127899D01*
X1128398Y454299D01*
Y453300D01*
X1127899Y452800D01*
X1126899D01*
X1126399Y453300D01*
X1131397Y455799D02*
X1129398D01*
Y454299D01*
X1130398Y454799D01*
X1130898D01*
X1131397Y454299D01*
Y453300D01*
X1130898Y452800D01*
X1129898D01*
X1129398Y453300D01*
X1198299Y560601D02*
X1198799Y561100D01*
Y562100D01*
X1198299Y562600D01*
X1196300D01*
X1195800Y562100D01*
Y561100D01*
X1196300Y560601D01*
X1195800Y558102D02*
X1198799D01*
X1197299Y559601D01*
Y557602D01*
X1198299Y556602D02*
X1198799Y556102D01*
Y555102D01*
X1198299Y554603D01*
X1197799D01*
X1197299Y555102D01*
Y555602D01*
Y555102D01*
X1196800Y554603D01*
X1196300D01*
X1195800Y555102D01*
Y556102D01*
X1196300Y556602D01*
M02*
