%FSLAX25Y25*%
%MOIN*%
G70*
G01*
G75*
G04 Layer_Physical_Order=1*
G04 Layer_Color=255*
%ADD10R,0.20000X0.07000*%
%ADD11R,0.20000X0.10500*%
%ADD12R,0.03740X0.02953*%
%ADD13R,0.02953X0.03740*%
%ADD14R,0.05709X0.04331*%
%ADD15R,0.04331X0.05709*%
%ADD16O,0.00984X0.03543*%
%ADD17O,0.03543X0.00984*%
%ADD18R,0.05906X0.05906*%
%ADD19O,0.03740X0.00984*%
%ADD20O,0.00984X0.03740*%
%ADD21R,0.12598X0.12598*%
%ADD22R,0.04331X0.14173*%
%ADD23R,0.31496X0.23622*%
%ADD24R,0.14173X0.04331*%
%ADD25R,0.23622X0.31496*%
G04:AMPARAMS|DCode=26|XSize=118.11mil|YSize=62.99mil|CornerRadius=15.75mil|HoleSize=0mil|Usage=FLASHONLY|Rotation=270.000|XOffset=0mil|YOffset=0mil|HoleType=Round|Shape=RoundedRectangle|*
%AMROUNDEDRECTD26*
21,1,0.11811,0.03150,0,0,270.0*
21,1,0.08661,0.06299,0,0,270.0*
1,1,0.03150,-0.01575,-0.04331*
1,1,0.03150,-0.01575,0.04331*
1,1,0.03150,0.01575,0.04331*
1,1,0.03150,0.01575,-0.04331*
%
%ADD26ROUNDEDRECTD26*%
%ADD27R,0.06299X0.11811*%
G04:AMPARAMS|DCode=28|XSize=118.11mil|YSize=62.99mil|CornerRadius=15.75mil|HoleSize=0mil|Usage=FLASHONLY|Rotation=0.000|XOffset=0mil|YOffset=0mil|HoleType=Round|Shape=RoundedRectangle|*
%AMROUNDEDRECTD28*
21,1,0.11811,0.03150,0,0,0.0*
21,1,0.08661,0.06299,0,0,0.0*
1,1,0.03150,0.04331,-0.01575*
1,1,0.03150,-0.04331,-0.01575*
1,1,0.03150,-0.04331,0.01575*
1,1,0.03150,0.04331,0.01575*
%
%ADD28ROUNDEDRECTD28*%
%ADD29R,0.11811X0.06299*%
%ADD30R,0.10000X0.06496*%
%ADD31C,0.03937*%
%ADD32C,0.00787*%
%ADD33C,0.05906*%
%ADD34C,0.01000*%
%ADD35C,0.11811*%
%ADD36C,0.07874*%
%ADD37C,0.02362*%
%ADD38P,0.10653X8X202.5*%
%ADD39P,0.10653X8X292.5*%
%ADD40O,0.05906X0.07874*%
%ADD41R,0.05906X0.07874*%
%ADD42O,0.05906X0.07874*%
%ADD43C,0.02300*%
%ADD44C,0.02000*%
%ADD45C,0.02500*%
%ADD46C,0.02598*%
G36*
X294749Y71003D02*
X295253Y70902D01*
X295747Y71001D01*
X296101Y70647D01*
X296002Y70153D01*
X296102Y69649D01*
X296388Y69221D01*
Y69116D01*
X296102Y68688D01*
X296002Y68184D01*
X296102Y67680D01*
X296388Y67253D01*
Y67147D01*
X296102Y66720D01*
X296002Y66216D01*
X296102Y65712D01*
X296388Y65284D01*
Y65179D01*
X296102Y64751D01*
X296002Y64247D01*
X296101Y63753D01*
X295747Y63399D01*
X295253Y63498D01*
X294749Y63398D01*
X294321Y63112D01*
X294216D01*
X293788Y63398D01*
X293284Y63498D01*
X292780Y63398D01*
X292353Y63112D01*
X292247D01*
X291820Y63398D01*
X291316Y63498D01*
X290812Y63398D01*
X290384Y63112D01*
X290279D01*
X289851Y63398D01*
X289347Y63498D01*
X288853Y63399D01*
X288499Y63753D01*
X288598Y64247D01*
X288497Y64751D01*
X288212Y65179D01*
Y65284D01*
X288497Y65712D01*
X288598Y66216D01*
X288497Y66720D01*
X288212Y67147D01*
Y67253D01*
X288497Y67680D01*
X288598Y68184D01*
X288497Y68688D01*
X288212Y69116D01*
Y69221D01*
X288497Y69649D01*
X288598Y70153D01*
X288499Y70647D01*
X288853Y71001D01*
X289347Y70902D01*
X289851Y71003D01*
X290279Y71288D01*
X290384D01*
X290812Y71003D01*
X291316Y70902D01*
X291820Y71003D01*
X292247Y71288D01*
X292353D01*
X292780Y71003D01*
X293284Y70902D01*
X293788Y71003D01*
X294216Y71288D01*
X294321D01*
X294749Y71003D01*
D02*
G37*
G36*
X214626Y113126D02*
X215204Y112682D01*
X215877Y112403D01*
X216600Y112308D01*
X223898D01*
Y111446D01*
X229800D01*
Y19000D01*
X222200Y11400D01*
X153292D01*
Y23871D01*
X158204Y28783D01*
X176800D01*
X177266Y28876D01*
X177661Y29139D01*
X181701Y33179D01*
X182200Y33080D01*
X182973Y33234D01*
X183628Y33672D01*
X184066Y34327D01*
X184220Y35100D01*
X184066Y35873D01*
X183628Y36528D01*
X183701Y36768D01*
X218915D01*
X219638Y36863D01*
X220311Y37142D01*
X220557Y37330D01*
X221632D01*
Y38419D01*
X221773Y38604D01*
X222052Y39277D01*
X222147Y40000D01*
X222052Y40723D01*
X221773Y41396D01*
X221632Y41581D01*
Y42670D01*
X220143D01*
X220078Y42697D01*
X219355Y42792D01*
X218632Y42697D01*
X218567Y42670D01*
X217079D01*
Y42352D01*
X183063D01*
X182918Y42831D01*
X183428Y43172D01*
X183866Y43827D01*
X184020Y44600D01*
X183866Y45373D01*
X183428Y46028D01*
X182773Y46466D01*
X182000Y46620D01*
X181751Y46570D01*
X180661Y47661D01*
X180266Y47924D01*
X179800Y48017D01*
X169204D01*
X166904Y50318D01*
Y52951D01*
X167115Y53092D01*
X167553Y53747D01*
X167707Y54520D01*
D01*
X168067Y54830D01*
Y54830D01*
X168067Y54830D01*
X168132Y54803D01*
X168855Y54708D01*
X169578Y54803D01*
X169643Y54830D01*
X171132D01*
Y55919D01*
X171274Y56104D01*
X171552Y56777D01*
X171648Y57500D01*
Y61500D01*
X171552Y62223D01*
X171274Y62896D01*
X171092Y63132D01*
Y64055D01*
X170997Y64778D01*
X170970Y64843D01*
Y66283D01*
X172731D01*
X172872Y66072D01*
X173527Y65634D01*
X174300Y65480D01*
X175073Y65634D01*
X175728Y66072D01*
X176166Y66727D01*
X176320Y67500D01*
X176166Y68273D01*
X175728Y68928D01*
X175073Y69366D01*
X174300Y69520D01*
X173527Y69366D01*
X172872Y68928D01*
X172731Y68717D01*
X170970D01*
Y70157D01*
X170997Y70222D01*
X171092Y70945D01*
Y71868D01*
X171274Y72104D01*
X171552Y72777D01*
X171648Y73500D01*
Y77500D01*
X171552Y78223D01*
X171274Y78896D01*
X171132Y79081D01*
Y80170D01*
X169643D01*
X169578Y80197D01*
X168855Y80292D01*
X168132Y80197D01*
X168067Y80170D01*
X166716D01*
Y82600D01*
X166716Y82600D01*
X166654Y82912D01*
X166477Y83177D01*
X166477Y83177D01*
X166395Y83258D01*
X164051Y85603D01*
X164051Y85603D01*
X163075Y86579D01*
Y87025D01*
X163251Y87290D01*
X163289Y87477D01*
X163465Y87550D01*
X164043Y87994D01*
X168575Y92526D01*
X168575Y92526D01*
X169018Y93104D01*
X169297Y93777D01*
X169392Y94500D01*
Y98817D01*
X190470Y119895D01*
X207856D01*
X214626Y113126D01*
D02*
G37*
G36*
X158157Y90343D02*
X158224Y90299D01*
X158252Y90287D01*
X158399Y90188D01*
X158712Y90126D01*
X158712Y90126D01*
X159093D01*
X159093Y90126D01*
X159405Y90188D01*
X159670Y90365D01*
X159670Y90365D01*
X159702Y90398D01*
X162498Y87602D01*
X162175Y87279D01*
X162152Y87246D01*
X162121Y87220D01*
X162065Y87114D01*
X161998Y87015D01*
X161990Y86975D01*
X161971Y86939D01*
X161959Y86820D01*
X161959Y86819D01*
X161956Y86813D01*
Y86806D01*
X161936Y86703D01*
X161944Y86663D01*
X161940Y86623D01*
X161945Y86573D01*
X161953Y86547D01*
X165900Y82600D01*
Y82520D01*
Y82107D01*
Y75475D01*
X165882Y75451D01*
X165603Y74778D01*
X165508Y74055D01*
Y71308D01*
X164886Y70686D01*
X161829D01*
X161325Y70786D01*
X158569D01*
X158065Y70686D01*
X157940Y70602D01*
X157499Y70838D01*
Y72036D01*
X157940Y72272D01*
X158065Y72188D01*
X158569Y72088D01*
X161325D01*
X161829Y72188D01*
X162257Y72474D01*
X162542Y72901D01*
X162643Y73405D01*
X162542Y73910D01*
X162394Y74131D01*
X163526Y75263D01*
X163790Y75658D01*
X163882Y76124D01*
Y82635D01*
X163790Y83100D01*
X163526Y83495D01*
X161961Y85061D01*
X161659Y85262D01*
X160816Y86105D01*
X160835Y86200D01*
X160696Y86902D01*
X160298Y87498D01*
X159702Y87896D01*
X159000Y88035D01*
X158298Y87896D01*
X157702Y87498D01*
X157304Y86902D01*
X157165Y86200D01*
X157304Y85498D01*
X157702Y84902D01*
X158298Y84504D01*
X159000Y84365D01*
X159095Y84384D01*
X160139Y83339D01*
X160441Y83138D01*
X160788Y82791D01*
X160552Y82350D01*
X160200Y82420D01*
X159427Y82266D01*
X159125Y82064D01*
X158666Y81973D01*
X158228Y82628D01*
X157573Y83066D01*
X156800Y83220D01*
X156027Y83066D01*
X155372Y82628D01*
X155167Y82322D01*
X154677Y82420D01*
X154666Y82473D01*
X154228Y83128D01*
X153573Y83566D01*
X152800Y83720D01*
X152027Y83566D01*
X151372Y83128D01*
X150934Y82473D01*
X150780Y81700D01*
X150934Y80927D01*
X151051Y80751D01*
Y78427D01*
X151051Y78425D01*
Y75669D01*
X151151Y75165D01*
X151235Y75040D01*
X150999Y74599D01*
X149801D01*
X149565Y75040D01*
X149649Y75165D01*
X149749Y75669D01*
Y78425D01*
X149649Y78929D01*
X149548Y79079D01*
Y80969D01*
X149456Y81434D01*
X149341Y81606D01*
X149420Y82000D01*
X149266Y82773D01*
X148828Y83428D01*
X148173Y83866D01*
X147400Y84020D01*
X146627Y83866D01*
X145972Y83428D01*
X145583Y82847D01*
X145163D01*
X145071Y82865D01*
X144828Y83228D01*
X144173Y83666D01*
X143400Y83820D01*
X142627Y83666D01*
X141972Y83228D01*
X141534Y82573D01*
X141485Y82327D01*
X140995Y82229D01*
X140928Y82328D01*
X140273Y82766D01*
X139500Y82920D01*
X138727Y82766D01*
X138072Y82328D01*
X137634Y81673D01*
X137480Y80900D01*
X137634Y80127D01*
X138072Y79472D01*
X138727Y79034D01*
X139173Y78945D01*
X139176Y78934D01*
X139439Y78539D01*
X141792Y76187D01*
X142187Y75923D01*
X142653Y75830D01*
X143177D01*
Y75669D01*
X143277Y75165D01*
X143345Y75064D01*
X143109Y74623D01*
X142735D01*
X142231Y74723D01*
X139475D01*
X138971Y74623D01*
X138543Y74337D01*
X138258Y73910D01*
X138157Y73405D01*
X138258Y72901D01*
X138543Y72474D01*
X138971Y72188D01*
X139475Y72088D01*
X142231D01*
X142735Y72188D01*
X142735Y72189D01*
X143301D01*
Y70838D01*
X142860Y70602D01*
X142735Y70686D01*
X142231Y70786D01*
X139475D01*
X138971Y70686D01*
X135320D01*
X135092Y70945D01*
X134997Y71667D01*
X134970Y71733D01*
Y73221D01*
X134037D01*
Y77000D01*
X133942Y77723D01*
X133700Y78307D01*
Y83300D01*
X140800Y90400D01*
X158100D01*
X158157Y90343D01*
D02*
G37*
G36*
X196371Y125479D02*
X189313D01*
X188590Y125384D01*
X187917Y125105D01*
X187338Y124662D01*
X164626Y101948D01*
X164182Y101370D01*
X163903Y100697D01*
X163808Y99974D01*
Y95657D01*
X160912Y92761D01*
X156705D01*
X155983Y92666D01*
X155309Y92387D01*
X154731Y91943D01*
X154731Y91943D01*
X154004Y91216D01*
X140800D01*
X140800Y91216D01*
X140488Y91154D01*
X140223Y90977D01*
X140223Y90977D01*
X133123Y83877D01*
X132946Y83612D01*
X132884Y83300D01*
X132884Y83300D01*
Y79670D01*
X132033D01*
X131967Y79697D01*
X131245Y79792D01*
X130522Y79697D01*
X130456Y79670D01*
X128969D01*
Y78581D01*
X128826Y78396D01*
X128548Y77723D01*
X128452Y77000D01*
Y72000D01*
X128452Y72000D01*
X128452D01*
X128548Y71277D01*
X128826Y70604D01*
X129270Y70025D01*
X129630Y69666D01*
Y68669D01*
X130719D01*
X130904Y68527D01*
X131577Y68248D01*
X132300Y68152D01*
X133023Y68248D01*
X133290Y68358D01*
X133311Y68344D01*
X133311Y68344D01*
X133311Y68344D01*
X133475Y68312D01*
X133776Y68252D01*
X138970D01*
X138971Y68251D01*
X139475Y68151D01*
X142231D01*
X142735Y68251D01*
X143162Y68537D01*
X143448Y68964D01*
X143548Y69468D01*
X143448Y69973D01*
X143453Y69994D01*
X143685Y70118D01*
X143778Y70195D01*
X143878Y70261D01*
X143900Y70295D01*
X143931Y70320D01*
X143988Y70426D01*
X144054Y70526D01*
X144062Y70565D01*
X144081Y70601D01*
X144093Y70720D01*
X144116Y70838D01*
Y72189D01*
X144054Y72501D01*
X143878Y72765D01*
X143613Y72942D01*
X143301Y73004D01*
X142735D01*
X142657Y72989D01*
X142577Y72989D01*
X142576Y72988D01*
X142576D01*
X142150Y72904D01*
X139555D01*
X139289Y72957D01*
X139131Y73062D01*
X139026Y73220D01*
X138989Y73405D01*
X139026Y73591D01*
X139131Y73749D01*
X139289Y73854D01*
X139555Y73907D01*
X142150D01*
X142576Y73823D01*
X142656D01*
X142735Y73807D01*
X143109D01*
X143227Y73830D01*
X143346Y73842D01*
X143382Y73861D01*
X143422Y73869D01*
X143521Y73936D01*
X143627Y73992D01*
X143652Y74023D01*
X143686Y74046D01*
X143753Y74146D01*
X143829Y74238D01*
X143936Y74439D01*
X143990Y74452D01*
X144494Y74352D01*
X144999Y74452D01*
X145426Y74738D01*
X145531D01*
X145959Y74452D01*
X146463Y74352D01*
X146967Y74452D01*
X147395Y74738D01*
X147500D01*
X147927Y74452D01*
X148432Y74352D01*
X148936Y74452D01*
X148958Y74447D01*
X149082Y74215D01*
X149158Y74122D01*
X149224Y74022D01*
X149258Y74000D01*
X149283Y73969D01*
X149389Y73912D01*
X149489Y73846D01*
X149528Y73838D01*
X149564Y73819D01*
X149683Y73807D01*
X149801Y73783D01*
X150999D01*
X151117Y73807D01*
X151236Y73819D01*
X151272Y73838D01*
X151311Y73846D01*
X151411Y73912D01*
X151517Y73969D01*
X151542Y74000D01*
X151576Y74022D01*
X151643Y74122D01*
X151718Y74215D01*
X151842Y74447D01*
X151864Y74452D01*
X152368Y74352D01*
X152873Y74452D01*
X153300Y74738D01*
X153405D01*
X153833Y74452D01*
X154337Y74352D01*
X154841Y74452D01*
X155269Y74738D01*
X155374D01*
X155801Y74452D01*
X156306Y74352D01*
X156810Y74452D01*
X157237Y74738D01*
X157523Y75165D01*
X157623Y75669D01*
Y75996D01*
X157908Y76187D01*
X160118Y78396D01*
X160200Y78380D01*
X160973Y78534D01*
X161007Y78557D01*
X161448Y78321D01*
Y76628D01*
X159544Y74723D01*
X158569D01*
X158065Y74623D01*
X157638Y74337D01*
X157352Y73910D01*
X157252Y73405D01*
X157352Y72901D01*
X157347Y72879D01*
X157115Y72755D01*
X157022Y72680D01*
X156922Y72613D01*
X156900Y72579D01*
X156869Y72554D01*
X156812Y72448D01*
X156746Y72348D01*
X156738Y72309D01*
X156719Y72273D01*
X156707Y72154D01*
X156684Y72036D01*
Y70838D01*
X156707Y70720D01*
X156719Y70601D01*
X156738Y70565D01*
X156746Y70526D01*
X156812Y70426D01*
X156869Y70320D01*
X156900Y70295D01*
X156922Y70261D01*
X157022Y70195D01*
X157115Y70118D01*
X157347Y69994D01*
X157352Y69973D01*
X157252Y69468D01*
X157352Y68964D01*
X157638Y68537D01*
Y68432D01*
X157352Y68004D01*
X157252Y67500D01*
X157352Y66996D01*
X157638Y66568D01*
Y66463D01*
X157352Y66036D01*
X157252Y65531D01*
X157352Y65027D01*
X157347Y65005D01*
X157115Y64881D01*
X157022Y64806D01*
X156922Y64739D01*
X156900Y64705D01*
X156869Y64680D01*
X156812Y64574D01*
X156746Y64474D01*
X156738Y64435D01*
X156719Y64399D01*
X156707Y64280D01*
X156684Y64162D01*
Y62964D01*
X156707Y62846D01*
X156719Y62727D01*
X156738Y62691D01*
X156746Y62652D01*
X156812Y62552D01*
X156869Y62446D01*
X156900Y62421D01*
X156922Y62387D01*
X157022Y62321D01*
X157115Y62244D01*
X157347Y62120D01*
X157352Y62099D01*
X157252Y61594D01*
X157352Y61090D01*
X157638Y60663D01*
X158065Y60377D01*
X158370Y60317D01*
X158468Y59826D01*
X158172Y59628D01*
X158066Y59470D01*
X157576Y59568D01*
X157523Y59835D01*
X157237Y60262D01*
X156810Y60548D01*
X156306Y60648D01*
X155801Y60548D01*
X155374Y60262D01*
X155269D01*
X154841Y60548D01*
X154337Y60648D01*
X153833Y60548D01*
X153405Y60262D01*
X153120Y59835D01*
X153020Y59331D01*
Y58330D01*
X153010Y58316D01*
X152918Y57850D01*
Y55931D01*
X152687Y55742D01*
X152202Y55863D01*
X152161Y55962D01*
X152090Y56134D01*
X152090Y56134D01*
D01*
X151920Y56389D01*
X151867Y56655D01*
Y59331D01*
X151867Y59333D01*
Y60401D01*
X151805Y60713D01*
X151628Y60978D01*
X151364Y61154D01*
X151051Y61216D01*
X150167D01*
X149855Y61154D01*
X149590Y60978D01*
X149413Y60713D01*
X149351Y60401D01*
Y60087D01*
X149183Y59835D01*
X149083Y59331D01*
Y56575D01*
X149183Y56071D01*
X149218Y56019D01*
X149217Y56019D01*
X149217Y56019D01*
Y56019D01*
X149176Y55977D01*
X148656Y55457D01*
D01*
X148599Y55400D01*
X142900D01*
X138000Y60300D01*
Y60380D01*
Y62529D01*
Y62583D01*
X138479Y62728D01*
X138508Y62683D01*
D01*
X138543Y62631D01*
X138971Y62346D01*
X139475Y62246D01*
X142231D01*
X142309Y62261D01*
X142735Y62346D01*
X143162Y62631D01*
X143184Y62663D01*
X143230Y62733D01*
D01*
X143260Y62778D01*
X143275Y62800D01*
X143342Y62845D01*
X143394Y62897D01*
X143403Y62903D01*
X143426Y62937D01*
X143458Y62963D01*
X143514Y63068D01*
X143580Y63168D01*
X143588Y63208D01*
X143608Y63244D01*
X143698Y63543D01*
X143702Y63583D01*
X143718Y63620D01*
X143718Y63740D01*
X143730Y63859D01*
X143718Y63898D01*
Y63938D01*
X143644Y64310D01*
X143644Y64310D01*
X143644Y64310D01*
X143644D01*
X143522Y64604D01*
X143522Y64604D01*
X143522Y64604D01*
X143445Y64719D01*
X143360Y64804D01*
X143326Y64846D01*
X143448Y65027D01*
X143548Y65531D01*
X143448Y66036D01*
X143162Y66463D01*
X142735Y66749D01*
X142231Y66849D01*
X139475D01*
X138971Y66749D01*
X133776D01*
X133311Y66656D01*
X133290Y66642D01*
X133023Y66752D01*
X132300Y66848D01*
X131577Y66752D01*
X130904Y66474D01*
X130719Y66331D01*
X129630D01*
Y65334D01*
X129270Y64974D01*
X128826Y64396D01*
X128548Y63723D01*
X128452Y63000D01*
Y57000D01*
X128548Y56277D01*
X128826Y55604D01*
X128969Y55419D01*
Y54330D01*
X130456D01*
X130522Y54303D01*
X131245Y54208D01*
X131967Y54303D01*
X132033Y54330D01*
X133521D01*
Y54330D01*
X133531D01*
X133884Y53976D01*
Y48100D01*
X133884Y48100D01*
X133946Y47788D01*
X134123Y47523D01*
X134123Y47523D01*
X137723Y43923D01*
X137988Y43746D01*
X138300Y43684D01*
X138300Y43684D01*
X148299D01*
X148535Y43243D01*
X148498Y43188D01*
X148405Y42722D01*
Y11400D01*
X74100D01*
X67000Y18500D01*
Y53452D01*
X78100D01*
Y54708D01*
X79563D01*
Y51000D01*
X79658Y50277D01*
X79937Y49604D01*
X80079Y49419D01*
Y48330D01*
X81567D01*
X81633Y48303D01*
X82355Y48208D01*
X83078Y48303D01*
X83144Y48330D01*
X84632D01*
Y49419D01*
X84773Y49604D01*
X85052Y50277D01*
X85148Y51000D01*
Y57000D01*
X85148Y57000D01*
X85148Y57000D01*
Y61479D01*
X85321D01*
Y62967D01*
X85348Y63033D01*
X85443Y63755D01*
X85348Y64478D01*
X85321Y64543D01*
Y66031D01*
X84232D01*
X84047Y66173D01*
X83373Y66452D01*
X82650Y66548D01*
X81928Y66452D01*
X81254Y66173D01*
X81069Y66031D01*
X79980D01*
Y64913D01*
X79937Y64856D01*
X79658Y64183D01*
X79563Y63460D01*
Y60292D01*
X78100D01*
Y61548D01*
X67000D01*
Y63452D01*
X78100D01*
Y71548D01*
X67000D01*
Y73452D01*
X78100D01*
Y74708D01*
X79563D01*
Y70940D01*
X79563Y70940D01*
X79563D01*
X79658Y70217D01*
X79937Y69544D01*
X79980Y69487D01*
Y68369D01*
X81069D01*
X81254Y68226D01*
X81928Y67948D01*
X82650Y67852D01*
X83373Y67948D01*
X84047Y68226D01*
X84232Y68369D01*
X85321D01*
Y69857D01*
X85348Y69922D01*
X85443Y70645D01*
X85348Y71368D01*
X85321Y71433D01*
Y72921D01*
X85148D01*
Y77000D01*
X85148Y77000D01*
X85148Y77000D01*
Y83000D01*
X85052Y83723D01*
X84773Y84396D01*
X84632Y84581D01*
Y85670D01*
X83144D01*
X83078Y85697D01*
X82355Y85792D01*
X81633Y85697D01*
X81567Y85670D01*
X80079D01*
Y84581D01*
X79937Y84396D01*
X79658Y83723D01*
X79563Y83000D01*
Y80292D01*
X78100D01*
Y81548D01*
X67000D01*
Y121800D01*
X72700Y127500D01*
X98203D01*
X118569Y107134D01*
X118520Y106636D01*
X118508Y106628D01*
X118070Y105973D01*
X117916Y105200D01*
X118070Y104427D01*
X118508Y103772D01*
X119163Y103334D01*
X119936Y103180D01*
X120462Y103285D01*
X120878Y103007D01*
X120934Y102727D01*
X121372Y102072D01*
X122027Y101634D01*
X122800Y101480D01*
X123573Y101634D01*
X124228Y102072D01*
X124666Y102727D01*
X124719Y102995D01*
X125135Y103273D01*
X125600Y103180D01*
X126373Y103334D01*
X126780Y103165D01*
X126807Y103029D01*
X127245Y102373D01*
X127901Y101936D01*
X128674Y101782D01*
X129447Y101936D01*
X130102Y102373D01*
X130540Y103029D01*
X130567Y103165D01*
X130974Y103334D01*
X131747Y103180D01*
X132005Y103231D01*
X132118Y103119D01*
X132272Y102346D01*
X132710Y101690D01*
X133365Y101252D01*
X134138Y101099D01*
X134911Y101252D01*
X135566Y101690D01*
X135594Y101732D01*
X136084Y101830D01*
X136527Y101534D01*
X137300Y101380D01*
X138073Y101534D01*
X138728Y101972D01*
X139166Y102627D01*
X139320Y103400D01*
X139166Y104173D01*
X138728Y104828D01*
X138517Y104969D01*
Y105251D01*
X138424Y105716D01*
X138161Y106111D01*
X117234Y127038D01*
X117425Y127500D01*
X196371D01*
Y125479D01*
D02*
G37*
G36*
X363800Y113400D02*
Y81248D01*
X363000D01*
Y73152D01*
X363800D01*
Y71248D01*
X363000D01*
Y63152D01*
X363800D01*
Y61248D01*
X363000D01*
Y53152D01*
X363800D01*
Y16700D01*
X360566Y13466D01*
X360071Y13540D01*
X359642Y14343D01*
X358804Y15364D01*
X357783Y16202D01*
X356618Y16825D01*
X355354Y17209D01*
X354039Y17338D01*
X352725Y17209D01*
X351461Y16825D01*
X350296Y16202D01*
X349275Y15364D01*
X348437Y14343D01*
X347814Y13179D01*
X347431Y11914D01*
X347429Y11900D01*
X242200D01*
X234200Y19900D01*
Y53152D01*
X243600D01*
Y56606D01*
X247957Y60963D01*
X250063D01*
Y51200D01*
X250158Y50477D01*
X250437Y49804D01*
X250579Y49619D01*
Y48530D01*
X252067D01*
X252133Y48503D01*
X252855Y48408D01*
X253578Y48503D01*
X253643Y48530D01*
X255132D01*
Y49619D01*
X255274Y49804D01*
X255552Y50477D01*
X255648Y51200D01*
Y63700D01*
X255552Y64423D01*
X255470Y64622D01*
Y66031D01*
X254381D01*
X254196Y66173D01*
X253523Y66452D01*
X252800Y66548D01*
X246800D01*
X246077Y66452D01*
X245880Y66371D01*
X245404Y66173D01*
X245219Y66031D01*
X244130D01*
Y65388D01*
X243714Y65110D01*
X243600Y65158D01*
Y69243D01*
X243714Y69290D01*
X244130Y69012D01*
Y68369D01*
X245219D01*
X245404Y68226D01*
X245880Y68029D01*
X246077Y67948D01*
X246800Y67852D01*
X252800D01*
X253523Y67948D01*
X254196Y68226D01*
X254381Y68369D01*
X255470D01*
Y69778D01*
X255552Y69977D01*
X255648Y70700D01*
Y83200D01*
X255552Y83923D01*
X255274Y84596D01*
X255132Y84781D01*
Y85870D01*
X253643D01*
X253578Y85897D01*
X252855Y85992D01*
X252133Y85897D01*
X252067Y85870D01*
X250579D01*
Y84781D01*
X250437Y84596D01*
X250158Y83923D01*
X250063Y83200D01*
Y73437D01*
X247957D01*
X243600Y77794D01*
Y81248D01*
X234200D01*
Y111446D01*
X237702D01*
Y112308D01*
X240143D01*
X255525Y96925D01*
X255525D01*
X255525Y96925D01*
X255525Y96925D01*
Y96925D01*
X256104Y96482D01*
X256777Y96203D01*
X257500Y96108D01*
X276243D01*
X286019Y86332D01*
X285828Y85870D01*
X284533D01*
X284468Y85897D01*
X283745Y85992D01*
X283022Y85897D01*
X282957Y85870D01*
X281469D01*
Y84781D01*
X281327Y84596D01*
X281048Y83923D01*
X280952Y83200D01*
X281048Y82477D01*
X281327Y81804D01*
X281469Y81619D01*
Y81103D01*
X281093Y80774D01*
X280300Y80878D01*
X279507Y80774D01*
X279132Y81103D01*
Y81619D01*
X279274Y81804D01*
X279552Y82477D01*
X279648Y83200D01*
X279552Y83923D01*
X279274Y84596D01*
X279132Y84781D01*
Y85870D01*
X277643D01*
X277578Y85897D01*
X276855Y85992D01*
X271745D01*
X271022Y85897D01*
X270956Y85870D01*
X269468D01*
Y84781D01*
X269326Y84596D01*
X269048Y83923D01*
X268952Y83200D01*
X269048Y82477D01*
X269326Y81804D01*
X269468Y81619D01*
Y80530D01*
X270956D01*
X271022Y80503D01*
X271745Y80408D01*
X276855D01*
X277439Y80484D01*
X277631Y80023D01*
X276922Y79479D01*
X276232Y78579D01*
X275732Y78892D01*
X275669Y78916D01*
X275612Y78954D01*
X275521Y78972D01*
X275435Y79005D01*
X275367Y79002D01*
X275300Y79016D01*
X270300D01*
X269988Y78954D01*
X269839Y78854D01*
X269772D01*
Y78809D01*
X269723Y78777D01*
X269546Y78512D01*
X269484Y78200D01*
Y70854D01*
X265772D01*
Y63546D01*
X269484D01*
Y56200D01*
X269546Y55888D01*
X269723Y55623D01*
X269772Y55591D01*
Y55546D01*
X269839D01*
X269988Y55446D01*
X270300Y55384D01*
X275300D01*
X275367Y55398D01*
X275435Y55396D01*
X275521Y55428D01*
X275612Y55446D01*
X275669Y55484D01*
X275732Y55508D01*
X283912Y60620D01*
X284260Y60261D01*
X284134Y60073D01*
X283980Y59300D01*
X284134Y58527D01*
X284572Y57872D01*
X285227Y57434D01*
X285376Y57404D01*
X285522Y56926D01*
X282466Y53870D01*
X281469D01*
Y52781D01*
X281327Y52596D01*
X281048Y51923D01*
X280952Y51200D01*
X281048Y50477D01*
X281327Y49804D01*
X281469Y49619D01*
Y48530D01*
X282957D01*
X283022Y48503D01*
X283745Y48408D01*
X284468Y48503D01*
X284533Y48530D01*
X286021D01*
Y49527D01*
X288908Y52415D01*
X289578Y52503D01*
X289644Y52530D01*
X291131D01*
Y53619D01*
X291273Y53804D01*
X291552Y54477D01*
X291648Y55200D01*
X291552Y55923D01*
X291478Y56102D01*
X292176Y56800D01*
D01*
X292424Y56800D01*
X293122Y56102D01*
X293048Y55923D01*
X292952Y55200D01*
X293048Y54477D01*
X293326Y53804D01*
X293468Y53619D01*
Y52530D01*
X294521D01*
X296325Y50726D01*
X296904Y50282D01*
X297577Y50003D01*
X298300Y49908D01*
X326855D01*
X327578Y50003D01*
X328251Y50282D01*
X328830Y50726D01*
X328830Y50726D01*
X328830Y50726D01*
X332634Y54530D01*
X333631D01*
Y55619D01*
X333773Y55804D01*
X334052Y56477D01*
X334148Y57200D01*
Y61200D01*
X334052Y61923D01*
X333773Y62596D01*
X333330Y63174D01*
X332751Y63618D01*
X332592Y63684D01*
Y63755D01*
X332497Y64478D01*
X332470Y64543D01*
Y66031D01*
X331381D01*
X331196Y66173D01*
X330523Y66452D01*
X329800Y66548D01*
X329077Y66452D01*
X328404Y66173D01*
X328219Y66031D01*
X327130D01*
Y64543D01*
X327103Y64478D01*
X327008Y63755D01*
Y60200D01*
X327103Y59477D01*
X327382Y58804D01*
X327825Y58226D01*
X327868Y58193D01*
X327900Y57694D01*
X325698Y55492D01*
X315446D01*
X315203Y55652D01*
X315053Y55933D01*
X315054Y55935D01*
X315054Y55939D01*
X315056Y55942D01*
X315085Y56095D01*
X315116Y56247D01*
Y63546D01*
X318828D01*
Y70854D01*
X315116D01*
Y78200D01*
X315054Y78512D01*
X314877Y78777D01*
X314828Y78809D01*
Y78854D01*
D01*
Y78854D01*
X314882Y78908D01*
X324643D01*
X327630Y75920D01*
X327382Y75596D01*
X327103Y74923D01*
X327008Y74200D01*
Y70645D01*
X327103Y69922D01*
X327130Y69857D01*
Y68369D01*
X328219D01*
X328404Y68226D01*
X329077Y67948D01*
X329800Y67852D01*
X330523Y67948D01*
X331196Y68226D01*
X331381Y68369D01*
X332470D01*
Y69857D01*
X332497Y69922D01*
X332592Y70645D01*
Y70716D01*
X332751Y70782D01*
X333330Y71226D01*
X333773Y71804D01*
X334052Y72477D01*
X334148Y73200D01*
Y77200D01*
X334052Y77923D01*
X333773Y78596D01*
X333631Y78781D01*
Y79870D01*
X332143D01*
X332078Y79897D01*
X331884Y79923D01*
X331472Y79977D01*
X327775Y83675D01*
X327196Y84118D01*
X326523Y84397D01*
X325800Y84492D01*
X303999D01*
X303276Y84397D01*
X303079Y84316D01*
X302603Y84118D01*
X302025Y83675D01*
X301105Y82755D01*
X300058D01*
X299866Y83217D01*
X308351Y91702D01*
X310094D01*
X310817Y91797D01*
X311491Y92076D01*
X312069Y92520D01*
X316075Y96526D01*
X316800Y96431D01*
X317780Y96560D01*
X318693Y96938D01*
X319477Y97539D01*
X320078Y98323D01*
X320456Y99236D01*
X320585Y100216D01*
Y102184D01*
X320456Y103164D01*
X320078Y104077D01*
X319477Y104861D01*
X318693Y105462D01*
X317780Y105840D01*
X316800Y105969D01*
X315820Y105840D01*
X314907Y105462D01*
X314124Y104861D01*
X313522Y104077D01*
X313144Y103164D01*
X313015Y102184D01*
Y101364D01*
X310941Y99290D01*
X310492Y99511D01*
X310585Y100216D01*
Y102184D01*
X310456Y103164D01*
X310385Y103335D01*
Y110355D01*
X310256Y111335D01*
X309878Y112248D01*
X309277Y113032D01*
X308493Y113633D01*
X307580Y114011D01*
X306600Y114140D01*
X305620Y114011D01*
X304707Y113633D01*
X303924Y113032D01*
X303322Y112248D01*
X302944Y111335D01*
X302815Y110355D01*
Y101400D01*
X302815Y101400D01*
X302815D01*
X302944Y100420D01*
X303015Y100249D01*
Y100216D01*
X303144Y99236D01*
X303522Y98323D01*
X304123Y97539D01*
X304907Y96938D01*
X305044Y96881D01*
X305142Y96391D01*
X295426Y86674D01*
X294982Y86096D01*
X294954Y86030D01*
X294459Y85965D01*
X294374Y86075D01*
X293796Y86518D01*
X293685Y86564D01*
X279375Y100874D01*
X278796Y101318D01*
X278123Y101597D01*
X277400Y101692D01*
X258657D01*
X243274Y117075D01*
X242696Y117518D01*
X242023Y117797D01*
X241300Y117892D01*
X237702D01*
Y118754D01*
X237592D01*
Y122855D01*
X237497Y123578D01*
X237470Y123643D01*
Y124670D01*
X239800Y127000D01*
X332415D01*
Y112168D01*
X326128Y105881D01*
X325820Y105840D01*
X324907Y105462D01*
X324124Y104861D01*
X323522Y104077D01*
X323144Y103164D01*
X323015Y102184D01*
Y100216D01*
X323144Y99236D01*
X323522Y98323D01*
X324124Y97539D01*
X324907Y96938D01*
X325820Y96560D01*
X326800Y96431D01*
X327780Y96560D01*
X328693Y96938D01*
X329476Y97539D01*
X330078Y98323D01*
X330456Y99236D01*
X330497Y99544D01*
X338877Y107923D01*
X339478Y108707D01*
X339667Y109164D01*
X339856Y109620D01*
X339985Y110600D01*
Y127000D01*
X350200D01*
X363800Y113400D01*
D02*
G37*
G36*
X158065Y64314D02*
X158569Y64214D01*
X161325D01*
X161829Y64314D01*
X161830Y64315D01*
X165085D01*
X165508Y63892D01*
Y60945D01*
X165603Y60222D01*
X165694Y60001D01*
X165700Y59987D01*
Y56551D01*
X165687Y56540D01*
X164914Y56387D01*
X164258Y55949D01*
X163821Y55293D01*
X163667Y54520D01*
X163821Y53747D01*
X163911Y53611D01*
X160169Y49869D01*
X160100Y49878D01*
X158863Y49715D01*
X157711Y49238D01*
X156721Y48478D01*
X155962Y47489D01*
X155485Y46337D01*
X155322Y45100D01*
X155331Y45031D01*
X154800Y44500D01*
X152980D01*
X152866Y45073D01*
X152428Y45728D01*
X151773Y46166D01*
X151000Y46320D01*
X150227Y46166D01*
X149572Y45728D01*
X149134Y45073D01*
X149020Y44500D01*
X138300D01*
X134700Y48100D01*
Y61779D01*
X134970D01*
Y62870D01*
X136415Y64315D01*
X138970D01*
X138971Y64314D01*
X139475Y64214D01*
X142231D01*
X142713Y64310D01*
X142767Y64266D01*
X142844Y64151D01*
X142918Y63779D01*
X142827Y63481D01*
X142822Y63478D01*
X142765Y63421D01*
X142698Y63377D01*
X142654Y63310D01*
X142597Y63253D01*
X142574Y63219D01*
X142417Y63114D01*
X142150Y63061D01*
X139555D01*
X139289Y63114D01*
X139119Y63228D01*
X139109Y63246D01*
X139016Y63322D01*
X138932Y63407D01*
X138894Y63422D01*
X138863Y63448D01*
X138748Y63482D01*
X138638Y63528D01*
X138597D01*
X138558Y63540D01*
X138439Y63528D01*
X138319Y63528D01*
X138282Y63513D01*
X138242Y63509D01*
X137763Y63364D01*
X137727Y63345D01*
X137688Y63337D01*
X137588Y63270D01*
X137483Y63214D01*
X137457Y63182D01*
X137423Y63160D01*
X137357Y63060D01*
X137281Y62968D01*
X137269Y62929D01*
X137246Y62895D01*
X137223Y62778D01*
X137188Y62663D01*
X137192Y62623D01*
X137184Y62583D01*
Y60300D01*
X137184Y60300D01*
X137246Y59988D01*
X137423Y59723D01*
X137423Y59723D01*
X142323Y54823D01*
X142588Y54646D01*
X142900Y54584D01*
X142900Y54584D01*
X148599D01*
X148911Y54646D01*
X149017Y54717D01*
X149176Y54823D01*
X149176Y54823D01*
X149794Y55442D01*
X149839Y55509D01*
X149896Y55566D01*
X149926Y55640D01*
X149971Y55707D01*
X149987Y55785D01*
X150017Y55860D01*
Y55940D01*
X150033Y56019D01*
X150018Y56098D01*
Y56178D01*
X149987Y56252D01*
X149971Y56331D01*
X149959Y56349D01*
X149898Y56655D01*
Y59250D01*
X149951Y59517D01*
X150029Y59634D01*
X150060Y59708D01*
X150105Y59775D01*
X150120Y59854D01*
X150151Y59928D01*
X150151Y60008D01*
X150167Y60087D01*
Y60401D01*
X151051D01*
Y59333D01*
X151051Y59331D01*
Y56575D01*
X151151Y56071D01*
X151412Y55681D01*
X151314Y55190D01*
X151072Y55028D01*
X150634Y54373D01*
X150480Y53600D01*
X150634Y52827D01*
X151072Y52172D01*
X151727Y51734D01*
X152500Y51580D01*
X153273Y51734D01*
X153928Y52172D01*
X154366Y52827D01*
X154414Y53069D01*
X154905Y53167D01*
X155081Y52903D01*
X155736Y52465D01*
X156509Y52311D01*
X157282Y52465D01*
X157938Y52903D01*
X158376Y53558D01*
X158529Y54331D01*
X158376Y55104D01*
X157938Y55759D01*
X157523Y56037D01*
Y56071D01*
X157523Y56071D01*
X157623Y56575D01*
Y56732D01*
X158101Y56877D01*
X158172Y56772D01*
X158827Y56334D01*
X159600Y56180D01*
X160373Y56334D01*
X161028Y56772D01*
X161466Y57427D01*
X161620Y58200D01*
X161466Y58973D01*
X161164Y59425D01*
Y60277D01*
X161325D01*
X161829Y60377D01*
X162257Y60663D01*
X162542Y61090D01*
X162643Y61594D01*
X162542Y62099D01*
X162257Y62526D01*
X161829Y62812D01*
X161325Y62912D01*
X158569D01*
X158065Y62812D01*
X157940Y62728D01*
X157499Y62964D01*
Y64162D01*
X157940Y64398D01*
X158065Y64314D01*
D02*
G37*
G36*
X155593Y43603D02*
X155962Y42711D01*
X156721Y41721D01*
X157711Y40962D01*
X158863Y40485D01*
X160100Y40322D01*
X160832Y40418D01*
X163666Y37585D01*
X164244Y37142D01*
X164917Y36863D01*
X165640Y36768D01*
X180401D01*
X180637Y36327D01*
X180334Y35873D01*
X180180Y35102D01*
X176296Y31217D01*
X157700D01*
X157234Y31124D01*
X156839Y30861D01*
X151301Y25322D01*
X150839Y25514D01*
Y41471D01*
X151000Y42280D01*
X151773Y42434D01*
X152428Y42872D01*
X152866Y43527D01*
X152901Y43700D01*
X152901D01*
X152980Y43684D01*
X154800D01*
X154800Y43684D01*
X155112Y43746D01*
X155114Y43748D01*
X155593Y43603D01*
D02*
G37*
G36*
X39600Y94300D02*
Y70034D01*
X39322Y69997D01*
X39257Y69970D01*
X37768D01*
Y68881D01*
X37626Y68696D01*
X37348Y68023D01*
X37252Y67300D01*
X37348Y66577D01*
X37626Y65904D01*
X37768Y65719D01*
Y64630D01*
X39257D01*
X39322Y64603D01*
X39600Y64566D01*
Y41500D01*
X34700Y36600D01*
X2200D01*
X82Y36777D01*
X0Y37000D01*
X0D01*
X0Y37000D01*
Y98700D01*
X34200D01*
X34700Y99200D01*
X39600Y94300D01*
D02*
G37*
G36*
X391700Y61400D02*
Y2500D01*
X390100Y900D01*
X349900D01*
X349200Y1600D01*
X355600Y10900D01*
X359600D01*
X364700Y16000D01*
Y38353D01*
X365174Y38514D01*
X365621Y37930D01*
X366611Y37171D01*
X367763Y36694D01*
X369000Y36531D01*
X370237Y36694D01*
X371389Y37171D01*
X372378Y37930D01*
X373006Y38748D01*
X373350Y38890D01*
X373928Y39334D01*
X373928Y39334D01*
X373928Y39334D01*
X378673Y44079D01*
X379570D01*
Y45467D01*
X379597Y45533D01*
X379692Y46255D01*
X379597Y46978D01*
X379570Y47043D01*
Y48632D01*
X378351D01*
X378296Y48673D01*
X377623Y48952D01*
X376900Y49048D01*
X376177Y48952D01*
X375504Y48673D01*
X375449Y48632D01*
X374230D01*
Y47534D01*
X371815Y45119D01*
X371389Y45446D01*
X370237Y45924D01*
X369000Y46086D01*
X367763Y45924D01*
X366611Y45446D01*
X365621Y44687D01*
X365174Y44103D01*
X364700Y44264D01*
Y53152D01*
X372944D01*
X374230Y51866D01*
Y50968D01*
X375188D01*
X375504Y50726D01*
X376177Y50448D01*
X376900Y50352D01*
X377623Y50448D01*
X378296Y50726D01*
X378611Y50968D01*
X379570D01*
Y52356D01*
X379597Y52422D01*
X379692Y53145D01*
X379597Y53868D01*
X379570Y53933D01*
Y55521D01*
X378473D01*
X374819Y59175D01*
X374600Y59343D01*
Y61248D01*
X365401D01*
X365210Y61710D01*
X366400Y62900D01*
X390200D01*
X391700Y61400D01*
D02*
G37*
G36*
X314300Y56247D02*
X309300Y56200D01*
X297300Y63700D01*
Y70700D01*
X309300Y78200D01*
X314300D01*
Y56247D01*
D02*
G37*
G36*
X275890Y77831D02*
X275685Y77337D01*
X275522Y76100D01*
X275685Y74863D01*
X276162Y73711D01*
X276922Y72721D01*
X277911Y71962D01*
X279063Y71485D01*
X280300Y71322D01*
X281537Y71485D01*
X282689Y71962D01*
X283679Y72721D01*
X283804Y72885D01*
X287300Y70700D01*
Y63700D01*
X275300Y56200D01*
X270300D01*
Y78200D01*
X275300D01*
X275890Y77831D01*
D02*
G37*
G36*
X193100Y140800D02*
X214500D01*
X217700Y137600D01*
Y131200D01*
X216200Y129700D01*
X207300D01*
X202200Y134800D01*
X200900Y136100D01*
X198900D01*
X197717Y134917D01*
X197188Y134511D01*
X196783Y133983D01*
X193600Y130800D01*
X169300D01*
X161600Y138500D01*
Y145000D01*
X188900D01*
X193100Y140800D01*
D02*
G37*
G36*
X187000Y191800D02*
Y167500D01*
X189600Y164900D01*
X194500D01*
X198700Y160700D01*
Y157100D01*
X198200Y156600D01*
X195100D01*
X192100Y153600D01*
Y150900D01*
X188800Y147600D01*
X161100D01*
X152900Y155800D01*
Y197400D01*
X181400D01*
X187000Y191800D01*
D02*
G37*
G36*
X303800Y179400D02*
Y175100D01*
X290700Y162000D01*
Y149800D01*
X287600Y146700D01*
X282400D01*
Y157400D01*
X283984Y158984D01*
X287400D01*
X287712Y159046D01*
X287977Y159223D01*
X288154Y159488D01*
X288216Y159800D01*
Y165200D01*
X288216Y165200D01*
X288154Y165512D01*
X287977Y165777D01*
X287977Y165777D01*
X287400Y166353D01*
Y166700D01*
X286400Y167700D01*
Y177500D01*
X288000Y179100D01*
X289200Y180300D01*
X302900D01*
X303800Y179400D01*
D02*
G37*
G36*
X287400Y165200D02*
Y159800D01*
X282300D01*
X281200Y158700D01*
X280600Y158100D01*
Y144200D01*
X278700Y142300D01*
X269200D01*
X266500Y145000D01*
Y164200D01*
X260000Y170700D01*
X252300D01*
Y181000D01*
X259800Y188500D01*
X264100D01*
X287400Y165200D01*
D02*
G37*
G36*
X326100Y170100D02*
X328600Y167600D01*
Y156695D01*
X328507Y156470D01*
X328378Y155491D01*
Y151778D01*
X328200Y151600D01*
X323900D01*
X316400Y159100D01*
X310500D01*
Y170600D01*
X325600D01*
X326100Y170100D01*
D02*
G37*
G36*
X389000Y183200D02*
Y179900D01*
Y161500D01*
X387000Y159500D01*
X382400Y154900D01*
X365500D01*
X356400Y164000D01*
X355900Y164500D01*
X354390D01*
X354386Y164502D01*
X354319Y164546D01*
X354240Y164562D01*
X354166Y164593D01*
X354086D01*
X354007Y164609D01*
X353928Y164593D01*
X353848D01*
X353600Y164543D01*
X353157Y164631D01*
X352782Y164882D01*
X352532Y165257D01*
X352443Y165700D01*
X352493Y165948D01*
Y166028D01*
X352508Y166107D01*
X352493Y166186D01*
Y166266D01*
X352462Y166341D01*
X352446Y166419D01*
X352402Y166486D01*
X352371Y166560D01*
X352314Y166617D01*
X352270Y166684D01*
X351583Y167370D01*
X351516Y167415D01*
X351460Y167472D01*
X351385Y167503D01*
X351319Y167547D01*
X351240Y167563D01*
X351166Y167594D01*
X351085Y167594D01*
X351006Y167609D01*
X350927Y167594D01*
X350847Y167594D01*
X350773Y167563D01*
X350694Y167547D01*
X350683Y167540D01*
X350200Y167444D01*
X349757Y167532D01*
X349538Y167678D01*
X349464Y167709D01*
X349397Y167754D01*
X349334Y167766D01*
X348400Y168700D01*
Y172447D01*
X353027Y177073D01*
X353100Y177000D01*
X355100D01*
X356400Y178300D01*
X360000Y181900D01*
X363900Y185800D01*
X386400D01*
X389000Y183200D01*
D02*
G37*
G36*
X387200Y201400D02*
Y190100D01*
X384200Y187100D01*
X361900D01*
X358500Y183700D01*
X347000Y172200D01*
X310100D01*
Y177200D01*
X319400Y186500D01*
Y202300D01*
X320800Y203700D01*
X384900D01*
X387200Y201400D01*
D02*
G37*
G36*
X208300Y169300D02*
Y152400D01*
X199000Y143100D01*
X195500D01*
X194000Y144600D01*
Y153900D01*
X195884Y155784D01*
X198200D01*
X198200Y155784D01*
X198512Y155846D01*
X198592Y155900D01*
X199100D01*
X199500Y156300D01*
Y157021D01*
X199516Y157100D01*
X199516Y157100D01*
Y160700D01*
X199516Y160700D01*
X199500Y160779D01*
Y161500D01*
X191900Y169100D01*
Y172400D01*
X205200D01*
X208300Y169300D01*
D02*
G37*
G36*
X265684Y162516D02*
Y145000D01*
X265684Y145000D01*
X265700Y144921D01*
Y144700D01*
X265815Y144585D01*
X265923Y144423D01*
X265923Y144423D01*
X268623Y141723D01*
X268888Y141546D01*
X269200Y141484D01*
X269200Y141484D01*
X278700D01*
X278700Y141484D01*
X279012Y141546D01*
X279277Y141723D01*
X279277Y141723D01*
X279353Y141800D01*
X279500D01*
X279928Y142228D01*
X280504Y142613D01*
X280889Y143189D01*
X282200Y144500D01*
X286800D01*
X287700Y143600D01*
Y140300D01*
X285700Y138300D01*
X265000D01*
X260700Y142600D01*
X250600D01*
Y156600D01*
X251400Y157400D01*
X258600Y164600D01*
X263600D01*
X265684Y162516D01*
D02*
G37*
G36*
X233200Y222000D02*
Y208000D01*
X178600D01*
Y213600D01*
Y219000D01*
X185600Y226000D01*
X229200D01*
X233200Y222000D01*
D02*
G37*
G36*
X349439Y166763D02*
X350200Y166612D01*
X350961Y166763D01*
X351006Y166794D01*
X351693Y166107D01*
X351612Y165700D01*
X351763Y164939D01*
X352194Y164294D01*
X352839Y163863D01*
X353600Y163712D01*
X354007Y163793D01*
X363100Y154700D01*
X363900Y153900D01*
X379100D01*
X381600Y151400D01*
Y145500D01*
Y143600D01*
X379000Y141000D01*
X376100Y138100D01*
X338400D01*
X337200Y139300D01*
Y149600D01*
Y162500D01*
X341700Y167000D01*
X349085D01*
X349439Y166763D01*
D02*
G37*
G36*
X173100Y219400D02*
Y211200D01*
X178200Y206100D01*
X235200D01*
X242200Y213100D01*
X303600D01*
X306500Y210200D01*
Y202000D01*
Y193300D01*
X304700Y191500D01*
X288600D01*
X284700Y195400D01*
Y203200D01*
X280500Y207400D01*
X252200D01*
X247200Y202400D01*
Y197500D01*
X240000Y190300D01*
X212200D01*
X208400Y186500D01*
X206700Y184800D01*
X190700D01*
X189200Y186300D01*
Y193600D01*
X184300Y198500D01*
X168500D01*
X167600Y199400D01*
X158600Y208400D01*
Y220600D01*
X161900Y223900D01*
X168600D01*
X173100Y219400D01*
D02*
G37*
%LPC*%
G36*
X276855Y53992D02*
X271745D01*
X271022Y53897D01*
X270956Y53870D01*
X269468D01*
Y52781D01*
X269326Y52596D01*
X269048Y51923D01*
X268952Y51200D01*
X269048Y50477D01*
X269326Y49804D01*
X269468Y49619D01*
Y48530D01*
X270956D01*
X271022Y48503D01*
X271745Y48408D01*
X276855D01*
X277578Y48503D01*
X277643Y48530D01*
X279132D01*
Y49619D01*
X279274Y49804D01*
X279552Y50477D01*
X279648Y51200D01*
X279552Y51923D01*
X279274Y52596D01*
X279132Y52781D01*
Y53870D01*
X277643D01*
X277578Y53897D01*
X276855Y53992D01*
D02*
G37*
G36*
X306800Y35969D02*
X305820Y35840D01*
X304907Y35462D01*
X304123Y34861D01*
X303522Y34077D01*
X303144Y33164D01*
X303015Y32184D01*
Y30216D01*
X303144Y29236D01*
X303522Y28323D01*
X304123Y27539D01*
X304907Y26938D01*
X305820Y26560D01*
X306800Y26431D01*
X307780Y26560D01*
X308693Y26938D01*
X309476Y27539D01*
X310078Y28323D01*
X310456Y29236D01*
X310585Y30216D01*
Y32184D01*
X310456Y33164D01*
X310078Y34077D01*
X309476Y34861D01*
X308693Y35462D01*
X307780Y35840D01*
X306800Y35969D01*
D02*
G37*
G36*
X316800D02*
X315820Y35840D01*
X314907Y35462D01*
X314124Y34861D01*
X313522Y34077D01*
X313144Y33164D01*
X313015Y32184D01*
Y30216D01*
X313144Y29236D01*
X313522Y28323D01*
X314124Y27539D01*
X314907Y26938D01*
X315820Y26560D01*
X316800Y26431D01*
X317780Y26560D01*
X318693Y26938D01*
X319477Y27539D01*
X320078Y28323D01*
X320456Y29236D01*
X320585Y30216D01*
Y32184D01*
X320456Y33164D01*
X320078Y34077D01*
X319477Y34861D01*
X318693Y35462D01*
X317780Y35840D01*
X316800Y35969D01*
D02*
G37*
G36*
X110300Y66848D02*
X109577Y66752D01*
X108904Y66474D01*
X108719Y66331D01*
X107630D01*
Y64843D01*
X107603Y64778D01*
X107508Y64055D01*
Y60500D01*
X107508Y60500D01*
X107508D01*
X107551Y60168D01*
X107222Y59792D01*
X103245D01*
X102522Y59697D01*
X102456Y59670D01*
X100969D01*
Y58581D01*
X100827Y58396D01*
X100548Y57723D01*
X100452Y57000D01*
Y51000D01*
X100548Y50277D01*
X100827Y49604D01*
X100969Y49419D01*
Y48330D01*
X102456D01*
X102522Y48303D01*
X103245Y48208D01*
X103967Y48303D01*
X104033Y48330D01*
X105521D01*
Y49419D01*
X105663Y49604D01*
X105942Y50277D01*
X106037Y51000D01*
Y54208D01*
X107563D01*
Y51000D01*
X107658Y50277D01*
X107937Y49604D01*
X108079Y49419D01*
Y48330D01*
X109567D01*
X109633Y48303D01*
X110355Y48208D01*
X111078Y48303D01*
X111144Y48330D01*
X112631D01*
Y49419D01*
X112774Y49604D01*
X113052Y50277D01*
X113148Y51000D01*
Y57000D01*
Y60555D01*
X113092Y60975D01*
Y64055D01*
X112997Y64778D01*
X112970Y64843D01*
Y66331D01*
X111881D01*
X111696Y66474D01*
X111023Y66752D01*
X110300Y66848D01*
D02*
G37*
G36*
X96300D02*
X95577Y66752D01*
X94904Y66474D01*
X94719Y66331D01*
X93630D01*
Y64843D01*
X93603Y64778D01*
X93508Y64055D01*
Y60500D01*
X93508Y60500D01*
X93508D01*
X93551Y60168D01*
X93222Y59792D01*
X89245D01*
X88522Y59697D01*
X88456Y59670D01*
X86968D01*
Y58581D01*
X86844Y58419D01*
X86826Y58396D01*
X86548Y57723D01*
X86452Y57000D01*
Y51000D01*
X86548Y50277D01*
X86826Y49604D01*
X86968Y49419D01*
Y48330D01*
X88456D01*
X88522Y48303D01*
X89245Y48208D01*
X89968Y48303D01*
X90033Y48330D01*
X91521D01*
Y49419D01*
X91663Y49604D01*
X91942Y50277D01*
X92037Y51000D01*
Y54208D01*
X93563D01*
Y51000D01*
X93658Y50277D01*
X93937Y49604D01*
X94079Y49419D01*
Y48330D01*
X95567D01*
X95632Y48303D01*
X96355Y48208D01*
X97078Y48303D01*
X97144Y48330D01*
X98632D01*
Y49419D01*
X98773Y49604D01*
X99052Y50277D01*
X99148Y51000D01*
Y57000D01*
Y60555D01*
X99092Y60975D01*
Y64055D01*
X98997Y64778D01*
X98970Y64843D01*
Y66331D01*
X97881D01*
X97696Y66474D01*
X97023Y66752D01*
X96300Y66848D01*
D02*
G37*
G36*
X264855Y53992D02*
X259745D01*
X259022Y53897D01*
X258957Y53870D01*
X257469D01*
Y52781D01*
X257327Y52596D01*
X257048Y51923D01*
X256952Y51200D01*
X257048Y50477D01*
X257327Y49804D01*
X257469Y49619D01*
Y48530D01*
X258957D01*
X259022Y48503D01*
X259745Y48408D01*
X264855D01*
X265578Y48503D01*
X265644Y48530D01*
X267131D01*
Y49619D01*
X267273Y49804D01*
X267552Y50477D01*
X267648Y51200D01*
X267552Y51923D01*
X267273Y52596D01*
X267131Y52781D01*
Y53870D01*
X265644D01*
X265578Y53897D01*
X264855Y53992D01*
D02*
G37*
G36*
X124300Y66848D02*
X123577Y66752D01*
X122904Y66474D01*
X122719Y66331D01*
X121630D01*
Y64843D01*
X121603Y64778D01*
X121508Y64055D01*
Y60945D01*
X121563Y60526D01*
Y59792D01*
X117245D01*
X116522Y59697D01*
X116456Y59670D01*
X114969D01*
Y58581D01*
X114844Y58419D01*
X114827Y58396D01*
X114548Y57723D01*
X114452Y57000D01*
Y51000D01*
X114548Y50277D01*
X114827Y49604D01*
X114969Y49419D01*
Y48330D01*
X116456D01*
X116522Y48303D01*
X117245Y48208D01*
X117967Y48303D01*
X118033Y48330D01*
X119521D01*
Y49419D01*
X119663Y49604D01*
X119942Y50277D01*
X120037Y51000D01*
Y54208D01*
X124355D01*
X125078Y54303D01*
X125144Y54330D01*
X126631D01*
Y55419D01*
X126661Y55457D01*
X126774Y55604D01*
X127052Y56277D01*
X127148Y57000D01*
Y61000D01*
X127092Y61419D01*
Y64055D01*
X126997Y64778D01*
X126970Y64843D01*
Y66331D01*
X125881D01*
X125696Y66474D01*
X125023Y66752D01*
X124300Y66848D01*
D02*
G37*
G36*
X337800Y66548D02*
X337077Y66452D01*
X336404Y66173D01*
X336219Y66031D01*
X335130D01*
Y64543D01*
X335103Y64478D01*
X335008Y63755D01*
Y60755D01*
X335103Y60032D01*
X335382Y59359D01*
X335452Y59267D01*
Y57200D01*
X335548Y56477D01*
X335826Y55804D01*
X335968Y55619D01*
Y54530D01*
X337456D01*
X337522Y54503D01*
X338245Y54408D01*
X343000D01*
Y53152D01*
X354600D01*
Y61248D01*
X343000D01*
Y59992D01*
X341037D01*
Y61200D01*
X340942Y61923D01*
X340663Y62596D01*
X340592Y62688D01*
Y63755D01*
X340497Y64478D01*
X340470Y64543D01*
Y66031D01*
X339381D01*
X339196Y66173D01*
X338523Y66452D01*
X337800Y66548D01*
D02*
G37*
G36*
X110355Y85792D02*
X109633Y85697D01*
X109567Y85670D01*
X108079D01*
Y84581D01*
X107937Y84396D01*
X107658Y83723D01*
X107563Y83000D01*
Y79792D01*
X106037D01*
Y83000D01*
X105942Y83723D01*
X105663Y84396D01*
X105521Y84581D01*
Y85670D01*
X104033D01*
X103967Y85697D01*
X103245Y85792D01*
X102522Y85697D01*
X102456Y85670D01*
X100969D01*
Y84581D01*
X100827Y84396D01*
X100548Y83723D01*
X100452Y83000D01*
Y77000D01*
X100548Y76277D01*
X100827Y75604D01*
X100969Y75419D01*
Y74330D01*
X102456D01*
X102522Y74303D01*
X103245Y74208D01*
X107508D01*
Y70945D01*
X107603Y70222D01*
X107630Y70157D01*
Y68669D01*
X108719D01*
X108904Y68527D01*
X109577Y68248D01*
X110300Y68152D01*
X111023Y68248D01*
X111696Y68527D01*
X111881Y68669D01*
X112970D01*
Y70157D01*
X112997Y70222D01*
X113092Y70945D01*
Y74025D01*
X113148Y74445D01*
Y77000D01*
Y83000D01*
X113052Y83723D01*
X112774Y84396D01*
X112631Y84581D01*
Y85670D01*
X111144D01*
X111078Y85697D01*
X110355Y85792D01*
D02*
G37*
G36*
X96355D02*
X95632Y85697D01*
X95567Y85670D01*
X94079D01*
Y84581D01*
X93937Y84396D01*
X93658Y83723D01*
X93563Y83000D01*
Y79792D01*
X92037D01*
Y83000D01*
X91942Y83723D01*
X91663Y84396D01*
X91521Y84581D01*
Y85670D01*
X90033D01*
X89968Y85697D01*
X89245Y85792D01*
X88522Y85697D01*
X88456Y85670D01*
X86968D01*
Y84581D01*
X86826Y84396D01*
X86548Y83723D01*
X86452Y83000D01*
Y77000D01*
X86548Y76277D01*
X86826Y75604D01*
X86968Y75419D01*
Y74330D01*
X88456D01*
X88522Y74303D01*
X89245Y74208D01*
X93563D01*
Y73475D01*
X93508Y73055D01*
Y70945D01*
X93603Y70222D01*
X93630Y70157D01*
Y68669D01*
X94719D01*
X94904Y68527D01*
X95577Y68248D01*
X96300Y68152D01*
X97023Y68248D01*
X97696Y68527D01*
X97881Y68669D01*
X98970D01*
Y70157D01*
X98997Y70222D01*
X99092Y70945D01*
Y72581D01*
X99148Y73000D01*
Y77000D01*
Y83000D01*
X99052Y83723D01*
X98773Y84396D01*
X98632Y84581D01*
Y85670D01*
X97144D01*
X97078Y85697D01*
X96355Y85792D01*
D02*
G37*
G36*
X264855Y85992D02*
X259745D01*
X259022Y85897D01*
X258957Y85870D01*
X257469D01*
Y84781D01*
X257327Y84596D01*
X257048Y83923D01*
X256952Y83200D01*
X257048Y82477D01*
X257327Y81804D01*
X257469Y81619D01*
Y80530D01*
X258957D01*
X259022Y80503D01*
X259745Y80408D01*
X264855D01*
X265578Y80503D01*
X265644Y80530D01*
X267131D01*
Y81619D01*
X267273Y81804D01*
X267552Y82477D01*
X267648Y83200D01*
X267552Y83923D01*
X267273Y84596D01*
X267131Y84781D01*
Y85870D01*
X265644D01*
X265578Y85897D01*
X264855Y85992D01*
D02*
G37*
G36*
X219355Y97026D02*
X192133D01*
X191411Y96930D01*
X191213Y96849D01*
X190737Y96652D01*
X190159Y96208D01*
X184479Y90528D01*
X184100Y90578D01*
X182863Y90415D01*
X181711Y89938D01*
X180721Y89179D01*
X179962Y88189D01*
X179485Y87037D01*
X179322Y85800D01*
X179485Y84563D01*
X179962Y83411D01*
X180721Y82421D01*
X181711Y81662D01*
X182863Y81185D01*
X184100Y81022D01*
X185337Y81185D01*
X186489Y81662D01*
X187478Y82421D01*
X188238Y83411D01*
X188715Y84563D01*
X188878Y85800D01*
X188735Y86886D01*
X193290Y91441D01*
X219355D01*
X220078Y91536D01*
X220144Y91563D01*
X221632D01*
Y92652D01*
X221774Y92837D01*
X222052Y93511D01*
X222148Y94233D01*
X222052Y94956D01*
X221774Y95630D01*
X221632Y95814D01*
Y96903D01*
X220144D01*
X220078Y96930D01*
X219355Y97026D01*
D02*
G37*
G36*
X226245D02*
X225522Y96930D01*
X225457Y96903D01*
X223969D01*
Y95814D01*
X223827Y95630D01*
X223548Y94956D01*
X223453Y94233D01*
Y87201D01*
X223452Y87200D01*
Y81248D01*
X217301D01*
X215082Y83468D01*
X215178Y84200D01*
X215015Y85437D01*
X214538Y86589D01*
X213778Y87578D01*
X212789Y88338D01*
X211637Y88815D01*
X210400Y88978D01*
X209163Y88815D01*
X208011Y88338D01*
X207021Y87578D01*
X206262Y86589D01*
X205785Y85437D01*
X205622Y84200D01*
X205785Y82963D01*
X206262Y81811D01*
X207021Y80822D01*
X207094Y80766D01*
X206933Y80292D01*
X187745D01*
X187022Y80197D01*
X186957Y80170D01*
X185468D01*
Y79155D01*
X185082Y78651D01*
X184803Y77978D01*
X184708Y77255D01*
Y70845D01*
X184803Y70122D01*
X184830Y70056D01*
Y68568D01*
X185919D01*
X186104Y68427D01*
X186777Y68148D01*
X187500Y68052D01*
X188223Y68148D01*
X188896Y68427D01*
X189081Y68568D01*
X190170D01*
Y70056D01*
X190197Y70122D01*
X190292Y70845D01*
Y74708D01*
X212000D01*
Y73152D01*
X223452D01*
Y71248D01*
X212000D01*
Y69992D01*
X210421D01*
Y70070D01*
X208933D01*
X208868Y70097D01*
X208145Y70192D01*
X207422Y70097D01*
X207357Y70070D01*
X205869D01*
Y68981D01*
X205727Y68796D01*
X205448Y68123D01*
X205352Y67400D01*
X205448Y66677D01*
X205727Y66004D01*
X205869Y65819D01*
Y64730D01*
X207074D01*
X207622Y64503D01*
X208345Y64408D01*
X212000D01*
Y63152D01*
X221399D01*
X222841Y61710D01*
X222650Y61248D01*
X212000D01*
Y60292D01*
X190292D01*
Y63955D01*
X190197Y64678D01*
X190170Y64744D01*
Y66232D01*
X189081D01*
X188896Y66373D01*
X188223Y66652D01*
X187500Y66748D01*
X186777Y66652D01*
X186104Y66373D01*
X185919Y66232D01*
X184830D01*
Y64744D01*
X184803Y64678D01*
X184708Y63955D01*
Y57745D01*
X184803Y57022D01*
X185082Y56349D01*
X185468Y55844D01*
Y54830D01*
X186957D01*
X187022Y54803D01*
X187745Y54708D01*
X209288D01*
X209479Y54246D01*
X209425Y54192D01*
X208982Y53614D01*
X208845Y53283D01*
X208011Y52938D01*
X207021Y52179D01*
X206262Y51189D01*
X205785Y50037D01*
X205622Y48800D01*
X205785Y47563D01*
X206262Y46411D01*
X207021Y45421D01*
X208011Y44662D01*
X209163Y44185D01*
X210400Y44022D01*
X211637Y44185D01*
X212789Y44662D01*
X213778Y45421D01*
X214538Y46411D01*
X215015Y47563D01*
X215178Y48800D01*
X215015Y50037D01*
X214538Y51189D01*
X214443Y51312D01*
X216284Y53152D01*
X223453D01*
Y40001D01*
X223452Y40000D01*
X223548Y39277D01*
X223827Y38604D01*
X223969Y38419D01*
Y37330D01*
X225457D01*
X225522Y37303D01*
X226245Y37208D01*
X226968Y37303D01*
X227033Y37330D01*
X228521D01*
Y38419D01*
X228663Y38604D01*
X228942Y39277D01*
X229037Y40000D01*
Y62255D01*
X228942Y62978D01*
X228663Y63651D01*
X228220Y64230D01*
X226749Y65700D01*
X228274Y67225D01*
X228718Y67804D01*
X228997Y68477D01*
X229092Y69200D01*
X229037Y69619D01*
X229037Y87200D01*
X229037Y87200D01*
D01*
Y94233D01*
X228942Y94956D01*
X228663Y95630D01*
X228521Y95814D01*
Y96903D01*
X227033D01*
X226968Y96930D01*
X226245Y97026D01*
D02*
G37*
G36*
X195300Y73247D02*
X194577Y73152D01*
X193904Y72873D01*
X193719Y72732D01*
X192630D01*
Y71243D01*
X192603Y71178D01*
X192508Y70455D01*
Y67700D01*
Y64545D01*
X192603Y63822D01*
X192630Y63757D01*
Y62269D01*
X193719D01*
X193904Y62127D01*
X194577Y61848D01*
X195300Y61752D01*
X196023Y61848D01*
X196696Y62127D01*
X196881Y62269D01*
X197970D01*
Y63757D01*
X197997Y63822D01*
X198092Y64545D01*
Y64608D01*
X201255D01*
X201978Y64703D01*
X202043Y64730D01*
X203532D01*
Y65819D01*
X203673Y66004D01*
X203952Y66677D01*
X204047Y67400D01*
X203952Y68123D01*
X203673Y68796D01*
X203532Y68981D01*
Y70070D01*
X202043D01*
X201978Y70097D01*
X201255Y70192D01*
X198092D01*
Y70455D01*
X197997Y71178D01*
X197970Y71243D01*
Y72732D01*
X196881D01*
X196696Y72873D01*
X196023Y73152D01*
X195300Y73247D01*
D02*
G37*
G36*
X180300Y66848D02*
X179577Y66752D01*
X178904Y66474D01*
X178719Y66331D01*
X177630D01*
Y64843D01*
X177603Y64778D01*
X177508Y64055D01*
Y60945D01*
X177544Y60668D01*
X177214Y60292D01*
X175745D01*
X175022Y60197D01*
X174957Y60170D01*
X173468D01*
Y59081D01*
X173327Y58896D01*
X173048Y58223D01*
X172952Y57500D01*
X173048Y56777D01*
X173327Y56104D01*
X173468Y55919D01*
Y54830D01*
X174957D01*
X175022Y54803D01*
X175745Y54708D01*
X180855D01*
X181578Y54803D01*
X181643Y54830D01*
X183132D01*
Y55919D01*
X183273Y56104D01*
X183552Y56777D01*
X183648Y57500D01*
Y61500D01*
X183552Y62223D01*
X183273Y62896D01*
X183092Y63132D01*
Y64055D01*
X182997Y64778D01*
X182970Y64843D01*
Y66331D01*
X181881D01*
X181696Y66474D01*
X181023Y66752D01*
X180300Y66848D01*
D02*
G37*
G36*
X354600Y81248D02*
X343000D01*
Y79992D01*
X338245D01*
X337522Y79897D01*
X337456Y79870D01*
X335968D01*
Y78781D01*
X335826Y78596D01*
X335548Y77923D01*
X335452Y77200D01*
Y75133D01*
X335382Y75041D01*
X335103Y74367D01*
X335008Y73645D01*
Y70645D01*
X335103Y69922D01*
X335130Y69857D01*
Y68369D01*
X336219D01*
X336404Y68226D01*
X337077Y67948D01*
X337800Y67852D01*
X338523Y67948D01*
X339196Y68226D01*
X339381Y68369D01*
X340470D01*
Y69857D01*
X340497Y69922D01*
X340592Y70645D01*
Y71712D01*
X340663Y71804D01*
X340942Y72477D01*
X341037Y73200D01*
Y74408D01*
X343000D01*
Y73152D01*
X352681D01*
X352763Y72739D01*
X353194Y72094D01*
X353744Y71727D01*
X353599Y71248D01*
X343000D01*
Y63152D01*
X354600D01*
Y64535D01*
X355196Y64782D01*
X355774Y65225D01*
X356218Y65804D01*
X356497Y66477D01*
X356592Y67200D01*
X356497Y67923D01*
X356218Y68596D01*
X355774Y69174D01*
X355196Y69618D01*
X354600Y69865D01*
Y71248D01*
X354600Y71248D01*
X354600D01*
Y71512D01*
X355361Y71663D01*
X356006Y72094D01*
X356437Y72739D01*
X356588Y73500D01*
X356437Y74261D01*
X356006Y74906D01*
X355361Y75337D01*
X354600Y75488D01*
Y81248D01*
D02*
G37*
G36*
X180855Y80292D02*
X175745D01*
X175022Y80197D01*
X174957Y80170D01*
X173468D01*
Y79081D01*
X173327Y78896D01*
X173048Y78223D01*
X172952Y77500D01*
X173048Y76777D01*
X173327Y76104D01*
X173468Y75919D01*
Y74830D01*
X174957D01*
X175022Y74803D01*
X175745Y74708D01*
X177508D01*
Y70945D01*
X177603Y70222D01*
X177630Y70157D01*
Y68669D01*
X178719D01*
X178904Y68527D01*
X179577Y68248D01*
X180300Y68152D01*
X181023Y68248D01*
X181696Y68527D01*
X181881Y68669D01*
X182970D01*
Y70157D01*
X182997Y70222D01*
X183092Y70945D01*
Y74830D01*
X183132D01*
Y75919D01*
X183273Y76104D01*
X183552Y76777D01*
X183648Y77500D01*
X183552Y78223D01*
X183273Y78896D01*
X183132Y79081D01*
Y80170D01*
X181643D01*
X181578Y80197D01*
X180855Y80292D01*
D02*
G37*
G36*
X117245Y85792D02*
X116522Y85697D01*
X116456Y85670D01*
X114969D01*
Y84581D01*
X114827Y84396D01*
X114548Y83723D01*
X114452Y83000D01*
Y77000D01*
X114548Y76277D01*
X114827Y75604D01*
X114969Y75419D01*
Y74330D01*
X116456D01*
X116522Y74303D01*
X117245Y74208D01*
X121563D01*
Y73475D01*
X121508Y73055D01*
Y70945D01*
X121603Y70222D01*
X121630Y70157D01*
Y68669D01*
X122719D01*
X122904Y68527D01*
X123577Y68248D01*
X124300Y68152D01*
X125023Y68248D01*
X125696Y68527D01*
X125881Y68669D01*
X126970D01*
Y70157D01*
X126997Y70222D01*
X127092Y70945D01*
Y72581D01*
X127148Y73000D01*
Y77000D01*
X127052Y77723D01*
X126774Y78396D01*
X126631Y78581D01*
Y79670D01*
X125144D01*
X125078Y79697D01*
X124355Y79792D01*
X120037D01*
Y83000D01*
X119942Y83723D01*
X119663Y84396D01*
X119521Y84581D01*
Y85670D01*
X118033D01*
X117967Y85697D01*
X117245Y85792D01*
D02*
G37*
%LPD*%
D10*
X11316Y105100D02*
D03*
X11300Y29800D02*
D03*
D11*
X11316Y118850D02*
D03*
Y91350D02*
D03*
X11300Y16050D02*
D03*
Y43550D02*
D03*
D12*
X132300Y70945D02*
D03*
Y64055D02*
D03*
X82650Y63755D02*
D03*
Y70645D02*
D03*
X96300Y64055D02*
D03*
Y70945D02*
D03*
X110300Y64055D02*
D03*
Y70945D02*
D03*
X124300Y64055D02*
D03*
Y70945D02*
D03*
X168300Y64055D02*
D03*
Y70945D02*
D03*
X180300Y64055D02*
D03*
Y70945D02*
D03*
X252800Y70645D02*
D03*
Y63755D02*
D03*
X329800D02*
D03*
Y70645D02*
D03*
X337800Y63755D02*
D03*
Y70645D02*
D03*
X246800Y63755D02*
D03*
Y70645D02*
D03*
X312800Y154555D02*
D03*
Y161445D02*
D03*
X75500Y167945D02*
D03*
Y161055D02*
D03*
X65300Y207245D02*
D03*
Y200355D02*
D03*
X65275Y167945D02*
D03*
Y161055D02*
D03*
X312800Y168255D02*
D03*
Y175145D02*
D03*
X55200Y207245D02*
D03*
Y200355D02*
D03*
X55050Y167945D02*
D03*
Y161055D02*
D03*
X45100Y207245D02*
D03*
Y200355D02*
D03*
X44825Y167945D02*
D03*
Y161055D02*
D03*
X35000Y207245D02*
D03*
Y200355D02*
D03*
X34600Y167945D02*
D03*
Y161055D02*
D03*
X285000Y142555D02*
D03*
Y149445D02*
D03*
X285100Y155355D02*
D03*
Y162245D02*
D03*
X234800Y129745D02*
D03*
Y122855D02*
D03*
X195300Y64545D02*
D03*
Y57655D02*
D03*
Y77345D02*
D03*
Y70455D02*
D03*
X51200Y94994D02*
D03*
Y88105D02*
D03*
Y39555D02*
D03*
Y46445D02*
D03*
X82400Y209345D02*
D03*
Y202455D02*
D03*
X306600Y117245D02*
D03*
Y110355D02*
D03*
X196500Y138455D02*
D03*
Y145345D02*
D03*
Y151855D02*
D03*
Y158745D02*
D03*
X370500Y96745D02*
D03*
Y89855D02*
D03*
X187500Y63955D02*
D03*
Y70845D02*
D03*
X376900Y53245D02*
D03*
Y46355D02*
D03*
D13*
X33155Y67300D02*
D03*
X40045D02*
D03*
X82355Y83000D02*
D03*
X89245D02*
D03*
X96355D02*
D03*
X103245D02*
D03*
X110355D02*
D03*
X117245D02*
D03*
X82355Y51000D02*
D03*
X89245D02*
D03*
X96355D02*
D03*
X103245D02*
D03*
X110355D02*
D03*
X117245D02*
D03*
X219355Y87200D02*
D03*
X226245D02*
D03*
X252855Y51200D02*
D03*
X259745D02*
D03*
X252855Y83200D02*
D03*
X259745D02*
D03*
X82355Y77000D02*
D03*
X89245D02*
D03*
X96355D02*
D03*
X103245D02*
D03*
X110355D02*
D03*
X117245D02*
D03*
X168855Y77500D02*
D03*
X175745D02*
D03*
X82355Y57000D02*
D03*
X89245D02*
D03*
X96355D02*
D03*
X103245D02*
D03*
X110355D02*
D03*
X117245D02*
D03*
X168855Y57500D02*
D03*
X175745D02*
D03*
X264855Y51200D02*
D03*
X271745D02*
D03*
X264855Y83200D02*
D03*
X271745D02*
D03*
X219355Y94233D02*
D03*
X226245D02*
D03*
X219355Y40000D02*
D03*
X226245D02*
D03*
X208145Y67400D02*
D03*
X201255D02*
D03*
X43245Y46150D02*
D03*
X36355D02*
D03*
X124355Y77000D02*
D03*
X131245D02*
D03*
X180855Y77500D02*
D03*
X187745D02*
D03*
X36355Y88400D02*
D03*
X43245D02*
D03*
X124355Y57000D02*
D03*
X131245D02*
D03*
X180855Y57500D02*
D03*
X187745D02*
D03*
X288855Y55200D02*
D03*
X295745D02*
D03*
X276855Y51200D02*
D03*
X283745D02*
D03*
X331355Y57200D02*
D03*
X338245D02*
D03*
X331355Y77200D02*
D03*
X338245D02*
D03*
X276855Y83200D02*
D03*
X283745D02*
D03*
X288855Y79200D02*
D03*
X295745D02*
D03*
D14*
X146300Y95437D02*
D03*
Y87563D02*
D03*
X142200Y39263D02*
D03*
Y47137D02*
D03*
X154300Y95437D02*
D03*
Y87563D02*
D03*
X164500Y142663D02*
D03*
Y150537D02*
D03*
X183600Y210037D02*
D03*
Y202163D02*
D03*
X191600Y210037D02*
D03*
Y202163D02*
D03*
X199600Y210037D02*
D03*
Y202163D02*
D03*
X379800Y182063D02*
D03*
Y189937D02*
D03*
X89600Y200759D02*
D03*
Y208633D02*
D03*
X376800Y201663D02*
D03*
Y209537D02*
D03*
X74700Y200946D02*
D03*
Y208820D02*
D03*
X209900Y202863D02*
D03*
Y210737D02*
D03*
D15*
X264863Y59200D02*
D03*
X272737D02*
D03*
X260863Y67200D02*
D03*
X268737D02*
D03*
X264863Y75200D02*
D03*
X272737D02*
D03*
X261363Y161700D02*
D03*
X269237D02*
D03*
X323737Y67200D02*
D03*
X315863D02*
D03*
X319737Y59200D02*
D03*
X311863D02*
D03*
X319737Y75200D02*
D03*
X311863D02*
D03*
X226863Y115100D02*
D03*
X234737D02*
D03*
X332163Y142900D02*
D03*
X340037D02*
D03*
D16*
X295253Y73499D02*
D03*
X293284D02*
D03*
X291316D02*
D03*
X289347D02*
D03*
Y60901D02*
D03*
X291316D02*
D03*
X293284D02*
D03*
X295253D02*
D03*
D17*
X286001Y70153D02*
D03*
Y68184D02*
D03*
Y66216D02*
D03*
Y64247D02*
D03*
X298599D02*
D03*
Y66216D02*
D03*
Y68184D02*
D03*
Y70153D02*
D03*
D18*
X292300Y67200D02*
D03*
D19*
X159947Y61594D02*
D03*
Y63563D02*
D03*
Y65531D02*
D03*
Y67500D02*
D03*
Y69468D02*
D03*
Y71437D02*
D03*
Y73405D02*
D03*
X140853D02*
D03*
Y71437D02*
D03*
Y69468D02*
D03*
Y67500D02*
D03*
Y65531D02*
D03*
Y63563D02*
D03*
Y61594D02*
D03*
D20*
X156306Y77047D02*
D03*
X154337D02*
D03*
X152368D02*
D03*
X150400D02*
D03*
X148432D02*
D03*
X146463D02*
D03*
X144494D02*
D03*
Y57953D02*
D03*
X146463D02*
D03*
X148432D02*
D03*
X150400D02*
D03*
X152368D02*
D03*
X154337D02*
D03*
X156306D02*
D03*
D21*
X150400Y67500D02*
D03*
D22*
X326245Y158584D02*
D03*
X344355D02*
D03*
D23*
X335300Y190474D02*
D03*
D24*
X296316Y177445D02*
D03*
Y195555D02*
D03*
X198616Y171245D02*
D03*
Y189355D02*
D03*
D25*
X264426Y186500D02*
D03*
X166726Y180300D02*
D03*
D26*
X363900Y177139D02*
D03*
X181200Y155761D02*
D03*
X226900Y198739D02*
D03*
D27*
X363900Y194461D02*
D03*
X181200Y138439D02*
D03*
X226900Y216061D02*
D03*
D28*
X274461Y145900D02*
D03*
D29*
X257139D02*
D03*
D30*
X52300Y77500D02*
D03*
Y67500D02*
D03*
Y57500D02*
D03*
X72300Y77500D02*
D03*
Y67500D02*
D03*
Y57500D02*
D03*
X237800Y57200D02*
D03*
Y67200D02*
D03*
Y77200D02*
D03*
X217800Y57200D02*
D03*
Y67200D02*
D03*
Y77200D02*
D03*
X348800D02*
D03*
Y67200D02*
D03*
Y57200D02*
D03*
X368800Y77200D02*
D03*
Y67200D02*
D03*
Y57200D02*
D03*
D31*
X370217D02*
X372845D01*
X376900Y53145D01*
X371954Y41309D02*
X376900Y46255D01*
X369000Y41309D02*
X371954D01*
X184100Y86200D02*
X192133Y94233D01*
X184100Y85800D02*
Y86200D01*
X187745Y77500D02*
X216083D01*
X210400Y84200D02*
X216383Y78217D01*
Y77200D02*
Y78217D01*
X226245Y40000D02*
X226245Y40000D01*
X187745Y57500D02*
X216083D01*
X211400Y48800D02*
Y52217D01*
X216383Y57200D01*
X192133Y94233D02*
X219355D01*
X216083Y77500D02*
X216383Y77200D01*
X195300Y67700D02*
X195600Y67400D01*
X195300Y67700D02*
Y70455D01*
Y64545D02*
Y67700D01*
X195600Y67400D02*
X201255D01*
X208145D02*
X208345Y67200D01*
X216383D01*
X226245Y87200D02*
X226245Y87200D01*
Y94233D01*
X216383Y67200D02*
X221300D01*
X226245Y62255D01*
X81855Y57500D02*
X82355Y57000D01*
X73717Y57500D02*
X81855D01*
X82355Y63460D02*
X82650Y63755D01*
X82355Y57000D02*
Y63460D01*
Y51000D02*
Y57000D01*
X81855Y77500D02*
X82355Y77000D01*
X73717Y77500D02*
X81855D01*
X82355Y70940D02*
X82650Y70645D01*
X82355Y70940D02*
Y77000D01*
Y83000D01*
X50683Y67300D02*
X50883Y67500D01*
X40045Y67300D02*
X50683D01*
X11316Y29500D02*
X41145D01*
X51200Y39555D01*
X11316Y105100D02*
X41094D01*
X51200Y94994D01*
X50883Y77500D02*
X51200Y77817D01*
Y88105D01*
X50905Y88400D02*
X51200Y88105D01*
X43245Y88400D02*
X50905D01*
X50883Y57500D02*
X51200Y57183D01*
Y46445D02*
Y57183D01*
X43245Y46150D02*
X43540Y46445D01*
X51200D01*
X187500Y57745D02*
Y63955D01*
Y77255D02*
X187745Y77500D01*
X187500Y70845D02*
Y77255D01*
X180300Y70945D02*
Y76945D01*
X325800Y81700D02*
X330300Y77200D01*
X326855Y52700D02*
X331355Y57200D01*
X298300Y52700D02*
X326855D01*
X295800Y55200D02*
X298300Y52700D01*
X295745Y55200D02*
X295800D01*
X330300Y77200D02*
X331355D01*
X338245D02*
X347383D01*
X338245Y57200D02*
X347383D01*
X329800Y74200D02*
X330355D01*
X331355Y73200D02*
Y77200D01*
X330355Y74200D02*
X331355Y73200D01*
X329800Y70645D02*
Y74200D01*
Y60200D02*
X330355D01*
X331355Y57200D02*
Y61200D01*
X330355Y60200D02*
X331355Y61200D01*
X329800Y60200D02*
Y63755D01*
X337800Y60755D02*
Y63755D01*
X338245Y57200D02*
Y61200D01*
X337800Y60755D02*
X338245Y61200D01*
X337800Y70645D02*
Y73645D01*
X338245Y73200D02*
Y77200D01*
X337800Y73645D02*
X338245Y73200D01*
X283745Y83200D02*
X285300Y81645D01*
Y82755D01*
X288855Y79200D01*
X259745Y83200D02*
X264855D01*
X271745D02*
X276855D01*
X271745Y51200D02*
X276855D01*
X259745D02*
X264855D01*
X252800Y63755D02*
X252855Y63700D01*
Y51200D02*
Y63700D01*
X246800Y63755D02*
X252800D01*
X239217Y57200D02*
X240245D01*
X246800Y63755D01*
X239217Y77200D02*
X240245D01*
X246800Y70645D01*
X252800D01*
X252855Y70700D01*
Y83200D01*
X168300Y60945D02*
Y64055D01*
X168855Y57500D02*
Y61500D01*
X168300Y60945D02*
X168855Y61500D01*
X168300Y70945D02*
Y74055D01*
X168855Y73500D02*
Y77500D01*
X168300Y74055D02*
X168855Y73500D01*
X180300Y60945D02*
Y64055D01*
X180855Y57500D02*
Y61500D01*
X180300Y60945D02*
X180855Y61500D01*
X117245Y77000D02*
X124355D01*
X117245D02*
Y83000D01*
Y51000D02*
Y57000D01*
X131245Y63000D02*
X132300Y64055D01*
X131245Y57000D02*
Y63000D01*
X124300Y70945D02*
Y73055D01*
X124355Y73000D02*
Y77000D01*
X124300Y73055D02*
X124355Y73000D01*
X124300Y60945D02*
Y64055D01*
X124355Y57000D02*
Y61000D01*
X124300Y60945D02*
X124355Y61000D01*
X117245Y57000D02*
X124355D01*
X110355Y51000D02*
Y57000D01*
X103245Y51000D02*
Y57000D01*
X110355D01*
Y60555D01*
X110300Y60500D02*
Y64055D01*
Y60500D02*
X110355Y60555D01*
X89245Y57000D02*
X96355D01*
Y51000D02*
Y57000D01*
Y60555D01*
X96300Y60500D02*
Y64055D01*
Y60500D02*
X96355Y60555D01*
X89245Y51000D02*
Y57000D01*
X96300Y70945D02*
Y73055D01*
X96355Y73000D02*
Y77000D01*
X96300Y73055D02*
X96355Y73000D01*
X110355Y77000D02*
Y83000D01*
X103245Y77000D02*
Y83000D01*
Y77000D02*
X110355D01*
Y74445D02*
Y77000D01*
X110300Y70945D02*
Y74500D01*
X110355Y74445D01*
X89245Y77000D02*
Y83000D01*
Y77000D02*
X96355D01*
Y83000D01*
X347383Y67200D02*
X353800D01*
X131245Y72000D02*
X132300Y70945D01*
X131245Y72000D02*
Y77000D01*
X277400Y98900D02*
X292200Y84100D01*
X292400Y83900D02*
Y84100D01*
X260100Y75200D02*
X264863D01*
X258700Y76600D02*
X260100Y75200D01*
X256700Y67200D02*
X260863D01*
X261600Y59200D02*
X264863D01*
X260200Y57800D02*
X261600Y59200D01*
X319737Y75200D02*
X323700D01*
X324400Y75900D01*
X319737Y59200D02*
X324400D01*
X146300Y95437D02*
Y100800D01*
X154300Y95437D02*
Y100800D01*
X137063Y39263D02*
X142200D01*
X196500Y145345D02*
Y151855D01*
X155000Y140700D02*
Y157700D01*
X155600Y158300D01*
X241300Y115100D02*
X257500Y98900D01*
X277400D01*
X234800Y115163D02*
Y122855D01*
X234737Y115100D02*
X234800Y115163D01*
X370427Y77410D02*
Y89827D01*
X370217Y77200D02*
X370427Y77410D01*
X175745Y57500D02*
X180855D01*
X216600Y115100D02*
X226863D01*
X166600Y94500D02*
Y99974D01*
X209013Y122687D02*
X216600Y115100D01*
X166600Y99974D02*
X189313Y122687D01*
X199163Y122850D02*
Y132537D01*
X199000Y122687D02*
X199163Y122850D01*
X189313Y122687D02*
X199000D01*
X209013D01*
X234737Y115100D02*
X240400D01*
X241300D01*
X226245Y40000D02*
Y62255D01*
X221300Y67200D02*
X224300D01*
X226300Y69200D01*
X226245Y69255D02*
X226300Y69200D01*
X226245Y69255D02*
Y87200D01*
X303999Y81700D02*
X325800D01*
X302262Y79963D02*
X303999Y81700D01*
X295745Y79200D02*
X296508Y79963D01*
X302262D01*
X287745Y55200D02*
X288855D01*
X283745Y51200D02*
X287745Y55200D01*
X297400Y84700D02*
X307194Y94494D01*
X310094D02*
X316800Y101200D01*
X307194Y94494D02*
X310094D01*
X218915Y39560D02*
X219355Y40000D01*
X160100Y45100D02*
X165640Y39560D01*
X218915D01*
X175745Y77500D02*
X180855D01*
X292200Y84100D02*
X292400D01*
X162068Y89969D02*
X166600Y94500D01*
X156705Y89969D02*
X162068D01*
X154300Y87563D02*
X156705Y89969D01*
D32*
X144394Y73406D02*
X150300Y67500D01*
X140753Y73406D02*
X144394D01*
X140753Y67500D02*
X150300D01*
X152269Y65531D01*
Y57953D02*
Y65531D01*
X286000Y59300D02*
X287300Y60600D01*
Y60700D01*
X286000Y74500D02*
X287001Y73499D01*
X289347D01*
X160100Y45100D02*
Y48132D01*
X289146Y60700D02*
X289347Y60901D01*
X287300Y60700D02*
X289146D01*
X298800Y57700D02*
X301800D01*
X295599Y60901D02*
X298800Y57700D01*
X295253Y60901D02*
X295599D01*
X293284Y57661D02*
X295745Y55200D01*
X293284Y57661D02*
Y60901D01*
X288855Y55200D02*
X291316Y57661D01*
Y60901D01*
X293284Y76739D02*
X295745Y79200D01*
X293284Y73499D02*
Y76739D01*
X288855Y79200D02*
X291316Y76739D01*
Y73499D02*
Y76739D01*
X132300Y64055D02*
X133776Y65532D01*
X140753D01*
X166824Y69469D02*
X168300Y70945D01*
X159847Y69469D02*
X166824D01*
Y65532D02*
X168300Y64055D01*
X159847Y65532D02*
X166824D01*
X132300Y70945D02*
X133776Y69469D01*
X140753D01*
X39700Y172200D02*
X40400Y172900D01*
Y201845D01*
X35000Y207245D02*
X40400Y201845D01*
X45100Y207245D02*
X48900Y203445D01*
X55200Y207245D02*
X55755D01*
X159947Y73405D02*
X162665Y76124D01*
X55300Y168195D02*
Y179400D01*
X55050Y167945D02*
X55300Y168195D01*
X65300Y167970D02*
Y179400D01*
X65275Y167945D02*
X65300Y167970D01*
X75300Y168145D02*
Y179400D01*
Y168145D02*
X75500Y167945D01*
X45300Y168420D02*
Y179400D01*
X44825Y167945D02*
X45300Y168420D01*
X35300Y168645D02*
Y179400D01*
X34600Y167945D02*
X35300Y168645D01*
X35000Y189700D02*
X35300Y189400D01*
X35000Y189700D02*
Y200355D01*
X45300Y189400D02*
Y200155D01*
X45100Y200355D02*
X45300Y200155D01*
X55200Y189500D02*
Y200355D01*
Y189500D02*
X55300Y189400D01*
X84700Y190000D02*
X85300Y189400D01*
X74700Y208820D02*
X76035D01*
X82400Y202455D01*
X74700Y190000D02*
Y200946D01*
Y190000D02*
X75300Y189400D01*
X89600Y193700D02*
Y200759D01*
X85300Y189400D02*
X89600Y193700D01*
X65300Y189400D02*
Y200355D01*
X140300Y79400D02*
X142653Y77047D01*
X144394D01*
X147400Y81900D02*
X148331Y80969D01*
X147400Y81900D02*
Y82000D01*
X75500Y150800D02*
Y161055D01*
X55755Y207245D02*
X60300Y202700D01*
X39700Y158700D02*
Y172200D01*
X48900Y193800D02*
Y203445D01*
Y193800D02*
X50400Y192300D01*
X181900Y35100D02*
X182200D01*
X176800Y30000D02*
X181900Y35100D01*
X157700Y30000D02*
X176800D01*
X152500Y53600D02*
X152700D01*
X159600Y58200D02*
X159947Y58547D01*
Y61594D01*
X152700Y53600D02*
X154135Y55035D01*
Y57850D02*
X154237Y57953D01*
X154135Y55035D02*
Y57850D01*
X156306Y54535D02*
X156509Y54331D01*
X156306Y54535D02*
Y57953D01*
X143400Y81800D02*
X143504D01*
X146463Y77047D02*
Y78841D01*
X143504Y81800D02*
X146463Y78841D01*
X148331Y77047D02*
Y80969D01*
X152269Y77047D02*
Y81169D01*
X156900Y81300D02*
Y81800D01*
X156800Y81200D02*
X156900Y81300D01*
X159847Y67500D02*
X159947D01*
X174300D01*
X149622Y7378D02*
X149700Y7300D01*
X152075Y24375D02*
X157700Y30000D01*
X152075Y6316D02*
Y24375D01*
X150400Y4100D02*
Y4642D01*
X152075Y6316D01*
X69500Y148200D02*
Y203045D01*
X65300Y207245D02*
X69500Y203045D01*
X149622Y42722D02*
X151000Y44100D01*
X149622Y7378D02*
Y42722D01*
X131747Y105200D02*
Y105309D01*
X65275Y161055D02*
X67125Y159205D01*
X39700Y158700D02*
X63912Y134488D01*
X60300Y148397D02*
Y202700D01*
X69500Y144800D02*
X75500Y150800D01*
X67125Y143816D02*
Y159205D01*
X60300Y148397D02*
X67859Y140838D01*
X44825Y157137D02*
X65886Y136076D01*
X50400Y153807D02*
X66544Y137663D01*
X55050Y151402D02*
X67201Y139250D01*
X55050Y151402D02*
Y161055D01*
X50400Y153807D02*
Y192300D01*
X44825Y157137D02*
Y161055D01*
X34600D02*
X35100D01*
X63254Y132901D01*
X140300Y79400D02*
Y81000D01*
X156206Y77047D02*
X157047D01*
X67125Y143816D02*
X68516Y142425D01*
X65886Y136076D02*
X95838D01*
X125600Y106314D01*
Y105200D02*
Y106314D01*
X66544Y137663D02*
X96495D01*
X134138Y103119D02*
Y106168D01*
X128674Y103802D02*
Y105485D01*
X96495Y137663D02*
X128674Y105485D01*
X99468Y140838D02*
X134138Y106168D01*
X67859Y140838D02*
X99468D01*
X137300Y103400D02*
Y105251D01*
X68516Y142425D02*
X100125D01*
X137300Y105251D01*
X63912Y134488D02*
X95180D01*
X122800Y106869D01*
Y103500D02*
Y106869D01*
X63254Y132901D02*
X94523D01*
X119936Y107487D01*
Y105200D02*
Y107487D01*
X97697Y139250D02*
X131747Y105200D01*
X67201Y139250D02*
X97697D01*
X154237Y77047D02*
Y79137D01*
X156900Y81800D01*
X179800Y46800D02*
X182000Y44600D01*
X165687Y49813D02*
X168700Y46800D01*
X165687Y49813D02*
Y54520D01*
X168700Y46800D02*
X179800D01*
X181800Y44000D02*
X182000D01*
X160200Y80400D02*
X160400D01*
X157047Y77047D02*
X160400Y80400D01*
X161100Y84200D02*
X162665Y82635D01*
Y76124D02*
Y82635D01*
X161000Y84200D02*
X161100D01*
X159000Y86200D02*
X161000Y84200D01*
D33*
X83112Y208633D02*
X89600D01*
X82400Y209345D02*
X83112Y208633D01*
X82400Y209345D02*
Y213000D01*
X306600Y101400D02*
Y110355D01*
Y101400D02*
X306800Y101200D01*
X301945Y117245D02*
X306600D01*
X301900Y117200D02*
X301945Y117245D01*
X307955Y154555D02*
X312800D01*
X332163Y142900D02*
Y155491D01*
X370500Y96745D02*
Y105000D01*
X307600Y185700D02*
X313800Y191900D01*
Y206900D01*
X320900Y214000D01*
X372337D02*
X376800Y209537D01*
X320900Y214000D02*
X372337D01*
X326800Y101200D02*
X336200Y110600D01*
Y131200D01*
X334800Y132600D02*
X336200Y131200D01*
X234800Y129745D02*
Y141600D01*
X223000Y153400D02*
X234800Y141600D01*
X214300Y153400D02*
X223000D01*
X85300Y175400D02*
Y179400D01*
Y175400D02*
X107300Y153400D01*
X147600D01*
D34*
X0Y0D02*
Y233100D01*
X392500D01*
Y0D02*
Y233100D01*
X0Y0D02*
X392500D01*
D35*
X383961Y10600D02*
D03*
X354039D02*
D03*
D36*
X369000Y41309D02*
D03*
X184100Y85800D02*
D03*
X160100Y45100D02*
D03*
X280300Y76100D02*
D03*
X210400Y48800D02*
D03*
Y84200D02*
D03*
D37*
X310300Y67200D02*
D03*
X174300Y67500D02*
D03*
X301800Y57700D02*
D03*
X353800Y67200D02*
D03*
X286000Y74500D02*
D03*
X292400Y83900D02*
D03*
X258700Y76600D02*
D03*
X256600Y67100D02*
D03*
X260200Y57800D02*
D03*
X324400Y75900D02*
D03*
X325100Y72000D02*
D03*
X324400Y59200D02*
D03*
X267300Y166200D02*
D03*
X137063Y39263D02*
D03*
X139300Y46655D02*
D03*
X136200Y77000D02*
D03*
X297400Y84700D02*
D03*
X147400Y82000D02*
D03*
X154300Y100800D02*
D03*
X146300D02*
D03*
X149700Y7300D02*
D03*
X82400Y213000D02*
D03*
X301900Y117200D02*
D03*
X307900Y154500D02*
D03*
X331954Y155700D02*
D03*
X370400Y105100D02*
D03*
X155000Y140700D02*
D03*
X199163Y132537D02*
D03*
X240400Y115100D02*
D03*
X307600Y185700D02*
D03*
X334800Y132600D02*
D03*
X214300Y153400D02*
D03*
X147600D02*
D03*
X286000Y59300D02*
D03*
X182200Y35100D02*
D03*
X182000Y44600D02*
D03*
X165687Y54520D02*
D03*
X159600Y58200D02*
D03*
X152500Y53600D02*
D03*
X156509Y54331D02*
D03*
X143400Y81800D02*
D03*
X139500Y80900D02*
D03*
X156800Y81200D02*
D03*
X152800Y81700D02*
D03*
X150400Y4100D02*
D03*
X69500Y148200D02*
D03*
X151000Y44300D02*
D03*
X137300Y103400D02*
D03*
X119936Y105200D02*
D03*
X69500Y144800D02*
D03*
X134138Y103119D02*
D03*
X131747Y105200D02*
D03*
X125600D02*
D03*
X122800Y103500D02*
D03*
X128674Y103802D02*
D03*
X160200Y80400D02*
D03*
X293875Y68775D02*
D03*
Y65625D02*
D03*
X290725Y68775D02*
D03*
Y65625D02*
D03*
D38*
X375200Y147010D02*
D03*
Y160790D02*
D03*
D39*
X165890Y215700D02*
D03*
X152110D02*
D03*
D40*
X326800Y101200D02*
D03*
X316800D02*
D03*
X306800D02*
D03*
X326800Y31200D02*
D03*
X316800D02*
D03*
X306800D02*
D03*
D41*
X35300Y179400D02*
D03*
D42*
X45300D02*
D03*
X55300D02*
D03*
X65300D02*
D03*
X75300D02*
D03*
X85300D02*
D03*
X95300D02*
D03*
X105300D02*
D03*
X115300D02*
D03*
X125300D02*
D03*
X35300Y189400D02*
D03*
X45300D02*
D03*
X55300D02*
D03*
X65300D02*
D03*
X75300D02*
D03*
X85300D02*
D03*
X95300D02*
D03*
X105300D02*
D03*
X115300D02*
D03*
X125300D02*
D03*
D43*
X280500Y61000D02*
D03*
X136200Y59100D02*
D03*
X186400Y222300D02*
D03*
X190371D02*
D03*
X194343D02*
D03*
X198314D02*
D03*
X202286D02*
D03*
X206257D02*
D03*
X210228D02*
D03*
X214200D02*
D03*
X353600Y175600D02*
D03*
Y172300D02*
D03*
Y169000D02*
D03*
Y165700D02*
D03*
X350200Y168600D02*
D03*
Y171800D02*
D03*
X282000Y139700D02*
D03*
X279467D02*
D03*
X276933D02*
D03*
X274400D02*
D03*
X201600Y139300D02*
D03*
X204767D02*
D03*
X207933D02*
D03*
X211100D02*
D03*
X203100Y136500D02*
D03*
X206500D02*
D03*
X215100D02*
D03*
X253271Y46000D02*
D03*
X258600D02*
D03*
X263929D02*
D03*
X269257D02*
D03*
X274586D02*
D03*
X279914D02*
D03*
X285243D02*
D03*
X306600Y47600D02*
D03*
X311250D02*
D03*
X315900D02*
D03*
X320550D02*
D03*
X325200D02*
D03*
X329300Y48000D02*
D03*
X332900Y50600D02*
D03*
X338200D02*
D03*
X342600D02*
D03*
X347000D02*
D03*
X351400D02*
D03*
X356800Y57400D02*
D03*
X355800Y79300D02*
D03*
X352200Y83100D02*
D03*
X346800Y83800D02*
D03*
X341850D02*
D03*
X336900D02*
D03*
X331700Y85400D02*
D03*
X325300Y86700D02*
D03*
X321560D02*
D03*
X317820D02*
D03*
X314080D02*
D03*
X310340D02*
D03*
X306600D02*
D03*
X279700Y89600D02*
D03*
X274933D02*
D03*
X270167D02*
D03*
X265400D02*
D03*
X260633D02*
D03*
X255867D02*
D03*
X251100D02*
D03*
X246600Y86300D02*
D03*
X246400Y81100D02*
D03*
X241800Y83900D02*
D03*
X236300Y83600D02*
D03*
X245200Y47900D02*
D03*
X245800Y51800D02*
D03*
X241400Y50000D02*
D03*
X237900Y50500D02*
D03*
X252300Y97500D02*
D03*
X255867Y94100D02*
D03*
X260633D02*
D03*
X265400D02*
D03*
X270167D02*
D03*
X274933D02*
D03*
X236800D02*
D03*
Y89600D02*
D03*
X246333D02*
D03*
X236800Y98600D02*
D03*
X249100Y100200D02*
D03*
X236800Y103100D02*
D03*
X246333D02*
D03*
X241567Y107600D02*
D03*
X236800D02*
D03*
X290486Y13500D02*
D03*
X285157D02*
D03*
X279829D02*
D03*
X274500D02*
D03*
X269171D02*
D03*
X263843D02*
D03*
X258514D02*
D03*
X253186D02*
D03*
X237100Y19900D02*
D03*
X243000Y13600D02*
D03*
X247857Y13500D02*
D03*
X237200Y28800D02*
D03*
Y23700D02*
D03*
Y33900D02*
D03*
Y39000D02*
D03*
Y44100D02*
D03*
X295814Y13500D02*
D03*
X301143D02*
D03*
X343771Y23700D02*
D03*
Y13500D02*
D03*
X338443D02*
D03*
X343771Y18600D02*
D03*
X306471Y13500D02*
D03*
X311800D02*
D03*
X317128D02*
D03*
X322457D02*
D03*
X327786D02*
D03*
X333114D02*
D03*
X251857Y119300D02*
D03*
X246529D02*
D03*
X257186D02*
D03*
X262514D02*
D03*
X267843D02*
D03*
X273171D02*
D03*
X278500D02*
D03*
X283829D02*
D03*
Y123900D02*
D03*
X305143D02*
D03*
X299814D02*
D03*
X294486D02*
D03*
X289157D02*
D03*
X362200Y18200D02*
D03*
Y22700D02*
D03*
Y27200D02*
D03*
Y31700D02*
D03*
Y36200D02*
D03*
Y40700D02*
D03*
Y45200D02*
D03*
Y49700D02*
D03*
X361500Y54200D02*
D03*
Y58700D02*
D03*
Y63200D02*
D03*
X362200Y85143D02*
D03*
Y89386D02*
D03*
Y93629D02*
D03*
Y97871D02*
D03*
Y102114D02*
D03*
Y106357D02*
D03*
Y110700D02*
D03*
X359400Y115400D02*
D03*
X356400Y118700D02*
D03*
X353500Y121900D02*
D03*
X349800Y119600D02*
D03*
X345500D02*
D03*
X354900Y26200D02*
D03*
X351000D02*
D03*
X347100D02*
D03*
X313100Y120100D02*
D03*
X318267D02*
D03*
X323433D02*
D03*
X328600D02*
D03*
X200100Y105900D02*
D03*
X200900Y85400D02*
D03*
X204600Y63000D02*
D03*
X80957Y13200D02*
D03*
X76100Y13300D02*
D03*
X86286Y13200D02*
D03*
X91614D02*
D03*
X96943D02*
D03*
X102271D02*
D03*
X107600D02*
D03*
X112929D02*
D03*
X118257D02*
D03*
X144900D02*
D03*
X139571D02*
D03*
X134243D02*
D03*
X128914D02*
D03*
X123586D02*
D03*
X171543D02*
D03*
X166214D02*
D03*
X160886D02*
D03*
X155557D02*
D03*
X198186D02*
D03*
X192857D02*
D03*
X187529D02*
D03*
X182200D02*
D03*
X176871D02*
D03*
X219500D02*
D03*
X214171D02*
D03*
X208843D02*
D03*
X203514D02*
D03*
X109671Y44400D02*
D03*
X104343D02*
D03*
X99014D02*
D03*
X93686D02*
D03*
X88357D02*
D03*
X78171Y44500D02*
D03*
X83029Y44400D02*
D03*
X115000D02*
D03*
X120329D02*
D03*
X124900Y49200D02*
D03*
X130229D02*
D03*
X121257Y89900D02*
D03*
X115929D02*
D03*
X83957D02*
D03*
X79100Y90000D02*
D03*
X89286Y89900D02*
D03*
X94614D02*
D03*
X99943D02*
D03*
X105271D02*
D03*
X110600D02*
D03*
X68800Y41400D02*
D03*
Y36300D02*
D03*
Y31200D02*
D03*
Y21000D02*
D03*
Y26100D02*
D03*
Y99600D02*
D03*
Y94500D02*
D03*
Y84300D02*
D03*
Y89400D02*
D03*
Y120000D02*
D03*
Y114900D02*
D03*
Y104700D02*
D03*
Y109800D02*
D03*
X219000Y46000D02*
D03*
X68800Y46400D02*
D03*
X72000Y49800D02*
D03*
X75900Y49100D02*
D03*
X72400Y84300D02*
D03*
X76700Y84400D02*
D03*
X95071Y125900D02*
D03*
X89743D02*
D03*
X84414D02*
D03*
X79086D02*
D03*
X73757D02*
D03*
X146271Y126200D02*
D03*
X140943D02*
D03*
X135614D02*
D03*
X130286D02*
D03*
X120100Y126300D02*
D03*
X124957Y126200D02*
D03*
X151600D02*
D03*
X167586D02*
D03*
X162257D02*
D03*
X156929D02*
D03*
X179814Y119800D02*
D03*
X174486D02*
D03*
X125071Y83900D02*
D03*
X130400D02*
D03*
X99400Y122500D02*
D03*
X102500Y119300D02*
D03*
X105800Y116100D02*
D03*
X109500Y112300D02*
D03*
X112800Y109400D02*
D03*
X115200Y105000D02*
D03*
X118000Y99700D02*
D03*
X121700Y97400D02*
D03*
X125400Y94100D02*
D03*
X129100Y90600D02*
D03*
X132500Y87100D02*
D03*
X141300Y101000D02*
D03*
X140500Y107100D02*
D03*
X136200Y111300D02*
D03*
X132300Y115100D02*
D03*
X128700Y118600D02*
D03*
X124957Y122000D02*
D03*
X228200Y32300D02*
D03*
Y22100D02*
D03*
Y27200D02*
D03*
X224000Y17600D02*
D03*
X240000Y16900D02*
D03*
X169800Y90500D02*
D03*
X175600D02*
D03*
X180100Y90400D02*
D03*
X191100Y84200D02*
D03*
X196500Y84000D02*
D03*
X203400Y89300D02*
D03*
X197700Y89600D02*
D03*
X192800Y88300D02*
D03*
X216100Y90200D02*
D03*
X219600Y50300D02*
D03*
X182400Y51200D02*
D03*
X186875D02*
D03*
X191350D02*
D03*
X195825D02*
D03*
X200300D02*
D03*
X202800Y43700D02*
D03*
X197633D02*
D03*
X192467D02*
D03*
X187300D02*
D03*
X207514Y34800D02*
D03*
X212843D02*
D03*
X218171D02*
D03*
X186200D02*
D03*
X191529D02*
D03*
X196857D02*
D03*
X202186D02*
D03*
X155700Y18800D02*
D03*
X155800Y23600D02*
D03*
X159700Y27200D02*
D03*
X165029D02*
D03*
X170357D02*
D03*
X175686D02*
D03*
X180700Y30100D02*
D03*
X176757Y35300D02*
D03*
X171429D02*
D03*
X166100D02*
D03*
X161200Y37900D02*
D03*
X155000Y41100D02*
D03*
X152900Y36900D02*
D03*
Y30900D02*
D03*
X158600Y33000D02*
D03*
X163200D02*
D03*
X147000Y32300D02*
D03*
Y27200D02*
D03*
Y22100D02*
D03*
Y17000D02*
D03*
X205314Y98900D02*
D03*
X199986D02*
D03*
X189329D02*
D03*
X194657D02*
D03*
X210643D02*
D03*
X215971D02*
D03*
X226714Y102900D02*
D03*
X221386D02*
D03*
X207314Y118200D02*
D03*
X201986D02*
D03*
X191329D02*
D03*
X196657D02*
D03*
X183800Y93300D02*
D03*
X186600Y96500D02*
D03*
X171300Y98500D02*
D03*
X175000Y102200D02*
D03*
X179100Y106200D02*
D03*
X182700Y109900D02*
D03*
X186700Y114300D02*
D03*
X176400Y116500D02*
D03*
X172400Y112100D02*
D03*
X168800Y108400D02*
D03*
X164700Y104400D02*
D03*
X161000Y100700D02*
D03*
X72300Y16900D02*
D03*
X167800Y120000D02*
D03*
X226400Y108600D02*
D03*
X221000Y110000D02*
D03*
X214900Y109900D02*
D03*
X210700Y114300D02*
D03*
X375400Y34400D02*
D03*
Y29900D02*
D03*
Y25400D02*
D03*
Y20900D02*
D03*
Y16400D02*
D03*
Y11900D02*
D03*
Y7400D02*
D03*
Y2900D02*
D03*
X160600Y95000D02*
D03*
D44*
X159000Y86200D02*
D03*
D45*
X3800Y121900D02*
D03*
Y115700D02*
D03*
X10450Y121900D02*
D03*
Y115700D02*
D03*
X17100Y121900D02*
D03*
Y115700D02*
D03*
X17484Y88400D02*
D03*
Y94600D02*
D03*
X10834Y88400D02*
D03*
Y94600D02*
D03*
X4184Y88400D02*
D03*
Y94600D02*
D03*
X17084Y40400D02*
D03*
Y46600D02*
D03*
X10434Y40400D02*
D03*
Y46600D02*
D03*
X3784Y40400D02*
D03*
Y46600D02*
D03*
X17784Y12900D02*
D03*
Y19100D02*
D03*
X11134Y12900D02*
D03*
Y19100D02*
D03*
X4484Y12900D02*
D03*
Y19100D02*
D03*
X263700Y110600D02*
D03*
X280800Y109600D02*
D03*
X289000Y105500D02*
D03*
X291900Y97300D02*
D03*
X342300Y101700D02*
D03*
X349000Y108700D02*
D03*
X351400Y94400D02*
D03*
X334800Y92300D02*
D03*
X247500Y31500D02*
D03*
X259300Y23100D02*
D03*
X266800Y31800D02*
D03*
X280800Y21200D02*
D03*
X285600Y33200D02*
D03*
X343500Y41900D02*
D03*
X351200Y35400D02*
D03*
X316500Y18000D02*
D03*
X75400Y38500D02*
D03*
X88900Y37100D02*
D03*
X106700Y36100D02*
D03*
X126300D02*
D03*
X79700Y29800D02*
D03*
X97100D02*
D03*
X116400D02*
D03*
X133300Y29400D02*
D03*
X88200Y21900D02*
D03*
X107700Y22400D02*
D03*
X122700D02*
D03*
X140300Y22100D02*
D03*
X77600Y117600D02*
D03*
X90800D02*
D03*
X85100Y110300D02*
D03*
X97300Y110600D02*
D03*
X77800Y103400D02*
D03*
X91800Y103600D02*
D03*
X105100Y103800D02*
D03*
X85300Y98800D02*
D03*
X98800Y98300D02*
D03*
X110800Y98100D02*
D03*
X139000Y118800D02*
D03*
X152500Y118300D02*
D03*
X148000Y112500D02*
D03*
X167200Y20700D02*
D03*
X192900Y27700D02*
D03*
X215600Y27100D02*
D03*
X203700Y20700D02*
D03*
X183800Y20400D02*
D03*
D46*
X155124Y62776D02*
D03*
X150400D02*
D03*
X145676D02*
D03*
X155124Y67500D02*
D03*
X150400D02*
D03*
X145676D02*
D03*
X155124Y72224D02*
D03*
X150400D02*
D03*
X145676D02*
D03*
M02*
