%FSLAX25Y25*%
%MOIN*%
G70*
G01*
G75*
G04 Layer_Physical_Order=1*
G04 Layer_Color=255*
%ADD10R,0.10000X0.06496*%
%ADD11R,0.06299X0.11811*%
G04:AMPARAMS|DCode=12|XSize=118.11mil|YSize=62.99mil|CornerRadius=15.75mil|HoleSize=0mil|Usage=FLASHONLY|Rotation=270.000|XOffset=0mil|YOffset=0mil|HoleType=Round|Shape=RoundedRectangle|*
%AMROUNDEDRECTD12*
21,1,0.11811,0.03150,0,0,270.0*
21,1,0.08661,0.06299,0,0,270.0*
1,1,0.03150,-0.01575,-0.04331*
1,1,0.03150,-0.01575,0.04331*
1,1,0.03150,0.01575,0.04331*
1,1,0.03150,0.01575,-0.04331*
%
%ADD12ROUNDEDRECTD12*%
%ADD13R,0.11811X0.06299*%
G04:AMPARAMS|DCode=14|XSize=118.11mil|YSize=62.99mil|CornerRadius=15.75mil|HoleSize=0mil|Usage=FLASHONLY|Rotation=0.000|XOffset=0mil|YOffset=0mil|HoleType=Round|Shape=RoundedRectangle|*
%AMROUNDEDRECTD14*
21,1,0.11811,0.03150,0,0,0.0*
21,1,0.08661,0.06299,0,0,0.0*
1,1,0.03150,0.04331,-0.01575*
1,1,0.03150,-0.04331,-0.01575*
1,1,0.03150,-0.04331,0.01575*
1,1,0.03150,0.04331,0.01575*
%
%ADD14ROUNDEDRECTD14*%
%ADD15R,0.05709X0.04331*%
%ADD16R,0.04331X0.05709*%
%ADD17R,0.23622X0.31496*%
%ADD18R,0.14173X0.04331*%
%ADD19R,0.31496X0.23622*%
%ADD20R,0.04331X0.14173*%
%ADD21R,0.02953X0.03740*%
%ADD22R,0.03740X0.02953*%
%ADD23R,0.12598X0.12598*%
%ADD24O,0.00984X0.03740*%
%ADD25O,0.03740X0.00984*%
%ADD26R,0.05906X0.05906*%
%ADD27O,0.03543X0.00984*%
%ADD28O,0.00984X0.03543*%
%ADD29R,0.20000X0.10500*%
%ADD30R,0.20000X0.07000*%
%ADD31C,0.00787*%
%ADD32C,0.03937*%
%ADD33C,0.05906*%
%ADD34C,0.01000*%
%ADD35O,0.05906X0.07874*%
%ADD36R,0.05906X0.07874*%
%ADD37O,0.05906X0.07874*%
%ADD38C,0.07874*%
%ADD39P,0.10653X8X292.5*%
%ADD40P,0.10653X8X202.5*%
%ADD41C,0.02362*%
%ADD42C,0.11811*%
%ADD43C,0.02500*%
%ADD44C,0.02598*%
%ADD45C,0.02000*%
%ADD46C,0.02300*%
G36*
X1106449Y443503D02*
X1106953Y443402D01*
X1107447Y443501D01*
X1107801Y443147D01*
X1107702Y442653D01*
X1107802Y442149D01*
X1108088Y441721D01*
Y441616D01*
X1107802Y441188D01*
X1107702Y440684D01*
X1107802Y440180D01*
X1108088Y439753D01*
Y439647D01*
X1107802Y439220D01*
X1107702Y438716D01*
X1107802Y438212D01*
X1108088Y437784D01*
Y437679D01*
X1107802Y437251D01*
X1107702Y436747D01*
X1107801Y436253D01*
X1107447Y435899D01*
X1106953Y435998D01*
X1106449Y435897D01*
X1106021Y435612D01*
X1105916D01*
X1105488Y435897D01*
X1104984Y435998D01*
X1104480Y435897D01*
X1104053Y435612D01*
X1103947D01*
X1103520Y435897D01*
X1103016Y435998D01*
X1102512Y435897D01*
X1102084Y435612D01*
X1101979D01*
X1101551Y435897D01*
X1101047Y435998D01*
X1100553Y435899D01*
X1100199Y436253D01*
X1100298Y436747D01*
X1100198Y437251D01*
X1099912Y437679D01*
Y437784D01*
X1100198Y438212D01*
X1100298Y438716D01*
X1100198Y439220D01*
X1099912Y439647D01*
Y439753D01*
X1100198Y440180D01*
X1100298Y440684D01*
X1100198Y441188D01*
X1099912Y441616D01*
Y441721D01*
X1100198Y442149D01*
X1100298Y442653D01*
X1100199Y443147D01*
X1100553Y443501D01*
X1101047Y443402D01*
X1101551Y443503D01*
X1101979Y443788D01*
X1102084D01*
X1102512Y443503D01*
X1103016Y443402D01*
X1103520Y443503D01*
X1103947Y443788D01*
X1104053D01*
X1104480Y443503D01*
X1104984Y443402D01*
X1105488Y443503D01*
X1105916Y443788D01*
X1106021D01*
X1106449Y443503D01*
D02*
G37*
G36*
X1026326Y485626D02*
X1026904Y485182D01*
X1027577Y484903D01*
X1028300Y484808D01*
X1035598D01*
Y483946D01*
X1041500D01*
Y391500D01*
X1033900Y383900D01*
X964992D01*
Y396371D01*
X969904Y401283D01*
X988500D01*
X988966Y401376D01*
X989361Y401639D01*
X993401Y405679D01*
X993900Y405580D01*
X994673Y405734D01*
X995328Y406172D01*
X995766Y406827D01*
X995920Y407600D01*
X995766Y408373D01*
X995328Y409028D01*
X995401Y409268D01*
X1030615D01*
X1031338Y409363D01*
X1032011Y409642D01*
X1032257Y409830D01*
X1033331D01*
Y410919D01*
X1033473Y411104D01*
X1033752Y411777D01*
X1033848Y412500D01*
X1033752Y413223D01*
X1033473Y413896D01*
X1033331Y414081D01*
Y415170D01*
X1031843D01*
X1031778Y415197D01*
X1031055Y415292D01*
X1030332Y415197D01*
X1030267Y415170D01*
X1028779D01*
Y414852D01*
X994763D01*
X994618Y415331D01*
X995128Y415672D01*
X995566Y416327D01*
X995720Y417100D01*
X995566Y417873D01*
X995128Y418528D01*
X994473Y418966D01*
X993700Y419120D01*
X993451Y419070D01*
X992361Y420161D01*
X991966Y420424D01*
X991500Y420517D01*
X980904D01*
X978604Y422818D01*
Y425451D01*
X978815Y425592D01*
X979253Y426248D01*
X979407Y427020D01*
D01*
X979767Y427330D01*
Y427330D01*
X979767Y427330D01*
X979832Y427303D01*
X980555Y427208D01*
X981278Y427303D01*
X981343Y427330D01*
X982831D01*
Y428419D01*
X982973Y428604D01*
X983252Y429277D01*
X983348Y430000D01*
Y434000D01*
X983252Y434723D01*
X982973Y435396D01*
X982792Y435632D01*
Y436555D01*
X982697Y437278D01*
X982670Y437344D01*
Y438783D01*
X984431D01*
X984572Y438572D01*
X985227Y438134D01*
X986000Y437980D01*
X986773Y438134D01*
X987428Y438572D01*
X987866Y439227D01*
X988020Y440000D01*
X987866Y440773D01*
X987428Y441428D01*
X986773Y441866D01*
X986000Y442020D01*
X985227Y441866D01*
X984572Y441428D01*
X984431Y441217D01*
X982670D01*
Y442657D01*
X982697Y442722D01*
X982792Y443445D01*
Y444368D01*
X982973Y444604D01*
X983252Y445277D01*
X983348Y446000D01*
Y450000D01*
X983252Y450723D01*
X982973Y451396D01*
X982831Y451581D01*
Y452670D01*
X981343D01*
X981278Y452697D01*
X980555Y452792D01*
X979832Y452697D01*
X979767Y452670D01*
X978416D01*
Y455100D01*
X978416Y455100D01*
X978354Y455412D01*
X978177Y455677D01*
X978177Y455677D01*
X978095Y455758D01*
X975751Y458103D01*
X975751Y458103D01*
X974774Y459079D01*
Y459525D01*
X974951Y459790D01*
X974989Y459977D01*
X975165Y460050D01*
X975743Y460494D01*
X980274Y465026D01*
X980274Y465026D01*
X980718Y465604D01*
X980997Y466277D01*
X981092Y467000D01*
Y471317D01*
X1002170Y492395D01*
X1019556D01*
X1026326Y485626D01*
D02*
G37*
G36*
X969857Y462843D02*
X969924Y462799D01*
X969952Y462787D01*
X970099Y462688D01*
X970411Y462626D01*
X970412Y462626D01*
X970793D01*
X970793Y462626D01*
X971105Y462688D01*
X971370Y462865D01*
X971370Y462865D01*
X971402Y462898D01*
X974198Y460102D01*
X973875Y459779D01*
X973852Y459746D01*
X973821Y459720D01*
X973765Y459614D01*
X973698Y459515D01*
X973690Y459475D01*
X973671Y459439D01*
X973659Y459320D01*
X973659Y459319D01*
X973656Y459313D01*
Y459306D01*
X973636Y459202D01*
X973644Y459163D01*
X973640Y459123D01*
X973645Y459073D01*
X973653Y459047D01*
X977600Y455100D01*
Y455020D01*
Y454606D01*
Y447975D01*
X977582Y447951D01*
X977303Y447278D01*
X977208Y446555D01*
Y443808D01*
X976586Y443186D01*
X973529D01*
X973025Y443286D01*
X970269D01*
X969765Y443186D01*
X969640Y443102D01*
X969199Y443338D01*
Y444536D01*
X969640Y444772D01*
X969765Y444688D01*
X970269Y444588D01*
X973025D01*
X973529Y444688D01*
X973957Y444974D01*
X974242Y445401D01*
X974343Y445905D01*
X974242Y446410D01*
X974094Y446631D01*
X975226Y447763D01*
X975490Y448158D01*
X975582Y448624D01*
Y455135D01*
X975490Y455600D01*
X975226Y455995D01*
X973661Y457561D01*
X973359Y457762D01*
X972516Y458605D01*
X972535Y458700D01*
X972396Y459402D01*
X971998Y459998D01*
X971402Y460396D01*
X970700Y460535D01*
X969998Y460396D01*
X969402Y459998D01*
X969004Y459402D01*
X968865Y458700D01*
X969004Y457998D01*
X969402Y457402D01*
X969998Y457004D01*
X970700Y456865D01*
X970795Y456884D01*
X971839Y455839D01*
X972141Y455638D01*
X972488Y455291D01*
X972252Y454850D01*
X971900Y454920D01*
X971127Y454766D01*
X970825Y454564D01*
X970366Y454473D01*
X969928Y455128D01*
X969273Y455566D01*
X968500Y455720D01*
X967727Y455566D01*
X967072Y455128D01*
X966867Y454822D01*
X966377Y454920D01*
X966366Y454973D01*
X965928Y455628D01*
X965273Y456066D01*
X964500Y456220D01*
X963727Y456066D01*
X963072Y455628D01*
X962634Y454973D01*
X962480Y454200D01*
X962634Y453427D01*
X962751Y453251D01*
Y450927D01*
X962751Y450925D01*
Y448169D01*
X962851Y447665D01*
X962935Y447540D01*
X962699Y447099D01*
X961501D01*
X961265Y447540D01*
X961349Y447665D01*
X961449Y448169D01*
Y450925D01*
X961349Y451429D01*
X961248Y451579D01*
Y453469D01*
X961156Y453934D01*
X961042Y454106D01*
X961120Y454500D01*
X960966Y455273D01*
X960528Y455928D01*
X959873Y456366D01*
X959100Y456520D01*
X958327Y456366D01*
X957672Y455928D01*
X957283Y455347D01*
X956863D01*
X956771Y455365D01*
X956528Y455728D01*
X955873Y456166D01*
X955100Y456320D01*
X954327Y456166D01*
X953672Y455728D01*
X953234Y455073D01*
X953185Y454827D01*
X952695Y454729D01*
X952628Y454828D01*
X951973Y455266D01*
X951200Y455420D01*
X950427Y455266D01*
X949772Y454828D01*
X949334Y454173D01*
X949180Y453400D01*
X949334Y452627D01*
X949772Y451972D01*
X950427Y451534D01*
X950873Y451445D01*
X950876Y451434D01*
X951139Y451039D01*
X953492Y448687D01*
X953887Y448423D01*
X954353Y448330D01*
X954877D01*
Y448169D01*
X954977Y447665D01*
X955045Y447564D01*
X954809Y447123D01*
X954435D01*
X953931Y447223D01*
X951175D01*
X950671Y447123D01*
X950243Y446837D01*
X949958Y446410D01*
X949857Y445905D01*
X949958Y445401D01*
X950243Y444974D01*
X950671Y444688D01*
X951175Y444588D01*
X953931D01*
X954435Y444688D01*
X954435Y444689D01*
X955001D01*
Y443338D01*
X954560Y443102D01*
X954435Y443186D01*
X953931Y443286D01*
X951175D01*
X950671Y443186D01*
X947020D01*
X946792Y443445D01*
X946697Y444168D01*
X946670Y444233D01*
Y445721D01*
X945737D01*
Y449500D01*
X945642Y450223D01*
X945400Y450807D01*
Y455800D01*
X952500Y462900D01*
X969800D01*
X969857Y462843D01*
D02*
G37*
G36*
X1008071Y497979D02*
X1001013D01*
X1000290Y497884D01*
X999617Y497605D01*
X999039Y497161D01*
X976326Y474448D01*
X975882Y473870D01*
X975603Y473197D01*
X975508Y472474D01*
Y468157D01*
X972612Y465261D01*
X968406D01*
X967683Y465166D01*
X967009Y464887D01*
X966431Y464443D01*
X966431Y464443D01*
X965704Y463716D01*
X952500D01*
X952500Y463716D01*
X952188Y463654D01*
X951923Y463477D01*
X951923Y463477D01*
X944823Y456377D01*
X944646Y456112D01*
X944584Y455800D01*
X944584Y455800D01*
Y452170D01*
X943733D01*
X943668Y452197D01*
X942945Y452292D01*
X942222Y452197D01*
X942157Y452170D01*
X940668D01*
Y451081D01*
X940526Y450896D01*
X940248Y450223D01*
X940152Y449500D01*
Y444500D01*
X940152Y444500D01*
X940152D01*
X940248Y443777D01*
X940526Y443104D01*
X940970Y442525D01*
X941330Y442166D01*
Y441168D01*
X942419D01*
X942604Y441026D01*
X943277Y440747D01*
X944000Y440652D01*
X944723Y440747D01*
X944990Y440858D01*
X945011Y440844D01*
X945011Y440844D01*
X945011Y440844D01*
X945175Y440811D01*
X945476Y440752D01*
X950670D01*
X950671Y440751D01*
X951175Y440651D01*
X953931D01*
X954435Y440751D01*
X954862Y441037D01*
X955148Y441464D01*
X955248Y441968D01*
X955148Y442473D01*
X955153Y442494D01*
X955385Y442619D01*
X955478Y442695D01*
X955578Y442761D01*
X955600Y442795D01*
X955631Y442820D01*
X955688Y442926D01*
X955754Y443026D01*
X955762Y443065D01*
X955781Y443101D01*
X955793Y443220D01*
X955816Y443338D01*
Y444689D01*
X955754Y445001D01*
X955578Y445265D01*
X955313Y445442D01*
X955001Y445504D01*
X954435D01*
X954357Y445489D01*
X954277Y445489D01*
X954276Y445488D01*
X954276D01*
X953850Y445404D01*
X951255D01*
X950989Y445457D01*
X950831Y445562D01*
X950726Y445720D01*
X950689Y445905D01*
X950726Y446091D01*
X950831Y446249D01*
X950989Y446354D01*
X951255Y446407D01*
X953850D01*
X954276Y446323D01*
X954356D01*
X954435Y446307D01*
X954809D01*
X954927Y446330D01*
X955046Y446342D01*
X955082Y446361D01*
X955122Y446369D01*
X955221Y446436D01*
X955327Y446492D01*
X955352Y446523D01*
X955386Y446546D01*
X955453Y446646D01*
X955529Y446738D01*
X955636Y446939D01*
X955690Y446952D01*
X956194Y446852D01*
X956699Y446952D01*
X957126Y447238D01*
X957231D01*
X957659Y446952D01*
X958163Y446852D01*
X958667Y446952D01*
X959095Y447238D01*
X959200D01*
X959627Y446952D01*
X960131Y446852D01*
X960636Y446952D01*
X960658Y446947D01*
X960781Y446715D01*
X960857Y446622D01*
X960924Y446522D01*
X960958Y446500D01*
X960983Y446469D01*
X961089Y446412D01*
X961189Y446346D01*
X961228Y446338D01*
X961264Y446319D01*
X961383Y446307D01*
X961501Y446283D01*
X962699D01*
X962817Y446307D01*
X962936Y446319D01*
X962972Y446338D01*
X963011Y446346D01*
X963111Y446412D01*
X963217Y446469D01*
X963242Y446500D01*
X963276Y446522D01*
X963342Y446622D01*
X963418Y446715D01*
X963542Y446947D01*
X963564Y446952D01*
X964069Y446852D01*
X964573Y446952D01*
X965000Y447238D01*
X965106D01*
X965533Y446952D01*
X966037Y446852D01*
X966541Y446952D01*
X966969Y447238D01*
X967074D01*
X967501Y446952D01*
X968005Y446852D01*
X968510Y446952D01*
X968937Y447238D01*
X969223Y447665D01*
X969323Y448169D01*
Y448496D01*
X969608Y448687D01*
X971818Y450897D01*
X971900Y450880D01*
X972673Y451034D01*
X972707Y451057D01*
X973148Y450821D01*
Y449128D01*
X971243Y447223D01*
X970269D01*
X969765Y447123D01*
X969338Y446837D01*
X969052Y446410D01*
X968952Y445905D01*
X969052Y445401D01*
X969047Y445379D01*
X968815Y445256D01*
X968722Y445180D01*
X968622Y445113D01*
X968600Y445079D01*
X968569Y445054D01*
X968512Y444948D01*
X968446Y444848D01*
X968438Y444809D01*
X968419Y444773D01*
X968407Y444654D01*
X968384Y444536D01*
Y443338D01*
X968407Y443220D01*
X968419Y443101D01*
X968438Y443065D01*
X968446Y443026D01*
X968512Y442926D01*
X968569Y442820D01*
X968600Y442795D01*
X968622Y442761D01*
X968722Y442695D01*
X968815Y442619D01*
X969047Y442494D01*
X969052Y442473D01*
X968952Y441968D01*
X969052Y441464D01*
X969338Y441037D01*
Y440932D01*
X969052Y440504D01*
X968952Y440000D01*
X969052Y439496D01*
X969338Y439069D01*
Y438963D01*
X969052Y438536D01*
X968952Y438031D01*
X969052Y437527D01*
X969047Y437505D01*
X968815Y437382D01*
X968722Y437305D01*
X968622Y437239D01*
X968600Y437205D01*
X968569Y437180D01*
X968512Y437074D01*
X968446Y436974D01*
X968438Y436935D01*
X968419Y436899D01*
X968407Y436780D01*
X968384Y436662D01*
Y435464D01*
X968407Y435346D01*
X968419Y435227D01*
X968438Y435191D01*
X968446Y435152D01*
X968512Y435052D01*
X968569Y434946D01*
X968600Y434921D01*
X968622Y434887D01*
X968722Y434821D01*
X968815Y434745D01*
X969047Y434621D01*
X969052Y434599D01*
X968952Y434094D01*
X969052Y433590D01*
X969338Y433163D01*
X969765Y432877D01*
X970070Y432817D01*
X970168Y432326D01*
X969872Y432128D01*
X969766Y431970D01*
X969276Y432068D01*
X969223Y432335D01*
X968937Y432762D01*
X968510Y433048D01*
X968005Y433148D01*
X967501Y433048D01*
X967074Y432762D01*
X966969D01*
X966541Y433048D01*
X966037Y433148D01*
X965533Y433048D01*
X965105Y432762D01*
X964820Y432335D01*
X964720Y431831D01*
Y430830D01*
X964710Y430816D01*
X964618Y430350D01*
Y428431D01*
X964387Y428242D01*
X963902Y428363D01*
X963861Y428462D01*
X963790Y428634D01*
X963790Y428634D01*
D01*
X963620Y428889D01*
X963567Y429155D01*
Y431831D01*
X963567Y431833D01*
Y432901D01*
X963505Y433213D01*
X963328Y433478D01*
X963064Y433654D01*
X962751Y433716D01*
X961867D01*
X961555Y433654D01*
X961290Y433478D01*
X961113Y433213D01*
X961051Y432901D01*
Y432587D01*
X960883Y432335D01*
X960783Y431831D01*
Y429075D01*
X960883Y428571D01*
X960917Y428519D01*
X960917Y428519D01*
X960917Y428519D01*
Y428519D01*
X960876Y428477D01*
X960356Y427957D01*
D01*
X960299Y427900D01*
X954600D01*
X949700Y432800D01*
Y432880D01*
Y435029D01*
Y435083D01*
X950179Y435228D01*
X950208Y435183D01*
D01*
X950230Y435152D01*
X950243Y435131D01*
X950671Y434846D01*
X951175Y434746D01*
X953931D01*
X954010Y434761D01*
X954435Y434846D01*
X954862Y435131D01*
X954876Y435152D01*
X954930Y435233D01*
D01*
X954936Y435242D01*
X954975Y435300D01*
X955042Y435345D01*
X955094Y435397D01*
X955103Y435403D01*
X955126Y435437D01*
X955158Y435463D01*
X955214Y435568D01*
X955280Y435668D01*
X955289Y435708D01*
X955308Y435744D01*
X955398Y436043D01*
X955402Y436083D01*
X955418Y436120D01*
X955418Y436240D01*
X955430Y436359D01*
X955418Y436398D01*
Y436438D01*
X955344Y436810D01*
X955344Y436810D01*
X955344Y436810D01*
X955344D01*
X955222Y437104D01*
X955222Y437104D01*
X955222Y437104D01*
X955145Y437219D01*
X955060Y437304D01*
X955026Y437346D01*
X955148Y437527D01*
X955248Y438031D01*
X955148Y438536D01*
X954862Y438963D01*
X954435Y439249D01*
X953931Y439349D01*
X951175D01*
X950671Y439249D01*
X945476D01*
X945011Y439156D01*
X944989Y439142D01*
X944723Y439253D01*
X944000Y439348D01*
X943277Y439253D01*
X942604Y438974D01*
X942419Y438832D01*
X941330D01*
Y437834D01*
X940970Y437474D01*
X940526Y436896D01*
X940248Y436223D01*
X940152Y435500D01*
Y429500D01*
X940248Y428777D01*
X940526Y428104D01*
X940668Y427919D01*
Y426830D01*
X942157D01*
X942222Y426803D01*
X942945Y426708D01*
X943668Y426803D01*
X943733Y426830D01*
X945221D01*
Y426830D01*
X945231D01*
X945584Y426476D01*
Y420600D01*
X945584Y420600D01*
X945646Y420288D01*
X945823Y420023D01*
X945823Y420023D01*
X949423Y416423D01*
X949688Y416246D01*
X950000Y416184D01*
X950000Y416184D01*
X959999D01*
X960235Y415743D01*
X960198Y415688D01*
X960105Y415222D01*
Y383900D01*
X885800D01*
X878700Y391000D01*
Y425952D01*
X889800D01*
Y427208D01*
X891263D01*
Y423500D01*
X891358Y422777D01*
X891637Y422104D01*
X891779Y421919D01*
Y420830D01*
X893267D01*
X893332Y420803D01*
X894055Y420708D01*
X894778Y420803D01*
X894843Y420830D01*
X896332D01*
Y421919D01*
X896474Y422104D01*
X896752Y422777D01*
X896848Y423500D01*
Y429500D01*
X896848Y429500D01*
X896848Y429500D01*
Y433979D01*
X897021D01*
Y435467D01*
X897048Y435533D01*
X897143Y436255D01*
X897048Y436978D01*
X897021Y437044D01*
Y438531D01*
X895932D01*
X895747Y438673D01*
X895073Y438952D01*
X894350Y439048D01*
X893628Y438952D01*
X892954Y438673D01*
X892769Y438531D01*
X891680D01*
Y437413D01*
X891637Y437356D01*
X891358Y436683D01*
X891263Y435960D01*
Y432792D01*
X889800D01*
Y434048D01*
X878700D01*
Y435952D01*
X889800D01*
Y444048D01*
X878700D01*
Y445952D01*
X889800D01*
Y447208D01*
X891263D01*
Y443440D01*
X891263Y443440D01*
X891263D01*
X891358Y442717D01*
X891637Y442044D01*
X891680Y441987D01*
Y440869D01*
X892769D01*
X892954Y440727D01*
X893628Y440448D01*
X894350Y440352D01*
X895073Y440448D01*
X895747Y440727D01*
X895932Y440869D01*
X897021D01*
Y442356D01*
X897048Y442422D01*
X897143Y443145D01*
X897048Y443867D01*
X897021Y443933D01*
Y445421D01*
X896848D01*
Y449500D01*
X896848Y449500D01*
X896848Y449500D01*
Y455500D01*
X896752Y456223D01*
X896474Y456896D01*
X896332Y457081D01*
Y458170D01*
X894843D01*
X894778Y458197D01*
X894055Y458292D01*
X893332Y458197D01*
X893267Y458170D01*
X891779D01*
Y457081D01*
X891637Y456896D01*
X891358Y456223D01*
X891263Y455500D01*
Y452792D01*
X889800D01*
Y454048D01*
X878700D01*
Y494300D01*
X884400Y500000D01*
X909902D01*
X930269Y479634D01*
X930220Y479136D01*
X930208Y479128D01*
X929770Y478473D01*
X929616Y477700D01*
X929770Y476927D01*
X930208Y476272D01*
X930863Y475834D01*
X931636Y475680D01*
X932162Y475785D01*
X932578Y475507D01*
X932634Y475227D01*
X933072Y474572D01*
X933727Y474134D01*
X934500Y473980D01*
X935273Y474134D01*
X935928Y474572D01*
X936366Y475227D01*
X936419Y475495D01*
X936835Y475773D01*
X937300Y475680D01*
X938073Y475834D01*
X938480Y475665D01*
X938507Y475529D01*
X938945Y474873D01*
X939601Y474436D01*
X940374Y474282D01*
X941147Y474436D01*
X941802Y474873D01*
X942240Y475529D01*
X942267Y475665D01*
X942674Y475834D01*
X943447Y475680D01*
X943705Y475731D01*
X943818Y475619D01*
X943972Y474846D01*
X944409Y474190D01*
X945065Y473752D01*
X945838Y473599D01*
X946611Y473752D01*
X947266Y474190D01*
X947294Y474232D01*
X947784Y474330D01*
X948227Y474034D01*
X949000Y473880D01*
X949773Y474034D01*
X950428Y474472D01*
X950866Y475127D01*
X951020Y475900D01*
X950866Y476673D01*
X950428Y477328D01*
X950217Y477469D01*
Y477751D01*
X950124Y478216D01*
X949861Y478611D01*
X928934Y499538D01*
X929125Y500000D01*
X1008071D01*
Y497979D01*
D02*
G37*
G36*
X1175500Y485900D02*
Y453748D01*
X1174700D01*
Y445652D01*
X1175500D01*
Y443748D01*
X1174700D01*
Y435652D01*
X1175500D01*
Y433748D01*
X1174700D01*
Y425652D01*
X1175500D01*
Y389200D01*
X1172266Y385966D01*
X1171772Y386039D01*
X1171342Y386843D01*
X1170504Y387864D01*
X1169483Y388702D01*
X1168318Y389325D01*
X1167054Y389708D01*
X1165739Y389838D01*
X1164425Y389708D01*
X1163161Y389325D01*
X1161996Y388702D01*
X1160975Y387864D01*
X1160137Y386843D01*
X1159514Y385679D01*
X1159131Y384415D01*
X1159129Y384400D01*
X1053900D01*
X1045900Y392400D01*
Y425652D01*
X1055300D01*
Y429106D01*
X1059657Y433463D01*
X1061763D01*
Y423700D01*
X1061858Y422977D01*
X1062137Y422304D01*
X1062279Y422119D01*
Y421030D01*
X1063767D01*
X1063832Y421003D01*
X1064555Y420908D01*
X1065278Y421003D01*
X1065343Y421030D01*
X1066831D01*
Y422119D01*
X1066973Y422304D01*
X1067252Y422977D01*
X1067348Y423700D01*
Y436200D01*
X1067252Y436923D01*
X1067170Y437122D01*
Y438531D01*
X1066081D01*
X1065896Y438673D01*
X1065223Y438952D01*
X1064500Y439048D01*
X1058500D01*
X1057777Y438952D01*
X1057580Y438871D01*
X1057104Y438673D01*
X1056919Y438531D01*
X1055830D01*
Y437888D01*
X1055414Y437610D01*
X1055300Y437657D01*
Y441743D01*
X1055414Y441790D01*
X1055830Y441512D01*
Y440869D01*
X1056919D01*
X1057104Y440727D01*
X1057580Y440529D01*
X1057777Y440448D01*
X1058500Y440352D01*
X1064500D01*
X1065223Y440448D01*
X1065896Y440727D01*
X1066081Y440869D01*
X1067170D01*
Y442278D01*
X1067252Y442477D01*
X1067348Y443200D01*
Y455700D01*
X1067252Y456423D01*
X1066973Y457096D01*
X1066831Y457281D01*
Y458370D01*
X1065343D01*
X1065278Y458397D01*
X1064555Y458492D01*
X1063832Y458397D01*
X1063767Y458370D01*
X1062279D01*
Y457281D01*
X1062137Y457096D01*
X1061858Y456423D01*
X1061763Y455700D01*
Y445937D01*
X1059657D01*
X1055300Y450294D01*
Y453748D01*
X1045900D01*
Y483946D01*
X1049402D01*
Y484808D01*
X1051843D01*
X1067225Y469425D01*
X1067225D01*
X1067225Y469425D01*
X1067225Y469425D01*
Y469425D01*
X1067804Y468982D01*
X1068477Y468703D01*
X1069200Y468608D01*
X1087943D01*
X1097719Y458832D01*
X1097528Y458370D01*
X1096233D01*
X1096167Y458397D01*
X1095445Y458492D01*
X1094722Y458397D01*
X1094656Y458370D01*
X1093169D01*
Y457281D01*
X1093027Y457096D01*
X1092748Y456423D01*
X1092652Y455700D01*
X1092748Y454977D01*
X1093027Y454304D01*
X1093169Y454119D01*
Y453603D01*
X1092793Y453273D01*
X1092000Y453378D01*
X1091207Y453273D01*
X1090831Y453603D01*
Y454119D01*
X1090973Y454304D01*
X1091252Y454977D01*
X1091348Y455700D01*
X1091252Y456423D01*
X1090973Y457096D01*
X1090831Y457281D01*
Y458370D01*
X1089343D01*
X1089278Y458397D01*
X1088555Y458492D01*
X1083445D01*
X1082722Y458397D01*
X1082656Y458370D01*
X1081168D01*
Y457281D01*
X1081026Y457096D01*
X1080748Y456423D01*
X1080652Y455700D01*
X1080748Y454977D01*
X1081026Y454304D01*
X1081168Y454119D01*
Y453030D01*
X1082656D01*
X1082722Y453003D01*
X1083445Y452908D01*
X1088555D01*
X1089139Y452985D01*
X1089331Y452523D01*
X1088622Y451978D01*
X1087932Y451080D01*
X1087432Y451392D01*
X1087369Y451416D01*
X1087312Y451454D01*
X1087221Y451472D01*
X1087135Y451505D01*
X1087067Y451502D01*
X1087000Y451516D01*
X1082000D01*
X1081688Y451454D01*
X1081539Y451354D01*
X1081472D01*
Y451309D01*
X1081423Y451277D01*
X1081246Y451012D01*
X1081184Y450700D01*
Y443354D01*
X1077472D01*
Y436046D01*
X1081184D01*
Y428700D01*
X1081246Y428388D01*
X1081423Y428123D01*
X1081472Y428091D01*
Y428046D01*
X1081539D01*
X1081688Y427946D01*
X1082000Y427884D01*
X1087000D01*
X1087067Y427898D01*
X1087135Y427895D01*
X1087221Y427928D01*
X1087312Y427946D01*
X1087369Y427984D01*
X1087432Y428008D01*
X1095612Y433120D01*
X1095960Y432761D01*
X1095834Y432573D01*
X1095680Y431800D01*
X1095834Y431027D01*
X1096272Y430372D01*
X1096927Y429934D01*
X1097076Y429904D01*
X1097221Y429426D01*
X1094166Y426370D01*
X1093169D01*
Y425281D01*
X1093027Y425096D01*
X1092748Y424423D01*
X1092652Y423700D01*
X1092748Y422977D01*
X1093027Y422304D01*
X1093169Y422119D01*
Y421030D01*
X1094656D01*
X1094722Y421003D01*
X1095445Y420908D01*
X1096167Y421003D01*
X1096233Y421030D01*
X1097721D01*
Y422027D01*
X1100609Y424915D01*
X1101278Y425003D01*
X1101344Y425030D01*
X1102831D01*
Y426119D01*
X1102973Y426304D01*
X1103252Y426977D01*
X1103348Y427700D01*
X1103252Y428423D01*
X1103178Y428602D01*
X1103876Y429300D01*
D01*
X1104124Y429300D01*
X1104822Y428602D01*
X1104748Y428423D01*
X1104652Y427700D01*
X1104748Y426977D01*
X1105027Y426304D01*
X1105169Y426119D01*
Y425030D01*
X1106221D01*
X1108025Y423225D01*
X1108604Y422782D01*
X1109277Y422503D01*
X1110000Y422408D01*
X1138555D01*
X1139278Y422503D01*
X1139951Y422782D01*
X1140530Y423225D01*
X1140530Y423225D01*
X1140530Y423225D01*
X1144334Y427030D01*
X1145331D01*
Y428119D01*
X1145473Y428304D01*
X1145752Y428977D01*
X1145848Y429700D01*
Y433700D01*
X1145752Y434423D01*
X1145473Y435096D01*
X1145030Y435674D01*
X1144451Y436118D01*
X1144292Y436184D01*
Y436255D01*
X1144197Y436978D01*
X1144170Y437044D01*
Y438531D01*
X1143081D01*
X1142896Y438673D01*
X1142223Y438952D01*
X1141500Y439048D01*
X1140777Y438952D01*
X1140104Y438673D01*
X1139919Y438531D01*
X1138830D01*
Y437044D01*
X1138803Y436978D01*
X1138708Y436255D01*
Y432700D01*
X1138803Y431977D01*
X1139082Y431304D01*
X1139526Y430725D01*
X1139568Y430693D01*
X1139600Y430194D01*
X1137399Y427992D01*
X1127147D01*
X1126903Y428152D01*
X1126753Y428433D01*
X1126754Y428435D01*
X1126754Y428439D01*
X1126756Y428442D01*
X1126785Y428595D01*
X1126816Y428747D01*
Y436046D01*
X1130528D01*
Y443354D01*
X1126816D01*
Y450700D01*
X1126754Y451012D01*
X1126577Y451277D01*
X1126528Y451309D01*
Y451354D01*
D01*
Y451354D01*
X1126582Y451408D01*
X1136343D01*
X1139330Y448420D01*
X1139082Y448096D01*
X1138803Y447423D01*
X1138708Y446700D01*
Y443145D01*
X1138803Y442422D01*
X1138830Y442356D01*
Y440869D01*
X1139919D01*
X1140104Y440727D01*
X1140777Y440448D01*
X1141500Y440352D01*
X1142223Y440448D01*
X1142896Y440727D01*
X1143081Y440869D01*
X1144170D01*
Y442356D01*
X1144197Y442422D01*
X1144292Y443145D01*
Y443216D01*
X1144451Y443282D01*
X1145030Y443725D01*
X1145473Y444304D01*
X1145752Y444977D01*
X1145848Y445700D01*
Y449700D01*
X1145752Y450423D01*
X1145473Y451096D01*
X1145331Y451281D01*
Y452370D01*
X1143843D01*
X1143778Y452397D01*
X1143584Y452423D01*
X1143172Y452477D01*
X1139474Y456175D01*
X1138896Y456618D01*
X1138223Y456897D01*
X1137500Y456992D01*
X1115699D01*
X1114976Y456897D01*
X1114779Y456815D01*
X1114303Y456618D01*
X1113725Y456175D01*
X1112805Y455255D01*
X1111758D01*
X1111566Y455717D01*
X1120051Y464202D01*
X1121795D01*
X1122517Y464297D01*
X1123191Y464576D01*
X1123769Y465020D01*
X1127775Y469026D01*
X1128500Y468931D01*
X1129480Y469060D01*
X1130393Y469438D01*
X1131176Y470039D01*
X1131778Y470823D01*
X1132156Y471736D01*
X1132285Y472716D01*
Y474684D01*
X1132156Y475664D01*
X1131778Y476577D01*
X1131176Y477361D01*
X1130393Y477962D01*
X1129480Y478340D01*
X1128500Y478469D01*
X1127520Y478340D01*
X1126607Y477962D01*
X1125823Y477361D01*
X1125222Y476577D01*
X1124844Y475664D01*
X1124715Y474684D01*
Y473864D01*
X1122641Y471790D01*
X1122192Y472011D01*
X1122285Y472716D01*
Y474684D01*
X1122156Y475664D01*
X1122085Y475835D01*
Y482855D01*
X1121956Y483835D01*
X1121578Y484748D01*
X1120977Y485532D01*
X1120193Y486133D01*
X1119280Y486511D01*
X1118300Y486640D01*
X1117320Y486511D01*
X1116407Y486133D01*
X1115623Y485532D01*
X1115022Y484748D01*
X1114644Y483835D01*
X1114515Y482855D01*
Y473900D01*
X1114515Y473900D01*
X1114515D01*
X1114644Y472920D01*
X1114715Y472749D01*
Y472716D01*
X1114844Y471736D01*
X1115222Y470823D01*
X1115823Y470039D01*
X1116607Y469438D01*
X1116744Y469381D01*
X1116842Y468891D01*
X1107125Y459174D01*
X1106682Y458596D01*
X1106654Y458530D01*
X1106159Y458465D01*
X1106075Y458574D01*
X1105496Y459018D01*
X1105385Y459064D01*
X1091074Y473375D01*
X1090496Y473818D01*
X1089823Y474097D01*
X1089100Y474192D01*
X1070357D01*
X1054974Y489574D01*
X1054396Y490018D01*
X1053723Y490297D01*
X1053000Y490392D01*
X1049402D01*
Y491254D01*
X1049292D01*
Y495355D01*
X1049197Y496078D01*
X1049170Y496143D01*
Y497170D01*
X1051500Y499500D01*
X1144115D01*
Y484668D01*
X1137828Y478381D01*
X1137520Y478340D01*
X1136607Y477962D01*
X1135824Y477361D01*
X1135222Y476577D01*
X1134844Y475664D01*
X1134715Y474684D01*
Y472716D01*
X1134844Y471736D01*
X1135222Y470823D01*
X1135824Y470039D01*
X1136607Y469438D01*
X1137520Y469060D01*
X1138500Y468931D01*
X1139480Y469060D01*
X1140393Y469438D01*
X1141177Y470039D01*
X1141778Y470823D01*
X1142156Y471736D01*
X1142197Y472044D01*
X1150576Y480423D01*
X1151178Y481207D01*
X1151367Y481664D01*
X1151556Y482120D01*
X1151685Y483100D01*
Y499500D01*
X1161900D01*
X1175500Y485900D01*
D02*
G37*
G36*
X969765Y436814D02*
X970269Y436714D01*
X973025D01*
X973529Y436814D01*
X973530Y436814D01*
X976785D01*
X977208Y436392D01*
Y433445D01*
X977303Y432722D01*
X977394Y432501D01*
X977400Y432487D01*
Y429051D01*
X977387Y429040D01*
X976614Y428887D01*
X975958Y428449D01*
X975521Y427793D01*
X975367Y427020D01*
X975521Y426248D01*
X975611Y426111D01*
X971869Y422369D01*
X971800Y422378D01*
X970563Y422215D01*
X969411Y421738D01*
X968421Y420978D01*
X967662Y419989D01*
X967185Y418837D01*
X967022Y417600D01*
X967031Y417531D01*
X966500Y417000D01*
X964680D01*
X964566Y417573D01*
X964128Y418228D01*
X963473Y418666D01*
X962700Y418820D01*
X961927Y418666D01*
X961272Y418228D01*
X960834Y417573D01*
X960720Y417000D01*
X950000D01*
X946400Y420600D01*
Y434279D01*
X946670D01*
Y435370D01*
X948114Y436814D01*
X950670D01*
X950671Y436814D01*
X951175Y436714D01*
X953931D01*
X954414Y436810D01*
X954467Y436766D01*
X954544Y436651D01*
X954618Y436279D01*
X954527Y435981D01*
X954522Y435978D01*
X954465Y435921D01*
X954398Y435877D01*
X954354Y435810D01*
X954297Y435753D01*
X954274Y435719D01*
X954117Y435614D01*
X953850Y435561D01*
X951255D01*
X950989Y435614D01*
X950819Y435728D01*
X950809Y435746D01*
X950716Y435822D01*
X950632Y435907D01*
X950594Y435922D01*
X950563Y435948D01*
X950448Y435983D01*
X950338Y436028D01*
X950297D01*
X950258Y436040D01*
X950139Y436028D01*
X950019Y436028D01*
X949982Y436013D01*
X949942Y436009D01*
X949463Y435864D01*
X949428Y435845D01*
X949388Y435837D01*
X949288Y435770D01*
X949183Y435714D01*
X949157Y435682D01*
X949123Y435660D01*
X949057Y435560D01*
X948981Y435468D01*
X948969Y435429D01*
X948946Y435395D01*
X948923Y435278D01*
X948888Y435163D01*
X948892Y435123D01*
X948884Y435083D01*
Y432800D01*
X948884Y432800D01*
X948946Y432488D01*
X949123Y432223D01*
X949123Y432223D01*
X954023Y427323D01*
X954288Y427146D01*
X954600Y427084D01*
X954600Y427084D01*
X960299D01*
X960611Y427146D01*
X960717Y427217D01*
X960876Y427323D01*
X960876Y427323D01*
X961494Y427942D01*
X961539Y428009D01*
X961596Y428065D01*
X961627Y428140D01*
X961671Y428206D01*
X961687Y428285D01*
X961718Y428360D01*
Y428440D01*
X961733Y428519D01*
X961718Y428597D01*
Y428678D01*
X961687Y428752D01*
X961671Y428831D01*
X961659Y428849D01*
X961598Y429155D01*
Y431750D01*
X961651Y432017D01*
X961729Y432134D01*
X961760Y432208D01*
X961805Y432275D01*
X961821Y432354D01*
X961851Y432428D01*
X961851Y432508D01*
X961867Y432587D01*
Y432901D01*
X962751D01*
Y431833D01*
X962751Y431831D01*
Y429075D01*
X962851Y428571D01*
X963112Y428181D01*
X963014Y427690D01*
X962772Y427528D01*
X962334Y426873D01*
X962180Y426100D01*
X962334Y425327D01*
X962772Y424672D01*
X963427Y424234D01*
X964200Y424080D01*
X964973Y424234D01*
X965628Y424672D01*
X966066Y425327D01*
X966114Y425569D01*
X966605Y425667D01*
X966781Y425403D01*
X967437Y424965D01*
X968209Y424811D01*
X968982Y424965D01*
X969638Y425403D01*
X970076Y426058D01*
X970229Y426831D01*
X970076Y427604D01*
X969638Y428259D01*
X969223Y428537D01*
Y428571D01*
X969223Y428571D01*
X969323Y429075D01*
Y429232D01*
X969801Y429377D01*
X969872Y429272D01*
X970527Y428834D01*
X971300Y428680D01*
X972073Y428834D01*
X972728Y429272D01*
X973166Y429927D01*
X973320Y430700D01*
X973166Y431473D01*
X972864Y431925D01*
Y432777D01*
X973025D01*
X973529Y432877D01*
X973957Y433163D01*
X974242Y433590D01*
X974343Y434094D01*
X974242Y434599D01*
X973957Y435026D01*
X973529Y435312D01*
X973025Y435412D01*
X970269D01*
X969765Y435312D01*
X969640Y435228D01*
X969199Y435464D01*
Y436662D01*
X969640Y436898D01*
X969765Y436814D01*
D02*
G37*
G36*
X967293Y416103D02*
X967662Y415211D01*
X968421Y414221D01*
X969411Y413462D01*
X970563Y412985D01*
X971800Y412822D01*
X972532Y412919D01*
X975366Y410085D01*
X975944Y409642D01*
X976617Y409363D01*
X977340Y409268D01*
X992101D01*
X992337Y408826D01*
X992034Y408373D01*
X991880Y407602D01*
X987996Y403717D01*
X969400D01*
X968934Y403624D01*
X968539Y403361D01*
X963001Y397822D01*
X962539Y398014D01*
Y413971D01*
X962700Y414780D01*
X963473Y414934D01*
X964128Y415372D01*
X964566Y416027D01*
X964601Y416200D01*
X964601D01*
X964680Y416184D01*
X966500D01*
X966500Y416184D01*
X966812Y416246D01*
X966814Y416248D01*
X967293Y416103D01*
D02*
G37*
G36*
X851300Y466800D02*
Y442534D01*
X851022Y442497D01*
X850957Y442470D01*
X849468D01*
Y441381D01*
X849327Y441196D01*
X849048Y440523D01*
X848952Y439800D01*
X849048Y439077D01*
X849327Y438404D01*
X849468Y438219D01*
Y437130D01*
X850957D01*
X851022Y437103D01*
X851300Y437066D01*
Y414000D01*
X846400Y409100D01*
X813900D01*
X811782Y409276D01*
X811700Y409500D01*
X811700D01*
X811700Y409500D01*
Y471200D01*
X845900D01*
X846400Y471700D01*
X851300Y466800D01*
D02*
G37*
G36*
X1203400Y433900D02*
Y375000D01*
X1201800Y373400D01*
X1161600D01*
X1160900Y374100D01*
X1167300Y383400D01*
X1171300D01*
X1176400Y388500D01*
Y410853D01*
X1176873Y411014D01*
X1177322Y410430D01*
X1178311Y409671D01*
X1179463Y409194D01*
X1180700Y409031D01*
X1181937Y409194D01*
X1183089Y409671D01*
X1184079Y410430D01*
X1184706Y411248D01*
X1185050Y411390D01*
X1185628Y411834D01*
X1185628Y411834D01*
X1185628Y411834D01*
X1190373Y416579D01*
X1191270D01*
Y417967D01*
X1191297Y418033D01*
X1191392Y418755D01*
X1191297Y419478D01*
X1191270Y419544D01*
Y421132D01*
X1190051D01*
X1189996Y421173D01*
X1189323Y421452D01*
X1188600Y421548D01*
X1187877Y421452D01*
X1187204Y421173D01*
X1187149Y421132D01*
X1185930D01*
Y420034D01*
X1183515Y417619D01*
X1183089Y417946D01*
X1181937Y418424D01*
X1180700Y418586D01*
X1179463Y418424D01*
X1178311Y417946D01*
X1177322Y417187D01*
X1176873Y416603D01*
X1176400Y416764D01*
Y425652D01*
X1184644D01*
X1185930Y424366D01*
Y423468D01*
X1186889D01*
X1187204Y423226D01*
X1187877Y422948D01*
X1188600Y422852D01*
X1189323Y422948D01*
X1189996Y423226D01*
X1190312Y423468D01*
X1191270D01*
Y424857D01*
X1191297Y424922D01*
X1191392Y425645D01*
X1191297Y426368D01*
X1191270Y426433D01*
Y428021D01*
X1190173D01*
X1186519Y431674D01*
X1186300Y431843D01*
Y433748D01*
X1177101D01*
X1176910Y434210D01*
X1178100Y435400D01*
X1201900D01*
X1203400Y433900D01*
D02*
G37*
G36*
X1126000Y428747D02*
X1121000Y428700D01*
X1109000Y436200D01*
Y443200D01*
X1121000Y450700D01*
X1126000D01*
Y428747D01*
D02*
G37*
G36*
X1087590Y450331D02*
X1087385Y449837D01*
X1087222Y448600D01*
X1087385Y447363D01*
X1087862Y446211D01*
X1088622Y445222D01*
X1089611Y444462D01*
X1090763Y443985D01*
X1092000Y443822D01*
X1093237Y443985D01*
X1094389Y444462D01*
X1095378Y445222D01*
X1095504Y445385D01*
X1099000Y443200D01*
Y436200D01*
X1087000Y428700D01*
X1082000D01*
Y450700D01*
X1087000D01*
X1087590Y450331D01*
D02*
G37*
G36*
X1004800Y513300D02*
X1026200D01*
X1029400Y510100D01*
Y503700D01*
X1027900Y502200D01*
X1019000D01*
X1013900Y507300D01*
X1012600Y508600D01*
X1010600D01*
X1009417Y507417D01*
X1008889Y507012D01*
X1008483Y506483D01*
X1005300Y503300D01*
X981000D01*
X973300Y511000D01*
Y517500D01*
X1000600D01*
X1004800Y513300D01*
D02*
G37*
G36*
X998700Y564300D02*
Y540000D01*
X1001300Y537400D01*
X1006200D01*
X1010400Y533200D01*
Y529600D01*
X1009900Y529100D01*
X1006800D01*
X1003800Y526100D01*
Y523400D01*
X1000500Y520100D01*
X972800D01*
X964600Y528300D01*
Y569900D01*
X993100D01*
X998700Y564300D01*
D02*
G37*
G36*
X1115500Y551900D02*
Y547600D01*
X1102400Y534500D01*
Y522300D01*
X1099300Y519200D01*
X1094100D01*
Y529900D01*
X1095684Y531484D01*
X1099100D01*
X1099412Y531546D01*
X1099677Y531723D01*
X1099854Y531988D01*
X1099916Y532300D01*
Y537700D01*
X1099916Y537700D01*
X1099854Y538012D01*
X1099677Y538277D01*
X1099677Y538277D01*
X1099100Y538854D01*
Y539200D01*
X1098100Y540200D01*
Y550000D01*
X1099700Y551600D01*
X1100900Y552800D01*
X1114600D01*
X1115500Y551900D01*
D02*
G37*
G36*
X1099100Y537700D02*
Y532300D01*
X1094000D01*
X1092900Y531200D01*
X1092300Y530600D01*
Y516700D01*
X1090400Y514800D01*
X1080900D01*
X1078200Y517500D01*
Y536700D01*
X1071700Y543200D01*
X1064000D01*
Y553500D01*
X1071500Y561000D01*
X1075800D01*
X1099100Y537700D01*
D02*
G37*
G36*
X1137800Y542600D02*
X1140300Y540100D01*
Y529195D01*
X1140207Y528970D01*
X1140078Y527990D01*
Y524278D01*
X1139900Y524100D01*
X1135600D01*
X1128100Y531600D01*
X1122200D01*
Y543100D01*
X1137300D01*
X1137800Y542600D01*
D02*
G37*
G36*
X1200700Y555700D02*
Y552400D01*
Y534000D01*
X1198700Y532000D01*
X1194100Y527400D01*
X1177200D01*
X1168100Y536500D01*
X1167600Y537000D01*
X1166090D01*
X1166086Y537002D01*
X1166019Y537046D01*
X1165940Y537062D01*
X1165866Y537093D01*
X1165786D01*
X1165707Y537109D01*
X1165628Y537093D01*
X1165548D01*
X1165300Y537044D01*
X1164857Y537132D01*
X1164482Y537382D01*
X1164231Y537757D01*
X1164143Y538200D01*
X1164193Y538448D01*
Y538528D01*
X1164209Y538607D01*
X1164193Y538686D01*
Y538766D01*
X1164162Y538840D01*
X1164146Y538919D01*
X1164102Y538986D01*
X1164071Y539060D01*
X1164014Y539117D01*
X1163970Y539184D01*
X1163283Y539870D01*
X1163216Y539915D01*
X1163159Y539972D01*
X1163085Y540003D01*
X1163019Y540047D01*
X1162940Y540063D01*
X1162866Y540094D01*
X1162785Y540094D01*
X1162706Y540109D01*
X1162628Y540094D01*
X1162547Y540094D01*
X1162473Y540063D01*
X1162394Y540047D01*
X1162383Y540039D01*
X1161900Y539944D01*
X1161457Y540031D01*
X1161238Y540178D01*
X1161164Y540209D01*
X1161097Y540254D01*
X1161034Y540266D01*
X1160100Y541200D01*
Y544946D01*
X1164727Y549573D01*
X1164800Y549500D01*
X1166800D01*
X1168100Y550800D01*
X1171700Y554400D01*
X1175600Y558300D01*
X1198100D01*
X1200700Y555700D01*
D02*
G37*
G36*
X1198900Y573900D02*
Y562600D01*
X1195900Y559600D01*
X1173600D01*
X1170200Y556200D01*
X1158700Y544700D01*
X1121800D01*
Y549700D01*
X1131100Y559000D01*
Y574800D01*
X1132500Y576200D01*
X1196600D01*
X1198900Y573900D01*
D02*
G37*
G36*
X1020000Y541800D02*
Y524900D01*
X1010700Y515600D01*
X1007200D01*
X1005700Y517100D01*
Y526400D01*
X1007584Y528284D01*
X1009900D01*
X1009900Y528284D01*
X1010212Y528346D01*
X1010292Y528400D01*
X1010800D01*
X1011200Y528800D01*
Y529521D01*
X1011216Y529600D01*
X1011216Y529600D01*
Y533200D01*
X1011216Y533200D01*
X1011200Y533279D01*
Y534000D01*
X1003600Y541600D01*
Y544900D01*
X1016900D01*
X1020000Y541800D01*
D02*
G37*
G36*
X1077384Y535016D02*
Y517500D01*
X1077384Y517500D01*
X1077400Y517421D01*
Y517200D01*
X1077515Y517085D01*
X1077623Y516923D01*
X1077623Y516923D01*
X1080323Y514223D01*
X1080588Y514046D01*
X1080900Y513984D01*
X1080900Y513984D01*
X1090400D01*
X1090400Y513984D01*
X1090712Y514046D01*
X1090977Y514223D01*
X1090977Y514223D01*
X1091053Y514300D01*
X1091200D01*
X1091628Y514728D01*
X1092204Y515113D01*
X1092589Y515689D01*
X1093900Y517000D01*
X1098500D01*
X1099400Y516100D01*
Y512800D01*
X1097400Y510800D01*
X1076700D01*
X1072400Y515100D01*
X1062300D01*
Y529100D01*
X1063100Y529900D01*
X1070300Y537100D01*
X1075300D01*
X1077384Y535016D01*
D02*
G37*
G36*
X1044900Y594500D02*
Y580500D01*
X990300D01*
Y586100D01*
Y591500D01*
X997300Y598500D01*
X1040900D01*
X1044900Y594500D01*
D02*
G37*
G36*
X1161139Y539263D02*
X1161900Y539112D01*
X1162661Y539263D01*
X1162706Y539294D01*
X1163393Y538607D01*
X1163312Y538200D01*
X1163463Y537439D01*
X1163894Y536794D01*
X1164539Y536363D01*
X1165300Y536212D01*
X1165707Y536293D01*
X1174800Y527200D01*
X1175600Y526400D01*
X1190800D01*
X1193300Y523900D01*
Y518000D01*
Y516100D01*
X1190700Y513500D01*
X1187800Y510600D01*
X1150100D01*
X1148900Y511800D01*
Y522100D01*
Y535000D01*
X1153400Y539500D01*
X1160785D01*
X1161139Y539263D01*
D02*
G37*
G36*
X984800Y591900D02*
Y583700D01*
X989900Y578600D01*
X1046900D01*
X1053900Y585600D01*
X1115300D01*
X1118200Y582700D01*
Y574500D01*
Y565800D01*
X1116400Y564000D01*
X1100300D01*
X1096400Y567900D01*
Y575700D01*
X1092200Y579900D01*
X1063900D01*
X1058900Y574900D01*
Y570000D01*
X1051700Y562800D01*
X1023900D01*
X1020100Y559000D01*
X1018400Y557300D01*
X1002400D01*
X1000900Y558800D01*
Y566100D01*
X996000Y571000D01*
X980200D01*
X979300Y571900D01*
X970300Y580900D01*
Y593100D01*
X973600Y596400D01*
X980300D01*
X984800Y591900D01*
D02*
G37*
%LPC*%
G36*
X1088555Y426492D02*
X1083445D01*
X1082722Y426397D01*
X1082656Y426370D01*
X1081168D01*
Y425281D01*
X1081026Y425096D01*
X1080748Y424423D01*
X1080652Y423700D01*
X1080748Y422977D01*
X1081026Y422304D01*
X1081168Y422119D01*
Y421030D01*
X1082656D01*
X1082722Y421003D01*
X1083445Y420908D01*
X1088555D01*
X1089278Y421003D01*
X1089343Y421030D01*
X1090831D01*
Y422119D01*
X1090973Y422304D01*
X1091252Y422977D01*
X1091348Y423700D01*
X1091252Y424423D01*
X1090973Y425096D01*
X1090831Y425281D01*
Y426370D01*
X1089343D01*
X1089278Y426397D01*
X1088555Y426492D01*
D02*
G37*
G36*
X1118500Y408469D02*
X1117520Y408340D01*
X1116607Y407962D01*
X1115823Y407361D01*
X1115222Y406577D01*
X1114844Y405664D01*
X1114715Y404684D01*
Y402716D01*
X1114844Y401736D01*
X1115222Y400823D01*
X1115823Y400039D01*
X1116607Y399438D01*
X1117520Y399060D01*
X1118500Y398931D01*
X1119480Y399060D01*
X1120393Y399438D01*
X1121177Y400039D01*
X1121778Y400823D01*
X1122156Y401736D01*
X1122285Y402716D01*
Y404684D01*
X1122156Y405664D01*
X1121778Y406577D01*
X1121177Y407361D01*
X1120393Y407962D01*
X1119480Y408340D01*
X1118500Y408469D01*
D02*
G37*
G36*
X1128500D02*
X1127520Y408340D01*
X1126607Y407962D01*
X1125823Y407361D01*
X1125222Y406577D01*
X1124844Y405664D01*
X1124715Y404684D01*
Y402716D01*
X1124844Y401736D01*
X1125222Y400823D01*
X1125823Y400039D01*
X1126607Y399438D01*
X1127520Y399060D01*
X1128500Y398931D01*
X1129480Y399060D01*
X1130393Y399438D01*
X1131176Y400039D01*
X1131778Y400823D01*
X1132156Y401736D01*
X1132285Y402716D01*
Y404684D01*
X1132156Y405664D01*
X1131778Y406577D01*
X1131176Y407361D01*
X1130393Y407962D01*
X1129480Y408340D01*
X1128500Y408469D01*
D02*
G37*
G36*
X922000Y439348D02*
X921277Y439252D01*
X920604Y438974D01*
X920419Y438832D01*
X919330D01*
Y437344D01*
X919303Y437278D01*
X919208Y436555D01*
Y433000D01*
X919208Y433000D01*
X919208D01*
X919251Y432668D01*
X918922Y432292D01*
X914945D01*
X914222Y432197D01*
X914157Y432170D01*
X912669D01*
Y431081D01*
X912527Y430896D01*
X912248Y430223D01*
X912152Y429500D01*
Y423500D01*
X912248Y422777D01*
X912527Y422104D01*
X912669Y421919D01*
Y420830D01*
X914157D01*
X914222Y420803D01*
X914945Y420708D01*
X915668Y420803D01*
X915733Y420830D01*
X917221D01*
Y421919D01*
X917363Y422104D01*
X917642Y422777D01*
X917737Y423500D01*
Y426708D01*
X919263D01*
Y423500D01*
X919358Y422777D01*
X919637Y422104D01*
X919779Y421919D01*
Y420830D01*
X921267D01*
X921332Y420803D01*
X922055Y420708D01*
X922778Y420803D01*
X922843Y420830D01*
X924331D01*
Y421919D01*
X924473Y422104D01*
X924752Y422777D01*
X924848Y423500D01*
Y429500D01*
Y433055D01*
X924792Y433474D01*
Y436555D01*
X924697Y437278D01*
X924670Y437344D01*
Y438832D01*
X923581D01*
X923396Y438974D01*
X922723Y439252D01*
X922000Y439348D01*
D02*
G37*
G36*
X908000D02*
X907277Y439252D01*
X906604Y438974D01*
X906419Y438832D01*
X905330D01*
Y437344D01*
X905303Y437278D01*
X905208Y436555D01*
Y433000D01*
X905208Y433000D01*
X905208D01*
X905251Y432668D01*
X904922Y432292D01*
X900945D01*
X900222Y432197D01*
X900156Y432170D01*
X898668D01*
Y431081D01*
X898544Y430919D01*
X898526Y430896D01*
X898248Y430223D01*
X898152Y429500D01*
Y423500D01*
X898248Y422777D01*
X898526Y422104D01*
X898668Y421919D01*
Y420830D01*
X900156D01*
X900222Y420803D01*
X900945Y420708D01*
X901667Y420803D01*
X901733Y420830D01*
X903221D01*
Y421919D01*
X903363Y422104D01*
X903642Y422777D01*
X903737Y423500D01*
Y426708D01*
X905263D01*
Y423500D01*
X905358Y422777D01*
X905637Y422104D01*
X905779Y421919D01*
Y420830D01*
X907267D01*
X907333Y420803D01*
X908055Y420708D01*
X908778Y420803D01*
X908844Y420830D01*
X910332D01*
Y421919D01*
X910474Y422104D01*
X910752Y422777D01*
X910848Y423500D01*
Y429500D01*
Y433055D01*
X910792Y433474D01*
Y436555D01*
X910697Y437278D01*
X910670Y437344D01*
Y438832D01*
X909581D01*
X909396Y438974D01*
X908723Y439252D01*
X908000Y439348D01*
D02*
G37*
G36*
X1076555Y426492D02*
X1071445D01*
X1070722Y426397D01*
X1070656Y426370D01*
X1069168D01*
Y425281D01*
X1069026Y425096D01*
X1068748Y424423D01*
X1068652Y423700D01*
X1068748Y422977D01*
X1069026Y422304D01*
X1069168Y422119D01*
Y421030D01*
X1070656D01*
X1070722Y421003D01*
X1071445Y420908D01*
X1076555D01*
X1077278Y421003D01*
X1077343Y421030D01*
X1078831D01*
Y422119D01*
X1078973Y422304D01*
X1079252Y422977D01*
X1079348Y423700D01*
X1079252Y424423D01*
X1078973Y425096D01*
X1078831Y425281D01*
Y426370D01*
X1077343D01*
X1077278Y426397D01*
X1076555Y426492D01*
D02*
G37*
G36*
X936000Y439348D02*
X935277Y439252D01*
X934604Y438974D01*
X934419Y438832D01*
X933330D01*
Y437344D01*
X933303Y437278D01*
X933208Y436555D01*
Y433445D01*
X933263Y433026D01*
Y432292D01*
X928945D01*
X928222Y432197D01*
X928156Y432170D01*
X926668D01*
Y431081D01*
X926544Y430919D01*
X926527Y430896D01*
X926248Y430223D01*
X926152Y429500D01*
Y423500D01*
X926248Y422777D01*
X926527Y422104D01*
X926668Y421919D01*
Y420830D01*
X928156D01*
X928222Y420803D01*
X928945Y420708D01*
X929667Y420803D01*
X929733Y420830D01*
X931221D01*
Y421919D01*
X931363Y422104D01*
X931642Y422777D01*
X931737Y423500D01*
Y426708D01*
X936055D01*
X936778Y426803D01*
X936843Y426830D01*
X938332D01*
Y427919D01*
X938361Y427957D01*
X938474Y428104D01*
X938752Y428777D01*
X938848Y429500D01*
Y433500D01*
X938792Y433919D01*
Y436555D01*
X938697Y437278D01*
X938670Y437344D01*
Y438832D01*
X937581D01*
X937396Y438974D01*
X936723Y439252D01*
X936000Y439348D01*
D02*
G37*
G36*
X1149500Y439048D02*
X1148777Y438952D01*
X1148104Y438673D01*
X1147919Y438531D01*
X1146830D01*
Y437044D01*
X1146803Y436978D01*
X1146708Y436255D01*
Y433255D01*
X1146803Y432533D01*
X1147082Y431859D01*
X1147152Y431767D01*
Y429700D01*
X1147248Y428977D01*
X1147526Y428304D01*
X1147668Y428119D01*
Y427030D01*
X1149156D01*
X1149222Y427003D01*
X1149945Y426908D01*
X1154700D01*
Y425652D01*
X1166300D01*
Y433748D01*
X1154700D01*
Y432492D01*
X1152737D01*
Y433700D01*
X1152642Y434423D01*
X1152363Y435096D01*
X1152292Y435188D01*
Y436255D01*
X1152197Y436978D01*
X1152170Y437044D01*
Y438531D01*
X1151081D01*
X1150896Y438673D01*
X1150223Y438952D01*
X1149500Y439048D01*
D02*
G37*
G36*
X922055Y458292D02*
X921332Y458197D01*
X921267Y458170D01*
X919779D01*
Y457081D01*
X919637Y456896D01*
X919358Y456223D01*
X919263Y455500D01*
Y452292D01*
X917737D01*
Y455500D01*
X917642Y456223D01*
X917363Y456896D01*
X917221Y457081D01*
Y458170D01*
X915733D01*
X915668Y458197D01*
X914945Y458292D01*
X914222Y458197D01*
X914157Y458170D01*
X912669D01*
Y457081D01*
X912527Y456896D01*
X912248Y456223D01*
X912152Y455500D01*
Y449500D01*
X912248Y448777D01*
X912527Y448104D01*
X912669Y447919D01*
Y446830D01*
X914157D01*
X914222Y446803D01*
X914945Y446708D01*
X919208D01*
Y443445D01*
X919303Y442722D01*
X919330Y442657D01*
Y441168D01*
X920419D01*
X920604Y441026D01*
X921277Y440748D01*
X922000Y440652D01*
X922723Y440748D01*
X923396Y441026D01*
X923581Y441168D01*
X924670D01*
Y442657D01*
X924697Y442722D01*
X924792Y443445D01*
Y446525D01*
X924848Y446945D01*
Y449500D01*
Y455500D01*
X924752Y456223D01*
X924473Y456896D01*
X924331Y457081D01*
Y458170D01*
X922843D01*
X922778Y458197D01*
X922055Y458292D01*
D02*
G37*
G36*
X908055D02*
X907333Y458197D01*
X907267Y458170D01*
X905779D01*
Y457081D01*
X905637Y456896D01*
X905358Y456223D01*
X905263Y455500D01*
Y452292D01*
X903737D01*
Y455500D01*
X903642Y456223D01*
X903363Y456896D01*
X903221Y457081D01*
Y458170D01*
X901733D01*
X901667Y458197D01*
X900945Y458292D01*
X900222Y458197D01*
X900156Y458170D01*
X898668D01*
Y457081D01*
X898526Y456896D01*
X898248Y456223D01*
X898152Y455500D01*
Y449500D01*
X898248Y448777D01*
X898526Y448104D01*
X898668Y447919D01*
Y446830D01*
X900156D01*
X900222Y446803D01*
X900945Y446708D01*
X905263D01*
Y445974D01*
X905208Y445555D01*
Y443445D01*
X905303Y442722D01*
X905330Y442657D01*
Y441168D01*
X906419D01*
X906604Y441026D01*
X907277Y440748D01*
X908000Y440652D01*
X908723Y440748D01*
X909396Y441026D01*
X909581Y441168D01*
X910670D01*
Y442657D01*
X910697Y442722D01*
X910792Y443445D01*
Y445081D01*
X910848Y445500D01*
Y449500D01*
Y455500D01*
X910752Y456223D01*
X910474Y456896D01*
X910332Y457081D01*
Y458170D01*
X908844D01*
X908778Y458197D01*
X908055Y458292D01*
D02*
G37*
G36*
X1076555Y458492D02*
X1071445D01*
X1070722Y458397D01*
X1070656Y458370D01*
X1069168D01*
Y457281D01*
X1069026Y457096D01*
X1068748Y456423D01*
X1068652Y455700D01*
X1068748Y454977D01*
X1069026Y454304D01*
X1069168Y454119D01*
Y453030D01*
X1070656D01*
X1070722Y453003D01*
X1071445Y452908D01*
X1076555D01*
X1077278Y453003D01*
X1077343Y453030D01*
X1078831D01*
Y454119D01*
X1078973Y454304D01*
X1079252Y454977D01*
X1079348Y455700D01*
X1079252Y456423D01*
X1078973Y457096D01*
X1078831Y457281D01*
Y458370D01*
X1077343D01*
X1077278Y458397D01*
X1076555Y458492D01*
D02*
G37*
G36*
X1031055Y469526D02*
X1003833D01*
X1003111Y469430D01*
X1002913Y469349D01*
X1002437Y469152D01*
X1001859Y468708D01*
X996179Y463028D01*
X995800Y463078D01*
X994563Y462915D01*
X993411Y462438D01*
X992422Y461679D01*
X991662Y460689D01*
X991185Y459537D01*
X991022Y458300D01*
X991185Y457063D01*
X991662Y455911D01*
X992422Y454921D01*
X993411Y454162D01*
X994563Y453685D01*
X995800Y453522D01*
X997037Y453685D01*
X998189Y454162D01*
X999179Y454921D01*
X999938Y455911D01*
X1000415Y457063D01*
X1000578Y458300D01*
X1000435Y459386D01*
X1004990Y463941D01*
X1031055D01*
X1031778Y464036D01*
X1031843Y464063D01*
X1033332D01*
Y465152D01*
X1033473Y465337D01*
X1033752Y466011D01*
X1033848Y466733D01*
X1033752Y467456D01*
X1033473Y468129D01*
X1033332Y468314D01*
Y469403D01*
X1031843D01*
X1031778Y469430D01*
X1031055Y469526D01*
D02*
G37*
G36*
X1037945D02*
X1037222Y469430D01*
X1037157Y469403D01*
X1035669D01*
Y468314D01*
X1035527Y468129D01*
X1035248Y467456D01*
X1035153Y466733D01*
Y459701D01*
X1035152Y459700D01*
Y453748D01*
X1029001D01*
X1026781Y455968D01*
X1026878Y456700D01*
X1026715Y457937D01*
X1026238Y459089D01*
X1025478Y460078D01*
X1024489Y460838D01*
X1023337Y461315D01*
X1022100Y461478D01*
X1020863Y461315D01*
X1019711Y460838D01*
X1018721Y460078D01*
X1017962Y459089D01*
X1017485Y457937D01*
X1017322Y456700D01*
X1017485Y455463D01*
X1017962Y454311D01*
X1018721Y453322D01*
X1018794Y453266D01*
X1018633Y452792D01*
X999445D01*
X998722Y452697D01*
X998656Y452670D01*
X997169D01*
Y451655D01*
X996782Y451151D01*
X996503Y450478D01*
X996408Y449755D01*
Y443345D01*
X996503Y442622D01*
X996530Y442556D01*
Y441069D01*
X997619D01*
X997804Y440927D01*
X998477Y440648D01*
X999200Y440552D01*
X999923Y440648D01*
X1000596Y440927D01*
X1000781Y441069D01*
X1001870D01*
Y442556D01*
X1001897Y442622D01*
X1001992Y443345D01*
Y447208D01*
X1023700D01*
Y445652D01*
X1035152D01*
Y443748D01*
X1023700D01*
Y442492D01*
X1022121D01*
Y442570D01*
X1020633D01*
X1020568Y442597D01*
X1019845Y442692D01*
X1019122Y442597D01*
X1019057Y442570D01*
X1017568D01*
Y441481D01*
X1017427Y441296D01*
X1017148Y440623D01*
X1017052Y439900D01*
X1017148Y439177D01*
X1017427Y438504D01*
X1017568Y438319D01*
Y437230D01*
X1018774D01*
X1019322Y437003D01*
X1020045Y436908D01*
X1023700D01*
Y435652D01*
X1033099D01*
X1034541Y434210D01*
X1034350Y433748D01*
X1023700D01*
Y432792D01*
X1001992D01*
Y436455D01*
X1001897Y437178D01*
X1001870Y437244D01*
Y438731D01*
X1000781D01*
X1000596Y438873D01*
X999923Y439152D01*
X999200Y439248D01*
X998477Y439152D01*
X997804Y438873D01*
X997619Y438731D01*
X996530D01*
Y437244D01*
X996503Y437178D01*
X996408Y436455D01*
Y430245D01*
X996503Y429522D01*
X996782Y428849D01*
X997169Y428344D01*
Y427330D01*
X998656D01*
X998722Y427303D01*
X999445Y427208D01*
X1020988D01*
X1021179Y426746D01*
X1021126Y426692D01*
X1020682Y426114D01*
X1020545Y425783D01*
X1019711Y425438D01*
X1018721Y424679D01*
X1017962Y423689D01*
X1017485Y422537D01*
X1017322Y421300D01*
X1017485Y420063D01*
X1017962Y418911D01*
X1018721Y417921D01*
X1019711Y417162D01*
X1020863Y416685D01*
X1022100Y416522D01*
X1023337Y416685D01*
X1024489Y417162D01*
X1025478Y417921D01*
X1026238Y418911D01*
X1026715Y420063D01*
X1026878Y421300D01*
X1026715Y422537D01*
X1026238Y423689D01*
X1026143Y423812D01*
X1027984Y425652D01*
X1035153D01*
Y412500D01*
X1035153Y412500D01*
X1035248Y411777D01*
X1035527Y411104D01*
X1035668Y410919D01*
Y409830D01*
X1037157D01*
X1037222Y409803D01*
X1037945Y409708D01*
X1038668Y409803D01*
X1038733Y409830D01*
X1040221D01*
Y410919D01*
X1040363Y411104D01*
X1040642Y411777D01*
X1040737Y412500D01*
Y434755D01*
X1040642Y435478D01*
X1040363Y436151D01*
X1039919Y436730D01*
X1038449Y438200D01*
X1039974Y439725D01*
X1040418Y440304D01*
X1040697Y440977D01*
X1040792Y441700D01*
X1040737Y442119D01*
X1040737Y459700D01*
X1040737Y459700D01*
D01*
Y466733D01*
X1040642Y467456D01*
X1040363Y468129D01*
X1040221Y468314D01*
Y469403D01*
X1038733D01*
X1038668Y469430D01*
X1037945Y469526D01*
D02*
G37*
G36*
X1007000Y445748D02*
X1006277Y445652D01*
X1005604Y445373D01*
X1005419Y445231D01*
X1004330D01*
Y443743D01*
X1004303Y443678D01*
X1004208Y442955D01*
Y440200D01*
Y437045D01*
X1004303Y436322D01*
X1004330Y436257D01*
Y434768D01*
X1005419D01*
X1005604Y434627D01*
X1006277Y434348D01*
X1007000Y434253D01*
X1007723Y434348D01*
X1008396Y434627D01*
X1008581Y434768D01*
X1009670D01*
Y436257D01*
X1009697Y436322D01*
X1009792Y437045D01*
Y437108D01*
X1012955D01*
X1013678Y437203D01*
X1013743Y437230D01*
X1015232D01*
Y438319D01*
X1015373Y438504D01*
X1015652Y439177D01*
X1015748Y439900D01*
X1015652Y440623D01*
X1015373Y441296D01*
X1015232Y441481D01*
Y442570D01*
X1013743D01*
X1013678Y442597D01*
X1012955Y442692D01*
X1009792D01*
Y442955D01*
X1009697Y443678D01*
X1009670Y443743D01*
Y445231D01*
X1008581D01*
X1008396Y445373D01*
X1007723Y445652D01*
X1007000Y445748D01*
D02*
G37*
G36*
X992000Y439348D02*
X991277Y439252D01*
X990604Y438974D01*
X990419Y438832D01*
X989330D01*
Y437344D01*
X989303Y437278D01*
X989208Y436555D01*
Y433445D01*
X989244Y433168D01*
X988914Y432792D01*
X987445D01*
X986722Y432697D01*
X986656Y432670D01*
X985168D01*
Y431581D01*
X985026Y431396D01*
X984748Y430723D01*
X984652Y430000D01*
X984748Y429277D01*
X985026Y428604D01*
X985168Y428419D01*
Y427330D01*
X986656D01*
X986722Y427303D01*
X987445Y427208D01*
X992555D01*
X993278Y427303D01*
X993344Y427330D01*
X994831D01*
Y428419D01*
X994973Y428604D01*
X995252Y429277D01*
X995348Y430000D01*
Y434000D01*
X995252Y434723D01*
X994973Y435396D01*
X994792Y435632D01*
Y436555D01*
X994697Y437278D01*
X994670Y437344D01*
Y438832D01*
X993581D01*
X993396Y438974D01*
X992723Y439252D01*
X992000Y439348D01*
D02*
G37*
G36*
X1166300Y453748D02*
X1154700D01*
Y452492D01*
X1149945D01*
X1149222Y452397D01*
X1149156Y452370D01*
X1147668D01*
Y451281D01*
X1147526Y451096D01*
X1147248Y450423D01*
X1147152Y449700D01*
Y447633D01*
X1147082Y447541D01*
X1146803Y446868D01*
X1146708Y446145D01*
Y443145D01*
X1146803Y442422D01*
X1146830Y442356D01*
Y440869D01*
X1147919D01*
X1148104Y440727D01*
X1148777Y440448D01*
X1149500Y440352D01*
X1150223Y440448D01*
X1150896Y440727D01*
X1151081Y440869D01*
X1152170D01*
Y442356D01*
X1152197Y442422D01*
X1152292Y443145D01*
Y444212D01*
X1152363Y444304D01*
X1152642Y444977D01*
X1152737Y445700D01*
Y446908D01*
X1154700D01*
Y445652D01*
X1164381D01*
X1164463Y445239D01*
X1164894Y444594D01*
X1165444Y444227D01*
X1165299Y443748D01*
X1154700D01*
Y435652D01*
X1166300D01*
Y437035D01*
X1166896Y437282D01*
X1167474Y437725D01*
X1167918Y438304D01*
X1168197Y438977D01*
X1168292Y439700D01*
X1168197Y440423D01*
X1167918Y441096D01*
X1167474Y441675D01*
X1166896Y442118D01*
X1166300Y442365D01*
Y443748D01*
X1166300Y443748D01*
X1166300D01*
Y444012D01*
X1167061Y444163D01*
X1167706Y444594D01*
X1168137Y445239D01*
X1168288Y446000D01*
X1168137Y446761D01*
X1167706Y447406D01*
X1167061Y447837D01*
X1166300Y447988D01*
Y453748D01*
D02*
G37*
G36*
X992555Y452792D02*
X987445D01*
X986722Y452697D01*
X986656Y452670D01*
X985168D01*
Y451581D01*
X985026Y451396D01*
X984748Y450723D01*
X984652Y450000D01*
X984748Y449277D01*
X985026Y448604D01*
X985168Y448419D01*
Y447330D01*
X986656D01*
X986722Y447303D01*
X987445Y447208D01*
X989208D01*
Y443445D01*
X989303Y442722D01*
X989330Y442657D01*
Y441168D01*
X990419D01*
X990604Y441026D01*
X991277Y440748D01*
X992000Y440652D01*
X992723Y440748D01*
X993396Y441026D01*
X993581Y441168D01*
X994670D01*
Y442657D01*
X994697Y442722D01*
X994792Y443445D01*
Y447330D01*
X994831D01*
Y448419D01*
X994973Y448604D01*
X995252Y449277D01*
X995348Y450000D01*
X995252Y450723D01*
X994973Y451396D01*
X994831Y451581D01*
Y452670D01*
X993344D01*
X993278Y452697D01*
X992555Y452792D01*
D02*
G37*
G36*
X928945Y458292D02*
X928222Y458197D01*
X928156Y458170D01*
X926668D01*
Y457081D01*
X926527Y456896D01*
X926248Y456223D01*
X926152Y455500D01*
Y449500D01*
X926248Y448777D01*
X926527Y448104D01*
X926668Y447919D01*
Y446830D01*
X928156D01*
X928222Y446803D01*
X928945Y446708D01*
X933263D01*
Y445974D01*
X933208Y445555D01*
Y443445D01*
X933303Y442722D01*
X933330Y442657D01*
Y441168D01*
X934419D01*
X934604Y441026D01*
X935277Y440748D01*
X936000Y440652D01*
X936723Y440748D01*
X937396Y441026D01*
X937581Y441168D01*
X938670D01*
Y442657D01*
X938697Y442722D01*
X938792Y443445D01*
Y445081D01*
X938848Y445500D01*
Y449500D01*
X938752Y450223D01*
X938474Y450896D01*
X938332Y451081D01*
Y452170D01*
X936843D01*
X936778Y452197D01*
X936055Y452292D01*
X931737D01*
Y455500D01*
X931642Y456223D01*
X931363Y456896D01*
X931221Y457081D01*
Y458170D01*
X929733D01*
X929667Y458197D01*
X928945Y458292D01*
D02*
G37*
%LPD*%
D10*
X1180500Y429700D02*
D03*
Y439700D02*
D03*
Y449700D02*
D03*
X1160500Y429700D02*
D03*
Y439700D02*
D03*
Y449700D02*
D03*
X1029500D02*
D03*
Y439700D02*
D03*
Y429700D02*
D03*
X1049500Y449700D02*
D03*
Y439700D02*
D03*
Y429700D02*
D03*
X884000Y430000D02*
D03*
Y440000D02*
D03*
Y450000D02*
D03*
X864000Y430000D02*
D03*
Y440000D02*
D03*
Y450000D02*
D03*
D11*
X1038600Y588561D02*
D03*
X992900Y510939D02*
D03*
X1175600Y566961D02*
D03*
D12*
X1038600Y571239D02*
D03*
X992900Y528261D02*
D03*
X1175600Y549639D02*
D03*
D13*
X1068839Y518400D02*
D03*
D14*
X1086161D02*
D03*
D15*
X1021600Y583237D02*
D03*
Y575363D02*
D03*
X886400Y581320D02*
D03*
Y573446D02*
D03*
X1188500Y582037D02*
D03*
Y574163D02*
D03*
X901300Y581133D02*
D03*
Y573259D02*
D03*
X1191500Y562437D02*
D03*
Y554563D02*
D03*
X1011300Y574663D02*
D03*
Y582537D02*
D03*
X1003300Y574663D02*
D03*
Y582537D02*
D03*
X995300Y574663D02*
D03*
Y582537D02*
D03*
X976200Y523037D02*
D03*
Y515163D02*
D03*
X966000Y460063D02*
D03*
Y467937D02*
D03*
X953900Y419637D02*
D03*
Y411763D02*
D03*
X958000Y460063D02*
D03*
Y467937D02*
D03*
D16*
X1151737Y515400D02*
D03*
X1143863D02*
D03*
X1046437Y487600D02*
D03*
X1038563D02*
D03*
X1123563Y447700D02*
D03*
X1131437D02*
D03*
X1123563Y431700D02*
D03*
X1131437D02*
D03*
X1127563Y439700D02*
D03*
X1135437D02*
D03*
X1080937Y534200D02*
D03*
X1073063D02*
D03*
X1084437Y447700D02*
D03*
X1076563D02*
D03*
X1080437Y439700D02*
D03*
X1072563D02*
D03*
X1084437Y431700D02*
D03*
X1076563D02*
D03*
D17*
X978426Y552800D02*
D03*
X1076126Y559000D02*
D03*
D18*
X1010316Y561855D02*
D03*
Y543745D02*
D03*
X1108016Y568055D02*
D03*
Y549945D02*
D03*
D19*
X1147000Y562974D02*
D03*
D20*
X1156055Y531084D02*
D03*
X1137945D02*
D03*
D21*
X1107445Y451700D02*
D03*
X1100555D02*
D03*
X1095445Y455700D02*
D03*
X1088555D02*
D03*
X1149945Y449700D02*
D03*
X1143055D02*
D03*
X1149945Y429700D02*
D03*
X1143055D02*
D03*
X1095445Y423700D02*
D03*
X1088555D02*
D03*
X1107445Y427700D02*
D03*
X1100555D02*
D03*
X999445Y430000D02*
D03*
X992555D02*
D03*
X942945Y429500D02*
D03*
X936055D02*
D03*
X854945Y460900D02*
D03*
X848055D02*
D03*
X999445Y450000D02*
D03*
X992555D02*
D03*
X942945Y449500D02*
D03*
X936055D02*
D03*
X848055Y418650D02*
D03*
X854945D02*
D03*
X1012955Y439900D02*
D03*
X1019845D02*
D03*
X1037945Y412500D02*
D03*
X1031055D02*
D03*
X1037945Y466733D02*
D03*
X1031055D02*
D03*
X1083445Y455700D02*
D03*
X1076555D02*
D03*
X1083445Y423700D02*
D03*
X1076555D02*
D03*
X987445Y430000D02*
D03*
X980555D02*
D03*
X928945Y429500D02*
D03*
X922055D02*
D03*
X914945D02*
D03*
X908055D02*
D03*
X900945D02*
D03*
X894055D02*
D03*
X987445Y450000D02*
D03*
X980555D02*
D03*
X928945Y449500D02*
D03*
X922055D02*
D03*
X914945D02*
D03*
X908055D02*
D03*
X900945D02*
D03*
X894055D02*
D03*
X1071445Y455700D02*
D03*
X1064555D02*
D03*
X1071445Y423700D02*
D03*
X1064555D02*
D03*
X1037945Y459700D02*
D03*
X1031055D02*
D03*
X928945Y423500D02*
D03*
X922055D02*
D03*
X914945D02*
D03*
X908055D02*
D03*
X900945D02*
D03*
X894055D02*
D03*
X928945Y455500D02*
D03*
X922055D02*
D03*
X914945D02*
D03*
X908055D02*
D03*
X900945D02*
D03*
X894055D02*
D03*
X851745Y439800D02*
D03*
X844855D02*
D03*
D22*
X1188600Y418855D02*
D03*
Y425745D02*
D03*
X999200Y443345D02*
D03*
Y436455D02*
D03*
X1182200Y462355D02*
D03*
Y469245D02*
D03*
X1008200Y531245D02*
D03*
Y524355D02*
D03*
Y517845D02*
D03*
Y510955D02*
D03*
X1118300Y482855D02*
D03*
Y489745D02*
D03*
X894100Y574955D02*
D03*
Y581845D02*
D03*
X862900Y418945D02*
D03*
Y412055D02*
D03*
Y460605D02*
D03*
Y467494D02*
D03*
X1007000Y442955D02*
D03*
Y449845D02*
D03*
Y430155D02*
D03*
Y437045D02*
D03*
X1046500Y495355D02*
D03*
Y502245D02*
D03*
X1096800Y534745D02*
D03*
Y527855D02*
D03*
X1096700Y521945D02*
D03*
Y515055D02*
D03*
X846300Y533555D02*
D03*
Y540445D02*
D03*
X846700Y572855D02*
D03*
Y579745D02*
D03*
X856525Y533555D02*
D03*
Y540445D02*
D03*
X856800Y572855D02*
D03*
Y579745D02*
D03*
X866750Y533555D02*
D03*
Y540445D02*
D03*
X866900Y572855D02*
D03*
Y579745D02*
D03*
X1124500Y547645D02*
D03*
Y540755D02*
D03*
X876975Y533555D02*
D03*
Y540445D02*
D03*
X877000Y572855D02*
D03*
Y579745D02*
D03*
X887200Y533555D02*
D03*
Y540445D02*
D03*
X1124500Y533945D02*
D03*
Y527055D02*
D03*
X1058500Y443145D02*
D03*
Y436255D02*
D03*
X1149500Y443145D02*
D03*
Y436255D02*
D03*
X1141500Y443145D02*
D03*
Y436255D02*
D03*
X1064500D02*
D03*
Y443145D02*
D03*
X992000Y443445D02*
D03*
Y436555D02*
D03*
X980000Y443445D02*
D03*
Y436555D02*
D03*
X936000Y443445D02*
D03*
Y436555D02*
D03*
X922000Y443445D02*
D03*
Y436555D02*
D03*
X908000Y443445D02*
D03*
Y436555D02*
D03*
X894350Y443145D02*
D03*
Y436255D02*
D03*
X944000Y436555D02*
D03*
Y443445D02*
D03*
D23*
X962100Y440000D02*
D03*
D24*
X968005Y430453D02*
D03*
X966037D02*
D03*
X964069D02*
D03*
X962100D02*
D03*
X960131D02*
D03*
X958163D02*
D03*
X956194D02*
D03*
Y449547D02*
D03*
X958163D02*
D03*
X960131D02*
D03*
X962100D02*
D03*
X964069D02*
D03*
X966037D02*
D03*
X968005D02*
D03*
D25*
X952553Y434094D02*
D03*
Y436063D02*
D03*
Y438031D02*
D03*
Y440000D02*
D03*
Y441968D02*
D03*
Y443937D02*
D03*
Y445905D02*
D03*
X971647D02*
D03*
Y443937D02*
D03*
Y441968D02*
D03*
Y440000D02*
D03*
Y438031D02*
D03*
Y436063D02*
D03*
Y434094D02*
D03*
D26*
X1104000Y439700D02*
D03*
D27*
X1110299Y442653D02*
D03*
Y440684D02*
D03*
Y438716D02*
D03*
Y436747D02*
D03*
X1097701D02*
D03*
Y438716D02*
D03*
Y440684D02*
D03*
Y442653D02*
D03*
D28*
X1106953Y433401D02*
D03*
X1104984D02*
D03*
X1103016D02*
D03*
X1101047D02*
D03*
Y445999D02*
D03*
X1103016D02*
D03*
X1104984D02*
D03*
X1106953D02*
D03*
D29*
X823000Y416050D02*
D03*
Y388550D02*
D03*
X823016Y463850D02*
D03*
Y491350D02*
D03*
D30*
X823000Y402300D02*
D03*
X823016Y477600D02*
D03*
D31*
X970700Y458700D02*
X972700Y456700D01*
X972800D01*
X974365Y448624D02*
Y455135D01*
X972800Y456700D02*
X974365Y455135D01*
X968747Y449547D02*
X972100Y452900D01*
X971900D02*
X972100D01*
X993500Y416500D02*
X993700D01*
X980400Y419300D02*
X991500D01*
X977387Y422313D02*
Y427020D01*
Y422313D02*
X980400Y419300D01*
X991500D02*
X993700Y417100D01*
X965937Y451637D02*
X968600Y454300D01*
X965937Y449547D02*
Y451637D01*
X878901Y511750D02*
X909397D01*
X943447Y477700D01*
X931636D02*
Y479987D01*
X906223Y505401D02*
X931636Y479987D01*
X874954Y505401D02*
X906223D01*
X934500Y476000D02*
Y479369D01*
X906880Y506988D02*
X934500Y479369D01*
X875612Y506988D02*
X906880D01*
X911825Y514925D02*
X949000Y477751D01*
X880216Y514925D02*
X911825D01*
X949000Y475900D02*
Y477751D01*
X879559Y513338D02*
X911168D01*
X945838Y478668D01*
X908195Y510163D02*
X940374Y477985D01*
Y476302D02*
Y477985D01*
X945838Y475619D02*
Y478668D01*
X878244Y510163D02*
X908195D01*
X937300Y477700D02*
Y478814D01*
X907538Y508576D02*
X937300Y478814D01*
X877586Y508576D02*
X907538D01*
X878825Y516316D02*
X880216Y514925D01*
X967906Y449547D02*
X968747D01*
X952000Y451900D02*
Y453500D01*
X846800Y533555D02*
X874954Y505401D01*
X846300Y533555D02*
X846800D01*
X856525Y529637D02*
Y533555D01*
X862100Y526307D02*
Y564800D01*
X866750Y523902D02*
Y533555D01*
Y523902D02*
X878901Y511750D01*
X862100Y526307D02*
X878244Y510163D01*
X856525Y529637D02*
X877586Y508576D01*
X872000Y520897D02*
X879559Y513338D01*
X878825Y516316D02*
Y531705D01*
X881200Y517300D02*
X887200Y523300D01*
X872000Y520897D02*
Y575200D01*
X851400Y531200D02*
X875612Y506988D01*
X876975Y533555D02*
X878825Y531705D01*
X943447Y477700D02*
Y477809D01*
X961322Y379878D02*
Y415222D01*
X962700Y416600D01*
X877000Y579745D02*
X881200Y575545D01*
Y520700D02*
Y575545D01*
X962100Y377141D02*
X963775Y378816D01*
X962100Y376600D02*
Y377141D01*
X963775Y378816D02*
Y396875D01*
X969400Y402500D01*
X961322Y379878D02*
X961400Y379800D01*
X971647Y440000D02*
X986000D01*
X971547D02*
X971647D01*
X968500Y453700D02*
X968600Y453800D01*
Y454300D01*
X963969Y449547D02*
Y453669D01*
X960031Y449547D02*
Y453469D01*
X955204Y454300D02*
X958163Y451341D01*
Y449547D02*
Y451341D01*
X955100Y454300D02*
X955204D01*
X968005Y427035D02*
Y430453D01*
Y427035D02*
X968209Y426831D01*
X965835Y427535D02*
Y430350D01*
X965937Y430453D01*
X964400Y426100D02*
X965835Y427535D01*
X971647Y431047D02*
Y434094D01*
X971300Y430700D02*
X971647Y431047D01*
X964200Y426100D02*
X964400D01*
X969400Y402500D02*
X988500D01*
X993600Y407600D01*
X993900D01*
X860600Y566300D02*
X862100Y564800D01*
X860600Y566300D02*
Y575945D01*
X851400Y531200D02*
Y544700D01*
X867455Y579745D02*
X872000Y575200D01*
X887200Y523300D02*
Y533555D01*
X959100Y454400D02*
Y454500D01*
Y454400D02*
X960031Y453469D01*
X954353Y449547D02*
X956094D01*
X952000Y451900D02*
X954353Y449547D01*
X877000Y561900D02*
Y572855D01*
X897000Y561900D02*
X901300Y566200D01*
Y573259D01*
X886400Y562500D02*
X887000Y561900D01*
X886400Y562500D02*
Y573446D01*
X887735Y581320D02*
X894100Y574955D01*
X886400Y581320D02*
X887735D01*
X896400Y562500D02*
X897000Y561900D01*
X866900Y562000D02*
X867000Y561900D01*
X866900Y562000D02*
Y572855D01*
X856800D02*
X857000Y572655D01*
Y561900D02*
Y572655D01*
X846700Y562200D02*
Y572855D01*
Y562200D02*
X847000Y561900D01*
X846300Y540445D02*
X847000Y541145D01*
Y551900D01*
X856525Y540445D02*
X857000Y540920D01*
Y551900D01*
X887000Y540645D02*
X887200Y540445D01*
X887000Y540645D02*
Y551900D01*
X876975Y540445D02*
X877000Y540470D01*
Y551900D01*
X866750Y540445D02*
X867000Y540695D01*
Y551900D01*
X971647Y445905D02*
X974365Y448624D01*
X866900Y579745D02*
X867455D01*
X856800D02*
X860600Y575945D01*
X846700Y579745D02*
X852100Y574345D01*
Y545400D02*
Y574345D01*
X851400Y544700D02*
X852100Y545400D01*
X945476Y441969D02*
X952453D01*
X944000Y443445D02*
X945476Y441969D01*
X971547Y438032D02*
X978524D01*
X980000Y436555D01*
X971547Y441969D02*
X978524D01*
X980000Y443445D01*
X945476Y438032D02*
X952453D01*
X944000Y436555D02*
X945476Y438032D01*
X1103016Y445999D02*
Y449239D01*
X1100555Y451700D02*
X1103016Y449239D01*
X1104984Y445999D02*
Y449239D01*
X1107445Y451700D01*
X1103016Y430161D02*
Y433401D01*
X1100555Y427700D02*
X1103016Y430161D01*
X1104984D02*
Y433401D01*
Y430161D02*
X1107445Y427700D01*
X1106953Y433401D02*
X1107299D01*
X1110500Y430200D01*
X1113500D01*
X1099000Y433200D02*
X1100846D01*
X1101047Y433401D01*
X971800Y417600D02*
Y420632D01*
X1098701Y445999D02*
X1101047D01*
X1097700Y447000D02*
X1098701Y445999D01*
X1099000Y433100D02*
Y433200D01*
X1097700Y431800D02*
X1099000Y433100D01*
X963969Y430453D02*
Y438031D01*
X962000Y440000D02*
X963969Y438031D01*
X952453Y440000D02*
X962000D01*
X952453Y445906D02*
X956094D01*
X962000Y440000D01*
D32*
X966000Y460063D02*
X968406Y462468D01*
X973769D01*
X978300Y467000D01*
X1103900Y456600D02*
X1104100D01*
X987445Y450000D02*
X992555D01*
X977340Y412060D02*
X1030615D01*
X971800Y417600D02*
X977340Y412060D01*
X1030615D02*
X1031055Y412500D01*
X1118894Y466994D02*
X1121795D01*
X1128500Y473700D01*
X1109100Y457200D02*
X1118894Y466994D01*
X1095445Y423700D02*
X1099445Y427700D01*
X1100555D01*
X1108208Y452463D02*
X1113962D01*
X1107445Y451700D02*
X1108208Y452463D01*
X1113962D02*
X1115699Y454200D01*
X1137500D01*
X1037945Y441755D02*
Y459700D01*
Y441755D02*
X1038000Y441700D01*
X1036000Y439700D02*
X1038000Y441700D01*
X1033000Y439700D02*
X1036000D01*
X1037945Y412500D02*
Y434755D01*
X1052100Y487600D02*
X1053000D01*
X1046437D02*
X1052100D01*
X1010700Y495187D02*
X1020713D01*
X1001013D02*
X1010700D01*
X1010863Y495350D01*
Y505037D01*
X978300Y472474D02*
X1001013Y495187D01*
X1020713D02*
X1028300Y487600D01*
X978300Y467000D02*
Y472474D01*
X1028300Y487600D02*
X1038563D01*
X987445Y430000D02*
X992555D01*
X1181917Y449700D02*
X1182127Y449910D01*
Y462327D01*
X1046437Y487600D02*
X1046500Y487663D01*
Y495355D01*
X1069200Y471400D02*
X1089100D01*
X1053000Y487600D02*
X1069200Y471400D01*
X966700Y530200D02*
X967300Y530800D01*
X966700Y513200D02*
Y530200D01*
X1008200Y517845D02*
Y524355D01*
X948763Y411763D02*
X953900D01*
X966000Y467937D02*
Y473300D01*
X958000Y467937D02*
Y473300D01*
X1131437Y431700D02*
X1136100D01*
X1135400Y447700D02*
X1136100Y448400D01*
X1131437Y447700D02*
X1135400D01*
X1071900Y430300D02*
X1073300Y431700D01*
X1076563D01*
X1068400Y439700D02*
X1072563D01*
X1070400Y449100D02*
X1071800Y447700D01*
X1076563D01*
X1104100Y456400D02*
Y456600D01*
X1089100Y471400D02*
X1103900Y456600D01*
X942945Y444500D02*
Y449500D01*
Y444500D02*
X944000Y443445D01*
X1159083Y439700D02*
X1165500D01*
X908055Y449500D02*
Y455500D01*
X900945Y449500D02*
X908055D01*
X900945D02*
Y455500D01*
X922000Y447000D02*
X922055Y446945D01*
X922000Y443445D02*
Y447000D01*
X922055Y446945D02*
Y449500D01*
X914945D02*
X922055D01*
X914945D02*
Y455500D01*
X922055Y449500D02*
Y455500D01*
X908000Y445555D02*
X908055Y445500D01*
Y449500D01*
X908000Y443445D02*
Y445555D01*
X900945Y423500D02*
Y429500D01*
X908000Y433000D02*
X908055Y433055D01*
X908000Y433000D02*
Y436555D01*
X908055Y429500D02*
Y433055D01*
Y423500D02*
Y429500D01*
X900945D02*
X908055D01*
X922000Y433000D02*
X922055Y433055D01*
X922000Y433000D02*
Y436555D01*
X922055Y429500D02*
Y433055D01*
X914945Y429500D02*
X922055D01*
X914945Y423500D02*
Y429500D01*
X922055Y423500D02*
Y429500D01*
X928945D02*
X936055D01*
X936000Y433445D02*
X936055Y433500D01*
Y429500D02*
Y433500D01*
X936000Y433445D02*
Y436555D01*
Y445555D02*
X936055Y445500D01*
Y449500D01*
X936000Y443445D02*
Y445555D01*
X942945Y429500D02*
Y435500D01*
X944000Y436555D01*
X928945Y423500D02*
Y429500D01*
Y449500D02*
Y455500D01*
Y449500D02*
X936055D01*
X992000Y433445D02*
X992555Y434000D01*
Y430000D02*
Y434000D01*
X992000Y433445D02*
Y436555D01*
X980000Y446555D02*
X980555Y446000D01*
Y450000D01*
X980000Y443445D02*
Y446555D01*
Y433445D02*
X980555Y434000D01*
Y430000D02*
Y434000D01*
X980000Y433445D02*
Y436555D01*
X1064555Y443200D02*
Y455700D01*
X1064500Y443145D02*
X1064555Y443200D01*
X1058500Y443145D02*
X1064500D01*
X1051945Y449700D02*
X1058500Y443145D01*
X1050917Y449700D02*
X1051945D01*
Y429700D02*
X1058500Y436255D01*
X1050917Y429700D02*
X1051945D01*
X1058500Y436255D02*
X1064500D01*
X1064555Y423700D02*
Y436200D01*
X1064500Y436255D02*
X1064555Y436200D01*
X1071445Y423700D02*
X1076555D01*
X1083445D02*
X1088555D01*
X1083445Y455700D02*
X1088555D01*
X1071445D02*
X1076555D01*
X1097000Y455255D02*
X1100555Y451700D01*
X1097000Y454145D02*
Y455255D01*
X1095445Y455700D02*
X1097000Y454145D01*
X1149500Y446145D02*
X1149945Y445700D01*
Y449700D01*
X1149500Y443145D02*
Y446145D01*
Y433255D02*
X1149945Y433700D01*
Y429700D02*
Y433700D01*
X1149500Y433255D02*
Y436255D01*
X1141500Y432700D02*
Y436255D01*
X1142055Y432700D02*
X1143055Y433700D01*
Y429700D02*
Y433700D01*
X1141500Y432700D02*
X1142055D01*
X1141500Y443145D02*
Y446700D01*
X1142055D02*
X1143055Y445700D01*
Y449700D01*
X1141500Y446700D02*
X1142055D01*
X1149945Y429700D02*
X1159083D01*
X1149945Y449700D02*
X1159083D01*
X1142000D02*
X1143055D01*
X1107445Y427700D02*
X1107500D01*
X1110000Y425200D01*
X1138555D01*
X1143055Y429700D01*
X1137500Y454200D02*
X1142000Y449700D01*
X992000Y443445D02*
Y449445D01*
X999200Y443345D02*
Y449755D01*
X999445Y450000D01*
X999200Y430245D02*
Y436455D01*
X855240Y418945D02*
X862900D01*
X854945Y418650D02*
X855240Y418945D01*
X862900D02*
Y429683D01*
X862583Y430000D02*
X862900Y429683D01*
X854945Y460900D02*
X862605D01*
X862900Y460605D01*
Y450317D02*
Y460605D01*
X862583Y450000D02*
X862900Y450317D01*
X852794Y477600D02*
X862900Y467494D01*
X823016Y477600D02*
X852794D01*
X852845Y402000D02*
X862900Y412055D01*
X823016Y402000D02*
X852845D01*
X851745Y439800D02*
X862383D01*
X862583Y440000D01*
X894055Y449500D02*
Y455500D01*
Y443440D02*
Y449500D01*
Y443440D02*
X894350Y443145D01*
X885417Y450000D02*
X893555D01*
X894055Y449500D01*
Y423500D02*
Y429500D01*
Y435960D01*
X894350Y436255D01*
X885417Y430000D02*
X893555D01*
X894055Y429500D01*
X1033000Y439700D02*
X1037945Y434755D01*
X1028083Y439700D02*
X1033000D01*
X1037945Y459700D02*
Y466733D01*
X1037945Y459700D02*
X1037945Y459700D01*
X1020045Y439700D02*
X1028083D01*
X1019845Y439900D02*
X1020045Y439700D01*
X1007300Y439900D02*
X1012955D01*
X1007000Y437045D02*
Y440200D01*
Y442955D01*
Y440200D02*
X1007300Y439900D01*
X1027783Y450000D02*
X1028083Y449700D01*
X1003833Y466733D02*
X1031055D01*
X1023100Y424717D02*
X1028083Y429700D01*
X1023100Y421300D02*
Y424717D01*
X999445Y430000D02*
X1027783D01*
X1037945Y412500D02*
X1037945Y412500D01*
X1028083Y449700D02*
Y450717D01*
X1022100Y456700D02*
X1028083Y450717D01*
X999445Y450000D02*
X1027783D01*
X995800Y458300D02*
Y458700D01*
X1003833Y466733D01*
X1180700Y413809D02*
X1183654D01*
X1188600Y418755D01*
X1184545Y429700D02*
X1188600Y425645D01*
X1181917Y429700D02*
X1184545D01*
D33*
X919000Y525900D02*
X959300D01*
X897000Y547900D02*
X919000Y525900D01*
X897000Y547900D02*
Y551900D01*
X1026000Y525900D02*
X1034700D01*
X1046500Y514100D01*
Y502245D02*
Y514100D01*
X1146500Y505100D02*
X1147900Y503700D01*
Y483100D02*
Y503700D01*
X1138500Y473700D02*
X1147900Y483100D01*
X1132600Y586500D02*
X1184037D01*
X1188500Y582037D01*
X1125500Y579400D02*
X1132600Y586500D01*
X1125500Y564400D02*
Y579400D01*
X1119300Y558200D02*
X1125500Y564400D01*
X1182200Y469245D02*
Y477500D01*
X1143863Y515400D02*
Y527990D01*
X1119655Y527055D02*
X1124500D01*
X1113600Y489700D02*
X1113645Y489745D01*
X1118300D01*
Y473900D02*
X1118500Y473700D01*
X1118300Y473900D02*
Y482855D01*
X894100Y581845D02*
Y585500D01*
Y581845D02*
X894812Y581133D01*
X901300D01*
D34*
X811700Y372500D02*
X1204200D01*
Y605600D01*
X811700D02*
X1204200D01*
X811700Y372500D02*
Y605600D01*
D35*
X937000Y561900D02*
D03*
X927000D02*
D03*
X917000D02*
D03*
X907000D02*
D03*
X897000D02*
D03*
X887000D02*
D03*
X877000D02*
D03*
X867000D02*
D03*
X857000D02*
D03*
X847000D02*
D03*
X937000Y551900D02*
D03*
X927000D02*
D03*
X917000D02*
D03*
X907000D02*
D03*
X897000D02*
D03*
X887000D02*
D03*
X877000D02*
D03*
X867000D02*
D03*
X857000D02*
D03*
D36*
X847000D02*
D03*
D37*
X1118500Y403700D02*
D03*
X1128500D02*
D03*
X1138500D02*
D03*
X1118500Y473700D02*
D03*
X1128500D02*
D03*
X1138500D02*
D03*
D38*
X1022100Y456700D02*
D03*
Y421300D02*
D03*
X1092000Y448600D02*
D03*
X971800Y417600D02*
D03*
X995800Y458300D02*
D03*
X1180700Y413809D02*
D03*
D39*
X963810Y588200D02*
D03*
X977590D02*
D03*
D40*
X1186900Y533290D02*
D03*
Y519510D02*
D03*
D41*
X1122000Y439700D02*
D03*
X1102425Y438125D02*
D03*
Y441275D02*
D03*
X1105575Y438125D02*
D03*
Y441275D02*
D03*
X971900Y452900D02*
D03*
X940374Y476302D02*
D03*
X934500Y476000D02*
D03*
X937300Y477700D02*
D03*
X943447D02*
D03*
X945838Y475619D02*
D03*
X881200Y517300D02*
D03*
X931636Y477700D02*
D03*
X949000Y475900D02*
D03*
X962700Y416800D02*
D03*
X881200Y520700D02*
D03*
X962100Y376600D02*
D03*
X964500Y454200D02*
D03*
X968500Y453700D02*
D03*
X951200Y453400D02*
D03*
X955100Y454300D02*
D03*
X968209Y426831D02*
D03*
X964200Y426100D02*
D03*
X971300Y430700D02*
D03*
X977387Y427020D02*
D03*
X993700Y417100D02*
D03*
X993900Y407600D02*
D03*
X1097700Y431800D02*
D03*
X959300Y525900D02*
D03*
X1026000D02*
D03*
X1146500Y505100D02*
D03*
X1119300Y558200D02*
D03*
X1052100Y487600D02*
D03*
X1010863Y505037D02*
D03*
X966700Y513200D02*
D03*
X1182100Y477600D02*
D03*
X1143653Y528200D02*
D03*
X1119600Y527000D02*
D03*
X1113600Y489700D02*
D03*
X894100Y585500D02*
D03*
X961400Y379800D02*
D03*
X958000Y473300D02*
D03*
X966000D02*
D03*
X959100Y454500D02*
D03*
X1109100Y457200D02*
D03*
X947900Y449500D02*
D03*
X951000Y419155D02*
D03*
X948763Y411763D02*
D03*
X1079000Y538700D02*
D03*
X1136100Y431700D02*
D03*
X1136800Y444500D02*
D03*
X1136100Y448400D02*
D03*
X1071900Y430300D02*
D03*
X1068300Y439600D02*
D03*
X1070400Y449100D02*
D03*
X1104100Y456400D02*
D03*
X1097700Y447000D02*
D03*
X1165500Y439700D02*
D03*
X1113500Y430200D02*
D03*
X986000Y440000D02*
D03*
D42*
X1165739Y383100D02*
D03*
X1195661D02*
D03*
D43*
X995500Y392900D02*
D03*
X1015400Y393200D02*
D03*
X1027300Y399600D02*
D03*
X1004600Y400200D02*
D03*
X978900Y393200D02*
D03*
X959700Y485000D02*
D03*
X964200Y490800D02*
D03*
X950700Y491300D02*
D03*
X922500Y470600D02*
D03*
X910500Y470800D02*
D03*
X897000Y471300D02*
D03*
X916800Y476300D02*
D03*
X903500Y476100D02*
D03*
X889500Y475900D02*
D03*
X909000Y483100D02*
D03*
X896800Y482800D02*
D03*
X902500Y490100D02*
D03*
X889300D02*
D03*
X952000Y394600D02*
D03*
X934400Y394900D02*
D03*
X919400D02*
D03*
X899900Y394400D02*
D03*
X945000Y401900D02*
D03*
X928100Y402300D02*
D03*
X908800D02*
D03*
X891400D02*
D03*
X938000Y408600D02*
D03*
X918400D02*
D03*
X900600Y409600D02*
D03*
X887100Y411000D02*
D03*
X1128200Y390500D02*
D03*
X1162900Y407900D02*
D03*
X1155200Y414400D02*
D03*
X1097300Y405700D02*
D03*
X1092500Y393700D02*
D03*
X1078500Y404300D02*
D03*
X1071000Y395600D02*
D03*
X1059200Y404000D02*
D03*
X1146500Y464800D02*
D03*
X1163100Y466900D02*
D03*
X1160700Y481200D02*
D03*
X1154000Y474200D02*
D03*
X1103600Y469800D02*
D03*
X1100700Y478000D02*
D03*
X1092500Y482100D02*
D03*
X1075400Y483100D02*
D03*
X816184Y391600D02*
D03*
Y385400D02*
D03*
X822834Y391600D02*
D03*
Y385400D02*
D03*
X829484Y391600D02*
D03*
Y385400D02*
D03*
X815484Y419100D02*
D03*
Y412900D02*
D03*
X822134Y419100D02*
D03*
Y412900D02*
D03*
X828784Y419100D02*
D03*
Y412900D02*
D03*
X815884Y467100D02*
D03*
Y460900D02*
D03*
X822534Y467100D02*
D03*
Y460900D02*
D03*
X829184Y467100D02*
D03*
Y460900D02*
D03*
X828800Y488200D02*
D03*
Y494400D02*
D03*
X822150Y488200D02*
D03*
Y494400D02*
D03*
X815500Y488200D02*
D03*
Y494400D02*
D03*
D44*
X957376Y444724D02*
D03*
X962100D02*
D03*
X966824D02*
D03*
X957376Y440000D02*
D03*
X962100D02*
D03*
X966824D02*
D03*
X957376Y435276D02*
D03*
X962100D02*
D03*
X966824D02*
D03*
D45*
X970700Y458700D02*
D03*
D46*
X972300Y467500D02*
D03*
X1187100Y375400D02*
D03*
Y379900D02*
D03*
Y384400D02*
D03*
Y388900D02*
D03*
Y393400D02*
D03*
Y397900D02*
D03*
Y402400D02*
D03*
Y406900D02*
D03*
X1022400Y486800D02*
D03*
X1026600Y482400D02*
D03*
X1032700Y482500D02*
D03*
X1038100Y481100D02*
D03*
X979500Y492500D02*
D03*
X884000Y389400D02*
D03*
X972700Y473200D02*
D03*
X976400Y476900D02*
D03*
X980500Y480900D02*
D03*
X984100Y484600D02*
D03*
X988100Y489000D02*
D03*
X998400Y486800D02*
D03*
X994400Y482400D02*
D03*
X990800Y478700D02*
D03*
X986700Y474700D02*
D03*
X983000Y471000D02*
D03*
X998300Y469000D02*
D03*
X995500Y465800D02*
D03*
X1008357Y490700D02*
D03*
X1003029D02*
D03*
X1013686D02*
D03*
X1019014D02*
D03*
X1033086Y475400D02*
D03*
X1038414D02*
D03*
X1027671Y471400D02*
D03*
X1022343D02*
D03*
X1006357D02*
D03*
X1001029D02*
D03*
X1011686D02*
D03*
X1017014D02*
D03*
X958700Y389500D02*
D03*
Y394600D02*
D03*
Y399700D02*
D03*
Y404800D02*
D03*
X974900Y405500D02*
D03*
X970300D02*
D03*
X964600Y403400D02*
D03*
Y409400D02*
D03*
X966700Y413600D02*
D03*
X972900Y410400D02*
D03*
X977800Y407800D02*
D03*
X983129D02*
D03*
X988457D02*
D03*
X992400Y402600D02*
D03*
X987386Y399700D02*
D03*
X982057D02*
D03*
X976729D02*
D03*
X971400D02*
D03*
X967500Y396100D02*
D03*
X967400Y391300D02*
D03*
X1013886Y407300D02*
D03*
X1008557D02*
D03*
X1003229D02*
D03*
X997900D02*
D03*
X1029871D02*
D03*
X1024543D02*
D03*
X1019214D02*
D03*
X999000Y416200D02*
D03*
X1004167D02*
D03*
X1009333D02*
D03*
X1014500D02*
D03*
X1012000Y423700D02*
D03*
X1007525D02*
D03*
X1003050D02*
D03*
X998575D02*
D03*
X994100D02*
D03*
X1031300Y422800D02*
D03*
X1027800Y462700D02*
D03*
X1004500Y460800D02*
D03*
X1009400Y462100D02*
D03*
X1015100Y461800D02*
D03*
X1008200Y456500D02*
D03*
X1002800Y456700D02*
D03*
X991800Y462900D02*
D03*
X987300Y463000D02*
D03*
X981500D02*
D03*
X1051700Y389400D02*
D03*
X1035700Y390100D02*
D03*
X1039900Y399700D02*
D03*
Y394600D02*
D03*
Y404800D02*
D03*
X936657Y494500D02*
D03*
X940400Y491100D02*
D03*
X944000Y487600D02*
D03*
X947900Y483800D02*
D03*
X952200Y479600D02*
D03*
X953000Y473500D02*
D03*
X944200Y459600D02*
D03*
X940800Y463100D02*
D03*
X937100Y466600D02*
D03*
X933400Y469900D02*
D03*
X929700Y472200D02*
D03*
X926900Y477500D02*
D03*
X924500Y481900D02*
D03*
X921200Y484800D02*
D03*
X917500Y488600D02*
D03*
X914200Y491800D02*
D03*
X911100Y495000D02*
D03*
X942100Y456400D02*
D03*
X936771D02*
D03*
X986186Y492300D02*
D03*
X991514D02*
D03*
X968629Y498700D02*
D03*
X973957D02*
D03*
X979286D02*
D03*
X963300D02*
D03*
X936657D02*
D03*
X931800Y498800D02*
D03*
X941986Y498700D02*
D03*
X947314D02*
D03*
X952643D02*
D03*
X957971D02*
D03*
X885457Y498400D02*
D03*
X890786D02*
D03*
X896114D02*
D03*
X901443D02*
D03*
X906771D02*
D03*
X888400Y456900D02*
D03*
X884100Y456800D02*
D03*
X887600Y421600D02*
D03*
X883700Y422300D02*
D03*
X880500Y418900D02*
D03*
X1030700Y418500D02*
D03*
X880500Y482300D02*
D03*
Y477200D02*
D03*
Y487400D02*
D03*
Y492500D02*
D03*
Y461900D02*
D03*
Y456800D02*
D03*
Y467000D02*
D03*
Y472100D02*
D03*
Y398600D02*
D03*
Y393500D02*
D03*
Y403700D02*
D03*
Y408800D02*
D03*
Y413900D02*
D03*
X922300Y462400D02*
D03*
X916971D02*
D03*
X911643D02*
D03*
X906314D02*
D03*
X900986D02*
D03*
X890800Y462500D02*
D03*
X895657Y462400D02*
D03*
X927629D02*
D03*
X932957D02*
D03*
X941929Y421700D02*
D03*
X936600D02*
D03*
X932029Y416900D02*
D03*
X926700D02*
D03*
X894729D02*
D03*
X889871Y417000D02*
D03*
X900057Y416900D02*
D03*
X905386D02*
D03*
X910714D02*
D03*
X916043D02*
D03*
X921371D02*
D03*
X1015214Y385700D02*
D03*
X1020543D02*
D03*
X1025871D02*
D03*
X1031200D02*
D03*
X988571D02*
D03*
X993900D02*
D03*
X999228D02*
D03*
X1004557D02*
D03*
X1009886D02*
D03*
X967257D02*
D03*
X972586D02*
D03*
X977914D02*
D03*
X983243D02*
D03*
X935286D02*
D03*
X940614D02*
D03*
X945943D02*
D03*
X951271D02*
D03*
X956600D02*
D03*
X929957D02*
D03*
X924629D02*
D03*
X919300D02*
D03*
X913971D02*
D03*
X908643D02*
D03*
X903314D02*
D03*
X897986D02*
D03*
X887800Y385800D02*
D03*
X892657Y385700D02*
D03*
X1016300Y435500D02*
D03*
X1012600Y457900D02*
D03*
X1011800Y478400D02*
D03*
X1140300Y492600D02*
D03*
X1135133D02*
D03*
X1129967D02*
D03*
X1124800D02*
D03*
X1158800Y398700D02*
D03*
X1162700D02*
D03*
X1166600D02*
D03*
X1157200Y492100D02*
D03*
X1161500D02*
D03*
X1165200Y494400D02*
D03*
X1168100Y491200D02*
D03*
X1171100Y487900D02*
D03*
X1173900Y483200D02*
D03*
Y478857D02*
D03*
Y474614D02*
D03*
Y470371D02*
D03*
Y466128D02*
D03*
Y461886D02*
D03*
Y457643D02*
D03*
X1173200Y435700D02*
D03*
Y431200D02*
D03*
Y426700D02*
D03*
X1173900Y422200D02*
D03*
Y417700D02*
D03*
Y413200D02*
D03*
Y408700D02*
D03*
Y404200D02*
D03*
Y399700D02*
D03*
Y395200D02*
D03*
Y390700D02*
D03*
X1100857Y496400D02*
D03*
X1106186D02*
D03*
X1111514D02*
D03*
X1116843D02*
D03*
X1095529D02*
D03*
Y491800D02*
D03*
X1090200D02*
D03*
X1084871D02*
D03*
X1079543D02*
D03*
X1074214D02*
D03*
X1068886D02*
D03*
X1058229D02*
D03*
X1063557D02*
D03*
X1144814Y386000D02*
D03*
X1139486D02*
D03*
X1134157D02*
D03*
X1128829D02*
D03*
X1123500D02*
D03*
X1118171D02*
D03*
X1155471Y391100D02*
D03*
X1150143Y386000D02*
D03*
X1155471D02*
D03*
Y396200D02*
D03*
X1112843Y386000D02*
D03*
X1107514D02*
D03*
X1048900Y416600D02*
D03*
Y411500D02*
D03*
Y406400D02*
D03*
Y396200D02*
D03*
Y401300D02*
D03*
X1059557Y386000D02*
D03*
X1054700Y386100D02*
D03*
X1048800Y392400D02*
D03*
X1064886Y386000D02*
D03*
X1070214D02*
D03*
X1075543D02*
D03*
X1080871D02*
D03*
X1086200D02*
D03*
X1091529D02*
D03*
X1096857D02*
D03*
X1102186D02*
D03*
X1048500Y480100D02*
D03*
X1053267D02*
D03*
X1058033Y475600D02*
D03*
X1048500D02*
D03*
X1060800Y472700D02*
D03*
X1048500Y471100D02*
D03*
X1058033Y462100D02*
D03*
X1048500D02*
D03*
Y466600D02*
D03*
X1086633D02*
D03*
X1081867D02*
D03*
X1077100D02*
D03*
X1072333D02*
D03*
X1067567D02*
D03*
X1064000Y470000D02*
D03*
X1049600Y423000D02*
D03*
X1053100Y422500D02*
D03*
X1057500Y424300D02*
D03*
X1056900Y420400D02*
D03*
X1048000Y456100D02*
D03*
X1053500Y456400D02*
D03*
X1058100Y453600D02*
D03*
X1058300Y458800D02*
D03*
X1062800Y462100D02*
D03*
X1067567D02*
D03*
X1072333D02*
D03*
X1077100D02*
D03*
X1081867D02*
D03*
X1086633D02*
D03*
X1091400D02*
D03*
X1118300Y459200D02*
D03*
X1122040D02*
D03*
X1125780D02*
D03*
X1129520D02*
D03*
X1133260D02*
D03*
X1137000D02*
D03*
X1143400Y457900D02*
D03*
X1148600Y456300D02*
D03*
X1153550D02*
D03*
X1158500D02*
D03*
X1163900Y455600D02*
D03*
X1167500Y451800D02*
D03*
X1168500Y429900D02*
D03*
X1163100Y423100D02*
D03*
X1158700D02*
D03*
X1154300D02*
D03*
X1149900D02*
D03*
X1144600D02*
D03*
X1141000Y420500D02*
D03*
X1136900Y420100D02*
D03*
X1132250D02*
D03*
X1127600D02*
D03*
X1122950D02*
D03*
X1118300D02*
D03*
X1096943Y418500D02*
D03*
X1091614D02*
D03*
X1086286D02*
D03*
X1080957D02*
D03*
X1075629D02*
D03*
X1070300D02*
D03*
X1064971D02*
D03*
X1026800Y509000D02*
D03*
X1018200D02*
D03*
X1014800D02*
D03*
X1022800Y511800D02*
D03*
X1019633D02*
D03*
X1016467D02*
D03*
X1013300D02*
D03*
X1086100Y512200D02*
D03*
X1088633D02*
D03*
X1091167D02*
D03*
X1093700D02*
D03*
X1161900Y544300D02*
D03*
Y541100D02*
D03*
X1165300Y538200D02*
D03*
Y541500D02*
D03*
Y544800D02*
D03*
Y548100D02*
D03*
X1025900Y594800D02*
D03*
X1021929D02*
D03*
X1017957D02*
D03*
X1013986D02*
D03*
X1010014D02*
D03*
X1006043D02*
D03*
X1002071D02*
D03*
X998100D02*
D03*
X947900Y431600D02*
D03*
X1092200Y433500D02*
D03*
M02*
