%FSLAX25Y25*%
%MOIN*%
G70*
G01*
G75*
G04 Layer_Physical_Order=2*
G04 Layer_Color=16711680*
%ADD10R,0.10000X0.06496*%
%ADD11R,0.06299X0.11811*%
G04:AMPARAMS|DCode=12|XSize=118.11mil|YSize=62.99mil|CornerRadius=15.75mil|HoleSize=0mil|Usage=FLASHONLY|Rotation=270.000|XOffset=0mil|YOffset=0mil|HoleType=Round|Shape=RoundedRectangle|*
%AMROUNDEDRECTD12*
21,1,0.11811,0.03150,0,0,270.0*
21,1,0.08661,0.06299,0,0,270.0*
1,1,0.03150,-0.01575,-0.04331*
1,1,0.03150,-0.01575,0.04331*
1,1,0.03150,0.01575,0.04331*
1,1,0.03150,0.01575,-0.04331*
%
%ADD12ROUNDEDRECTD12*%
%ADD13R,0.11811X0.06299*%
G04:AMPARAMS|DCode=14|XSize=118.11mil|YSize=62.99mil|CornerRadius=15.75mil|HoleSize=0mil|Usage=FLASHONLY|Rotation=0.000|XOffset=0mil|YOffset=0mil|HoleType=Round|Shape=RoundedRectangle|*
%AMROUNDEDRECTD14*
21,1,0.11811,0.03150,0,0,0.0*
21,1,0.08661,0.06299,0,0,0.0*
1,1,0.03150,0.04331,-0.01575*
1,1,0.03150,-0.04331,-0.01575*
1,1,0.03150,-0.04331,0.01575*
1,1,0.03150,0.04331,0.01575*
%
%ADD14ROUNDEDRECTD14*%
%ADD15R,0.05709X0.04331*%
%ADD16R,0.04331X0.05709*%
%ADD17R,0.23622X0.31496*%
%ADD18R,0.14173X0.04331*%
%ADD19R,0.31496X0.23622*%
%ADD20R,0.04331X0.14173*%
%ADD21R,0.02953X0.03740*%
%ADD22R,0.03740X0.02953*%
%ADD23R,0.12598X0.12598*%
%ADD24O,0.00984X0.03740*%
%ADD25O,0.03740X0.00984*%
%ADD26R,0.05906X0.05906*%
%ADD27O,0.03543X0.00984*%
%ADD28O,0.00984X0.03543*%
%ADD29R,0.20000X0.10500*%
%ADD30R,0.20000X0.07000*%
%ADD31C,0.00787*%
%ADD32C,0.03937*%
%ADD33C,0.05906*%
%ADD34C,0.01000*%
%ADD35O,0.05906X0.07874*%
%ADD36R,0.05906X0.07874*%
%ADD37O,0.05906X0.07874*%
%ADD38C,0.07874*%
%ADD39P,0.10653X8X292.5*%
%ADD40P,0.10653X8X202.5*%
%ADD41C,0.02362*%
%ADD42C,0.11811*%
%ADD43C,0.02500*%
%ADD44C,0.02598*%
%ADD45C,0.02000*%
%ADD46C,0.02300*%
G36*
X1175500Y485900D02*
Y389200D01*
X1172266Y385966D01*
X1171772Y386039D01*
X1171342Y386843D01*
X1170504Y387864D01*
X1169483Y388702D01*
X1168318Y389325D01*
X1167054Y389708D01*
X1165739Y389838D01*
X1164425Y389708D01*
X1163161Y389325D01*
X1161996Y388702D01*
X1160975Y387864D01*
X1160137Y386843D01*
X1159514Y385679D01*
X1159131Y384415D01*
X1159129Y384400D01*
X1053900D01*
X1045900Y392400D01*
Y493900D01*
X1048846Y496846D01*
X1049308Y496654D01*
Y487600D01*
X1049403Y486877D01*
X1049682Y486204D01*
X1050126Y485626D01*
X1050704Y485182D01*
X1051377Y484903D01*
X1052100Y484808D01*
X1052823Y484903D01*
X1053496Y485182D01*
X1054074Y485626D01*
X1054518Y486204D01*
X1054797Y486877D01*
X1054892Y487600D01*
Y496443D01*
X1057949Y499500D01*
X1161900D01*
X1175500Y485900D01*
D02*
G37*
G36*
X1041500Y494000D02*
Y391500D01*
X1033900Y383900D01*
X885800D01*
X878700Y391000D01*
Y494300D01*
X884400Y500000D01*
X1035500D01*
X1041500Y494000D01*
D02*
G37*
G36*
X1203100Y601500D02*
X1203200Y601400D01*
Y597600D01*
Y374900D01*
X1201900Y373600D01*
X1201700Y373400D01*
X1161400D01*
X1161200Y373600D01*
X1161000Y373800D01*
Y383300D01*
X1171100D01*
X1175845Y388045D01*
X1176400Y388600D01*
Y410853D01*
X1176873Y411014D01*
X1177322Y410430D01*
X1178311Y409671D01*
X1179463Y409194D01*
X1180700Y409031D01*
X1181937Y409194D01*
X1183089Y409671D01*
X1184079Y410430D01*
X1184838Y411420D01*
X1185315Y412572D01*
X1185478Y413809D01*
X1185315Y415045D01*
X1184838Y416198D01*
X1184079Y417187D01*
X1183089Y417946D01*
X1181937Y418424D01*
X1180700Y418586D01*
X1179463Y418424D01*
X1178311Y417946D01*
X1177322Y417187D01*
X1176873Y416603D01*
X1176400Y416764D01*
Y454900D01*
Y485900D01*
X1188500Y498000D01*
Y507700D01*
X1193900Y513100D01*
X1194500Y513700D01*
Y529300D01*
Y583900D01*
X1184800Y593600D01*
X1121100D01*
Y592000D01*
X1184500D01*
X1193300Y583200D01*
Y514300D01*
X1179500Y500500D01*
X1147900D01*
X1147347Y501053D01*
X1147480Y501444D01*
X1148393Y501822D01*
X1149177Y502423D01*
X1149778Y503207D01*
X1150156Y504120D01*
X1150285Y505100D01*
X1150156Y506080D01*
X1149778Y506993D01*
X1149177Y507776D01*
X1148393Y508378D01*
X1147480Y508756D01*
X1146500Y508885D01*
X1124405D01*
X1116185Y517105D01*
Y539332D01*
X1121976Y545123D01*
X1121976Y545123D01*
X1121976Y545123D01*
X1122578Y545907D01*
X1122628Y546028D01*
X1123400Y546800D01*
Y562800D01*
X1121100Y565100D01*
X1117528Y561528D01*
X1117407Y561478D01*
X1116623Y560877D01*
X1116022Y560093D01*
X1115972Y559972D01*
X1115900Y559900D01*
Y559798D01*
X1115644Y559180D01*
X1115515Y558200D01*
Y549368D01*
X1109723Y543576D01*
X1109122Y542793D01*
X1108855Y542147D01*
X1108744Y541880D01*
X1108615Y540900D01*
Y515537D01*
X1108744Y514557D01*
X1108800Y514422D01*
Y507800D01*
X1102400Y501400D01*
X1081454D01*
Y503642D01*
X1084156Y506344D01*
X1084208Y506411D01*
X1084274Y506462D01*
X1084718Y507041D01*
X1084997Y507714D01*
X1085092Y508437D01*
Y510458D01*
X1085092Y510458D01*
X1085092Y510458D01*
Y510458D01*
X1085092D01*
X1085092Y510458D01*
X1084997Y511181D01*
X1084974Y511237D01*
Y524798D01*
X1085954D01*
Y530728D01*
X1078646D01*
Y524798D01*
X1079389D01*
Y510577D01*
Y509475D01*
X1076816Y506902D01*
X1074146D01*
Y506729D01*
X1072504D01*
Y506902D01*
X1065196D01*
Y506729D01*
X1063554D01*
Y506902D01*
X1056246D01*
Y505695D01*
X1052575Y502025D01*
X1045900Y508700D01*
Y572800D01*
X1042800Y575900D01*
Y508800D01*
X1035200Y501200D01*
X981002D01*
Y501200D01*
Y501546D01*
X981002Y501554D01*
X981002Y501554D01*
X981002D01*
Y502408D01*
X982096D01*
Y502072D01*
X989404D01*
Y502245D01*
X990971D01*
Y502072D01*
X998279D01*
Y502245D01*
X999846D01*
Y502072D01*
X1007154D01*
Y502245D01*
X1010863D01*
X1011586Y502340D01*
X1012259Y502619D01*
X1012838Y503062D01*
X1013281Y503641D01*
X1013560Y504314D01*
X1013655Y505037D01*
X1013560Y505760D01*
X1013281Y506433D01*
X1012838Y507012D01*
X1012259Y507455D01*
X1011586Y507734D01*
X1010863Y507829D01*
X1007154D01*
Y508002D01*
X999846D01*
Y507829D01*
X998279D01*
Y508002D01*
X990971D01*
Y507829D01*
X989404D01*
Y508002D01*
X982096D01*
Y507992D01*
X981002D01*
Y508854D01*
X975072D01*
Y501554D01*
X975072Y501554D01*
X975072D01*
X975072Y501546D01*
X974726Y501200D01*
X973128D01*
Y501200D01*
Y501546D01*
X973128Y501554D01*
X973128Y501554D01*
X973128D01*
Y508854D01*
X970458D01*
X969492Y509820D01*
Y513200D01*
X969397Y513923D01*
X969118Y514596D01*
X968674Y515174D01*
X968096Y515618D01*
X967423Y515897D01*
X966700Y515992D01*
X965977Y515897D01*
X965304Y515618D01*
X964725Y515174D01*
X964282Y514596D01*
X964003Y513923D01*
X963908Y513200D01*
Y508663D01*
X964003Y507940D01*
X964282Y507267D01*
X964725Y506688D01*
X967198Y504216D01*
Y501554D01*
X967198Y501554D01*
X967198D01*
X967198Y501546D01*
X966852Y501200D01*
X946600D01*
X943600Y504200D01*
Y566900D01*
X949900Y573200D01*
Y577000D01*
X941100Y568200D01*
Y564074D01*
X940610Y563976D01*
X940278Y564777D01*
X939676Y565561D01*
X938893Y566162D01*
X937980Y566540D01*
X937000Y566669D01*
X936020Y566540D01*
X935107Y566162D01*
X934324Y565561D01*
X933722Y564777D01*
X933344Y563864D01*
X933215Y562884D01*
Y560916D01*
X933344Y559936D01*
X933722Y559023D01*
X934324Y558239D01*
X935107Y557638D01*
X936020Y557260D01*
X936853Y557150D01*
Y556650D01*
X936020Y556540D01*
X935107Y556162D01*
X934324Y555561D01*
X933722Y554777D01*
X933344Y553864D01*
X933215Y552884D01*
Y550916D01*
X933344Y549936D01*
X933722Y549023D01*
X934324Y548239D01*
X935107Y547638D01*
X936020Y547260D01*
X937000Y547131D01*
X937980Y547260D01*
X938893Y547638D01*
X939676Y548239D01*
X940278Y549023D01*
X940610Y549824D01*
X941100Y549726D01*
Y504400D01*
X938100Y501400D01*
X899500D01*
X895200Y505700D01*
Y518900D01*
X889100Y525000D01*
X880200D01*
X870700Y515500D01*
Y391400D01*
X852400Y373100D01*
X815300D01*
X812400Y376000D01*
X812300Y602500D01*
X814200Y604400D01*
X951347D01*
X951538Y603938D01*
X952000Y604400D01*
X1051600D01*
X1051800Y604600D01*
X1200000D01*
X1203100Y601500D01*
D02*
G37*
%LPC*%
G36*
X1118500Y478469D02*
X1117520Y478340D01*
X1116607Y477962D01*
X1115823Y477361D01*
X1115222Y476577D01*
X1114844Y475664D01*
X1114715Y474684D01*
Y472716D01*
X1114844Y471736D01*
X1115222Y470823D01*
X1115823Y470039D01*
X1116607Y469438D01*
X1117520Y469060D01*
X1118500Y468931D01*
X1119480Y469060D01*
X1120393Y469438D01*
X1121177Y470039D01*
X1121778Y470823D01*
X1122156Y471736D01*
X1122285Y472716D01*
Y474684D01*
X1122156Y475664D01*
X1121778Y476577D01*
X1121177Y477361D01*
X1120393Y477962D01*
X1119480Y478340D01*
X1118500Y478469D01*
D02*
G37*
G36*
X1109100Y459220D02*
X1108327Y459066D01*
X1107672Y458628D01*
X1107234Y457973D01*
X1107080Y457200D01*
X1107130Y456951D01*
X1106571Y456392D01*
X1106093Y456537D01*
X1105966Y457173D01*
X1105528Y457828D01*
X1104873Y458266D01*
X1104100Y458420D01*
X1103327Y458266D01*
X1102672Y457828D01*
X1102234Y457173D01*
X1102080Y456400D01*
X1102234Y455627D01*
X1102672Y454972D01*
X1102883Y454831D01*
Y445900D01*
X1102883Y445900D01*
X1102883D01*
X1102976Y445434D01*
X1103239Y445039D01*
X1105490Y442789D01*
X1105727Y442631D01*
X1105885Y442525D01*
X1105981Y442506D01*
X1106983Y441504D01*
Y437104D01*
X1104763Y434884D01*
X1103022D01*
X1102556Y434791D01*
X1102161Y434527D01*
X1101952Y434318D01*
X1101688Y433923D01*
X1101595Y433457D01*
Y430651D01*
X1101155Y430415D01*
X1100953Y430550D01*
X1100487Y430642D01*
X1099884D01*
X1099566Y431029D01*
X1099720Y431800D01*
X1099566Y432573D01*
X1099128Y433228D01*
X1098473Y433666D01*
X1097721Y433816D01*
Y438870D01*
X1093169D01*
Y435690D01*
X1092782Y435372D01*
X1092200Y435488D01*
X1091649Y435379D01*
X1091284Y435720D01*
X1091348Y436200D01*
X1091348Y436200D01*
Y442100D01*
Y443529D01*
X1091723Y443858D01*
X1092000Y443822D01*
X1092793Y443926D01*
X1093169Y443597D01*
Y439430D01*
X1097721D01*
Y444770D01*
X1097721Y444770D01*
D01*
X1098473Y445134D01*
X1098473D01*
X1098473Y445134D01*
X1099128Y445572D01*
X1099566Y446227D01*
X1099720Y447000D01*
X1099566Y447773D01*
X1099128Y448428D01*
X1098473Y448866D01*
X1097700Y449020D01*
X1097106Y448902D01*
X1096700Y449193D01*
X1096615Y449837D01*
X1096138Y450989D01*
X1095378Y451978D01*
X1094389Y452738D01*
X1093237Y453215D01*
X1092000Y453378D01*
X1090763Y453215D01*
X1089611Y452738D01*
X1088622Y451978D01*
X1087862Y450989D01*
X1087385Y449837D01*
X1087222Y448600D01*
X1087319Y447868D01*
X1086581Y447130D01*
X1086137Y446551D01*
X1085858Y445878D01*
X1085763Y445155D01*
Y442100D01*
Y438592D01*
X1081902D01*
Y439454D01*
X1081729D01*
Y440146D01*
X1081902D01*
Y447454D01*
X1075972D01*
Y440146D01*
X1076145D01*
Y439454D01*
X1075972D01*
Y432146D01*
X1081902D01*
Y433008D01*
X1088155D01*
X1088878Y433103D01*
X1089551Y433382D01*
X1089744Y433530D01*
X1090187D01*
X1090212Y433500D01*
X1090363Y432739D01*
X1090794Y432094D01*
X1091439Y431663D01*
X1092200Y431512D01*
X1092608Y431593D01*
X1092634Y431576D01*
X1093100Y431483D01*
X1093468D01*
X1094108Y430843D01*
Y430816D01*
X1094201Y430351D01*
X1094465Y429956D01*
X1095856Y428565D01*
X1096251Y428301D01*
X1096716Y428208D01*
X1099983D01*
X1101595Y426596D01*
Y417232D01*
X1101655Y416934D01*
X1101503Y416568D01*
X1101408Y415845D01*
X1101503Y415122D01*
X1101782Y414449D01*
X1102225Y413870D01*
X1103930Y412166D01*
Y411168D01*
X1105019D01*
X1105204Y411026D01*
X1105877Y410748D01*
X1106600Y410652D01*
X1107323Y410748D01*
X1107996Y411026D01*
X1108181Y411168D01*
X1109270D01*
Y412656D01*
X1109297Y412722D01*
X1109392Y413445D01*
X1109310Y414072D01*
X1109758Y414293D01*
X1114425Y409625D01*
X1115004Y409182D01*
X1115677Y408903D01*
X1116400Y408808D01*
X1117367D01*
X1117464Y408317D01*
X1116607Y407962D01*
X1115823Y407361D01*
X1115222Y406577D01*
X1115187Y406492D01*
X1110612D01*
X1109270Y407834D01*
Y408832D01*
X1108181D01*
X1107996Y408974D01*
X1107323Y409252D01*
X1106600Y409348D01*
X1105877Y409252D01*
X1105204Y408974D01*
X1105019Y408832D01*
X1103930D01*
Y407343D01*
X1103903Y407278D01*
X1103808Y406555D01*
X1103903Y405832D01*
X1103930Y405767D01*
Y404279D01*
X1104927D01*
X1107481Y401725D01*
X1108059Y401282D01*
X1108733Y401003D01*
X1109455Y400908D01*
X1115187D01*
X1115222Y400823D01*
X1115823Y400039D01*
X1116607Y399438D01*
X1117520Y399060D01*
X1118500Y398931D01*
X1119480Y399060D01*
X1120393Y399438D01*
X1121177Y400039D01*
X1121778Y400823D01*
X1122156Y401736D01*
X1122285Y402716D01*
Y404684D01*
X1122192Y405389D01*
X1122641Y405610D01*
X1124715Y403536D01*
Y402716D01*
X1124844Y401736D01*
X1125222Y400823D01*
X1125823Y400039D01*
X1126607Y399438D01*
X1127520Y399060D01*
X1128500Y398931D01*
X1129480Y399060D01*
X1130393Y399438D01*
X1131176Y400039D01*
X1131778Y400823D01*
X1132156Y401736D01*
X1132285Y402716D01*
Y404684D01*
X1132156Y405664D01*
X1131778Y406577D01*
X1131176Y407361D01*
X1130393Y407962D01*
X1129480Y408340D01*
X1128500Y408469D01*
X1127775Y408374D01*
X1122575Y413575D01*
X1121996Y414018D01*
X1121323Y414297D01*
X1120600Y414392D01*
X1117557D01*
X1116067Y415882D01*
X1115982Y416311D01*
X1115718Y416705D01*
X1114330Y418093D01*
X1113935Y418357D01*
X1113507Y418442D01*
X1112274Y419674D01*
X1111696Y420118D01*
X1111023Y420397D01*
X1110300Y420492D01*
X1109577Y420397D01*
X1109398Y420323D01*
X1105617Y424104D01*
Y428096D01*
X1106504Y428983D01*
X1111931D01*
X1112072Y428772D01*
X1112727Y428334D01*
X1113500Y428180D01*
X1114273Y428334D01*
X1114928Y428772D01*
X1115366Y429427D01*
X1115520Y430200D01*
X1115366Y430973D01*
X1114928Y431628D01*
X1114273Y432066D01*
X1113500Y432220D01*
X1112727Y432066D01*
X1112072Y431628D01*
X1111931Y431417D01*
X1106000D01*
X1105534Y431324D01*
X1105139Y431061D01*
X1104492Y430413D01*
X1104030Y430604D01*
Y432450D01*
X1105267D01*
X1105733Y432542D01*
X1106127Y432806D01*
X1109061Y435739D01*
X1109324Y436134D01*
X1109417Y436600D01*
Y442008D01*
X1109324Y442474D01*
X1109061Y442869D01*
X1107419Y444510D01*
X1107024Y444774D01*
X1106928Y444793D01*
X1105317Y446404D01*
Y447057D01*
X1105519Y447192D01*
X1105779Y447300D01*
X1109239Y443839D01*
X1109634Y443576D01*
X1110100Y443483D01*
X1116496D01*
X1120030Y439949D01*
X1119980Y439700D01*
X1120134Y438927D01*
X1120572Y438272D01*
X1121227Y437834D01*
X1122000Y437680D01*
X1122773Y437834D01*
X1123428Y438272D01*
X1123866Y438927D01*
X1124020Y439700D01*
X1123866Y440473D01*
X1123428Y441128D01*
X1122773Y441566D01*
X1122000Y441720D01*
X1121751Y441670D01*
X1117861Y445561D01*
X1117466Y445824D01*
X1117000Y445917D01*
X1110604D01*
X1107817Y448704D01*
Y454196D01*
X1108851Y455230D01*
X1109100Y455180D01*
X1109873Y455334D01*
X1110528Y455772D01*
X1110966Y456427D01*
X1111120Y457200D01*
X1110966Y457973D01*
X1110528Y458628D01*
X1109873Y459066D01*
X1109100Y459220D01*
D02*
G37*
G36*
X1128500Y478469D02*
X1127520Y478340D01*
X1126607Y477962D01*
X1125823Y477361D01*
X1125222Y476577D01*
X1124844Y475664D01*
X1124715Y474684D01*
Y472716D01*
X1124844Y471736D01*
X1125222Y470823D01*
X1125823Y470039D01*
X1126607Y469438D01*
X1127520Y469060D01*
X1128500Y468931D01*
X1129480Y469060D01*
X1130393Y469438D01*
X1131176Y470039D01*
X1131778Y470823D01*
X1132156Y471736D01*
X1132285Y472716D01*
Y474684D01*
X1132156Y475664D01*
X1131778Y476577D01*
X1131176Y477361D01*
X1130393Y477962D01*
X1129480Y478340D01*
X1128500Y478469D01*
D02*
G37*
G36*
X943447Y479720D02*
X942674Y479566D01*
X942019Y479128D01*
X941869Y478904D01*
X941355Y478561D01*
X940960Y478824D01*
X940495Y478917D01*
X940029Y478824D01*
X939634Y478561D01*
X939597Y478524D01*
X939100Y478573D01*
X938728Y479128D01*
X938073Y479566D01*
X937300Y479720D01*
X936527Y479566D01*
X935872Y479128D01*
X935434Y478473D01*
X935381Y478205D01*
X934965Y477927D01*
X934500Y478020D01*
X933974Y477915D01*
X933558Y478193D01*
X933502Y478473D01*
X933064Y479128D01*
X932409Y479566D01*
X931636Y479720D01*
X930863Y479566D01*
X930208Y479128D01*
X929770Y478473D01*
X929616Y477700D01*
X929770Y476927D01*
X930208Y476272D01*
X930419Y476131D01*
Y475505D01*
X930419Y475505D01*
X930419D01*
X930512Y475039D01*
X930776Y474645D01*
X932656Y472765D01*
X933051Y472501D01*
X933516Y472408D01*
X934071D01*
X949983Y456496D01*
Y454969D01*
X949772Y454828D01*
X949334Y454173D01*
X949180Y453400D01*
X949334Y452627D01*
X949525Y452342D01*
X949207Y451955D01*
X948623Y452197D01*
X947900Y452292D01*
X947177Y452197D01*
X946504Y451918D01*
X945926Y451475D01*
X945482Y450896D01*
X945203Y450223D01*
X945108Y449500D01*
Y431600D01*
X945203Y430877D01*
X945482Y430204D01*
X945926Y429626D01*
X946504Y429182D01*
X947177Y428903D01*
X947900Y428808D01*
X948623Y428903D01*
X949296Y429182D01*
X949874Y429626D01*
X950318Y430204D01*
X950597Y430877D01*
X950692Y431600D01*
Y449500D01*
X950597Y450223D01*
X950318Y450896D01*
X950149Y451117D01*
X950427Y451534D01*
X951200Y451380D01*
X951973Y451534D01*
X952628Y451972D01*
X953066Y452627D01*
X953115Y452873D01*
X953605Y452971D01*
X953672Y452872D01*
X954327Y452434D01*
X955100Y452280D01*
X955873Y452434D01*
X956528Y452872D01*
X956917Y453453D01*
X957337D01*
X957429Y453435D01*
X957672Y453072D01*
X958327Y452634D01*
X959100Y452480D01*
X959873Y452634D01*
X960528Y453072D01*
X960965Y453725D01*
X961463Y453774D01*
X961698Y453539D01*
X961935Y453381D01*
X962093Y453276D01*
X962558Y453183D01*
X962797D01*
X963072Y452772D01*
X963727Y452334D01*
X964500Y452180D01*
X965273Y452334D01*
X965928Y452772D01*
X966133Y453078D01*
X966623Y452980D01*
X966634Y452927D01*
X967072Y452272D01*
X967727Y451834D01*
X968500Y451680D01*
X969273Y451834D01*
X969575Y452036D01*
X970034Y452127D01*
X970472Y451472D01*
X971127Y451034D01*
X971900Y450880D01*
X972673Y451034D01*
X973328Y451472D01*
X973766Y452127D01*
X973920Y452900D01*
X973766Y453673D01*
X973328Y454328D01*
X973200Y454414D01*
X973061Y454623D01*
X971910Y455773D01*
X971515Y456037D01*
X971309Y456078D01*
X970671Y456717D01*
X970700Y456865D01*
X971402Y457004D01*
X971998Y457402D01*
X972396Y457998D01*
X972535Y458700D01*
X972396Y459402D01*
X971998Y459998D01*
X971402Y460396D01*
X970700Y460535D01*
X969998Y460396D01*
X969402Y459998D01*
X969348Y459917D01*
X968456D01*
X965494Y462880D01*
X965099Y463143D01*
X964633Y463236D01*
X960472D01*
X950064Y473644D01*
Y474229D01*
X950428Y474472D01*
X950866Y475127D01*
X951020Y475900D01*
X950866Y476673D01*
X950428Y477328D01*
X949773Y477766D01*
X949000Y477920D01*
X948227Y477766D01*
X947572Y477328D01*
X947544Y477286D01*
X947053Y477189D01*
X946611Y477485D01*
X945838Y477638D01*
X945580Y477587D01*
X945467Y477700D01*
X945313Y478473D01*
X944876Y479128D01*
X944220Y479566D01*
X943447Y479720D01*
D02*
G37*
G36*
X1138500Y478469D02*
X1137520Y478340D01*
X1136607Y477962D01*
X1135824Y477361D01*
X1135222Y476577D01*
X1134844Y475664D01*
X1134715Y474684D01*
Y472716D01*
X1134844Y471736D01*
X1135222Y470823D01*
X1135824Y470039D01*
X1136607Y469438D01*
X1137520Y469060D01*
X1138500Y468931D01*
X1139480Y469060D01*
X1140393Y469438D01*
X1141177Y470039D01*
X1141778Y470823D01*
X1142156Y471736D01*
X1142285Y472716D01*
Y474684D01*
X1142156Y475664D01*
X1141778Y476577D01*
X1141177Y477361D01*
X1140393Y477962D01*
X1139480Y478340D01*
X1138500Y478469D01*
D02*
G37*
G36*
X995800Y463078D02*
X994563Y462915D01*
X993411Y462438D01*
X992422Y461679D01*
X991662Y460689D01*
X991185Y459537D01*
X991022Y458300D01*
X991142Y457393D01*
X986777Y453028D01*
X983046D01*
Y452855D01*
X982354D01*
Y453028D01*
X975046D01*
Y447098D01*
X982354D01*
Y447271D01*
X983046D01*
Y447098D01*
X983208D01*
Y440000D01*
X983303Y439277D01*
X983582Y438604D01*
X984025Y438026D01*
X984604Y437582D01*
X985277Y437303D01*
X986000Y437208D01*
X986723Y437303D01*
X987396Y437582D01*
X987974Y438026D01*
X988418Y438604D01*
X988697Y439277D01*
X988792Y440000D01*
Y447098D01*
X990354D01*
Y448707D01*
X995243Y453595D01*
X995800Y453522D01*
X997037Y453685D01*
X998189Y454162D01*
X999179Y454921D01*
X999938Y455911D01*
X1000415Y457063D01*
X1000578Y458300D01*
X1000415Y459537D01*
X999938Y460689D01*
X999179Y461679D01*
X998189Y462438D01*
X997037Y462915D01*
X995800Y463078D01*
D02*
G37*
G36*
X971300Y432720D02*
X970527Y432566D01*
X969872Y432128D01*
X969434Y431473D01*
X969280Y430700D01*
X969434Y429927D01*
X969516Y429805D01*
X969199Y429418D01*
X968932Y429528D01*
X968209Y429624D01*
X967487Y429528D01*
X966813Y429249D01*
X966235Y428806D01*
X965791Y428227D01*
X965786Y428215D01*
X965303Y428085D01*
X964869Y428418D01*
X964195Y428697D01*
X963472Y428792D01*
X962750Y428697D01*
X962076Y428418D01*
X961498Y427975D01*
X961054Y427396D01*
X960775Y426723D01*
X960680Y426000D01*
Y422937D01*
X956900D01*
X956177Y422842D01*
X955504Y422563D01*
X955319Y422421D01*
X954230D01*
Y420933D01*
X954203Y420868D01*
X954121Y420246D01*
X953647Y420085D01*
X953586Y420146D01*
X953418Y420551D01*
X952975Y421130D01*
X952396Y421573D01*
X951723Y421852D01*
X951000Y421947D01*
X950277Y421852D01*
X949604Y421573D01*
X949026Y421130D01*
X948582Y420551D01*
X948303Y419878D01*
X948208Y419155D01*
Y418783D01*
X948303Y418060D01*
X948582Y417387D01*
X949026Y416809D01*
X954230Y411604D01*
Y410979D01*
X954947D01*
X955132Y410837D01*
X955805Y410558D01*
X956528Y410463D01*
X956900D01*
X957623Y410558D01*
X958296Y410837D01*
X958481Y410979D01*
X959570D01*
Y412467D01*
X959597Y412532D01*
X959692Y413255D01*
X959597Y413978D01*
X959570Y414043D01*
Y415531D01*
X958481D01*
X958296Y415673D01*
X957891Y415841D01*
X956728Y417004D01*
X956900Y417352D01*
X960396D01*
X960713Y416966D01*
X960680Y416800D01*
X960834Y416027D01*
X961272Y415372D01*
X961927Y414934D01*
X962700Y414780D01*
X963473Y414934D01*
X964128Y415372D01*
X964566Y416027D01*
X964720Y416800D01*
X964598Y417413D01*
X964623Y417448D01*
X965296Y417727D01*
X965481Y417869D01*
X966562D01*
Y417869D01*
X966570D01*
Y417869D01*
X966844Y417833D01*
X967022Y417600D01*
D01*
D01*
D01*
X967185Y416363D01*
X967662Y415211D01*
X968421Y414221D01*
X969411Y413462D01*
X970563Y412985D01*
X971800Y412822D01*
X973037Y412985D01*
X974189Y413462D01*
X975179Y414221D01*
X975938Y415211D01*
X976415Y416363D01*
X976578Y417600D01*
X976482Y418332D01*
X978058Y419909D01*
X983654D01*
Y420082D01*
X984346D01*
Y419909D01*
X991654D01*
Y425839D01*
X984346D01*
Y425666D01*
X983654D01*
Y425839D01*
X979471D01*
X979253Y426248D01*
X979407Y427020D01*
X979253Y427793D01*
X978815Y428449D01*
X978160Y428887D01*
X977387Y429040D01*
X977137Y428991D01*
X974568Y431561D01*
X974173Y431824D01*
X973707Y431917D01*
X972869D01*
X972728Y432128D01*
X972073Y432566D01*
X971300Y432720D01*
D02*
G37*
G36*
X1022100Y426078D02*
X1020863Y425915D01*
X1019711Y425438D01*
X1018721Y424679D01*
X1017962Y423689D01*
X1017485Y422537D01*
X1017322Y421300D01*
X1017485Y420063D01*
X1017962Y418911D01*
X1018721Y417921D01*
X1019711Y417162D01*
X1020863Y416685D01*
X1022100Y416522D01*
X1023337Y416685D01*
X1024489Y417162D01*
X1025478Y417921D01*
X1026238Y418911D01*
X1026715Y420063D01*
X1026878Y421300D01*
X1026715Y422537D01*
X1026238Y423689D01*
X1025478Y424679D01*
X1024489Y425438D01*
X1023337Y425915D01*
X1022100Y426078D01*
D02*
G37*
G36*
X993700Y419120D02*
X992927Y418966D01*
X992272Y418528D01*
X991834Y417873D01*
X991680Y417100D01*
X991834Y416327D01*
X992272Y415672D01*
X992683Y415397D01*
Y409169D01*
X992472Y409028D01*
X992034Y408373D01*
X991880Y407600D01*
X992034Y406827D01*
X992472Y406172D01*
X993127Y405734D01*
X993900Y405580D01*
X994673Y405734D01*
X995328Y406172D01*
X995766Y406827D01*
X995920Y407600D01*
X995766Y408373D01*
X995328Y409028D01*
X995117Y409169D01*
Y415664D01*
X995128Y415672D01*
X995566Y416327D01*
X995720Y417100D01*
X995566Y417873D01*
X995128Y418528D01*
X994473Y418966D01*
X993700Y419120D01*
D02*
G37*
G36*
X1022100Y461478D02*
X1020863Y461315D01*
X1019711Y460838D01*
X1018721Y460078D01*
X1017962Y459089D01*
X1017485Y457937D01*
X1017322Y456700D01*
X1017485Y455463D01*
X1017962Y454311D01*
X1018721Y453322D01*
X1019711Y452562D01*
X1020863Y452085D01*
X1022100Y451922D01*
X1023337Y452085D01*
X1024489Y452562D01*
X1025478Y453322D01*
X1026238Y454311D01*
X1026715Y455463D01*
X1026878Y456700D01*
X1026715Y457937D01*
X1026238Y459089D01*
X1025478Y460078D01*
X1024489Y460838D01*
X1023337Y461315D01*
X1022100Y461478D01*
D02*
G37*
G36*
X1166300Y447988D02*
X1165539Y447837D01*
X1164894Y447406D01*
X1164463Y446761D01*
X1164312Y446000D01*
X1164463Y445239D01*
X1164894Y444594D01*
X1165539Y444163D01*
X1166300Y444012D01*
X1167061Y444163D01*
X1167706Y444594D01*
X1168137Y445239D01*
X1168288Y446000D01*
X1168137Y446761D01*
X1167706Y447406D01*
X1167061Y447837D01*
X1166300Y447988D01*
D02*
G37*
G36*
X1170500Y442548D02*
X1166055D01*
X1165333Y442452D01*
X1164659Y442173D01*
X1164081Y441730D01*
X1163637Y441151D01*
X1163358Y440478D01*
X1163263Y439755D01*
X1163358Y439033D01*
X1163637Y438359D01*
X1164081Y437781D01*
X1164659Y437337D01*
X1165333Y437058D01*
X1166055Y436963D01*
X1170500D01*
X1171223Y437058D01*
X1171896Y437337D01*
X1172474Y437781D01*
X1172626Y437979D01*
X1173170D01*
Y438967D01*
X1173197Y439033D01*
X1173292Y439755D01*
X1173197Y440478D01*
X1173170Y440544D01*
Y442531D01*
X1170622D01*
X1170500Y442548D01*
D02*
G37*
G36*
X917000Y566669D02*
X916020Y566540D01*
X915107Y566162D01*
X914324Y565561D01*
X913722Y564777D01*
X913344Y563864D01*
X913215Y562884D01*
Y560916D01*
X913344Y559936D01*
X913722Y559023D01*
X914324Y558239D01*
X915107Y557638D01*
X916020Y557260D01*
X916853Y557150D01*
Y556650D01*
X916020Y556540D01*
X915107Y556162D01*
X914324Y555561D01*
X913722Y554777D01*
X913344Y553864D01*
X913215Y552884D01*
Y550916D01*
X913344Y549936D01*
X913722Y549023D01*
X914324Y548239D01*
X915107Y547638D01*
X916020Y547260D01*
X917000Y547131D01*
X917980Y547260D01*
X918893Y547638D01*
X919676Y548239D01*
X920278Y549023D01*
X920656Y549936D01*
X920785Y550916D01*
Y552884D01*
X920656Y553864D01*
X920278Y554777D01*
X919676Y555561D01*
X918893Y556162D01*
X917980Y556540D01*
X917147Y556650D01*
Y557150D01*
X917980Y557260D01*
X918893Y557638D01*
X919676Y558239D01*
X920278Y559023D01*
X920656Y559936D01*
X920785Y560916D01*
Y562884D01*
X920656Y563864D01*
X920278Y564777D01*
X919676Y565561D01*
X918893Y566162D01*
X917980Y566540D01*
X917000Y566669D01*
D02*
G37*
G36*
X907000D02*
X906020Y566540D01*
X905107Y566162D01*
X904323Y565561D01*
X903722Y564777D01*
X903344Y563864D01*
X903215Y562884D01*
Y560916D01*
X903344Y559936D01*
X903722Y559023D01*
X904323Y558239D01*
X905107Y557638D01*
X906020Y557260D01*
X906853Y557150D01*
Y556650D01*
X906020Y556540D01*
X905107Y556162D01*
X904323Y555561D01*
X903722Y554777D01*
X903344Y553864D01*
X903215Y552884D01*
Y550916D01*
X903344Y549936D01*
X903722Y549023D01*
X904323Y548239D01*
X905107Y547638D01*
X906020Y547260D01*
X907000Y547131D01*
X907980Y547260D01*
X908893Y547638D01*
X909676Y548239D01*
X910278Y549023D01*
X910656Y549936D01*
X910785Y550916D01*
Y552884D01*
X910656Y553864D01*
X910278Y554777D01*
X909676Y555561D01*
X908893Y556162D01*
X907980Y556540D01*
X907147Y556650D01*
Y557150D01*
X907980Y557260D01*
X908893Y557638D01*
X909676Y558239D01*
X910278Y559023D01*
X910656Y559936D01*
X910785Y560916D01*
Y562884D01*
X910656Y563864D01*
X910278Y564777D01*
X909676Y565561D01*
X908893Y566162D01*
X907980Y566540D01*
X907000Y566669D01*
D02*
G37*
G36*
X897000D02*
X896020Y566540D01*
X895107Y566162D01*
X894324Y565561D01*
X893722Y564777D01*
X893344Y563864D01*
X893215Y562884D01*
Y560916D01*
X893344Y559936D01*
X893722Y559023D01*
X894324Y558239D01*
X895107Y557638D01*
X896020Y557260D01*
X896853Y557150D01*
Y556650D01*
X896020Y556540D01*
X895107Y556162D01*
X894324Y555561D01*
X893722Y554777D01*
X893344Y553864D01*
X893215Y552884D01*
Y550916D01*
X893344Y549936D01*
X893722Y549023D01*
X894324Y548239D01*
X895107Y547638D01*
X896020Y547260D01*
X897000Y547131D01*
X897980Y547260D01*
X898893Y547638D01*
X899677Y548239D01*
X900278Y549023D01*
X900656Y549936D01*
X900785Y550916D01*
Y552884D01*
X900656Y553864D01*
X900278Y554777D01*
X899677Y555561D01*
X898893Y556162D01*
X897980Y556540D01*
X897147Y556650D01*
Y557150D01*
X897980Y557260D01*
X898893Y557638D01*
X899677Y558239D01*
X900278Y559023D01*
X900656Y559936D01*
X900785Y560916D01*
Y562884D01*
X900656Y563864D01*
X900278Y564777D01*
X899677Y565561D01*
X898893Y566162D01*
X897980Y566540D01*
X897000Y566669D01*
D02*
G37*
G36*
X980450Y593921D02*
X974729D01*
X971869Y591061D01*
Y585339D01*
X974729Y582479D01*
X980450D01*
X983311Y585339D01*
Y591061D01*
X980450Y593921D01*
D02*
G37*
G36*
X847000Y566669D02*
X846020Y566540D01*
X845107Y566162D01*
X844324Y565561D01*
X843722Y564777D01*
X843344Y563864D01*
X843215Y562884D01*
Y560916D01*
X843344Y559936D01*
X843722Y559023D01*
X844324Y558239D01*
X845107Y557638D01*
X846020Y557260D01*
X846959Y557136D01*
Y557136D01*
Y557136D01*
X846927Y556637D01*
X843247D01*
Y547163D01*
X850753D01*
Y556637D01*
X847073D01*
X847040Y557136D01*
X847980Y557260D01*
X848893Y557638D01*
X849677Y558239D01*
X850278Y559023D01*
X850656Y559936D01*
X850785Y560916D01*
Y562884D01*
X850656Y563864D01*
X850278Y564777D01*
X849677Y565561D01*
X848893Y566162D01*
X847980Y566540D01*
X847000Y566669D01*
D02*
G37*
G36*
X927000D02*
X926020Y566540D01*
X925107Y566162D01*
X924323Y565561D01*
X923722Y564777D01*
X923344Y563864D01*
X923215Y562884D01*
Y560916D01*
X923344Y559936D01*
X923722Y559023D01*
X924323Y558239D01*
X925107Y557638D01*
X926020Y557260D01*
X926853Y557150D01*
Y556650D01*
X926020Y556540D01*
X925107Y556162D01*
X924323Y555561D01*
X923722Y554777D01*
X923344Y553864D01*
X923215Y552884D01*
Y550916D01*
X923344Y549936D01*
X923722Y549023D01*
X924323Y548239D01*
X925107Y547638D01*
X926020Y547260D01*
X927000Y547131D01*
X927980Y547260D01*
X928893Y547638D01*
X929677Y548239D01*
X930278Y549023D01*
X930656Y549936D01*
X930785Y550916D01*
Y552884D01*
X930656Y553864D01*
X930278Y554777D01*
X929677Y555561D01*
X928893Y556162D01*
X927980Y556540D01*
X927147Y556650D01*
Y557150D01*
X927980Y557260D01*
X928893Y557638D01*
X929677Y558239D01*
X930278Y559023D01*
X930656Y559936D01*
X930785Y560916D01*
Y562884D01*
X930656Y563864D01*
X930278Y564777D01*
X929677Y565561D01*
X928893Y566162D01*
X927980Y566540D01*
X927000Y566669D01*
D02*
G37*
G36*
X887000D02*
X886020Y566540D01*
X885107Y566162D01*
X884324Y565561D01*
X883722Y564777D01*
X883344Y563864D01*
X883215Y562884D01*
Y560916D01*
X883344Y559936D01*
X883722Y559023D01*
X884324Y558239D01*
X885107Y557638D01*
X886020Y557260D01*
X886853Y557150D01*
Y556650D01*
X886020Y556540D01*
X885107Y556162D01*
X884324Y555561D01*
X883722Y554777D01*
X883344Y553864D01*
X883215Y552884D01*
Y550916D01*
X883344Y549936D01*
X883722Y549023D01*
X884324Y548239D01*
X885107Y547638D01*
X886020Y547260D01*
X887000Y547131D01*
X887980Y547260D01*
X888893Y547638D01*
X889676Y548239D01*
X890278Y549023D01*
X890656Y549936D01*
X890785Y550916D01*
Y552884D01*
X890656Y553864D01*
X890278Y554777D01*
X889676Y555561D01*
X888893Y556162D01*
X887980Y556540D01*
X887147Y556650D01*
Y557150D01*
X887980Y557260D01*
X888893Y557638D01*
X889676Y558239D01*
X890278Y559023D01*
X890656Y559936D01*
X890785Y560916D01*
Y562884D01*
X890656Y563864D01*
X890278Y564777D01*
X889676Y565561D01*
X888893Y566162D01*
X887980Y566540D01*
X887000Y566669D01*
D02*
G37*
G36*
X1079237Y541492D02*
X1079000D01*
X1078277Y541397D01*
X1077604Y541118D01*
X1077026Y540674D01*
X1076582Y540096D01*
X1076303Y539423D01*
X1076208Y538700D01*
X1076303Y537977D01*
X1076582Y537304D01*
X1077026Y536726D01*
X1077604Y536282D01*
X1077779Y536209D01*
X1078646Y535342D01*
Y532672D01*
X1085954D01*
Y538602D01*
X1083284D01*
X1081211Y540674D01*
X1080633Y541118D01*
X1079960Y541397D01*
X1079237Y541492D01*
D02*
G37*
G36*
X1026000Y529685D02*
X959300D01*
X958320Y529556D01*
X957407Y529178D01*
X956623Y528577D01*
X956022Y527793D01*
X955644Y526880D01*
X955515Y525900D01*
X955644Y524920D01*
X956022Y524007D01*
X956623Y523223D01*
X957407Y522622D01*
X958320Y522244D01*
X959300Y522115D01*
X1026000D01*
X1026980Y522244D01*
X1027893Y522622D01*
X1028677Y523223D01*
X1029278Y524007D01*
X1029656Y524920D01*
X1029785Y525900D01*
X1029656Y526880D01*
X1029278Y527793D01*
X1028677Y528577D01*
X1027893Y529178D01*
X1026980Y529556D01*
X1026000Y529685D01*
D02*
G37*
G36*
X1189761Y525232D02*
X1184039D01*
X1181179Y522371D01*
Y516650D01*
X1184039Y513789D01*
X1189761D01*
X1192621Y516650D01*
Y522371D01*
X1189761Y525232D01*
D02*
G37*
G36*
X877000Y566669D02*
X876020Y566540D01*
X875107Y566162D01*
X874323Y565561D01*
X873722Y564777D01*
X873344Y563864D01*
X873215Y562884D01*
Y560916D01*
X873344Y559936D01*
X873722Y559023D01*
X874323Y558239D01*
X875107Y557638D01*
X876020Y557260D01*
X876853Y557150D01*
Y556650D01*
X876020Y556540D01*
X875107Y556162D01*
X874323Y555561D01*
X873722Y554777D01*
X873344Y553864D01*
X873215Y552884D01*
Y550916D01*
X873344Y549936D01*
X873722Y549023D01*
X874323Y548239D01*
X875107Y547638D01*
X876020Y547260D01*
X877000Y547131D01*
X877980Y547260D01*
X878893Y547638D01*
X879677Y548239D01*
X880278Y549023D01*
X880656Y549936D01*
X880785Y550916D01*
Y552884D01*
X880656Y553864D01*
X880278Y554777D01*
X879677Y555561D01*
X878893Y556162D01*
X877980Y556540D01*
X877147Y556650D01*
Y557150D01*
X877980Y557260D01*
X878893Y557638D01*
X879677Y558239D01*
X880278Y559023D01*
X880656Y559936D01*
X880785Y560916D01*
Y562884D01*
X880656Y563864D01*
X880278Y564777D01*
X879677Y565561D01*
X878893Y566162D01*
X877980Y566540D01*
X877000Y566669D01*
D02*
G37*
G36*
X867000D02*
X866020Y566540D01*
X865107Y566162D01*
X864324Y565561D01*
X863722Y564777D01*
X863344Y563864D01*
X863215Y562884D01*
Y560916D01*
X863344Y559936D01*
X863722Y559023D01*
X864324Y558239D01*
X865107Y557638D01*
X866020Y557260D01*
X866853Y557150D01*
Y556650D01*
X866020Y556540D01*
X865107Y556162D01*
X864324Y555561D01*
X863722Y554777D01*
X863344Y553864D01*
X863215Y552884D01*
Y550916D01*
X863344Y549936D01*
X863722Y549023D01*
X864324Y548239D01*
X865107Y547638D01*
X866020Y547260D01*
X867000Y547131D01*
X867980Y547260D01*
X868893Y547638D01*
X869676Y548239D01*
X870278Y549023D01*
X870656Y549936D01*
X870785Y550916D01*
Y552884D01*
X870656Y553864D01*
X870278Y554777D01*
X869676Y555561D01*
X868893Y556162D01*
X867980Y556540D01*
X867147Y556650D01*
Y557150D01*
X867980Y557260D01*
X868893Y557638D01*
X869676Y558239D01*
X870278Y559023D01*
X870656Y559936D01*
X870785Y560916D01*
Y562884D01*
X870656Y563864D01*
X870278Y564777D01*
X869676Y565561D01*
X868893Y566162D01*
X867980Y566540D01*
X867000Y566669D01*
D02*
G37*
G36*
X857000D02*
X856020Y566540D01*
X855107Y566162D01*
X854323Y565561D01*
X853722Y564777D01*
X853344Y563864D01*
X853215Y562884D01*
Y560916D01*
X853344Y559936D01*
X853722Y559023D01*
X854323Y558239D01*
X855107Y557638D01*
X856020Y557260D01*
X856853Y557150D01*
Y556650D01*
X856020Y556540D01*
X855107Y556162D01*
X854323Y555561D01*
X853722Y554777D01*
X853344Y553864D01*
X853215Y552884D01*
Y550916D01*
X853344Y549936D01*
X853722Y549023D01*
X854323Y548239D01*
X855107Y547638D01*
X856020Y547260D01*
X857000Y547131D01*
X857980Y547260D01*
X858893Y547638D01*
X859676Y548239D01*
X860278Y549023D01*
X860656Y549936D01*
X860785Y550916D01*
Y552884D01*
X860656Y553864D01*
X860278Y554777D01*
X859676Y555561D01*
X858893Y556162D01*
X857980Y556540D01*
X857147Y556650D01*
Y557150D01*
X857980Y557260D01*
X858893Y557638D01*
X859676Y558239D01*
X860278Y559023D01*
X860656Y559936D01*
X860785Y560916D01*
Y562884D01*
X860656Y563864D01*
X860278Y564777D01*
X859676Y565561D01*
X858893Y566162D01*
X857980Y566540D01*
X857000Y566669D01*
D02*
G37*
%LPD*%
D15*
X1022300Y497563D02*
D03*
Y505437D02*
D03*
X1082300Y527763D02*
D03*
Y535637D02*
D03*
X1089100Y496250D02*
D03*
Y504124D02*
D03*
X1157500Y497463D02*
D03*
Y505337D02*
D03*
X980000Y422874D02*
D03*
Y415000D02*
D03*
X988000Y422874D02*
D03*
Y415000D02*
D03*
X978700Y450063D02*
D03*
Y457937D02*
D03*
X986700Y450063D02*
D03*
Y457937D02*
D03*
X1003500Y505037D02*
D03*
Y497163D02*
D03*
X994625Y505037D02*
D03*
Y497163D02*
D03*
X985750Y505037D02*
D03*
Y497163D02*
D03*
X1059900Y503937D02*
D03*
Y496063D02*
D03*
X1068850Y503937D02*
D03*
Y496063D02*
D03*
X1077800Y503937D02*
D03*
Y496063D02*
D03*
X1122900Y505037D02*
D03*
Y497163D02*
D03*
X1130900Y505037D02*
D03*
Y497163D02*
D03*
X1138900Y505037D02*
D03*
Y497163D02*
D03*
D16*
X978037Y505200D02*
D03*
X970163D02*
D03*
X1078937Y443800D02*
D03*
X1071063D02*
D03*
X1078937Y435800D02*
D03*
X1071063D02*
D03*
D21*
X1088555Y442100D02*
D03*
X1095445D02*
D03*
X1088555Y436200D02*
D03*
X1095445D02*
D03*
D22*
X1106600Y406555D02*
D03*
Y413445D02*
D03*
X956900Y420145D02*
D03*
Y413255D02*
D03*
X963900Y420145D02*
D03*
Y413255D02*
D03*
X1170500Y440255D02*
D03*
Y447145D02*
D03*
D29*
X823000Y416050D02*
D03*
Y388550D02*
D03*
X823016Y463850D02*
D03*
Y491350D02*
D03*
D31*
X967952Y458700D02*
X970700D01*
X964633Y462019D02*
X967952Y458700D01*
X971050Y454913D02*
X972200Y453762D01*
X970753Y454913D02*
X971050D01*
X969497Y456169D02*
X970753Y454913D01*
X969497Y456169D02*
Y456256D01*
X969497Y456256D02*
X969497Y456256D01*
X968151Y456256D02*
X969497D01*
X963976Y460431D02*
X968151Y456256D01*
X972200Y453000D02*
Y453762D01*
X971900Y452900D02*
X972100D01*
X972200Y453000D01*
X993500Y416500D02*
X993700D01*
X967862Y454300D02*
X968600D01*
X937542Y475148D02*
X955328Y457362D01*
X937542Y475148D02*
Y477700D01*
X931636Y475505D02*
X933516Y473625D01*
X934589Y475856D02*
X952787Y457657D01*
X934575Y473625D02*
X951200Y457000D01*
X933516Y473625D02*
X934575D01*
X940495Y474758D02*
X956054Y459199D01*
X943447Y474050D02*
Y477700D01*
Y474050D02*
X947649Y469849D01*
X940374Y476302D02*
Y477579D01*
X940495Y477700D01*
Y474758D02*
Y477700D01*
X945838Y473905D02*
Y475619D01*
X931636Y475505D02*
Y477700D01*
X937300D02*
X937542D01*
X964400Y420645D02*
Y426100D01*
X962700Y416800D02*
Y418945D01*
Y416600D02*
Y416800D01*
X1113470Y417232D02*
X1114857Y415845D01*
X872391Y511849D02*
X881200Y520658D01*
Y520700D01*
X872391Y391709D02*
Y511849D01*
Y391709D02*
X887500Y376600D01*
X888145Y378200D02*
X959800D01*
X873978Y392367D02*
X888145Y378200D01*
X873978Y392367D02*
Y510078D01*
X887500Y376600D02*
X962100D01*
X959800Y378200D02*
X961400Y379800D01*
X948847Y473140D02*
X959968Y462019D01*
X945838Y473905D02*
X959311Y460431D01*
X959968Y462019D02*
X964633D01*
X948847Y473140D02*
Y475747D01*
X956054Y458950D02*
Y459199D01*
Y458950D02*
X958129Y456875D01*
X955396Y457362D02*
X958259Y454500D01*
X955328Y457362D02*
X955396D01*
X952787Y455171D02*
Y457657D01*
X951200Y453400D02*
Y457000D01*
X959311Y460431D02*
X963976D01*
X964500Y454200D02*
X964700Y454400D01*
X968500Y453700D02*
X968600Y453800D01*
Y454300D01*
X963318Y458844D02*
X967862Y454300D01*
X958653Y458844D02*
X963318D01*
X947649Y469849D02*
X958653Y458844D01*
X960084Y456875D02*
X962558Y454400D01*
X964700D01*
X958129Y456875D02*
X960084D01*
X952787Y455171D02*
X953658Y454300D01*
X958259Y454500D02*
X959100D01*
X953658Y454300D02*
X955100D01*
X964200Y426100D02*
X964400D01*
X971300Y430700D02*
X973707D01*
X977387Y427020D01*
X993700Y417100D02*
X993900Y416900D01*
Y407600D02*
Y416900D01*
X993600Y407600D02*
X993900D01*
X1102813Y427100D02*
Y433457D01*
Y417232D02*
Y427100D01*
X1100487Y429425D02*
X1102813Y427100D01*
X1096716Y429425D02*
X1100487D01*
X1093100Y432700D02*
X1093972D01*
X1095325Y431347D01*
Y430816D02*
Y431347D01*
Y430816D02*
X1096716Y429425D01*
X1106559Y443650D02*
X1108200Y442008D01*
Y436600D02*
Y442008D01*
X1104100Y445900D02*
X1106350Y443650D01*
X1106559D01*
X1105267Y433667D02*
X1108200Y436600D01*
X1103022Y433667D02*
X1105267D01*
X1102813Y417232D02*
X1104200Y415845D01*
X1102813Y433457D02*
X1103022Y433667D01*
X1106000Y430200D02*
X1113500D01*
X1104400Y428600D02*
X1106000Y430200D01*
X1104400Y423600D02*
Y428600D01*
Y423600D02*
X1110300Y417700D01*
X873978Y510078D02*
X881200Y517300D01*
X962700Y418945D02*
X963900Y420145D01*
X948847Y475747D02*
X949000Y475900D01*
X1104100Y445900D02*
Y456400D01*
X1117000Y444700D02*
X1122000Y439700D01*
X1110100Y444700D02*
X1117000D01*
X1106600Y448200D02*
X1110100Y444700D01*
X1106600Y448200D02*
Y454700D01*
X1109100Y457200D01*
X1095445Y444745D02*
X1097700Y447000D01*
X1095445Y442100D02*
Y444745D01*
X963900Y420145D02*
X964400Y420645D01*
X1095445Y434055D02*
Y436200D01*
Y434055D02*
X1097700Y431800D01*
D32*
X1082181Y510577D02*
X1082300Y510458D01*
X1082181Y510577D02*
Y527644D01*
Y508319D02*
Y510577D01*
Y527644D02*
X1082300Y527763D01*
X1077800Y503937D02*
X1082181Y508319D01*
X1082300Y508437D02*
Y510458D01*
X956528Y413255D02*
X956900D01*
X951000Y418783D02*
Y419155D01*
Y418783D02*
X956528Y413255D01*
X1058437Y503937D02*
X1059900D01*
X1052100Y497600D02*
X1058437Y503937D01*
X1052100Y487600D02*
Y497600D01*
X986700Y450063D02*
X987761D01*
X995800Y458102D01*
Y458300D01*
X968209Y424697D02*
Y426831D01*
X971800Y417600D02*
Y421107D01*
X968209Y424697D02*
X971800Y421107D01*
X1088555Y445155D02*
X1092000Y448600D01*
X1088555Y442100D02*
Y445155D01*
Y436200D02*
Y442100D01*
X1068850Y503937D02*
X1077800D01*
X1059900D02*
X1068850D01*
X1003500Y505037D02*
X1010863D01*
X994625D02*
X1003500D01*
X985750D02*
X994625D01*
X985587Y505200D02*
X985750Y505037D01*
X978037Y505200D02*
X985587D01*
X966700Y508663D02*
X970163Y505200D01*
X966700Y508663D02*
Y513200D01*
X977074Y422874D02*
X980000D01*
X971800Y417600D02*
X977074Y422874D01*
X980000D02*
X988000D01*
X956900Y420145D02*
X963900D01*
X947900Y431600D02*
Y449500D01*
X1110300Y417700D02*
X1116400Y411600D01*
X1120600D01*
X1128500Y403700D01*
X1104200Y415845D02*
X1106600Y413445D01*
Y406555D02*
X1109455Y403700D01*
X1118500D01*
X1079000Y538700D02*
X1079237D01*
X1082300Y535637D01*
X1078937Y435800D02*
Y443800D01*
X1166055Y439755D02*
X1170500D01*
X978700Y450063D02*
X986700D01*
X986000Y449363D02*
X986700Y450063D01*
X986000Y440000D02*
Y449363D01*
X963472Y420572D02*
X963900Y420145D01*
X963472Y420572D02*
Y426000D01*
X1078937Y435800D02*
X1088155D01*
X1088555Y436200D01*
D33*
X959300Y525900D02*
X1026000D01*
X1122963Y505100D02*
X1146500D01*
X1122900Y505037D02*
X1122963Y505100D01*
X1130900Y505037D02*
X1138900D01*
X1122900D02*
X1130900D01*
X1119300Y547800D02*
Y558200D01*
X1112400Y540900D02*
X1119300Y547800D01*
X1112400Y515537D02*
Y540900D01*
Y515537D02*
X1122900Y505037D01*
D34*
X811700Y372500D02*
X1204200D01*
Y605600D01*
X811700D02*
X1204200D01*
X811700Y372500D02*
Y605600D01*
D35*
X937000Y561900D02*
D03*
X927000D02*
D03*
X917000D02*
D03*
X907000D02*
D03*
X897000D02*
D03*
X887000D02*
D03*
X877000D02*
D03*
X867000D02*
D03*
X857000D02*
D03*
X847000D02*
D03*
X937000Y551900D02*
D03*
X927000D02*
D03*
X917000D02*
D03*
X907000D02*
D03*
X897000D02*
D03*
X887000D02*
D03*
X877000D02*
D03*
X867000D02*
D03*
X857000D02*
D03*
D36*
X847000D02*
D03*
D37*
X1118500Y403700D02*
D03*
X1128500D02*
D03*
X1138500D02*
D03*
X1118500Y473700D02*
D03*
X1128500D02*
D03*
X1138500D02*
D03*
D38*
X1022100Y456700D02*
D03*
Y421300D02*
D03*
X1092000Y448600D02*
D03*
X971800Y417600D02*
D03*
X995800Y458300D02*
D03*
X1180700Y413809D02*
D03*
D39*
X963810Y588200D02*
D03*
X977590D02*
D03*
D40*
X1186900Y533290D02*
D03*
Y519510D02*
D03*
D41*
X1122000Y439700D02*
D03*
X1102425Y438125D02*
D03*
Y441275D02*
D03*
X1105575Y438125D02*
D03*
Y441275D02*
D03*
X971900Y452900D02*
D03*
X940374Y476302D02*
D03*
X934500Y476000D02*
D03*
X937300Y477700D02*
D03*
X943447D02*
D03*
X945838Y475619D02*
D03*
X881200Y517300D02*
D03*
X931636Y477700D02*
D03*
X949000Y475900D02*
D03*
X962700Y416800D02*
D03*
X881200Y520700D02*
D03*
X962100Y376600D02*
D03*
X964500Y454200D02*
D03*
X968500Y453700D02*
D03*
X951200Y453400D02*
D03*
X955100Y454300D02*
D03*
X968209Y426831D02*
D03*
X964200Y426100D02*
D03*
X971300Y430700D02*
D03*
X977387Y427020D02*
D03*
X993700Y417100D02*
D03*
X993900Y407600D02*
D03*
X1097700Y431800D02*
D03*
X959300Y525900D02*
D03*
X1026000D02*
D03*
X1146500Y505100D02*
D03*
X1119300Y558200D02*
D03*
X1052100Y487600D02*
D03*
X1010863Y505037D02*
D03*
X966700Y513200D02*
D03*
X1182100Y477600D02*
D03*
X1143653Y528200D02*
D03*
X1119600Y527000D02*
D03*
X1113600Y489700D02*
D03*
X894100Y585500D02*
D03*
X961400Y379800D02*
D03*
X958000Y473300D02*
D03*
X966000D02*
D03*
X959100Y454500D02*
D03*
X1109100Y457200D02*
D03*
X947900Y449500D02*
D03*
X951000Y419155D02*
D03*
X948763Y411763D02*
D03*
X1079000Y538700D02*
D03*
X1136100Y431700D02*
D03*
X1136800Y444500D02*
D03*
X1136100Y448400D02*
D03*
X1071900Y430300D02*
D03*
X1068300Y439600D02*
D03*
X1070400Y449100D02*
D03*
X1104100Y456400D02*
D03*
X1097700Y447000D02*
D03*
X1165500Y439700D02*
D03*
X1113500Y430200D02*
D03*
X986000Y440000D02*
D03*
D42*
X1165739Y383100D02*
D03*
X1195661D02*
D03*
D43*
X995500Y392900D02*
D03*
X1015400Y393200D02*
D03*
X1027300Y399600D02*
D03*
X1004600Y400200D02*
D03*
X978900Y393200D02*
D03*
X959700Y485000D02*
D03*
X964200Y490800D02*
D03*
X950700Y491300D02*
D03*
X922500Y470600D02*
D03*
X910500Y470800D02*
D03*
X897000Y471300D02*
D03*
X916800Y476300D02*
D03*
X903500Y476100D02*
D03*
X889500Y475900D02*
D03*
X909000Y483100D02*
D03*
X896800Y482800D02*
D03*
X902500Y490100D02*
D03*
X889300D02*
D03*
X952000Y394600D02*
D03*
X934400Y394900D02*
D03*
X919400D02*
D03*
X899900Y394400D02*
D03*
X945000Y401900D02*
D03*
X928100Y402300D02*
D03*
X908800D02*
D03*
X891400D02*
D03*
X938000Y408600D02*
D03*
X918400D02*
D03*
X900600Y409600D02*
D03*
X887100Y411000D02*
D03*
X1128200Y390500D02*
D03*
X1162900Y407900D02*
D03*
X1155200Y414400D02*
D03*
X1097300Y405700D02*
D03*
X1092500Y393700D02*
D03*
X1078500Y404300D02*
D03*
X1071000Y395600D02*
D03*
X1059200Y404000D02*
D03*
X1146500Y464800D02*
D03*
X1163100Y466900D02*
D03*
X1160700Y481200D02*
D03*
X1154000Y474200D02*
D03*
X1103600Y469800D02*
D03*
X1100700Y478000D02*
D03*
X1092500Y482100D02*
D03*
X1075400Y483100D02*
D03*
X816184Y391600D02*
D03*
Y385400D02*
D03*
X822834Y391600D02*
D03*
Y385400D02*
D03*
X829484Y391600D02*
D03*
Y385400D02*
D03*
X815484Y419100D02*
D03*
Y412900D02*
D03*
X822134Y419100D02*
D03*
Y412900D02*
D03*
X828784Y419100D02*
D03*
Y412900D02*
D03*
X815884Y467100D02*
D03*
Y460900D02*
D03*
X822534Y467100D02*
D03*
Y460900D02*
D03*
X829184Y467100D02*
D03*
Y460900D02*
D03*
X828800Y488200D02*
D03*
Y494400D02*
D03*
X822150Y488200D02*
D03*
Y494400D02*
D03*
X815500Y488200D02*
D03*
Y494400D02*
D03*
D44*
X957376Y444724D02*
D03*
X962100D02*
D03*
X966824D02*
D03*
X957376Y440000D02*
D03*
X962100D02*
D03*
X966824D02*
D03*
X957376Y435276D02*
D03*
X962100D02*
D03*
X966824D02*
D03*
D45*
X970700Y458700D02*
D03*
D46*
X972300Y467500D02*
D03*
X1187100Y375400D02*
D03*
Y379900D02*
D03*
Y384400D02*
D03*
Y388900D02*
D03*
Y393400D02*
D03*
Y397900D02*
D03*
Y402400D02*
D03*
Y406900D02*
D03*
X1022400Y486800D02*
D03*
X1026600Y482400D02*
D03*
X1032700Y482500D02*
D03*
X1038100Y481100D02*
D03*
X979500Y492500D02*
D03*
X884000Y389400D02*
D03*
X972700Y473200D02*
D03*
X976400Y476900D02*
D03*
X980500Y480900D02*
D03*
X984100Y484600D02*
D03*
X988100Y489000D02*
D03*
X998400Y486800D02*
D03*
X994400Y482400D02*
D03*
X990800Y478700D02*
D03*
X986700Y474700D02*
D03*
X983000Y471000D02*
D03*
X998300Y469000D02*
D03*
X995500Y465800D02*
D03*
X1008357Y490700D02*
D03*
X1003029D02*
D03*
X1013686D02*
D03*
X1019014D02*
D03*
X1033086Y475400D02*
D03*
X1038414D02*
D03*
X1027671Y471400D02*
D03*
X1022343D02*
D03*
X1006357D02*
D03*
X1001029D02*
D03*
X1011686D02*
D03*
X1017014D02*
D03*
X958700Y389500D02*
D03*
Y394600D02*
D03*
Y399700D02*
D03*
Y404800D02*
D03*
X974900Y405500D02*
D03*
X970300D02*
D03*
X964600Y403400D02*
D03*
Y409400D02*
D03*
X966700Y413600D02*
D03*
X972900Y410400D02*
D03*
X977800Y407800D02*
D03*
X983129D02*
D03*
X988457D02*
D03*
X992400Y402600D02*
D03*
X987386Y399700D02*
D03*
X982057D02*
D03*
X976729D02*
D03*
X971400D02*
D03*
X967500Y396100D02*
D03*
X967400Y391300D02*
D03*
X1013886Y407300D02*
D03*
X1008557D02*
D03*
X1003229D02*
D03*
X997900D02*
D03*
X1029871D02*
D03*
X1024543D02*
D03*
X1019214D02*
D03*
X999000Y416200D02*
D03*
X1004167D02*
D03*
X1009333D02*
D03*
X1014500D02*
D03*
X1012000Y423700D02*
D03*
X1007525D02*
D03*
X1003050D02*
D03*
X998575D02*
D03*
X994100D02*
D03*
X1031300Y422800D02*
D03*
X1027800Y462700D02*
D03*
X1004500Y460800D02*
D03*
X1009400Y462100D02*
D03*
X1015100Y461800D02*
D03*
X1008200Y456500D02*
D03*
X1002800Y456700D02*
D03*
X991800Y462900D02*
D03*
X987300Y463000D02*
D03*
X981500D02*
D03*
X1051700Y389400D02*
D03*
X1035700Y390100D02*
D03*
X1039900Y399700D02*
D03*
Y394600D02*
D03*
Y404800D02*
D03*
X936657Y494500D02*
D03*
X940400Y491100D02*
D03*
X944000Y487600D02*
D03*
X947900Y483800D02*
D03*
X952200Y479600D02*
D03*
X953000Y473500D02*
D03*
X944200Y459600D02*
D03*
X940800Y463100D02*
D03*
X937100Y466600D02*
D03*
X933400Y469900D02*
D03*
X929700Y472200D02*
D03*
X926900Y477500D02*
D03*
X924500Y481900D02*
D03*
X921200Y484800D02*
D03*
X917500Y488600D02*
D03*
X914200Y491800D02*
D03*
X911100Y495000D02*
D03*
X942100Y456400D02*
D03*
X936771D02*
D03*
X986186Y492300D02*
D03*
X991514D02*
D03*
X968629Y498700D02*
D03*
X973957D02*
D03*
X979286D02*
D03*
X963300D02*
D03*
X936657D02*
D03*
X931800Y498800D02*
D03*
X941986Y498700D02*
D03*
X947314D02*
D03*
X952643D02*
D03*
X957971D02*
D03*
X885457Y498400D02*
D03*
X890786D02*
D03*
X896114D02*
D03*
X901443D02*
D03*
X906771D02*
D03*
X888400Y456900D02*
D03*
X884100Y456800D02*
D03*
X887600Y421600D02*
D03*
X883700Y422300D02*
D03*
X880500Y418900D02*
D03*
X1030700Y418500D02*
D03*
X880500Y482300D02*
D03*
Y477200D02*
D03*
Y487400D02*
D03*
Y492500D02*
D03*
Y461900D02*
D03*
Y456800D02*
D03*
Y467000D02*
D03*
Y472100D02*
D03*
Y398600D02*
D03*
Y393500D02*
D03*
Y403700D02*
D03*
Y408800D02*
D03*
Y413900D02*
D03*
X922300Y462400D02*
D03*
X916971D02*
D03*
X911643D02*
D03*
X906314D02*
D03*
X900986D02*
D03*
X890800Y462500D02*
D03*
X895657Y462400D02*
D03*
X927629D02*
D03*
X932957D02*
D03*
X941929Y421700D02*
D03*
X936600D02*
D03*
X932029Y416900D02*
D03*
X926700D02*
D03*
X894729D02*
D03*
X889871Y417000D02*
D03*
X900057Y416900D02*
D03*
X905386D02*
D03*
X910714D02*
D03*
X916043D02*
D03*
X921371D02*
D03*
X1015214Y385700D02*
D03*
X1020543D02*
D03*
X1025871D02*
D03*
X1031200D02*
D03*
X988571D02*
D03*
X993900D02*
D03*
X999228D02*
D03*
X1004557D02*
D03*
X1009886D02*
D03*
X967257D02*
D03*
X972586D02*
D03*
X977914D02*
D03*
X983243D02*
D03*
X935286D02*
D03*
X940614D02*
D03*
X945943D02*
D03*
X951271D02*
D03*
X956600D02*
D03*
X929957D02*
D03*
X924629D02*
D03*
X919300D02*
D03*
X913971D02*
D03*
X908643D02*
D03*
X903314D02*
D03*
X897986D02*
D03*
X887800Y385800D02*
D03*
X892657Y385700D02*
D03*
X1016300Y435500D02*
D03*
X1012600Y457900D02*
D03*
X1011800Y478400D02*
D03*
X1140300Y492600D02*
D03*
X1135133D02*
D03*
X1129967D02*
D03*
X1124800D02*
D03*
X1158800Y398700D02*
D03*
X1162700D02*
D03*
X1166600D02*
D03*
X1157200Y492100D02*
D03*
X1161500D02*
D03*
X1165200Y494400D02*
D03*
X1168100Y491200D02*
D03*
X1171100Y487900D02*
D03*
X1173900Y483200D02*
D03*
Y478857D02*
D03*
Y474614D02*
D03*
Y470371D02*
D03*
Y466128D02*
D03*
Y461886D02*
D03*
Y457643D02*
D03*
X1173200Y435700D02*
D03*
Y431200D02*
D03*
Y426700D02*
D03*
X1173900Y422200D02*
D03*
Y417700D02*
D03*
Y413200D02*
D03*
Y408700D02*
D03*
Y404200D02*
D03*
Y399700D02*
D03*
Y395200D02*
D03*
Y390700D02*
D03*
X1100857Y496400D02*
D03*
X1106186D02*
D03*
X1111514D02*
D03*
X1116843D02*
D03*
X1095529D02*
D03*
Y491800D02*
D03*
X1090200D02*
D03*
X1084871D02*
D03*
X1079543D02*
D03*
X1074214D02*
D03*
X1068886D02*
D03*
X1058229D02*
D03*
X1063557D02*
D03*
X1144814Y386000D02*
D03*
X1139486D02*
D03*
X1134157D02*
D03*
X1128829D02*
D03*
X1123500D02*
D03*
X1118171D02*
D03*
X1155471Y391100D02*
D03*
X1150143Y386000D02*
D03*
X1155471D02*
D03*
Y396200D02*
D03*
X1112843Y386000D02*
D03*
X1107514D02*
D03*
X1048900Y416600D02*
D03*
Y411500D02*
D03*
Y406400D02*
D03*
Y396200D02*
D03*
Y401300D02*
D03*
X1059557Y386000D02*
D03*
X1054700Y386100D02*
D03*
X1048800Y392400D02*
D03*
X1064886Y386000D02*
D03*
X1070214D02*
D03*
X1075543D02*
D03*
X1080871D02*
D03*
X1086200D02*
D03*
X1091529D02*
D03*
X1096857D02*
D03*
X1102186D02*
D03*
X1048500Y480100D02*
D03*
X1053267D02*
D03*
X1058033Y475600D02*
D03*
X1048500D02*
D03*
X1060800Y472700D02*
D03*
X1048500Y471100D02*
D03*
X1058033Y462100D02*
D03*
X1048500D02*
D03*
Y466600D02*
D03*
X1086633D02*
D03*
X1081867D02*
D03*
X1077100D02*
D03*
X1072333D02*
D03*
X1067567D02*
D03*
X1064000Y470000D02*
D03*
X1049600Y423000D02*
D03*
X1053100Y422500D02*
D03*
X1057500Y424300D02*
D03*
X1056900Y420400D02*
D03*
X1048000Y456100D02*
D03*
X1053500Y456400D02*
D03*
X1058100Y453600D02*
D03*
X1058300Y458800D02*
D03*
X1062800Y462100D02*
D03*
X1067567D02*
D03*
X1072333D02*
D03*
X1077100D02*
D03*
X1081867D02*
D03*
X1086633D02*
D03*
X1091400D02*
D03*
X1118300Y459200D02*
D03*
X1122040D02*
D03*
X1125780D02*
D03*
X1129520D02*
D03*
X1133260D02*
D03*
X1137000D02*
D03*
X1143400Y457900D02*
D03*
X1148600Y456300D02*
D03*
X1153550D02*
D03*
X1158500D02*
D03*
X1163900Y455600D02*
D03*
X1167500Y451800D02*
D03*
X1168500Y429900D02*
D03*
X1163100Y423100D02*
D03*
X1158700D02*
D03*
X1154300D02*
D03*
X1149900D02*
D03*
X1144600D02*
D03*
X1141000Y420500D02*
D03*
X1136900Y420100D02*
D03*
X1132250D02*
D03*
X1127600D02*
D03*
X1122950D02*
D03*
X1118300D02*
D03*
X1096943Y418500D02*
D03*
X1091614D02*
D03*
X1086286D02*
D03*
X1080957D02*
D03*
X1075629D02*
D03*
X1070300D02*
D03*
X1064971D02*
D03*
X1026800Y509000D02*
D03*
X1018200D02*
D03*
X1014800D02*
D03*
X1022800Y511800D02*
D03*
X1019633D02*
D03*
X1016467D02*
D03*
X1013300D02*
D03*
X1086100Y512200D02*
D03*
X1088633D02*
D03*
X1091167D02*
D03*
X1093700D02*
D03*
X1161900Y544300D02*
D03*
Y541100D02*
D03*
X1165300Y538200D02*
D03*
Y541500D02*
D03*
Y544800D02*
D03*
Y548100D02*
D03*
X1025900Y594800D02*
D03*
X1021929D02*
D03*
X1017957D02*
D03*
X1013986D02*
D03*
X1010014D02*
D03*
X1006043D02*
D03*
X1002071D02*
D03*
X998100D02*
D03*
X947900Y431600D02*
D03*
X1092200Y433500D02*
D03*
M02*
