M48
;Layer_Color=9474304
;FILE_FORMAT=2:5
INCH,LZ
;TYPE=PLATED
T1F00S00C0.01000
T2F00S00C0.01299
T3F00S00C0.01300
T4F00S00C0.01311
T5F00S00C0.01312
T6F00S00C0.01500
T7F00S00C0.03150
T8F00S00C0.03937
T9F00S00C0.04724
T10F00S00C0.07087
%
T01
X09707Y04587
T02
X0957376Y0435276
Y044
Y0444724
X09621
X0966824
Y044
X09621
Y0435276
X0966824
X1102425Y0438125
Y0441275
X1105575
Y0438125
X11655Y04397
T03
X0884Y03894
X08878Y03858
X0892657Y03857
X0897986
X0903314
X0908643
X0913971
X09193
X0924629
X0929957
X0935286
X0932029Y04169
X09267
X0921371
X0916043
X0910714
X0905386
X0900057
X0894729
X0889871Y0417
X08876Y04216
X08837Y04223
X08805Y04189
Y04139
Y04088
Y04037
Y03986
Y03935
Y04568
X08841
X08884Y04569
X08908Y04625
X0895657Y04624
X0900986
X0906314
X0911643
X0916971
X09223
X0927629
X0932957
X09371Y04666
X0936771Y04564
X09366Y04217
X08805Y04619
Y0467
X09408Y04631
X09442Y04596
X09421Y04564
X09479Y04316
X0941929Y04217
X09667Y04136
X09646Y04094
Y04034
X09587Y04048
Y03997
Y03946
Y03895
X09566Y03857
X0951271
X0945943
X0940614
X0967257
X0972586
X0977914
X0983243
X0988571
X09939
X0999228
X1004557
X1009886
X1015214
X1020543
X1025871
X10312
X10357Y03901
X10399Y03946
Y03997
Y04048
X10489Y04064
Y04115
Y04166
X10496Y0423
X10531Y04225
X10569Y04204
X10575Y04243
X1064971Y04185
X10703
X1075629
X1080957
X1086286
X1091614
X10922Y04335
X10914Y04621
X1086633
Y04666
X1081867
Y04621
X10771
Y04666
X1072333
Y04621
X1067567
Y04666
X10628Y04621
X1058033
X10583Y04588
X10581Y04536
X10535Y04564
X1048Y04561
X10485Y04621
Y04666
X10278Y04627
X10151Y04618
X10094Y04621
X10045Y04608
X10028Y04567
X10082Y04565
X10126Y04579
X09955Y04658
X09918Y04629
X09873Y0463
X09815
X09723Y04675
X09729Y04104
X09749Y04055
X09703
X09714Y03997
X0976729
X0982057
X0987386
X09924Y04026
X0988457Y04078
X0983129
X09778
X09979Y04073
X1003229
X1008557
X1013886
X1019214
X1024543
X1029871
X10307Y04185
X10313Y04228
X1012Y04237
X1007525
X100305
X0998575
X09941
X0999Y04162
X1004167
X1009333
X10145
X10163Y04355
X10489Y04013
Y03962
X10488Y03924
X10517Y03894
X10547Y03861
X1059557Y0386
X1064886
X1070214
X1075543
X1080871
X10862
X1091529
X09674Y03913
X09675Y03961
X1096857Y0386
X1102186
X1107514
X1112843
X1118171
X11235
X1128829
X1134157
X1139486
X1144814
X1150143
X1155471
Y03911
Y03962
X11588Y03987
X11627
X11666
X11739Y03997
Y04042
Y04087
Y04132
Y04177
Y04222
X11732Y04267
Y04312
Y04357
X11685Y04299
X11631Y04231
X11587
X11543
X11499
X11446
X1141Y04205
X11369Y04201
X113225
X11276
X112295
X11183
X1096943Y04185
X11183Y04592
X112204
X112578
X112952
X113326
X1137
X11434Y04579
X11486Y04563
X115355
X11585
X11639Y04556
X11675Y04518
X11739Y0457643
Y0461886
Y0466128
Y03952
Y03907
X11871Y03889
Y03844
Y03799
Y03754
Y03934
Y03979
Y04024
Y04069
X11739Y0470371
Y0474614
Y0478857
Y04832
X11711Y04879
X11681Y04912
X11652Y04944
X11615Y04921
X11572
X11403Y04926
X1135133
X1129967
X11248
X1116843Y04964
X1111514
X1106186
X1100857
X1095529
Y04918
X11619Y05411
Y05443
X11653Y05448
Y05415
Y05382
Y05481
X10937Y05122
X1091167
X1088633
X10861
X1084871Y04918
X10902
X1079543
X1074214
X1068886
X1063557
X1058229
X1058033Y04756
X10608Y04727
X1064Y047
X10485Y04711
Y04756
Y04801
X1053267
X10381Y04811
X1038414Y04754
X1033086
X10327Y04825
X10266Y04824
X10224Y04868
X1019014Y04907
X1013686
X1008357
X1003029
X09984Y04868
X09944Y04824
X09908Y04787
X09867Y04747
X0983Y0471
X09805Y04809
X09841Y04846
X09881Y0489
X0986186Y04923
X0991514
X09795Y04925
X0979286Y04987
X0973957
X0968629
X09633
X0957971
X0952643
X0947314
X0941986
X09404Y04911
X0944Y04876
X09479Y04838
X09522Y04796
X0953Y04735
X09727Y04732
X09764Y04769
X09983Y0469
X1001029Y04714
X1006357
X1011686
X1017014
X1022343
X1027671
X10118Y04784
X10148Y0509
X10182
X1019633Y05118
X10228
X1016467
X10133
X10268Y0509
X10259Y05948
X1021929
X1017957
X1013986
X1010014
X1006043
X1002071
X09981
X0936657Y04987
Y04945
X09318Y04988
X09245Y04819
X09212Y04848
X09175Y04886
X09142Y04918
X09111Y0495
X0906771Y04984
X0901443
X0896114
X0890786
X0885457
X08805Y04925
Y04874
Y04823
Y04772
Y04721
X09297Y04722
X09334Y04699
X09269Y04775
T04
X09621Y03766
X09614Y03798
X09627Y04168
X09642Y04261
X0968209Y0426831
X09713Y04307
X0977387Y042702
X0986Y044
X09719Y04529
X09685Y04537
X09645Y04542
X09591Y04545
X09551Y04543
X09512Y04534
X09479Y04495
X0951Y0419155
X0948763Y0411763
X09939Y04076
X09937Y04171
X10719Y04303
X10683Y04396
X10704Y04491
X10977Y0447
Y04318
X11135Y04302
X11361Y04317
X11368Y04445
X11361Y04484
X11091Y04572
X11041Y04564
X11136Y04897
X11196Y0527
X1143653Y05282
X11465Y05051
X11821Y04776
X11193Y05582
X1079Y05387
X1026Y05259
X1010863Y0505037
X09667Y05132
X09593Y05259
X0958Y04733
X0966
X0949Y04759
X0945838Y0475619
X0943447Y04777
X0940374Y0476302
X10521Y04876
X09373Y04777
X09345Y0476
X0931636Y04777
X08812Y05173
Y05207
X08941Y05855
T05
X1122Y04397
T06
X0816184Y03854
Y03916
X0822834
Y03854
X0829484
Y03916
X0828784Y04129
Y04191
X0822134
Y04129
X0815484
Y04191
X0815884Y04609
Y04671
X0822534
Y04609
X0829184
Y04671
X08871Y0411
X08914Y04023
X08999Y03944
X09006Y04096
X09088Y04023
X09184Y04086
X09194Y03949
X09344
X09281Y04023
X0938Y04086
X0945Y04019
X0952Y03946
X09789Y03932
X09955Y03929
X10046Y04002
X10154Y03932
X10273Y03996
X10592Y0404
X10785Y04043
X1071Y03956
X10925Y03937
X10973Y04057
X11282Y03905
X11552Y04144
X11629Y04079
X11631Y04669
X11465Y04648
X1154Y04742
X11607Y04812
X11007Y0478
X11036Y04698
X10925Y04821
X10754Y04831
X09597Y0485
X09642Y04908
X09507Y04913
X09225Y04706
X09168Y04763
X09105Y04708
X09035Y04761
X0897Y04713
X08968Y04828
X0909Y04831
X09025Y04901
X08893
X08895Y04759
X08288Y04882
Y04944
X082215
Y04882
X08155
Y04944
T07
X0847Y05519
Y05619
X0857
X0867
X0877
X0887
X0897
X0907
X0917
X0927
X0937
Y05519
X0927
X0917
X0907
X0897
X0887
X0877
X0867
X0857
T08
X09718Y04176
X10221Y04213
Y04567
X09958Y04583
X1092Y04486
X11185Y04037
X11285
X11385
X11807Y0413809
X11385Y04737
X11285
X11185
T09
X11869Y051951
Y053329
X097759Y05882
X096381
T10
X1165739Y03831
X1195661
M30
