%FSLAX25Y25*%
%MOIN*%
G70*
G01*
G75*
G04 Layer_Color=16711935*
%ADD10R,0.10000X0.06496*%
%ADD11R,0.06299X0.11811*%
G04:AMPARAMS|DCode=12|XSize=118.11mil|YSize=62.99mil|CornerRadius=15.75mil|HoleSize=0mil|Usage=FLASHONLY|Rotation=270.000|XOffset=0mil|YOffset=0mil|HoleType=Round|Shape=RoundedRectangle|*
%AMROUNDEDRECTD12*
21,1,0.11811,0.03150,0,0,270.0*
21,1,0.08661,0.06299,0,0,270.0*
1,1,0.03150,-0.01575,-0.04331*
1,1,0.03150,-0.01575,0.04331*
1,1,0.03150,0.01575,0.04331*
1,1,0.03150,0.01575,-0.04331*
%
%ADD12ROUNDEDRECTD12*%
%ADD13R,0.11811X0.06299*%
G04:AMPARAMS|DCode=14|XSize=118.11mil|YSize=62.99mil|CornerRadius=15.75mil|HoleSize=0mil|Usage=FLASHONLY|Rotation=0.000|XOffset=0mil|YOffset=0mil|HoleType=Round|Shape=RoundedRectangle|*
%AMROUNDEDRECTD14*
21,1,0.11811,0.03150,0,0,0.0*
21,1,0.08661,0.06299,0,0,0.0*
1,1,0.03150,0.04331,-0.01575*
1,1,0.03150,-0.04331,-0.01575*
1,1,0.03150,-0.04331,0.01575*
1,1,0.03150,0.04331,0.01575*
%
%ADD14ROUNDEDRECTD14*%
%ADD15R,0.05709X0.04331*%
%ADD16R,0.04331X0.05709*%
%ADD17R,0.23622X0.31496*%
%ADD18R,0.14173X0.04331*%
%ADD19R,0.31496X0.23622*%
%ADD20R,0.04331X0.14173*%
%ADD21R,0.02953X0.03740*%
%ADD22R,0.03740X0.02953*%
%ADD23R,0.12598X0.12598*%
%ADD24O,0.00984X0.03740*%
%ADD25O,0.03740X0.00984*%
%ADD26R,0.05906X0.05906*%
%ADD27O,0.03543X0.00984*%
%ADD28O,0.00984X0.03543*%
%ADD29R,0.20000X0.10500*%
%ADD30R,0.20000X0.07000*%
%ADD31C,0.00787*%
%ADD32C,0.03937*%
%ADD33C,0.05906*%
%ADD34C,0.01000*%
%ADD35O,0.05906X0.07874*%
%ADD36R,0.05906X0.07874*%
%ADD37O,0.05906X0.07874*%
%ADD38C,0.07874*%
%ADD39P,0.10653X8X292.5*%
%ADD40P,0.10653X8X202.5*%
%ADD41C,0.02362*%
%ADD42C,0.11811*%
%ADD43C,0.02500*%
%ADD44C,0.02598*%
%ADD45C,0.02000*%
%ADD46C,0.02300*%
%ADD47C,0.02362*%
%ADD48C,0.00984*%
%ADD49C,0.00500*%
%ADD50R,0.11000X0.07496*%
%ADD51R,0.07299X0.12811*%
G04:AMPARAMS|DCode=52|XSize=128.11mil|YSize=72.99mil|CornerRadius=20.75mil|HoleSize=0mil|Usage=FLASHONLY|Rotation=270.000|XOffset=0mil|YOffset=0mil|HoleType=Round|Shape=RoundedRectangle|*
%AMROUNDEDRECTD52*
21,1,0.12811,0.03150,0,0,270.0*
21,1,0.08661,0.07299,0,0,270.0*
1,1,0.04150,-0.01575,-0.04331*
1,1,0.04150,-0.01575,0.04331*
1,1,0.04150,0.01575,0.04331*
1,1,0.04150,0.01575,-0.04331*
%
%ADD52ROUNDEDRECTD52*%
%ADD53R,0.12811X0.07299*%
G04:AMPARAMS|DCode=54|XSize=128.11mil|YSize=72.99mil|CornerRadius=20.75mil|HoleSize=0mil|Usage=FLASHONLY|Rotation=0.000|XOffset=0mil|YOffset=0mil|HoleType=Round|Shape=RoundedRectangle|*
%AMROUNDEDRECTD54*
21,1,0.12811,0.03150,0,0,0.0*
21,1,0.08661,0.07299,0,0,0.0*
1,1,0.04150,0.04331,-0.01575*
1,1,0.04150,-0.04331,-0.01575*
1,1,0.04150,-0.04331,0.01575*
1,1,0.04150,0.04331,0.01575*
%
%ADD54ROUNDEDRECTD54*%
%ADD55R,0.06709X0.05331*%
%ADD56R,0.05331X0.06709*%
%ADD57R,0.24622X0.32496*%
%ADD58R,0.15173X0.05331*%
%ADD59R,0.32496X0.24622*%
%ADD60R,0.05331X0.15173*%
%ADD61R,0.03953X0.04740*%
%ADD62R,0.04740X0.03953*%
%ADD63R,0.21000X0.11500*%
%ADD64R,0.21000X0.08000*%
%ADD65O,0.06906X0.08874*%
%ADD66R,0.06906X0.08874*%
%ADD67O,0.06906X0.08874*%
%ADD68C,0.08874*%
%ADD69P,0.11736X8X292.5*%
%ADD70P,0.11736X8X202.5*%
%ADD71C,0.03362*%
%ADD72C,0.12811*%
D34*
X811700Y372500D02*
X1204200D01*
Y605600D01*
X811700D02*
X1204200D01*
X811700Y372500D02*
Y605600D01*
D55*
X1022300Y497563D02*
D03*
Y505437D02*
D03*
X1082300Y527763D02*
D03*
Y535637D02*
D03*
X1089100Y496250D02*
D03*
Y504124D02*
D03*
X1157500Y497463D02*
D03*
Y505337D02*
D03*
X980000Y422874D02*
D03*
Y415000D02*
D03*
X988000Y422874D02*
D03*
Y415000D02*
D03*
X978700Y450063D02*
D03*
Y457937D02*
D03*
X986700Y450063D02*
D03*
Y457937D02*
D03*
X1003500Y505037D02*
D03*
Y497163D02*
D03*
X994625Y505037D02*
D03*
Y497163D02*
D03*
X985750Y505037D02*
D03*
Y497163D02*
D03*
X1059900Y503937D02*
D03*
Y496063D02*
D03*
X1068850Y503937D02*
D03*
Y496063D02*
D03*
X1077800Y503937D02*
D03*
Y496063D02*
D03*
X1122900Y505037D02*
D03*
Y497163D02*
D03*
X1130900Y505037D02*
D03*
Y497163D02*
D03*
X1138900Y505037D02*
D03*
Y497163D02*
D03*
D56*
X978037Y505200D02*
D03*
X970163D02*
D03*
X1078937Y443800D02*
D03*
X1071063D02*
D03*
X1078937Y435800D02*
D03*
X1071063D02*
D03*
D61*
X1088555Y442100D02*
D03*
X1095445D02*
D03*
X1088555Y436200D02*
D03*
X1095445D02*
D03*
D62*
X1106600Y406555D02*
D03*
Y413445D02*
D03*
X956900Y420145D02*
D03*
Y413255D02*
D03*
X963900Y420145D02*
D03*
Y413255D02*
D03*
X1170500Y440255D02*
D03*
Y447145D02*
D03*
D63*
X823000Y416050D02*
D03*
Y388550D02*
D03*
X823016Y463850D02*
D03*
Y491350D02*
D03*
D65*
X937000Y561900D02*
D03*
X927000D02*
D03*
X917000D02*
D03*
X907000D02*
D03*
X897000D02*
D03*
X887000D02*
D03*
X877000D02*
D03*
X867000D02*
D03*
X857000D02*
D03*
X847000D02*
D03*
X937000Y551900D02*
D03*
X927000D02*
D03*
X917000D02*
D03*
X907000D02*
D03*
X897000D02*
D03*
X887000D02*
D03*
X877000D02*
D03*
X867000D02*
D03*
X857000D02*
D03*
D66*
X847000D02*
D03*
D67*
X1118500Y403700D02*
D03*
X1128500D02*
D03*
X1138500D02*
D03*
X1118500Y473700D02*
D03*
X1128500D02*
D03*
X1138500D02*
D03*
D68*
X1022100Y456700D02*
D03*
Y421300D02*
D03*
X1092000Y448600D02*
D03*
X971800Y417600D02*
D03*
X995800Y458300D02*
D03*
X1180700Y413809D02*
D03*
D69*
X963810Y588200D02*
D03*
X977590D02*
D03*
D70*
X1186900Y533290D02*
D03*
Y519510D02*
D03*
D71*
X1122000Y439700D02*
D03*
D72*
X1165739Y383100D02*
D03*
X1195661D02*
D03*
M02*
