%FSLAX25Y25*%
%MOIN*%
G70*
G01*
G75*
G04 Layer_Physical_Order=2*
G04 Layer_Color=16711680*
%ADD10R,0.20000X0.07000*%
%ADD11R,0.20000X0.10500*%
%ADD12R,0.03740X0.02953*%
%ADD13R,0.02953X0.03740*%
%ADD14R,0.05709X0.04331*%
%ADD15R,0.04331X0.05709*%
%ADD16O,0.00984X0.03543*%
%ADD17O,0.03543X0.00984*%
%ADD18R,0.05906X0.05906*%
%ADD19O,0.03740X0.00984*%
%ADD20O,0.00984X0.03740*%
%ADD21R,0.12598X0.12598*%
%ADD22R,0.04331X0.14173*%
%ADD23R,0.31496X0.23622*%
%ADD24R,0.14173X0.04331*%
%ADD25R,0.23622X0.31496*%
G04:AMPARAMS|DCode=26|XSize=118.11mil|YSize=62.99mil|CornerRadius=15.75mil|HoleSize=0mil|Usage=FLASHONLY|Rotation=270.000|XOffset=0mil|YOffset=0mil|HoleType=Round|Shape=RoundedRectangle|*
%AMROUNDEDRECTD26*
21,1,0.11811,0.03150,0,0,270.0*
21,1,0.08661,0.06299,0,0,270.0*
1,1,0.03150,-0.01575,-0.04331*
1,1,0.03150,-0.01575,0.04331*
1,1,0.03150,0.01575,0.04331*
1,1,0.03150,0.01575,-0.04331*
%
%ADD26ROUNDEDRECTD26*%
%ADD27R,0.06299X0.11811*%
G04:AMPARAMS|DCode=28|XSize=118.11mil|YSize=62.99mil|CornerRadius=15.75mil|HoleSize=0mil|Usage=FLASHONLY|Rotation=0.000|XOffset=0mil|YOffset=0mil|HoleType=Round|Shape=RoundedRectangle|*
%AMROUNDEDRECTD28*
21,1,0.11811,0.03150,0,0,0.0*
21,1,0.08661,0.06299,0,0,0.0*
1,1,0.03150,0.04331,-0.01575*
1,1,0.03150,-0.04331,-0.01575*
1,1,0.03150,-0.04331,0.01575*
1,1,0.03150,0.04331,0.01575*
%
%ADD28ROUNDEDRECTD28*%
%ADD29R,0.11811X0.06299*%
%ADD30R,0.10000X0.06496*%
%ADD31C,0.03937*%
%ADD32C,0.00787*%
%ADD33C,0.05906*%
%ADD34C,0.01000*%
%ADD35C,0.11811*%
%ADD36C,0.07874*%
%ADD37C,0.02362*%
%ADD38P,0.10653X8X202.5*%
%ADD39P,0.10653X8X292.5*%
%ADD40O,0.05906X0.07874*%
%ADD41R,0.05906X0.07874*%
%ADD42O,0.05906X0.07874*%
%ADD43C,0.02300*%
%ADD44C,0.02000*%
%ADD45C,0.02500*%
%ADD46C,0.02598*%
G36*
X363800Y113400D02*
Y16700D01*
X360566Y13466D01*
X360071Y13540D01*
X359642Y14343D01*
X358804Y15364D01*
X357783Y16202D01*
X356618Y16825D01*
X355354Y17209D01*
X354039Y17338D01*
X352725Y17209D01*
X351461Y16825D01*
X350296Y16202D01*
X349275Y15364D01*
X348437Y14343D01*
X347814Y13179D01*
X347431Y11914D01*
X347429Y11900D01*
X242200D01*
X234200Y19900D01*
Y121400D01*
X237146Y124346D01*
X237608Y124154D01*
Y115100D01*
X237703Y114377D01*
X237982Y113704D01*
X238425Y113126D01*
X239004Y112682D01*
X239677Y112403D01*
X240400Y112308D01*
X241123Y112403D01*
X241796Y112682D01*
X242374Y113126D01*
X242818Y113704D01*
X243097Y114377D01*
X243192Y115100D01*
Y123943D01*
X246249Y127000D01*
X350200D01*
X363800Y113400D01*
D02*
G37*
G36*
X229800Y121500D02*
Y19000D01*
X222200Y11400D01*
X74100D01*
X67000Y18500D01*
Y121800D01*
X72700Y127500D01*
X223800D01*
X229800Y121500D01*
D02*
G37*
G36*
X391400Y229000D02*
X391500Y228900D01*
Y225100D01*
Y2400D01*
X390200Y1100D01*
X390000Y900D01*
X349700D01*
X349500Y1100D01*
X349300Y1300D01*
Y10800D01*
X359400D01*
X364145Y15545D01*
X364700Y16100D01*
Y38353D01*
X365174Y38514D01*
X365621Y37930D01*
X366611Y37171D01*
X367763Y36694D01*
X369000Y36531D01*
X370237Y36694D01*
X371389Y37171D01*
X372378Y37930D01*
X373138Y38920D01*
X373615Y40072D01*
X373778Y41309D01*
X373615Y42545D01*
X373138Y43698D01*
X372378Y44687D01*
X371389Y45446D01*
X370237Y45924D01*
X369000Y46086D01*
X367763Y45924D01*
X366611Y45446D01*
X365621Y44687D01*
X365174Y44103D01*
X364700Y44264D01*
Y82400D01*
Y113400D01*
X376800Y125500D01*
Y135200D01*
X382200Y140600D01*
X382800Y141200D01*
Y156800D01*
Y211400D01*
X373100Y221100D01*
X309400D01*
Y219500D01*
X372800D01*
X381600Y210700D01*
Y141800D01*
X367800Y128000D01*
X336200D01*
X335647Y128553D01*
X335780Y128944D01*
X336693Y129322D01*
X337476Y129923D01*
X338078Y130707D01*
X338456Y131620D01*
X338585Y132600D01*
X338456Y133580D01*
X338078Y134493D01*
X337476Y135276D01*
X336693Y135878D01*
X335780Y136256D01*
X334800Y136385D01*
X312705D01*
X304485Y144605D01*
Y166832D01*
X310277Y172624D01*
X310277Y172624D01*
X310277Y172624D01*
X310878Y173407D01*
X310928Y173528D01*
X311700Y174300D01*
Y190300D01*
X309400Y192600D01*
X305828Y189028D01*
X305707Y188978D01*
X304924Y188376D01*
X304322Y187593D01*
X304272Y187472D01*
X304200Y187400D01*
Y187298D01*
X303944Y186680D01*
X303815Y185700D01*
Y176868D01*
X298024Y171077D01*
X297422Y170293D01*
X297155Y169647D01*
X297044Y169380D01*
X296915Y168400D01*
Y143037D01*
X297044Y142057D01*
X297100Y141922D01*
Y135300D01*
X290700Y128900D01*
X269754D01*
Y131142D01*
X272456Y133844D01*
X272508Y133911D01*
X272574Y133963D01*
X273018Y134541D01*
X273297Y135214D01*
X273392Y135937D01*
Y137958D01*
X273392Y137958D01*
X273392Y137958D01*
Y137958D01*
X273392D01*
X273392Y137958D01*
X273297Y138681D01*
X273274Y138737D01*
Y152298D01*
X274254D01*
Y158228D01*
X266946D01*
Y152298D01*
X267689D01*
Y138077D01*
Y136975D01*
X265116Y134402D01*
X262446D01*
Y134229D01*
X260804D01*
Y134402D01*
X253496D01*
Y134229D01*
X251854D01*
Y134402D01*
X244546D01*
Y133195D01*
X240876Y129525D01*
X234200Y136200D01*
Y200300D01*
X231100Y203400D01*
Y136300D01*
X223500Y128700D01*
X169302D01*
Y128700D01*
Y129046D01*
X169302Y129054D01*
X169302Y129054D01*
X169302D01*
Y129908D01*
X170396D01*
Y129572D01*
X177704D01*
Y129745D01*
X179271D01*
Y129572D01*
X186579D01*
Y129745D01*
X188146D01*
Y129572D01*
X195454D01*
Y129745D01*
X199163D01*
X199886Y129840D01*
X200559Y130119D01*
X201137Y130562D01*
X201581Y131141D01*
X201860Y131814D01*
X201955Y132537D01*
X201860Y133260D01*
X201581Y133933D01*
X201137Y134511D01*
X200559Y134955D01*
X199886Y135234D01*
X199163Y135329D01*
X195454D01*
Y135502D01*
X188146D01*
Y135329D01*
X186579D01*
Y135502D01*
X179271D01*
Y135329D01*
X177704D01*
Y135502D01*
X170396D01*
Y135492D01*
X169302D01*
Y136354D01*
X163372D01*
Y129054D01*
X163372Y129054D01*
X163372D01*
X163372Y129046D01*
X163026Y128700D01*
X161428D01*
Y128700D01*
Y129046D01*
X161428Y129054D01*
X161428Y129054D01*
X161428D01*
Y136354D01*
X158758D01*
X157792Y137320D01*
Y140700D01*
X157697Y141423D01*
X157418Y142096D01*
X156974Y142675D01*
X156396Y143118D01*
X155723Y143397D01*
X155000Y143492D01*
X154277Y143397D01*
X153604Y143118D01*
X153025Y142675D01*
X152582Y142096D01*
X152303Y141423D01*
X152208Y140700D01*
Y136163D01*
X152303Y135440D01*
X152582Y134767D01*
X153025Y134188D01*
X155498Y131716D01*
Y129054D01*
X155498Y129054D01*
X155498D01*
X155498Y129046D01*
X155152Y128700D01*
X134900D01*
X131900Y131700D01*
Y194400D01*
X138200Y200700D01*
Y204500D01*
X129400Y195700D01*
Y191574D01*
X128910Y191476D01*
X128578Y192277D01*
X127977Y193061D01*
X127193Y193662D01*
X126280Y194040D01*
X125300Y194169D01*
X124320Y194040D01*
X123407Y193662D01*
X122624Y193061D01*
X122022Y192277D01*
X121644Y191364D01*
X121515Y190384D01*
Y188416D01*
X121644Y187436D01*
X122022Y186523D01*
X122624Y185739D01*
X123407Y185138D01*
X124320Y184760D01*
X125153Y184650D01*
Y184150D01*
X124320Y184040D01*
X123407Y183662D01*
X122624Y183061D01*
X122022Y182277D01*
X121644Y181364D01*
X121515Y180384D01*
Y178416D01*
X121644Y177436D01*
X122022Y176523D01*
X122624Y175739D01*
X123407Y175138D01*
X124320Y174760D01*
X125300Y174631D01*
X126280Y174760D01*
X127193Y175138D01*
X127977Y175739D01*
X128578Y176523D01*
X128910Y177324D01*
X129400Y177226D01*
Y131900D01*
X126400Y128900D01*
X87800D01*
X83500Y133200D01*
Y146400D01*
X77400Y152500D01*
X68500D01*
X59000Y143000D01*
Y18900D01*
X40700Y600D01*
X3600D01*
X700Y3500D01*
X600Y230000D01*
X2500Y231900D01*
X139647D01*
X139838Y231438D01*
X140300Y231900D01*
X239900D01*
X240100Y232100D01*
X388300D01*
X391400Y229000D01*
D02*
G37*
%LPC*%
G36*
X306800Y105969D02*
X305820Y105840D01*
X304907Y105462D01*
X304123Y104861D01*
X303522Y104077D01*
X303144Y103164D01*
X303015Y102184D01*
Y100216D01*
X303144Y99236D01*
X303522Y98323D01*
X304123Y97539D01*
X304907Y96938D01*
X305820Y96560D01*
X306800Y96431D01*
X307780Y96560D01*
X308693Y96938D01*
X309476Y97539D01*
X310078Y98323D01*
X310456Y99236D01*
X310585Y100216D01*
Y102184D01*
X310456Y103164D01*
X310078Y104077D01*
X309476Y104861D01*
X308693Y105462D01*
X307780Y105840D01*
X306800Y105969D01*
D02*
G37*
G36*
X297400Y86720D02*
X296627Y86566D01*
X295972Y86128D01*
X295534Y85473D01*
X295380Y84700D01*
X295430Y84451D01*
X294871Y83892D01*
X294393Y84037D01*
X294266Y84673D01*
X293828Y85328D01*
X293173Y85766D01*
X292400Y85920D01*
X291627Y85766D01*
X290972Y85328D01*
X290534Y84673D01*
X290380Y83900D01*
X290534Y83127D01*
X290972Y82472D01*
X291183Y82331D01*
Y73400D01*
X291183Y73400D01*
X291183D01*
X291276Y72934D01*
X291539Y72539D01*
X293790Y70289D01*
X294026Y70131D01*
X294185Y70025D01*
X294281Y70006D01*
X295283Y69004D01*
Y64604D01*
X293063Y62384D01*
X291322D01*
X290856Y62291D01*
X290461Y62027D01*
X290252Y61818D01*
X289988Y61423D01*
X289896Y60957D01*
Y58151D01*
X289455Y57915D01*
X289253Y58050D01*
X288787Y58142D01*
X288184D01*
X287866Y58529D01*
X288020Y59300D01*
X287866Y60073D01*
X287428Y60728D01*
X286773Y61166D01*
X286021Y61316D01*
Y66370D01*
X281469D01*
Y63190D01*
X281082Y62872D01*
X280500Y62988D01*
X279949Y62879D01*
X279584Y63221D01*
X279647Y63700D01*
X279647Y63700D01*
Y69600D01*
Y71029D01*
X280023Y71359D01*
X280300Y71322D01*
X281093Y71426D01*
X281469Y71097D01*
Y66930D01*
X286021D01*
Y72270D01*
X286021Y72270D01*
D01*
X286773Y72634D01*
X286773D01*
X286773Y72634D01*
X287428Y73072D01*
X287866Y73727D01*
X288020Y74500D01*
X287866Y75273D01*
X287428Y75928D01*
X286773Y76366D01*
X286000Y76520D01*
X285406Y76402D01*
X285000Y76693D01*
X284915Y77337D01*
X284438Y78489D01*
X283679Y79479D01*
X282689Y80238D01*
X281537Y80715D01*
X280300Y80878D01*
X279063Y80715D01*
X277911Y80238D01*
X276922Y79479D01*
X276162Y78489D01*
X275685Y77337D01*
X275522Y76100D01*
X275619Y75368D01*
X274881Y74630D01*
X274437Y74051D01*
X274158Y73378D01*
X274063Y72655D01*
Y69600D01*
Y66092D01*
X270202D01*
Y66954D01*
X270029D01*
Y67646D01*
X270202D01*
Y74954D01*
X264272D01*
Y67646D01*
X264445D01*
Y66954D01*
X264272D01*
Y59646D01*
X270202D01*
Y60508D01*
X276455D01*
X277178Y60603D01*
X277851Y60882D01*
X278045Y61030D01*
X278487D01*
X278512Y61000D01*
X278663Y60239D01*
X279094Y59594D01*
X279739Y59163D01*
X280500Y59012D01*
X280908Y59093D01*
X280934Y59076D01*
X281400Y58983D01*
X281768D01*
X282408Y58343D01*
Y58316D01*
X282501Y57851D01*
X282765Y57456D01*
X284156Y56065D01*
X284551Y55801D01*
X285016Y55708D01*
X288283D01*
X289896Y54096D01*
Y44732D01*
X289955Y44434D01*
X289803Y44067D01*
X289708Y43345D01*
X289803Y42622D01*
X290082Y41949D01*
X290526Y41370D01*
X292230Y39666D01*
Y38669D01*
X293319D01*
X293504Y38526D01*
X294177Y38248D01*
X294900Y38152D01*
X295623Y38248D01*
X296296Y38526D01*
X296481Y38669D01*
X297570D01*
Y40156D01*
X297597Y40222D01*
X297692Y40945D01*
X297610Y41572D01*
X298058Y41793D01*
X302726Y37126D01*
X303304Y36682D01*
X303977Y36403D01*
X304700Y36308D01*
X305667D01*
X305764Y35817D01*
X304907Y35462D01*
X304123Y34861D01*
X303522Y34077D01*
X303487Y33992D01*
X298912D01*
X297570Y35334D01*
Y36331D01*
X296481D01*
X296296Y36474D01*
X295623Y36752D01*
X294900Y36848D01*
X294177Y36752D01*
X293504Y36474D01*
X293319Y36331D01*
X292230D01*
Y34844D01*
X292203Y34778D01*
X292108Y34055D01*
X292203Y33332D01*
X292230Y33267D01*
Y31779D01*
X293227D01*
X295781Y29226D01*
X296359Y28782D01*
X297032Y28503D01*
X297755Y28408D01*
X303487D01*
X303522Y28323D01*
X304123Y27539D01*
X304907Y26938D01*
X305820Y26560D01*
X306800Y26431D01*
X307780Y26560D01*
X308693Y26938D01*
X309476Y27539D01*
X310078Y28323D01*
X310456Y29236D01*
X310585Y30216D01*
Y32184D01*
X310492Y32889D01*
X310941Y33110D01*
X313015Y31036D01*
Y30216D01*
X313144Y29236D01*
X313522Y28323D01*
X314124Y27539D01*
X314907Y26938D01*
X315820Y26560D01*
X316800Y26431D01*
X317780Y26560D01*
X318693Y26938D01*
X319477Y27539D01*
X320078Y28323D01*
X320456Y29236D01*
X320585Y30216D01*
Y32184D01*
X320456Y33164D01*
X320078Y34077D01*
X319477Y34861D01*
X318693Y35462D01*
X317780Y35840D01*
X316800Y35969D01*
X316075Y35874D01*
X310875Y41074D01*
X310296Y41518D01*
X309623Y41797D01*
X308900Y41892D01*
X305857D01*
X304367Y43382D01*
X304282Y43811D01*
X304018Y44205D01*
X302630Y45593D01*
X302236Y45857D01*
X301807Y45942D01*
X300574Y47175D01*
X299996Y47618D01*
X299323Y47897D01*
X298600Y47992D01*
X297877Y47897D01*
X297698Y47823D01*
X293917Y51604D01*
Y55596D01*
X294804Y56483D01*
X300231D01*
X300372Y56272D01*
X301027Y55834D01*
X301800Y55680D01*
X302573Y55834D01*
X303228Y56272D01*
X303666Y56927D01*
X303820Y57700D01*
X303666Y58473D01*
X303228Y59128D01*
X302573Y59566D01*
X301800Y59720D01*
X301027Y59566D01*
X300372Y59128D01*
X300231Y58917D01*
X294300D01*
X293834Y58824D01*
X293439Y58561D01*
X292792Y57913D01*
X292330Y58104D01*
Y59950D01*
X293567D01*
X294033Y60042D01*
X294427Y60306D01*
X297361Y63239D01*
X297624Y63634D01*
X297717Y64100D01*
Y69508D01*
X297624Y69974D01*
X297361Y70369D01*
X295719Y72010D01*
X295324Y72274D01*
X295228Y72293D01*
X293617Y73904D01*
Y74557D01*
X293819Y74692D01*
X294079Y74800D01*
X297539Y71339D01*
X297934Y71076D01*
X298400Y70983D01*
X304796D01*
X308330Y67449D01*
X308280Y67200D01*
X308434Y66427D01*
X308872Y65772D01*
X309527Y65334D01*
X310300Y65180D01*
X311073Y65334D01*
X311728Y65772D01*
X312166Y66427D01*
X312320Y67200D01*
X312166Y67973D01*
X311728Y68628D01*
X311073Y69066D01*
X310300Y69220D01*
X310051Y69170D01*
X306161Y73061D01*
X305766Y73324D01*
X305300Y73417D01*
X298904D01*
X296117Y76204D01*
Y81696D01*
X297151Y82730D01*
X297400Y82680D01*
X298173Y82834D01*
X298828Y83272D01*
X299266Y83927D01*
X299420Y84700D01*
X299266Y85473D01*
X298828Y86128D01*
X298173Y86566D01*
X297400Y86720D01*
D02*
G37*
G36*
X316800Y105969D02*
X315820Y105840D01*
X314907Y105462D01*
X314124Y104861D01*
X313522Y104077D01*
X313144Y103164D01*
X313015Y102184D01*
Y100216D01*
X313144Y99236D01*
X313522Y98323D01*
X314124Y97539D01*
X314907Y96938D01*
X315820Y96560D01*
X316800Y96431D01*
X317780Y96560D01*
X318693Y96938D01*
X319477Y97539D01*
X320078Y98323D01*
X320456Y99236D01*
X320585Y100216D01*
Y102184D01*
X320456Y103164D01*
X320078Y104077D01*
X319477Y104861D01*
X318693Y105462D01*
X317780Y105840D01*
X316800Y105969D01*
D02*
G37*
G36*
X131747Y107220D02*
X130974Y107066D01*
X130319Y106628D01*
X130169Y106404D01*
X129655Y106061D01*
X129260Y106324D01*
X128795Y106417D01*
X128329Y106324D01*
X127934Y106061D01*
X127897Y106024D01*
X127400Y106073D01*
X127028Y106628D01*
X126373Y107066D01*
X125600Y107220D01*
X124827Y107066D01*
X124172Y106628D01*
X123734Y105973D01*
X123681Y105705D01*
X123265Y105427D01*
X122800Y105520D01*
X122274Y105415D01*
X121858Y105693D01*
X121802Y105973D01*
X121364Y106628D01*
X120709Y107066D01*
X119936Y107220D01*
X119163Y107066D01*
X118508Y106628D01*
X118070Y105973D01*
X117916Y105200D01*
X118070Y104427D01*
X118508Y103772D01*
X118719Y103631D01*
Y103005D01*
X118719Y103005D01*
X118719D01*
X118812Y102540D01*
X119076Y102145D01*
X120956Y100265D01*
X121351Y100001D01*
X121816Y99908D01*
X122371D01*
X138283Y83996D01*
Y82469D01*
X138072Y82328D01*
X137634Y81673D01*
X137480Y80900D01*
X137634Y80127D01*
X137825Y79842D01*
X137507Y79455D01*
X136923Y79697D01*
X136200Y79792D01*
X135477Y79697D01*
X134804Y79418D01*
X134225Y78974D01*
X133782Y78396D01*
X133503Y77723D01*
X133408Y77000D01*
Y59100D01*
X133503Y58377D01*
X133782Y57704D01*
X134225Y57126D01*
X134804Y56682D01*
X135477Y56403D01*
X136200Y56308D01*
X136923Y56403D01*
X137596Y56682D01*
X138174Y57126D01*
X138618Y57704D01*
X138897Y58377D01*
X138992Y59100D01*
Y77000D01*
X138897Y77723D01*
X138618Y78396D01*
X138449Y78617D01*
X138727Y79034D01*
X139500Y78880D01*
X140273Y79034D01*
X140928Y79472D01*
X141366Y80127D01*
X141415Y80373D01*
X141905Y80471D01*
X141972Y80372D01*
X142627Y79934D01*
X143400Y79780D01*
X144173Y79934D01*
X144828Y80372D01*
X145217Y80953D01*
X145637D01*
X145729Y80935D01*
X145972Y80572D01*
X146627Y80134D01*
X147400Y79980D01*
X148173Y80134D01*
X148828Y80572D01*
X149265Y81226D01*
X149763Y81274D01*
X149998Y81039D01*
X150235Y80881D01*
X150393Y80776D01*
X150858Y80683D01*
X151097D01*
X151372Y80272D01*
X152027Y79834D01*
X152800Y79680D01*
X153573Y79834D01*
X154228Y80272D01*
X154433Y80578D01*
X154923Y80480D01*
X154934Y80427D01*
X155372Y79772D01*
X156027Y79334D01*
X156800Y79180D01*
X157573Y79334D01*
X157875Y79536D01*
X158334Y79627D01*
X158772Y78972D01*
X159427Y78534D01*
X160200Y78380D01*
X160973Y78534D01*
X161628Y78972D01*
X162066Y79627D01*
X162220Y80400D01*
X162066Y81173D01*
X161628Y81828D01*
X161500Y81914D01*
X161361Y82123D01*
X160210Y83273D01*
X159815Y83537D01*
X159609Y83578D01*
X158971Y84217D01*
X159000Y84365D01*
X159702Y84504D01*
X160298Y84902D01*
X160696Y85498D01*
X160835Y86200D01*
X160696Y86902D01*
X160298Y87498D01*
X159702Y87896D01*
X159000Y88035D01*
X158298Y87896D01*
X157702Y87498D01*
X157648Y87417D01*
X156756D01*
X153794Y90380D01*
X153399Y90643D01*
X152933Y90736D01*
X148773D01*
X138365Y101144D01*
Y101729D01*
X138728Y101972D01*
X139166Y102627D01*
X139320Y103400D01*
X139166Y104173D01*
X138728Y104828D01*
X138073Y105266D01*
X137300Y105420D01*
X136527Y105266D01*
X135872Y104828D01*
X135844Y104787D01*
X135353Y104689D01*
X134911Y104985D01*
X134138Y105139D01*
X133880Y105087D01*
X133767Y105200D01*
X133613Y105973D01*
X133176Y106628D01*
X132520Y107066D01*
X131747Y107220D01*
D02*
G37*
G36*
X326800Y105969D02*
X325820Y105840D01*
X324907Y105462D01*
X324124Y104861D01*
X323522Y104077D01*
X323144Y103164D01*
X323015Y102184D01*
Y100216D01*
X323144Y99236D01*
X323522Y98323D01*
X324124Y97539D01*
X324907Y96938D01*
X325820Y96560D01*
X326800Y96431D01*
X327780Y96560D01*
X328693Y96938D01*
X329476Y97539D01*
X330078Y98323D01*
X330456Y99236D01*
X330585Y100216D01*
Y102184D01*
X330456Y103164D01*
X330078Y104077D01*
X329476Y104861D01*
X328693Y105462D01*
X327780Y105840D01*
X326800Y105969D01*
D02*
G37*
G36*
X184100Y90578D02*
X182863Y90415D01*
X181711Y89938D01*
X180721Y89179D01*
X179962Y88189D01*
X179485Y87037D01*
X179322Y85800D01*
X179442Y84893D01*
X175077Y80528D01*
X171346D01*
Y80355D01*
X170654D01*
Y80528D01*
X163346D01*
Y74598D01*
X170654D01*
Y74771D01*
X171346D01*
Y74598D01*
X171508D01*
Y67500D01*
X171603Y66777D01*
X171882Y66104D01*
X172326Y65526D01*
X172904Y65082D01*
X173577Y64803D01*
X174300Y64708D01*
X175023Y64803D01*
X175696Y65082D01*
X176275Y65526D01*
X176718Y66104D01*
X176997Y66777D01*
X177092Y67500D01*
Y74598D01*
X178654D01*
Y76207D01*
X183543Y81095D01*
X184100Y81022D01*
X185337Y81185D01*
X186489Y81662D01*
X187478Y82421D01*
X188238Y83411D01*
X188715Y84563D01*
X188878Y85800D01*
X188715Y87037D01*
X188238Y88189D01*
X187478Y89179D01*
X186489Y89938D01*
X185337Y90415D01*
X184100Y90578D01*
D02*
G37*
G36*
X159600Y60220D02*
X158827Y60066D01*
X158172Y59628D01*
X157734Y58973D01*
X157580Y58200D01*
X157734Y57427D01*
X157816Y57305D01*
X157499Y56918D01*
X157232Y57028D01*
X156509Y57124D01*
X155787Y57028D01*
X155113Y56749D01*
X154535Y56306D01*
X154091Y55727D01*
X154086Y55714D01*
X153603Y55585D01*
X153169Y55918D01*
X152495Y56197D01*
X151772Y56292D01*
X151050Y56197D01*
X150376Y55918D01*
X149798Y55475D01*
X149354Y54896D01*
X149075Y54223D01*
X148980Y53500D01*
Y50437D01*
X145200D01*
X144477Y50342D01*
X143804Y50063D01*
X143619Y49921D01*
X142530D01*
Y48433D01*
X142503Y48368D01*
X142421Y47745D01*
X141947Y47585D01*
X141886Y47646D01*
X141718Y48051D01*
X141274Y48630D01*
X140696Y49073D01*
X140023Y49352D01*
X139300Y49448D01*
X138577Y49352D01*
X137904Y49073D01*
X137326Y48630D01*
X136882Y48051D01*
X136603Y47378D01*
X136508Y46655D01*
Y46283D01*
X136603Y45560D01*
X136882Y44887D01*
X137326Y44309D01*
X142530Y39104D01*
Y38479D01*
X143247D01*
X143432Y38337D01*
X144105Y38058D01*
X144828Y37963D01*
X145200D01*
X145923Y38058D01*
X146596Y38337D01*
X146781Y38479D01*
X147870D01*
Y39967D01*
X147897Y40032D01*
X147992Y40755D01*
X147897Y41478D01*
X147870Y41543D01*
Y43031D01*
X146781D01*
X146596Y43173D01*
X146191Y43341D01*
X145028Y44504D01*
X145200Y44853D01*
X148696D01*
X149013Y44466D01*
X148980Y44300D01*
X149134Y43527D01*
X149572Y42872D01*
X150227Y42434D01*
X151000Y42280D01*
X151773Y42434D01*
X152428Y42872D01*
X152866Y43527D01*
X153020Y44300D01*
X152898Y44913D01*
X152923Y44948D01*
X153596Y45227D01*
X153781Y45368D01*
X154862D01*
Y45368D01*
X154870D01*
Y45368D01*
X155144Y45333D01*
X155322Y45100D01*
D01*
D01*
D01*
X155485Y43863D01*
X155962Y42711D01*
X156721Y41721D01*
X157711Y40962D01*
X158863Y40485D01*
X160100Y40322D01*
X161337Y40485D01*
X162489Y40962D01*
X163479Y41721D01*
X164238Y42711D01*
X164715Y43863D01*
X164878Y45100D01*
X164781Y45832D01*
X166358Y47409D01*
X171954D01*
Y47582D01*
X172646D01*
Y47409D01*
X179954D01*
Y53339D01*
X172646D01*
Y53166D01*
X171954D01*
Y53339D01*
X167771D01*
X167553Y53747D01*
X167707Y54520D01*
X167553Y55293D01*
X167115Y55949D01*
X166460Y56387D01*
X165687Y56540D01*
X165437Y56491D01*
X162868Y59061D01*
X162473Y59324D01*
X162007Y59417D01*
X161169D01*
X161028Y59628D01*
X160373Y60066D01*
X159600Y60220D01*
D02*
G37*
G36*
X210400Y53578D02*
X209163Y53415D01*
X208011Y52938D01*
X207021Y52179D01*
X206262Y51189D01*
X205785Y50037D01*
X205622Y48800D01*
X205785Y47563D01*
X206262Y46411D01*
X207021Y45421D01*
X208011Y44662D01*
X209163Y44185D01*
X210400Y44022D01*
X211637Y44185D01*
X212789Y44662D01*
X213778Y45421D01*
X214538Y46411D01*
X215015Y47563D01*
X215178Y48800D01*
X215015Y50037D01*
X214538Y51189D01*
X213778Y52179D01*
X212789Y52938D01*
X211637Y53415D01*
X210400Y53578D01*
D02*
G37*
G36*
X182000Y46620D02*
X181227Y46466D01*
X180572Y46028D01*
X180134Y45373D01*
X179980Y44600D01*
X180134Y43827D01*
X180572Y43172D01*
X180983Y42897D01*
Y36669D01*
X180772Y36528D01*
X180334Y35873D01*
X180180Y35100D01*
X180334Y34327D01*
X180772Y33672D01*
X181427Y33234D01*
X182200Y33080D01*
X182973Y33234D01*
X183628Y33672D01*
X184066Y34327D01*
X184220Y35100D01*
X184066Y35873D01*
X183628Y36528D01*
X183417Y36669D01*
Y43164D01*
X183428Y43172D01*
X183866Y43827D01*
X184020Y44600D01*
X183866Y45373D01*
X183428Y46028D01*
X182773Y46466D01*
X182000Y46620D01*
D02*
G37*
G36*
X210400Y88978D02*
X209163Y88815D01*
X208011Y88338D01*
X207021Y87578D01*
X206262Y86589D01*
X205785Y85437D01*
X205622Y84200D01*
X205785Y82963D01*
X206262Y81811D01*
X207021Y80822D01*
X208011Y80062D01*
X209163Y79585D01*
X210400Y79422D01*
X211637Y79585D01*
X212789Y80062D01*
X213778Y80822D01*
X214538Y81811D01*
X215015Y82963D01*
X215178Y84200D01*
X215015Y85437D01*
X214538Y86589D01*
X213778Y87578D01*
X212789Y88338D01*
X211637Y88815D01*
X210400Y88978D01*
D02*
G37*
G36*
X354600Y75488D02*
X353839Y75337D01*
X353194Y74906D01*
X352763Y74261D01*
X352612Y73500D01*
X352763Y72739D01*
X353194Y72094D01*
X353839Y71663D01*
X354600Y71512D01*
X355361Y71663D01*
X356006Y72094D01*
X356437Y72739D01*
X356588Y73500D01*
X356437Y74261D01*
X356006Y74906D01*
X355361Y75337D01*
X354600Y75488D01*
D02*
G37*
G36*
X358800Y70048D02*
X354355D01*
X353632Y69952D01*
X352959Y69674D01*
X352381Y69230D01*
X351937Y68651D01*
X351658Y67978D01*
X351563Y67255D01*
X351658Y66532D01*
X351937Y65859D01*
X352381Y65281D01*
X352959Y64837D01*
X353632Y64558D01*
X354355Y64463D01*
X358800D01*
X359523Y64558D01*
X360196Y64837D01*
X360774Y65281D01*
X360927Y65479D01*
X361470D01*
Y66467D01*
X361497Y66532D01*
X361592Y67255D01*
X361497Y67978D01*
X361470Y68044D01*
Y70031D01*
X358922D01*
X358800Y70048D01*
D02*
G37*
G36*
X105300Y194169D02*
X104320Y194040D01*
X103407Y193662D01*
X102623Y193061D01*
X102022Y192277D01*
X101644Y191364D01*
X101515Y190384D01*
Y188416D01*
X101644Y187436D01*
X102022Y186523D01*
X102623Y185739D01*
X103407Y185138D01*
X104320Y184760D01*
X105153Y184650D01*
Y184150D01*
X104320Y184040D01*
X103407Y183662D01*
X102623Y183061D01*
X102022Y182277D01*
X101644Y181364D01*
X101515Y180384D01*
Y178416D01*
X101644Y177436D01*
X102022Y176523D01*
X102623Y175739D01*
X103407Y175138D01*
X104320Y174760D01*
X105300Y174631D01*
X106280Y174760D01*
X107193Y175138D01*
X107976Y175739D01*
X108578Y176523D01*
X108956Y177436D01*
X109085Y178416D01*
Y180384D01*
X108956Y181364D01*
X108578Y182277D01*
X107976Y183061D01*
X107193Y183662D01*
X106280Y184040D01*
X105447Y184150D01*
Y184650D01*
X106280Y184760D01*
X107193Y185138D01*
X107976Y185739D01*
X108578Y186523D01*
X108956Y187436D01*
X109085Y188416D01*
Y190384D01*
X108956Y191364D01*
X108578Y192277D01*
X107976Y193061D01*
X107193Y193662D01*
X106280Y194040D01*
X105300Y194169D01*
D02*
G37*
G36*
X95300D02*
X94320Y194040D01*
X93407Y193662D01*
X92624Y193061D01*
X92022Y192277D01*
X91644Y191364D01*
X91515Y190384D01*
Y188416D01*
X91644Y187436D01*
X92022Y186523D01*
X92624Y185739D01*
X93407Y185138D01*
X94320Y184760D01*
X95153Y184650D01*
Y184150D01*
X94320Y184040D01*
X93407Y183662D01*
X92624Y183061D01*
X92022Y182277D01*
X91644Y181364D01*
X91515Y180384D01*
Y178416D01*
X91644Y177436D01*
X92022Y176523D01*
X92624Y175739D01*
X93407Y175138D01*
X94320Y174760D01*
X95300Y174631D01*
X96280Y174760D01*
X97193Y175138D01*
X97976Y175739D01*
X98578Y176523D01*
X98956Y177436D01*
X99085Y178416D01*
Y180384D01*
X98956Y181364D01*
X98578Y182277D01*
X97976Y183061D01*
X97193Y183662D01*
X96280Y184040D01*
X95447Y184150D01*
Y184650D01*
X96280Y184760D01*
X97193Y185138D01*
X97976Y185739D01*
X98578Y186523D01*
X98956Y187436D01*
X99085Y188416D01*
Y190384D01*
X98956Y191364D01*
X98578Y192277D01*
X97976Y193061D01*
X97193Y193662D01*
X96280Y194040D01*
X95300Y194169D01*
D02*
G37*
G36*
X85300D02*
X84320Y194040D01*
X83407Y193662D01*
X82623Y193061D01*
X82022Y192277D01*
X81644Y191364D01*
X81515Y190384D01*
Y188416D01*
X81644Y187436D01*
X82022Y186523D01*
X82623Y185739D01*
X83407Y185138D01*
X84320Y184760D01*
X85153Y184650D01*
Y184150D01*
X84320Y184040D01*
X83407Y183662D01*
X82623Y183061D01*
X82022Y182277D01*
X81644Y181364D01*
X81515Y180384D01*
Y178416D01*
X81644Y177436D01*
X82022Y176523D01*
X82623Y175739D01*
X83407Y175138D01*
X84320Y174760D01*
X85300Y174631D01*
X86280Y174760D01*
X87193Y175138D01*
X87976Y175739D01*
X88578Y176523D01*
X88956Y177436D01*
X89085Y178416D01*
Y180384D01*
X88956Y181364D01*
X88578Y182277D01*
X87976Y183061D01*
X87193Y183662D01*
X86280Y184040D01*
X85447Y184150D01*
Y184650D01*
X86280Y184760D01*
X87193Y185138D01*
X87976Y185739D01*
X88578Y186523D01*
X88956Y187436D01*
X89085Y188416D01*
Y190384D01*
X88956Y191364D01*
X88578Y192277D01*
X87976Y193061D01*
X87193Y193662D01*
X86280Y194040D01*
X85300Y194169D01*
D02*
G37*
G36*
X168750Y221421D02*
X163029D01*
X160169Y218561D01*
Y212839D01*
X163029Y209979D01*
X168750D01*
X171611Y212839D01*
Y218561D01*
X168750Y221421D01*
D02*
G37*
G36*
X35300Y194169D02*
X34320Y194040D01*
X33407Y193662D01*
X32623Y193061D01*
X32022Y192277D01*
X31644Y191364D01*
X31515Y190384D01*
Y188416D01*
X31644Y187436D01*
X32022Y186523D01*
X32623Y185739D01*
X33407Y185138D01*
X34320Y184760D01*
X35260Y184636D01*
Y184636D01*
Y184636D01*
X35227Y184137D01*
X31547D01*
Y174663D01*
X39053D01*
Y184137D01*
X35373D01*
X35340Y184636D01*
X36280Y184760D01*
X37193Y185138D01*
X37977Y185739D01*
X38578Y186523D01*
X38956Y187436D01*
X39085Y188416D01*
Y190384D01*
X38956Y191364D01*
X38578Y192277D01*
X37977Y193061D01*
X37193Y193662D01*
X36280Y194040D01*
X35300Y194169D01*
D02*
G37*
G36*
X115300D02*
X114320Y194040D01*
X113407Y193662D01*
X112624Y193061D01*
X112022Y192277D01*
X111644Y191364D01*
X111515Y190384D01*
Y188416D01*
X111644Y187436D01*
X112022Y186523D01*
X112624Y185739D01*
X113407Y185138D01*
X114320Y184760D01*
X115153Y184650D01*
Y184150D01*
X114320Y184040D01*
X113407Y183662D01*
X112624Y183061D01*
X112022Y182277D01*
X111644Y181364D01*
X111515Y180384D01*
Y178416D01*
X111644Y177436D01*
X112022Y176523D01*
X112624Y175739D01*
X113407Y175138D01*
X114320Y174760D01*
X115300Y174631D01*
X116280Y174760D01*
X117193Y175138D01*
X117976Y175739D01*
X118578Y176523D01*
X118956Y177436D01*
X119085Y178416D01*
Y180384D01*
X118956Y181364D01*
X118578Y182277D01*
X117976Y183061D01*
X117193Y183662D01*
X116280Y184040D01*
X115447Y184150D01*
Y184650D01*
X116280Y184760D01*
X117193Y185138D01*
X117976Y185739D01*
X118578Y186523D01*
X118956Y187436D01*
X119085Y188416D01*
Y190384D01*
X118956Y191364D01*
X118578Y192277D01*
X117976Y193061D01*
X117193Y193662D01*
X116280Y194040D01*
X115300Y194169D01*
D02*
G37*
G36*
X75300D02*
X74320Y194040D01*
X73407Y193662D01*
X72623Y193061D01*
X72022Y192277D01*
X71644Y191364D01*
X71515Y190384D01*
Y188416D01*
X71644Y187436D01*
X72022Y186523D01*
X72623Y185739D01*
X73407Y185138D01*
X74320Y184760D01*
X75153Y184650D01*
Y184150D01*
X74320Y184040D01*
X73407Y183662D01*
X72623Y183061D01*
X72022Y182277D01*
X71644Y181364D01*
X71515Y180384D01*
Y178416D01*
X71644Y177436D01*
X72022Y176523D01*
X72623Y175739D01*
X73407Y175138D01*
X74320Y174760D01*
X75300Y174631D01*
X76280Y174760D01*
X77193Y175138D01*
X77977Y175739D01*
X78578Y176523D01*
X78956Y177436D01*
X79085Y178416D01*
Y180384D01*
X78956Y181364D01*
X78578Y182277D01*
X77977Y183061D01*
X77193Y183662D01*
X76280Y184040D01*
X75447Y184150D01*
Y184650D01*
X76280Y184760D01*
X77193Y185138D01*
X77977Y185739D01*
X78578Y186523D01*
X78956Y187436D01*
X79085Y188416D01*
Y190384D01*
X78956Y191364D01*
X78578Y192277D01*
X77977Y193061D01*
X77193Y193662D01*
X76280Y194040D01*
X75300Y194169D01*
D02*
G37*
G36*
X267537Y168992D02*
X267300D01*
X266577Y168897D01*
X265904Y168618D01*
X265325Y168175D01*
X264882Y167596D01*
X264603Y166923D01*
X264508Y166200D01*
X264603Y165477D01*
X264882Y164804D01*
X265325Y164225D01*
X265904Y163782D01*
X266079Y163709D01*
X266946Y162842D01*
Y160172D01*
X274254D01*
Y166102D01*
X271584D01*
X269512Y168175D01*
X268933Y168618D01*
X268260Y168897D01*
X267537Y168992D01*
D02*
G37*
G36*
X214300Y157185D02*
X147600D01*
X146620Y157056D01*
X145707Y156678D01*
X144923Y156077D01*
X144322Y155293D01*
X143944Y154380D01*
X143815Y153400D01*
X143944Y152420D01*
X144322Y151507D01*
X144923Y150724D01*
X145707Y150122D01*
X146620Y149744D01*
X147600Y149615D01*
X214300D01*
X215280Y149744D01*
X216193Y150122D01*
X216976Y150724D01*
X217578Y151507D01*
X217956Y152420D01*
X218085Y153400D01*
X217956Y154380D01*
X217578Y155293D01*
X216976Y156077D01*
X216193Y156678D01*
X215280Y157056D01*
X214300Y157185D01*
D02*
G37*
G36*
X378061Y152732D02*
X372339D01*
X369479Y149871D01*
Y144150D01*
X372339Y141289D01*
X378061D01*
X380921Y144150D01*
Y149871D01*
X378061Y152732D01*
D02*
G37*
G36*
X65300Y194169D02*
X64320Y194040D01*
X63407Y193662D01*
X62624Y193061D01*
X62022Y192277D01*
X61644Y191364D01*
X61515Y190384D01*
Y188416D01*
X61644Y187436D01*
X62022Y186523D01*
X62624Y185739D01*
X63407Y185138D01*
X64320Y184760D01*
X65153Y184650D01*
Y184150D01*
X64320Y184040D01*
X63407Y183662D01*
X62624Y183061D01*
X62022Y182277D01*
X61644Y181364D01*
X61515Y180384D01*
Y178416D01*
X61644Y177436D01*
X62022Y176523D01*
X62624Y175739D01*
X63407Y175138D01*
X64320Y174760D01*
X65300Y174631D01*
X66280Y174760D01*
X67193Y175138D01*
X67976Y175739D01*
X68578Y176523D01*
X68956Y177436D01*
X69085Y178416D01*
Y180384D01*
X68956Y181364D01*
X68578Y182277D01*
X67976Y183061D01*
X67193Y183662D01*
X66280Y184040D01*
X65447Y184150D01*
Y184650D01*
X66280Y184760D01*
X67193Y185138D01*
X67976Y185739D01*
X68578Y186523D01*
X68956Y187436D01*
X69085Y188416D01*
Y190384D01*
X68956Y191364D01*
X68578Y192277D01*
X67976Y193061D01*
X67193Y193662D01*
X66280Y194040D01*
X65300Y194169D01*
D02*
G37*
G36*
X55300D02*
X54320Y194040D01*
X53407Y193662D01*
X52623Y193061D01*
X52022Y192277D01*
X51644Y191364D01*
X51515Y190384D01*
Y188416D01*
X51644Y187436D01*
X52022Y186523D01*
X52623Y185739D01*
X53407Y185138D01*
X54320Y184760D01*
X55153Y184650D01*
Y184150D01*
X54320Y184040D01*
X53407Y183662D01*
X52623Y183061D01*
X52022Y182277D01*
X51644Y181364D01*
X51515Y180384D01*
Y178416D01*
X51644Y177436D01*
X52022Y176523D01*
X52623Y175739D01*
X53407Y175138D01*
X54320Y174760D01*
X55300Y174631D01*
X56280Y174760D01*
X57193Y175138D01*
X57977Y175739D01*
X58578Y176523D01*
X58956Y177436D01*
X59085Y178416D01*
Y180384D01*
X58956Y181364D01*
X58578Y182277D01*
X57977Y183061D01*
X57193Y183662D01*
X56280Y184040D01*
X55447Y184150D01*
Y184650D01*
X56280Y184760D01*
X57193Y185138D01*
X57977Y185739D01*
X58578Y186523D01*
X58956Y187436D01*
X59085Y188416D01*
Y190384D01*
X58956Y191364D01*
X58578Y192277D01*
X57977Y193061D01*
X57193Y193662D01*
X56280Y194040D01*
X55300Y194169D01*
D02*
G37*
G36*
X45300D02*
X44320Y194040D01*
X43407Y193662D01*
X42623Y193061D01*
X42022Y192277D01*
X41644Y191364D01*
X41515Y190384D01*
Y188416D01*
X41644Y187436D01*
X42022Y186523D01*
X42623Y185739D01*
X43407Y185138D01*
X44320Y184760D01*
X45153Y184650D01*
Y184150D01*
X44320Y184040D01*
X43407Y183662D01*
X42623Y183061D01*
X42022Y182277D01*
X41644Y181364D01*
X41515Y180384D01*
Y178416D01*
X41644Y177436D01*
X42022Y176523D01*
X42623Y175739D01*
X43407Y175138D01*
X44320Y174760D01*
X45300Y174631D01*
X46280Y174760D01*
X47193Y175138D01*
X47976Y175739D01*
X48578Y176523D01*
X48956Y177436D01*
X49085Y178416D01*
Y180384D01*
X48956Y181364D01*
X48578Y182277D01*
X47976Y183061D01*
X47193Y183662D01*
X46280Y184040D01*
X45447Y184150D01*
Y184650D01*
X46280Y184760D01*
X47193Y185138D01*
X47976Y185739D01*
X48578Y186523D01*
X48956Y187436D01*
X49085Y188416D01*
Y190384D01*
X48956Y191364D01*
X48578Y192277D01*
X47976Y193061D01*
X47193Y193662D01*
X46280Y194040D01*
X45300Y194169D01*
D02*
G37*
%LPD*%
D11*
X11316Y118850D02*
D03*
Y91350D02*
D03*
X11300Y16050D02*
D03*
Y43550D02*
D03*
D12*
X358800Y74645D02*
D03*
Y67755D02*
D03*
X152200Y40755D02*
D03*
Y47645D02*
D03*
X145200Y40755D02*
D03*
Y47645D02*
D03*
X294900Y40945D02*
D03*
Y34055D02*
D03*
D13*
X283745Y63700D02*
D03*
X276855D02*
D03*
X283745Y69600D02*
D03*
X276855D02*
D03*
D14*
X327200Y124663D02*
D03*
Y132537D02*
D03*
X319200Y124663D02*
D03*
Y132537D02*
D03*
X311200Y124663D02*
D03*
Y132537D02*
D03*
X266100Y123563D02*
D03*
Y131437D02*
D03*
X257150Y123563D02*
D03*
Y131437D02*
D03*
X248200Y123563D02*
D03*
Y131437D02*
D03*
X174050Y124663D02*
D03*
Y132537D02*
D03*
X182925Y124663D02*
D03*
Y132537D02*
D03*
X191800Y124663D02*
D03*
Y132537D02*
D03*
X175000Y85437D02*
D03*
Y77563D02*
D03*
X167000Y85437D02*
D03*
Y77563D02*
D03*
X176300Y42500D02*
D03*
Y50374D02*
D03*
X168300Y42500D02*
D03*
Y50374D02*
D03*
X345800Y132837D02*
D03*
Y124963D02*
D03*
X277400Y131624D02*
D03*
Y123750D02*
D03*
X270600Y163137D02*
D03*
Y155263D02*
D03*
X210600Y132937D02*
D03*
Y125063D02*
D03*
D15*
X259363Y63300D02*
D03*
X267237D02*
D03*
X259363Y71300D02*
D03*
X267237D02*
D03*
X158463Y132700D02*
D03*
X166337D02*
D03*
D31*
X276455Y63300D02*
X276855Y63700D01*
X267237Y63300D02*
X276455D01*
X151772Y48072D02*
Y53500D01*
Y48072D02*
X152200Y47645D01*
X174300Y67500D02*
Y76863D01*
X175000Y77563D01*
X167000D02*
X175000D01*
X354355Y67255D02*
X358800D01*
X267237Y63300D02*
Y71300D01*
X267537Y166200D02*
X270600Y163137D01*
X267300Y166200D02*
X267537D01*
X297755Y31200D02*
X306800D01*
X294900Y34055D02*
X297755Y31200D01*
X292500Y43345D02*
X294900Y40945D01*
X308900Y39100D02*
X316800Y31200D01*
X304700Y39100D02*
X308900D01*
X298600Y45200D02*
X304700Y39100D01*
X136200Y59100D02*
Y77000D01*
X145200Y47645D02*
X152200D01*
X168300Y50374D02*
X176300D01*
X160100Y45100D02*
X165374Y50374D01*
X168300D01*
X155000Y136163D02*
Y140700D01*
Y136163D02*
X158463Y132700D01*
X166337D02*
X173887D01*
X174050Y132537D01*
X182925D01*
X191800D01*
X199163D01*
X248200Y131437D02*
X257150D01*
X266100D01*
X276855Y63700D02*
Y69600D01*
Y72655D01*
X280300Y76100D01*
X156509Y52197D02*
X160100Y48607D01*
Y45100D02*
Y48607D01*
X156509Y52197D02*
Y54331D01*
X184100Y85602D02*
Y85800D01*
X176061Y77563D02*
X184100Y85602D01*
X175000Y77563D02*
X176061D01*
X240400Y115100D02*
Y125100D01*
X246737Y131437D01*
X248200D01*
X139300Y46283D02*
X144828Y40755D01*
X139300Y46283D02*
Y46655D01*
X144828Y40755D02*
X145200D01*
X270600Y135937D02*
Y137958D01*
X266100Y131437D02*
X270481Y135819D01*
Y155145D02*
X270600Y155263D01*
X270481Y135819D02*
Y138077D01*
Y155145D01*
Y138077D02*
X270600Y137958D01*
D32*
X283745Y61555D02*
X286000Y59300D01*
X283745Y61555D02*
Y63700D01*
X152200Y47645D02*
X152700Y48145D01*
X283745Y69600D02*
Y72245D01*
X286000Y74500D01*
X294900Y82200D02*
X297400Y84700D01*
X294900Y75700D02*
Y82200D01*
Y75700D02*
X298400Y72200D01*
X305300D01*
X310300Y67200D01*
X292400Y73400D02*
Y83900D01*
X137147Y103247D02*
X137300Y103400D01*
X151000Y46445D02*
X152200Y47645D01*
X62278Y137578D02*
X69500Y144800D01*
X292700Y51100D02*
X298600Y45200D01*
X292700Y51100D02*
Y56100D01*
X294300Y57700D01*
X301800D01*
X291113Y60957D02*
X291322Y61167D01*
X291113Y44732D02*
X292500Y43345D01*
X291322Y61167D02*
X293567D01*
X296500Y64100D01*
X294650Y71150D02*
X294859D01*
X292400Y73400D02*
X294650Y71150D01*
X296500Y64100D02*
Y69508D01*
X294859Y71150D02*
X296500Y69508D01*
X283625Y58316D02*
X285016Y56925D01*
X283625Y58316D02*
Y58847D01*
X282272Y60200D02*
X283625Y58847D01*
X281400Y60200D02*
X282272D01*
X285016Y56925D02*
X288787D01*
X291113Y54600D01*
Y44732D02*
Y54600D01*
Y60957D01*
X181900Y35100D02*
X182200D01*
Y44400D01*
X182000Y44600D02*
X182200Y44400D01*
X162007Y58200D02*
X165687Y54520D01*
X159600Y58200D02*
X162007D01*
X152500Y53600D02*
X152700D01*
X141958Y81800D02*
X143400D01*
X146558Y82000D02*
X147400D01*
X141087Y82671D02*
X141958Y81800D01*
X146429Y84375D02*
X148384D01*
X150858Y81900D02*
X153000D01*
X148384Y84375D02*
X150858Y81900D01*
X135949Y97349D02*
X146953Y86344D01*
X151618D01*
X156162Y81800D01*
X156900Y81300D02*
Y81800D01*
X156800Y81200D02*
X156900Y81300D01*
X152800Y81700D02*
X153000Y81900D01*
X147611Y87932D02*
X152276D01*
X139500Y80900D02*
Y84500D01*
X141087Y82671D02*
Y85158D01*
X143628Y84862D02*
X143696D01*
X146558Y82000D01*
X144354Y86450D02*
X146429Y84375D01*
X144354Y86450D02*
Y86699D01*
X137147Y100640D02*
Y103247D01*
X148268Y89519D02*
X152933D01*
X134138Y101405D02*
X147611Y87932D01*
X137147Y100640D02*
X148268Y89519D01*
X148100Y5700D02*
X149700Y7300D01*
X75800Y4100D02*
X150400D01*
X62278Y19867D02*
Y137578D01*
Y19867D02*
X76445Y5700D01*
X148100D01*
X60690Y19209D02*
X75800Y4100D01*
X60690Y19209D02*
Y139349D01*
X69500Y148159D02*
Y148200D01*
X60690Y139349D02*
X69500Y148159D01*
X301770Y44732D02*
X303157Y43345D01*
X151000Y44100D02*
Y44300D01*
Y46445D01*
X152700Y48145D02*
Y53600D01*
X125600Y105200D02*
X125842D01*
X119936Y103005D02*
Y105200D01*
X134138Y101405D02*
Y103119D01*
X128795Y102258D02*
Y105200D01*
X128674Y105079D02*
X128795Y105200D01*
X128674Y103802D02*
Y105079D01*
X131747Y101550D02*
X135949Y97349D01*
X131747Y101550D02*
Y105200D01*
X128795Y102258D02*
X144354Y86699D01*
X121816Y101125D02*
X122875D01*
X139500Y84500D01*
X122889Y103356D02*
X141087Y85158D01*
X119936Y103005D02*
X121816Y101125D01*
X125842Y102648D02*
Y105200D01*
Y102648D02*
X143628Y84862D01*
X156162Y81800D02*
X156900D01*
X181800Y44000D02*
X182000D01*
X160400Y80400D02*
X160500Y80500D01*
X160200Y80400D02*
X160400D01*
X160500Y80500D02*
Y81262D01*
X152276Y87932D02*
X156451Y83756D01*
X157797D01*
X157797Y83756D01*
Y83669D02*
Y83756D01*
Y83669D02*
X159053Y82413D01*
X159350D01*
X160500Y81262D01*
X152933Y89519D02*
X156252Y86200D01*
X159000D01*
D33*
X300700Y143037D02*
X311200Y132537D01*
X300700Y143037D02*
Y168400D01*
X307600Y175300D01*
Y185700D01*
X311200Y132537D02*
X319200D01*
X327200D01*
X311200D02*
X311263Y132600D01*
X334800D01*
X147600Y153400D02*
X214300D01*
D34*
X0Y0D02*
Y233100D01*
X392500D01*
Y0D02*
Y233100D01*
X0Y0D02*
X392500D01*
D35*
X383961Y10600D02*
D03*
X354039D02*
D03*
D36*
X369000Y41309D02*
D03*
X184100Y85800D02*
D03*
X160100Y45100D02*
D03*
X280300Y76100D02*
D03*
X210400Y48800D02*
D03*
Y84200D02*
D03*
D37*
X310300Y67200D02*
D03*
X174300Y67500D02*
D03*
X301800Y57700D02*
D03*
X353800Y67200D02*
D03*
X286000Y74500D02*
D03*
X292400Y83900D02*
D03*
X258700Y76600D02*
D03*
X256600Y67100D02*
D03*
X260200Y57800D02*
D03*
X324400Y75900D02*
D03*
X325100Y72000D02*
D03*
X324400Y59200D02*
D03*
X267300Y166200D02*
D03*
X137063Y39263D02*
D03*
X139300Y46655D02*
D03*
X136200Y77000D02*
D03*
X297400Y84700D02*
D03*
X147400Y82000D02*
D03*
X154300Y100800D02*
D03*
X146300D02*
D03*
X149700Y7300D02*
D03*
X82400Y213000D02*
D03*
X301900Y117200D02*
D03*
X307900Y154500D02*
D03*
X331954Y155700D02*
D03*
X370400Y105100D02*
D03*
X155000Y140700D02*
D03*
X199163Y132537D02*
D03*
X240400Y115100D02*
D03*
X307600Y185700D02*
D03*
X334800Y132600D02*
D03*
X214300Y153400D02*
D03*
X147600D02*
D03*
X286000Y59300D02*
D03*
X182200Y35100D02*
D03*
X182000Y44600D02*
D03*
X165687Y54520D02*
D03*
X159600Y58200D02*
D03*
X152500Y53600D02*
D03*
X156509Y54331D02*
D03*
X143400Y81800D02*
D03*
X139500Y80900D02*
D03*
X156800Y81200D02*
D03*
X152800Y81700D02*
D03*
X150400Y4100D02*
D03*
X69500Y148200D02*
D03*
X151000Y44300D02*
D03*
X137300Y103400D02*
D03*
X119936Y105200D02*
D03*
X69500Y144800D02*
D03*
X134138Y103119D02*
D03*
X131747Y105200D02*
D03*
X125600D02*
D03*
X122800Y103500D02*
D03*
X128674Y103802D02*
D03*
X160200Y80400D02*
D03*
X293875Y68775D02*
D03*
Y65625D02*
D03*
X290725Y68775D02*
D03*
Y65625D02*
D03*
D38*
X375200Y147010D02*
D03*
Y160790D02*
D03*
D39*
X165890Y215700D02*
D03*
X152110D02*
D03*
D40*
X326800Y101200D02*
D03*
X316800D02*
D03*
X306800D02*
D03*
X326800Y31200D02*
D03*
X316800D02*
D03*
X306800D02*
D03*
D41*
X35300Y179400D02*
D03*
D42*
X45300D02*
D03*
X55300D02*
D03*
X65300D02*
D03*
X75300D02*
D03*
X85300D02*
D03*
X95300D02*
D03*
X105300D02*
D03*
X115300D02*
D03*
X125300D02*
D03*
X35300Y189400D02*
D03*
X45300D02*
D03*
X55300D02*
D03*
X65300D02*
D03*
X75300D02*
D03*
X85300D02*
D03*
X95300D02*
D03*
X105300D02*
D03*
X115300D02*
D03*
X125300D02*
D03*
D43*
X280500Y61000D02*
D03*
X136200Y59100D02*
D03*
X186400Y222300D02*
D03*
X190371D02*
D03*
X194343D02*
D03*
X198314D02*
D03*
X202286D02*
D03*
X206257D02*
D03*
X210228D02*
D03*
X214200D02*
D03*
X353600Y175600D02*
D03*
Y172300D02*
D03*
Y169000D02*
D03*
Y165700D02*
D03*
X350200Y168600D02*
D03*
Y171800D02*
D03*
X282000Y139700D02*
D03*
X279467D02*
D03*
X276933D02*
D03*
X274400D02*
D03*
X201600Y139300D02*
D03*
X204767D02*
D03*
X207933D02*
D03*
X211100D02*
D03*
X203100Y136500D02*
D03*
X206500D02*
D03*
X215100D02*
D03*
X253271Y46000D02*
D03*
X258600D02*
D03*
X263929D02*
D03*
X269257D02*
D03*
X274586D02*
D03*
X279914D02*
D03*
X285243D02*
D03*
X306600Y47600D02*
D03*
X311250D02*
D03*
X315900D02*
D03*
X320550D02*
D03*
X325200D02*
D03*
X329300Y48000D02*
D03*
X332900Y50600D02*
D03*
X338200D02*
D03*
X342600D02*
D03*
X347000D02*
D03*
X351400D02*
D03*
X356800Y57400D02*
D03*
X355800Y79300D02*
D03*
X352200Y83100D02*
D03*
X346800Y83800D02*
D03*
X341850D02*
D03*
X336900D02*
D03*
X331700Y85400D02*
D03*
X325300Y86700D02*
D03*
X321560D02*
D03*
X317820D02*
D03*
X314080D02*
D03*
X310340D02*
D03*
X306600D02*
D03*
X279700Y89600D02*
D03*
X274933D02*
D03*
X270167D02*
D03*
X265400D02*
D03*
X260633D02*
D03*
X255867D02*
D03*
X251100D02*
D03*
X246600Y86300D02*
D03*
X246400Y81100D02*
D03*
X241800Y83900D02*
D03*
X236300Y83600D02*
D03*
X245200Y47900D02*
D03*
X245800Y51800D02*
D03*
X241400Y50000D02*
D03*
X237900Y50500D02*
D03*
X252300Y97500D02*
D03*
X255867Y94100D02*
D03*
X260633D02*
D03*
X265400D02*
D03*
X270167D02*
D03*
X274933D02*
D03*
X236800D02*
D03*
Y89600D02*
D03*
X246333D02*
D03*
X236800Y98600D02*
D03*
X249100Y100200D02*
D03*
X236800Y103100D02*
D03*
X246333D02*
D03*
X241567Y107600D02*
D03*
X236800D02*
D03*
X290486Y13500D02*
D03*
X285157D02*
D03*
X279829D02*
D03*
X274500D02*
D03*
X269171D02*
D03*
X263843D02*
D03*
X258514D02*
D03*
X253186D02*
D03*
X237100Y19900D02*
D03*
X243000Y13600D02*
D03*
X247857Y13500D02*
D03*
X237200Y28800D02*
D03*
Y23700D02*
D03*
Y33900D02*
D03*
Y39000D02*
D03*
Y44100D02*
D03*
X295814Y13500D02*
D03*
X301143D02*
D03*
X343771Y23700D02*
D03*
Y13500D02*
D03*
X338443D02*
D03*
X343771Y18600D02*
D03*
X306471Y13500D02*
D03*
X311800D02*
D03*
X317128D02*
D03*
X322457D02*
D03*
X327786D02*
D03*
X333114D02*
D03*
X251857Y119300D02*
D03*
X246529D02*
D03*
X257186D02*
D03*
X262514D02*
D03*
X267843D02*
D03*
X273171D02*
D03*
X278500D02*
D03*
X283829D02*
D03*
Y123900D02*
D03*
X305143D02*
D03*
X299814D02*
D03*
X294486D02*
D03*
X289157D02*
D03*
X362200Y18200D02*
D03*
Y22700D02*
D03*
Y27200D02*
D03*
Y31700D02*
D03*
Y36200D02*
D03*
Y40700D02*
D03*
Y45200D02*
D03*
Y49700D02*
D03*
X361500Y54200D02*
D03*
Y58700D02*
D03*
Y63200D02*
D03*
X362200Y85143D02*
D03*
Y89386D02*
D03*
Y93629D02*
D03*
Y97871D02*
D03*
Y102114D02*
D03*
Y106357D02*
D03*
Y110700D02*
D03*
X359400Y115400D02*
D03*
X356400Y118700D02*
D03*
X353500Y121900D02*
D03*
X349800Y119600D02*
D03*
X345500D02*
D03*
X354900Y26200D02*
D03*
X351000D02*
D03*
X347100D02*
D03*
X313100Y120100D02*
D03*
X318267D02*
D03*
X323433D02*
D03*
X328600D02*
D03*
X200100Y105900D02*
D03*
X200900Y85400D02*
D03*
X204600Y63000D02*
D03*
X80957Y13200D02*
D03*
X76100Y13300D02*
D03*
X86286Y13200D02*
D03*
X91614D02*
D03*
X96943D02*
D03*
X102271D02*
D03*
X107600D02*
D03*
X112929D02*
D03*
X118257D02*
D03*
X144900D02*
D03*
X139571D02*
D03*
X134243D02*
D03*
X128914D02*
D03*
X123586D02*
D03*
X171543D02*
D03*
X166214D02*
D03*
X160886D02*
D03*
X155557D02*
D03*
X198186D02*
D03*
X192857D02*
D03*
X187529D02*
D03*
X182200D02*
D03*
X176871D02*
D03*
X219500D02*
D03*
X214171D02*
D03*
X208843D02*
D03*
X203514D02*
D03*
X109671Y44400D02*
D03*
X104343D02*
D03*
X99014D02*
D03*
X93686D02*
D03*
X88357D02*
D03*
X78171Y44500D02*
D03*
X83029Y44400D02*
D03*
X115000D02*
D03*
X120329D02*
D03*
X124900Y49200D02*
D03*
X130229D02*
D03*
X121257Y89900D02*
D03*
X115929D02*
D03*
X83957D02*
D03*
X79100Y90000D02*
D03*
X89286Y89900D02*
D03*
X94614D02*
D03*
X99943D02*
D03*
X105271D02*
D03*
X110600D02*
D03*
X68800Y41400D02*
D03*
Y36300D02*
D03*
Y31200D02*
D03*
Y21000D02*
D03*
Y26100D02*
D03*
Y99600D02*
D03*
Y94500D02*
D03*
Y84300D02*
D03*
Y89400D02*
D03*
Y120000D02*
D03*
Y114900D02*
D03*
Y104700D02*
D03*
Y109800D02*
D03*
X219000Y46000D02*
D03*
X68800Y46400D02*
D03*
X72000Y49800D02*
D03*
X75900Y49100D02*
D03*
X72400Y84300D02*
D03*
X76700Y84400D02*
D03*
X95071Y125900D02*
D03*
X89743D02*
D03*
X84414D02*
D03*
X79086D02*
D03*
X73757D02*
D03*
X146271Y126200D02*
D03*
X140943D02*
D03*
X135614D02*
D03*
X130286D02*
D03*
X120100Y126300D02*
D03*
X124957Y126200D02*
D03*
X151600D02*
D03*
X167586D02*
D03*
X162257D02*
D03*
X156929D02*
D03*
X179814Y119800D02*
D03*
X174486D02*
D03*
X125071Y83900D02*
D03*
X130400D02*
D03*
X99400Y122500D02*
D03*
X102500Y119300D02*
D03*
X105800Y116100D02*
D03*
X109500Y112300D02*
D03*
X112800Y109400D02*
D03*
X115200Y105000D02*
D03*
X118000Y99700D02*
D03*
X121700Y97400D02*
D03*
X125400Y94100D02*
D03*
X129100Y90600D02*
D03*
X132500Y87100D02*
D03*
X141300Y101000D02*
D03*
X140500Y107100D02*
D03*
X136200Y111300D02*
D03*
X132300Y115100D02*
D03*
X128700Y118600D02*
D03*
X124957Y122000D02*
D03*
X228200Y32300D02*
D03*
Y22100D02*
D03*
Y27200D02*
D03*
X224000Y17600D02*
D03*
X240000Y16900D02*
D03*
X169800Y90500D02*
D03*
X175600D02*
D03*
X180100Y90400D02*
D03*
X191100Y84200D02*
D03*
X196500Y84000D02*
D03*
X203400Y89300D02*
D03*
X197700Y89600D02*
D03*
X192800Y88300D02*
D03*
X216100Y90200D02*
D03*
X219600Y50300D02*
D03*
X182400Y51200D02*
D03*
X186875D02*
D03*
X191350D02*
D03*
X195825D02*
D03*
X200300D02*
D03*
X202800Y43700D02*
D03*
X197633D02*
D03*
X192467D02*
D03*
X187300D02*
D03*
X207514Y34800D02*
D03*
X212843D02*
D03*
X218171D02*
D03*
X186200D02*
D03*
X191529D02*
D03*
X196857D02*
D03*
X202186D02*
D03*
X155700Y18800D02*
D03*
X155800Y23600D02*
D03*
X159700Y27200D02*
D03*
X165029D02*
D03*
X170357D02*
D03*
X175686D02*
D03*
X180700Y30100D02*
D03*
X176757Y35300D02*
D03*
X171429D02*
D03*
X166100D02*
D03*
X161200Y37900D02*
D03*
X155000Y41100D02*
D03*
X152900Y36900D02*
D03*
Y30900D02*
D03*
X158600Y33000D02*
D03*
X163200D02*
D03*
X147000Y32300D02*
D03*
Y27200D02*
D03*
Y22100D02*
D03*
Y17000D02*
D03*
X205314Y98900D02*
D03*
X199986D02*
D03*
X189329D02*
D03*
X194657D02*
D03*
X210643D02*
D03*
X215971D02*
D03*
X226714Y102900D02*
D03*
X221386D02*
D03*
X207314Y118200D02*
D03*
X201986D02*
D03*
X191329D02*
D03*
X196657D02*
D03*
X183800Y93300D02*
D03*
X186600Y96500D02*
D03*
X171300Y98500D02*
D03*
X175000Y102200D02*
D03*
X179100Y106200D02*
D03*
X182700Y109900D02*
D03*
X186700Y114300D02*
D03*
X176400Y116500D02*
D03*
X172400Y112100D02*
D03*
X168800Y108400D02*
D03*
X164700Y104400D02*
D03*
X161000Y100700D02*
D03*
X72300Y16900D02*
D03*
X167800Y120000D02*
D03*
X226400Y108600D02*
D03*
X221000Y110000D02*
D03*
X214900Y109900D02*
D03*
X210700Y114300D02*
D03*
X375400Y34400D02*
D03*
Y29900D02*
D03*
Y25400D02*
D03*
Y20900D02*
D03*
Y16400D02*
D03*
Y11900D02*
D03*
Y7400D02*
D03*
Y2900D02*
D03*
X160600Y95000D02*
D03*
D44*
X159000Y86200D02*
D03*
D45*
X3800Y121900D02*
D03*
Y115700D02*
D03*
X10450Y121900D02*
D03*
Y115700D02*
D03*
X17100Y121900D02*
D03*
Y115700D02*
D03*
X17484Y88400D02*
D03*
Y94600D02*
D03*
X10834Y88400D02*
D03*
Y94600D02*
D03*
X4184Y88400D02*
D03*
Y94600D02*
D03*
X17084Y40400D02*
D03*
Y46600D02*
D03*
X10434Y40400D02*
D03*
Y46600D02*
D03*
X3784Y40400D02*
D03*
Y46600D02*
D03*
X17784Y12900D02*
D03*
Y19100D02*
D03*
X11134Y12900D02*
D03*
Y19100D02*
D03*
X4484Y12900D02*
D03*
Y19100D02*
D03*
X263700Y110600D02*
D03*
X280800Y109600D02*
D03*
X289000Y105500D02*
D03*
X291900Y97300D02*
D03*
X342300Y101700D02*
D03*
X349000Y108700D02*
D03*
X351400Y94400D02*
D03*
X334800Y92300D02*
D03*
X247500Y31500D02*
D03*
X259300Y23100D02*
D03*
X266800Y31800D02*
D03*
X280800Y21200D02*
D03*
X285600Y33200D02*
D03*
X343500Y41900D02*
D03*
X351200Y35400D02*
D03*
X316500Y18000D02*
D03*
X75400Y38500D02*
D03*
X88900Y37100D02*
D03*
X106700Y36100D02*
D03*
X126300D02*
D03*
X79700Y29800D02*
D03*
X97100D02*
D03*
X116400D02*
D03*
X133300Y29400D02*
D03*
X88200Y21900D02*
D03*
X107700Y22400D02*
D03*
X122700D02*
D03*
X140300Y22100D02*
D03*
X77600Y117600D02*
D03*
X90800D02*
D03*
X85100Y110300D02*
D03*
X97300Y110600D02*
D03*
X77800Y103400D02*
D03*
X91800Y103600D02*
D03*
X105100Y103800D02*
D03*
X85300Y98800D02*
D03*
X98800Y98300D02*
D03*
X110800Y98100D02*
D03*
X139000Y118800D02*
D03*
X152500Y118300D02*
D03*
X148000Y112500D02*
D03*
X167200Y20700D02*
D03*
X192900Y27700D02*
D03*
X215600Y27100D02*
D03*
X203700Y20700D02*
D03*
X183800Y20400D02*
D03*
D46*
X155124Y62776D02*
D03*
X150400D02*
D03*
X145676D02*
D03*
X155124Y67500D02*
D03*
X150400D02*
D03*
X145676D02*
D03*
X155124Y72224D02*
D03*
X150400D02*
D03*
X145676D02*
D03*
M02*
