%FSLAX25Y25*%
%MOIN*%
G70*
G01*
G75*
G04 Layer_Color=32896*
%ADD10R,0.20000X0.07000*%
%ADD11R,0.20000X0.10500*%
%ADD12R,0.03740X0.02953*%
%ADD13R,0.02953X0.03740*%
%ADD14R,0.05709X0.04331*%
%ADD15R,0.04331X0.05709*%
%ADD16O,0.00984X0.03543*%
%ADD17O,0.03543X0.00984*%
%ADD18R,0.05906X0.05906*%
%ADD19O,0.03740X0.00984*%
%ADD20O,0.00984X0.03740*%
%ADD21R,0.12598X0.12598*%
%ADD22R,0.04331X0.14173*%
%ADD23R,0.31496X0.23622*%
%ADD24R,0.14173X0.04331*%
%ADD25R,0.23622X0.31496*%
G04:AMPARAMS|DCode=26|XSize=118.11mil|YSize=62.99mil|CornerRadius=15.75mil|HoleSize=0mil|Usage=FLASHONLY|Rotation=270.000|XOffset=0mil|YOffset=0mil|HoleType=Round|Shape=RoundedRectangle|*
%AMROUNDEDRECTD26*
21,1,0.11811,0.03150,0,0,270.0*
21,1,0.08661,0.06299,0,0,270.0*
1,1,0.03150,-0.01575,-0.04331*
1,1,0.03150,-0.01575,0.04331*
1,1,0.03150,0.01575,0.04331*
1,1,0.03150,0.01575,-0.04331*
%
%ADD26ROUNDEDRECTD26*%
%ADD27R,0.06299X0.11811*%
G04:AMPARAMS|DCode=28|XSize=118.11mil|YSize=62.99mil|CornerRadius=15.75mil|HoleSize=0mil|Usage=FLASHONLY|Rotation=0.000|XOffset=0mil|YOffset=0mil|HoleType=Round|Shape=RoundedRectangle|*
%AMROUNDEDRECTD28*
21,1,0.11811,0.03150,0,0,0.0*
21,1,0.08661,0.06299,0,0,0.0*
1,1,0.03150,0.04331,-0.01575*
1,1,0.03150,-0.04331,-0.01575*
1,1,0.03150,-0.04331,0.01575*
1,1,0.03150,0.04331,0.01575*
%
%ADD28ROUNDEDRECTD28*%
%ADD29R,0.11811X0.06299*%
%ADD30R,0.10000X0.06496*%
%ADD31C,0.03937*%
%ADD32C,0.00787*%
%ADD33C,0.05906*%
%ADD34C,0.01000*%
%ADD35C,0.11811*%
%ADD36C,0.07874*%
%ADD37C,0.02362*%
%ADD38P,0.10653X8X202.5*%
%ADD39P,0.10653X8X292.5*%
%ADD40O,0.05906X0.07874*%
%ADD41R,0.05906X0.07874*%
%ADD42O,0.05906X0.07874*%
%ADD43C,0.02300*%
%ADD44C,0.02000*%
%ADD45C,0.02500*%
%ADD46C,0.02598*%
%ADD47C,0.00984*%
%ADD48C,0.02362*%
%ADD49C,0.00500*%
%ADD50R,0.21000X0.08000*%
%ADD51R,0.21000X0.11500*%
%ADD52R,0.04740X0.03953*%
%ADD53R,0.03953X0.04740*%
%ADD54R,0.06709X0.05331*%
%ADD55R,0.05331X0.06709*%
%ADD56R,0.05331X0.15173*%
%ADD57R,0.32496X0.24622*%
%ADD58R,0.15173X0.05331*%
%ADD59R,0.24622X0.32496*%
G04:AMPARAMS|DCode=60|XSize=128.11mil|YSize=72.99mil|CornerRadius=20.75mil|HoleSize=0mil|Usage=FLASHONLY|Rotation=270.000|XOffset=0mil|YOffset=0mil|HoleType=Round|Shape=RoundedRectangle|*
%AMROUNDEDRECTD60*
21,1,0.12811,0.03150,0,0,270.0*
21,1,0.08661,0.07299,0,0,270.0*
1,1,0.04150,-0.01575,-0.04331*
1,1,0.04150,-0.01575,0.04331*
1,1,0.04150,0.01575,0.04331*
1,1,0.04150,0.01575,-0.04331*
%
%ADD60ROUNDEDRECTD60*%
%ADD61R,0.07299X0.12811*%
G04:AMPARAMS|DCode=62|XSize=128.11mil|YSize=72.99mil|CornerRadius=20.75mil|HoleSize=0mil|Usage=FLASHONLY|Rotation=0.000|XOffset=0mil|YOffset=0mil|HoleType=Round|Shape=RoundedRectangle|*
%AMROUNDEDRECTD62*
21,1,0.12811,0.03150,0,0,0.0*
21,1,0.08661,0.07299,0,0,0.0*
1,1,0.04150,0.04331,-0.01575*
1,1,0.04150,-0.04331,-0.01575*
1,1,0.04150,-0.04331,0.01575*
1,1,0.04150,0.04331,0.01575*
%
%ADD62ROUNDEDRECTD62*%
%ADD63R,0.12811X0.07299*%
%ADD64R,0.11000X0.07496*%
%ADD65C,0.12811*%
%ADD66C,0.08874*%
%ADD67C,0.03362*%
%ADD68P,0.11736X8X202.5*%
%ADD69P,0.11736X8X292.5*%
%ADD70O,0.06906X0.08874*%
%ADD71R,0.06906X0.08874*%
%ADD72O,0.06906X0.08874*%
D32*
X357324Y70806D02*
Y71594D01*
X360276Y70806D02*
Y71594D01*
X153676Y43806D02*
Y44594D01*
X150724Y43806D02*
Y44594D01*
X146676Y43806D02*
Y44594D01*
X143724Y43806D02*
Y44594D01*
X279906Y65176D02*
X280694D01*
X279906Y62224D02*
X280694D01*
X279906Y71076D02*
X280694D01*
X279906Y68124D02*
X280694D01*
X293424Y37106D02*
Y37894D01*
X296376Y37106D02*
Y37894D01*
D34*
X0Y0D02*
Y233100D01*
X392500D01*
Y0D02*
Y233100D01*
X0Y0D02*
X392500D01*
D49*
X352801Y74701D02*
X352301Y75200D01*
Y76200D01*
X352801Y76700D01*
X354800D01*
X355300Y76200D01*
Y75200D01*
X354800Y74701D01*
X352301Y71702D02*
X352801Y72701D01*
X353801Y73701D01*
X354800D01*
X355300Y73201D01*
Y72201D01*
X354800Y71702D01*
X354300D01*
X353801Y72201D01*
Y73701D01*
X259099Y80099D02*
X259599Y79599D01*
Y78600D01*
X259099Y78100D01*
X257100D01*
X256600Y78600D01*
Y79599D01*
X257100Y80099D01*
X259099Y81099D02*
X259599Y81599D01*
Y82599D01*
X259099Y83098D01*
X258599D01*
X258100Y82599D01*
X257600Y83098D01*
X257100D01*
X256600Y82599D01*
Y81599D01*
X257100Y81099D01*
X257600D01*
X258100Y81599D01*
X258599Y81099D01*
X259099D01*
X258100Y81599D02*
Y82599D01*
X259599Y56099D02*
X260099Y55599D01*
Y54600D01*
X259599Y54100D01*
X257600D01*
X257100Y54600D01*
Y55599D01*
X257600Y56099D01*
Y57099D02*
X257100Y57599D01*
Y58599D01*
X257600Y59098D01*
X259599D01*
X260099Y58599D01*
Y57599D01*
X259599Y57099D01*
X259099D01*
X258599Y57599D01*
Y59098D01*
X169049Y37088D02*
X168550Y36588D01*
X167550D01*
X167050Y37088D01*
Y39087D01*
X167550Y39587D01*
X168550D01*
X169049Y39087D01*
X170049Y39587D02*
X171049D01*
X170549D01*
Y36588D01*
X170049Y37088D01*
X172548D02*
X173048Y36588D01*
X174048D01*
X174548Y37088D01*
Y39087D01*
X174048Y39587D01*
X173048D01*
X172548Y39087D01*
Y37088D01*
X177399Y37061D02*
X176900Y36561D01*
X175900D01*
X175400Y37061D01*
Y39060D01*
X175900Y39560D01*
X176900D01*
X177399Y39060D01*
X178399Y39560D02*
X179399D01*
X178899D01*
Y36561D01*
X178399Y37061D01*
X180898Y39560D02*
X181898D01*
X181398D01*
Y36561D01*
X180898Y37061D01*
X166251Y90849D02*
X166751Y91349D01*
X167750D01*
X168250Y90849D01*
Y88850D01*
X167750Y88350D01*
X166751D01*
X166251Y88850D01*
X163252Y88350D02*
X165251D01*
X163252Y90349D01*
Y90849D01*
X163751Y91349D01*
X164751D01*
X165251Y90849D01*
X160253Y91349D02*
X162252D01*
Y89850D01*
X161252Y90349D01*
X160752D01*
X160253Y89850D01*
Y88850D01*
X160752Y88350D01*
X161752D01*
X162252Y88850D01*
X175301Y90799D02*
X175801Y91299D01*
X176800D01*
X177300Y90799D01*
Y88800D01*
X176800Y88300D01*
X175801D01*
X175301Y88800D01*
X172302Y88300D02*
X174301D01*
X172302Y90299D01*
Y90799D01*
X172801Y91299D01*
X173801D01*
X174301Y90799D01*
X169303Y91299D02*
X170302Y90799D01*
X171302Y89799D01*
Y88800D01*
X170802Y88300D01*
X169802D01*
X169303Y88800D01*
Y89300D01*
X169802Y89799D01*
X171302D01*
X190901Y117501D02*
X190401Y118000D01*
Y119000D01*
X190901Y119500D01*
X192900D01*
X193400Y119000D01*
Y118000D01*
X192900Y117501D01*
X190901Y116501D02*
X190401Y116001D01*
Y115001D01*
X190901Y114502D01*
X191401D01*
X191901Y115001D01*
Y115501D01*
Y115001D01*
X192400Y114502D01*
X192900D01*
X193400Y115001D01*
Y116001D01*
X192900Y116501D01*
X190901Y113502D02*
X190401Y113002D01*
Y112002D01*
X190901Y111503D01*
X191401D01*
X191901Y112002D01*
Y112502D01*
Y112002D01*
X192400Y111503D01*
X192900D01*
X193400Y112002D01*
Y113002D01*
X192900Y113502D01*
X182401Y117501D02*
X181901Y118000D01*
Y119000D01*
X182401Y119500D01*
X184400D01*
X184900Y119000D01*
Y118000D01*
X184400Y117501D01*
X182401Y116501D02*
X181901Y116001D01*
Y115001D01*
X182401Y114502D01*
X182901D01*
X183400Y115001D01*
Y115501D01*
Y115001D01*
X183900Y114502D01*
X184400D01*
X184900Y115001D01*
Y116001D01*
X184400Y116501D01*
X184900Y112002D02*
X181901D01*
X183400Y113502D01*
Y111503D01*
X173401Y117501D02*
X172901Y118000D01*
Y119000D01*
X173401Y119500D01*
X175400D01*
X175900Y119000D01*
Y118000D01*
X175400Y117501D01*
X173401Y116501D02*
X172901Y116001D01*
Y115001D01*
X173401Y114502D01*
X173901D01*
X174400Y115001D01*
Y115501D01*
Y115001D01*
X174900Y114502D01*
X175400D01*
X175900Y115001D01*
Y116001D01*
X175400Y116501D01*
X172901Y111503D02*
Y113502D01*
X174400D01*
X173901Y112502D01*
Y112002D01*
X174400Y111503D01*
X175400D01*
X175900Y112002D01*
Y113002D01*
X175400Y113502D01*
X249299Y137999D02*
X249799Y137499D01*
Y136500D01*
X249299Y136000D01*
X247300D01*
X246800Y136500D01*
Y137499D01*
X247300Y137999D01*
X249299Y138999D02*
X249799Y139499D01*
Y140499D01*
X249299Y140998D01*
X248799D01*
X248300Y140499D01*
Y139999D01*
Y140499D01*
X247800Y140998D01*
X247300D01*
X246800Y140499D01*
Y139499D01*
X247300Y138999D01*
X249299Y141998D02*
X249799Y142498D01*
Y143498D01*
X249299Y143997D01*
X248799D01*
X248300Y143498D01*
X247800Y143997D01*
X247300D01*
X246800Y143498D01*
Y142498D01*
X247300Y141998D01*
X247800D01*
X248300Y142498D01*
X248799Y141998D01*
X249299D01*
X248300Y142498D02*
Y143498D01*
X258049Y138099D02*
X258549Y137600D01*
Y136600D01*
X258049Y136100D01*
X256050D01*
X255550Y136600D01*
Y137600D01*
X256050Y138099D01*
X258049Y139099D02*
X258549Y139599D01*
Y140599D01*
X258049Y141098D01*
X257549D01*
X257049Y140599D01*
Y140099D01*
Y140599D01*
X256550Y141098D01*
X256050D01*
X255550Y140599D01*
Y139599D01*
X256050Y139099D01*
Y142098D02*
X255550Y142598D01*
Y143598D01*
X256050Y144097D01*
X258049D01*
X258549Y143598D01*
Y142598D01*
X258049Y142098D01*
X257549D01*
X257049Y142598D01*
Y144097D01*
X266899Y138099D02*
X267399Y137600D01*
Y136600D01*
X266899Y136100D01*
X264900D01*
X264400Y136600D01*
Y137600D01*
X264900Y138099D01*
X264400Y140599D02*
X267399D01*
X265899Y139099D01*
Y141098D01*
X266899Y142098D02*
X267399Y142598D01*
Y143598D01*
X266899Y144097D01*
X264900D01*
X264400Y143598D01*
Y142598D01*
X264900Y142098D01*
X266899D01*
X310201Y142801D02*
X309701Y143300D01*
Y144300D01*
X310201Y144800D01*
X312200D01*
X312700Y144300D01*
Y143300D01*
X312200Y142801D01*
X312700Y140301D02*
X309701D01*
X311200Y141801D01*
Y139802D01*
X312700Y137302D02*
X309701D01*
X311200Y138802D01*
Y136803D01*
X317601Y142801D02*
X317101Y143300D01*
Y144300D01*
X317601Y144800D01*
X319600D01*
X320100Y144300D01*
Y143300D01*
X319600Y142801D01*
X320100Y140301D02*
X317101D01*
X318601Y141801D01*
Y139802D01*
X317101Y136803D02*
Y138802D01*
X318601D01*
X318101Y137802D01*
Y137302D01*
X318601Y136803D01*
X319600D01*
X320100Y137302D01*
Y138302D01*
X319600Y138802D01*
X326401Y142401D02*
X325901Y142901D01*
Y143900D01*
X326401Y144400D01*
X328400D01*
X328900Y143900D01*
Y142901D01*
X328400Y142401D01*
X328900Y139901D02*
X325901D01*
X327400Y141401D01*
Y139402D01*
X325901Y136403D02*
X326401Y137402D01*
X327400Y138402D01*
X328400D01*
X328900Y137902D01*
Y136902D01*
X328400Y136403D01*
X327900D01*
X327400Y136902D01*
Y138402D01*
X300150Y34650D02*
X303149D01*
Y36149D01*
X302649Y36649D01*
X301649D01*
X301150Y36149D01*
Y34650D01*
Y35650D02*
X300150Y36649D01*
Y39648D02*
Y37649D01*
X302149Y39648D01*
X302649D01*
X303149Y39149D01*
Y38149D01*
X302649Y37649D01*
X149351Y133451D02*
Y135450D01*
X150850D01*
Y134450D01*
Y135450D01*
X152350D01*
X149351Y132451D02*
X152350D01*
Y130951D01*
X151850Y130452D01*
X151350D01*
X150850Y130951D01*
Y132451D01*
Y130951D01*
X150351Y130452D01*
X149851D01*
X149351Y130951D01*
Y132451D01*
X152350Y127453D02*
Y129452D01*
X150351Y127453D01*
X149851D01*
X149351Y127952D01*
Y128952D01*
X149851Y129452D01*
X211351Y142049D02*
X213350D01*
Y140550D01*
X212350D01*
X213350D01*
Y139050D01*
X210351Y142049D02*
Y139050D01*
X208852D01*
X208352Y139550D01*
Y140050D01*
X208852Y140550D01*
X210351D01*
X208852D01*
X208352Y141049D01*
Y141549D01*
X208852Y142049D01*
X210351D01*
X207352Y141549D02*
X206852Y142049D01*
X205852D01*
X205353Y141549D01*
Y141049D01*
X205852Y140550D01*
X206352D01*
X205852D01*
X205353Y140050D01*
Y139550D01*
X205852Y139050D01*
X206852D01*
X207352Y139550D01*
X276301Y161501D02*
Y163500D01*
X277800D01*
Y162500D01*
Y163500D01*
X279300D01*
X276301Y160501D02*
X279300D01*
Y159001D01*
X278800Y158502D01*
X278300D01*
X277800Y159001D01*
Y160501D01*
Y159001D01*
X277301Y158502D01*
X276801D01*
X276301Y159001D01*
Y160501D01*
X279300Y156002D02*
X276301D01*
X277800Y157502D01*
Y155503D01*
X269201Y129487D02*
Y131487D01*
X270701D01*
Y130487D01*
Y131487D01*
X272200D01*
X269201Y128488D02*
X272200D01*
Y126988D01*
X271700Y126488D01*
X271200D01*
X270701Y126988D01*
Y128488D01*
Y126988D01*
X270201Y126488D01*
X269701D01*
X269201Y126988D01*
Y128488D01*
Y123489D02*
Y125488D01*
X270701D01*
X270201Y124489D01*
Y123989D01*
X270701Y123489D01*
X271700D01*
X272200Y123989D01*
Y124989D01*
X271700Y125488D01*
X350301Y131601D02*
Y133600D01*
X351800D01*
Y132600D01*
Y133600D01*
X353300D01*
X350301Y130601D02*
X353300D01*
Y129101D01*
X352800Y128602D01*
X352300D01*
X351800Y129101D01*
Y130601D01*
Y129101D01*
X351301Y128602D01*
X350801D01*
X350301Y129101D01*
Y130601D01*
X350801Y127602D02*
X350301Y127102D01*
Y126102D01*
X350801Y125603D01*
X351301D01*
X351800Y126102D01*
X352300Y125603D01*
X352800D01*
X353300Y126102D01*
Y127102D01*
X352800Y127602D01*
X352300D01*
X351800Y127102D01*
X351301Y127602D01*
X350801D01*
X351800Y127102D02*
Y126102D01*
X289550Y67550D02*
X292549D01*
Y69050D01*
X292049Y69549D01*
X291050D01*
X290550Y69050D01*
Y67550D01*
Y68550D02*
X289550Y69549D01*
Y72548D02*
Y70549D01*
X291549Y72548D01*
X292049D01*
X292549Y72049D01*
Y71049D01*
X292049Y70549D01*
X292549Y75547D02*
X292049Y74548D01*
X291050Y73548D01*
X290050D01*
X289550Y74048D01*
Y75048D01*
X290050Y75547D01*
X290550D01*
X291050Y75048D01*
Y73548D01*
X289300Y58400D02*
X292299D01*
Y59899D01*
X291799Y60399D01*
X290799D01*
X290300Y59899D01*
Y58400D01*
Y59400D02*
X289300Y60399D01*
Y63398D02*
Y61399D01*
X291299Y63398D01*
X291799D01*
X292299Y62899D01*
Y61899D01*
X291799Y61399D01*
X292299Y64398D02*
Y66397D01*
X291799D01*
X289800Y64398D01*
X289300D01*
X141100Y35000D02*
Y32001D01*
X142599D01*
X143099Y32501D01*
Y33500D01*
X142599Y34000D01*
X141100D01*
X142100D02*
X143099Y35000D01*
X146098D02*
X144099D01*
X146098Y33001D01*
Y32501D01*
X145599Y32001D01*
X144599D01*
X144099Y32501D01*
X147098Y34500D02*
X147598Y35000D01*
X148598D01*
X149097Y34500D01*
Y32501D01*
X148598Y32001D01*
X147598D01*
X147098Y32501D01*
Y33001D01*
X147598Y33500D01*
X149097D01*
X150150Y34950D02*
Y31951D01*
X151649D01*
X152149Y32451D01*
Y33450D01*
X151649Y33950D01*
X150150D01*
X151150D02*
X152149Y34950D01*
X153149Y32451D02*
X153649Y31951D01*
X154649D01*
X155148Y32451D01*
Y32951D01*
X154649Y33450D01*
X154149D01*
X154649D01*
X155148Y33950D01*
Y34450D01*
X154649Y34950D01*
X153649D01*
X153149Y34450D01*
X156148Y32451D02*
X156648Y31951D01*
X157648D01*
X158147Y32451D01*
Y34450D01*
X157648Y34950D01*
X156648D01*
X156148Y34450D01*
Y32451D01*
M02*
