%FSLAX25Y25*%
%MOIN*%
G70*
G01*
G75*
G04 Layer_Color=8421504*
%ADD10R,0.10000X0.06496*%
%ADD11R,0.06299X0.11811*%
G04:AMPARAMS|DCode=12|XSize=118.11mil|YSize=62.99mil|CornerRadius=15.75mil|HoleSize=0mil|Usage=FLASHONLY|Rotation=270.000|XOffset=0mil|YOffset=0mil|HoleType=Round|Shape=RoundedRectangle|*
%AMROUNDEDRECTD12*
21,1,0.11811,0.03150,0,0,270.0*
21,1,0.08661,0.06299,0,0,270.0*
1,1,0.03150,-0.01575,-0.04331*
1,1,0.03150,-0.01575,0.04331*
1,1,0.03150,0.01575,0.04331*
1,1,0.03150,0.01575,-0.04331*
%
%ADD12ROUNDEDRECTD12*%
%ADD13R,0.11811X0.06299*%
G04:AMPARAMS|DCode=14|XSize=118.11mil|YSize=62.99mil|CornerRadius=15.75mil|HoleSize=0mil|Usage=FLASHONLY|Rotation=0.000|XOffset=0mil|YOffset=0mil|HoleType=Round|Shape=RoundedRectangle|*
%AMROUNDEDRECTD14*
21,1,0.11811,0.03150,0,0,0.0*
21,1,0.08661,0.06299,0,0,0.0*
1,1,0.03150,0.04331,-0.01575*
1,1,0.03150,-0.04331,-0.01575*
1,1,0.03150,-0.04331,0.01575*
1,1,0.03150,0.04331,0.01575*
%
%ADD14ROUNDEDRECTD14*%
%ADD15R,0.05709X0.04331*%
%ADD16R,0.04331X0.05709*%
%ADD17R,0.23622X0.31496*%
%ADD18R,0.14173X0.04331*%
%ADD19R,0.31496X0.23622*%
%ADD20R,0.04331X0.14173*%
%ADD21R,0.02953X0.03740*%
%ADD22R,0.03740X0.02953*%
%ADD23R,0.12598X0.12598*%
%ADD24O,0.00984X0.03740*%
%ADD25O,0.03740X0.00984*%
%ADD26R,0.05906X0.05906*%
%ADD27O,0.03543X0.00984*%
%ADD28O,0.00984X0.03543*%
%ADD29R,0.20000X0.10500*%
%ADD30R,0.20000X0.07000*%
%ADD31C,0.00787*%
%ADD32C,0.03937*%
%ADD33C,0.05906*%
%ADD34C,0.01000*%
%ADD35O,0.05906X0.07874*%
%ADD36R,0.05906X0.07874*%
%ADD37O,0.05906X0.07874*%
%ADD38C,0.07874*%
%ADD39P,0.10653X8X292.5*%
%ADD40P,0.10653X8X202.5*%
%ADD41C,0.02362*%
%ADD42C,0.11811*%
%ADD43C,0.02500*%
%ADD44C,0.02598*%
%ADD45C,0.02000*%
%ADD46C,0.02300*%
%ADD47C,0.02362*%
%ADD48C,0.00984*%
%ADD49C,0.00500*%
D10*
X1180500Y429700D02*
D03*
Y439700D02*
D03*
Y449700D02*
D03*
X1160500Y429700D02*
D03*
Y439700D02*
D03*
Y449700D02*
D03*
X1029500D02*
D03*
Y439700D02*
D03*
Y429700D02*
D03*
X1049500Y449700D02*
D03*
Y439700D02*
D03*
Y429700D02*
D03*
X884000Y430000D02*
D03*
Y440000D02*
D03*
Y450000D02*
D03*
X864000Y430000D02*
D03*
Y440000D02*
D03*
Y450000D02*
D03*
D11*
X1038600Y588561D02*
D03*
X992900Y510939D02*
D03*
X1175600Y566961D02*
D03*
D12*
X1038600Y571239D02*
D03*
X992900Y528261D02*
D03*
X1175600Y549639D02*
D03*
D13*
X1068839Y518400D02*
D03*
D14*
X1086161D02*
D03*
D15*
X1021600Y583237D02*
D03*
Y575363D02*
D03*
X886400Y581320D02*
D03*
Y573446D02*
D03*
X1188500Y582037D02*
D03*
Y574163D02*
D03*
X901300Y581133D02*
D03*
Y573259D02*
D03*
X1191500Y562437D02*
D03*
Y554563D02*
D03*
X1011300Y574663D02*
D03*
Y582537D02*
D03*
X1003300Y574663D02*
D03*
Y582537D02*
D03*
X995300Y574663D02*
D03*
Y582537D02*
D03*
X976200Y523037D02*
D03*
Y515163D02*
D03*
X966000Y460063D02*
D03*
Y467937D02*
D03*
X953900Y419637D02*
D03*
Y411763D02*
D03*
X958000Y460063D02*
D03*
Y467937D02*
D03*
D16*
X1151737Y515400D02*
D03*
X1143863D02*
D03*
X1046437Y487600D02*
D03*
X1038563D02*
D03*
X1123563Y447700D02*
D03*
X1131437D02*
D03*
X1123563Y431700D02*
D03*
X1131437D02*
D03*
X1127563Y439700D02*
D03*
X1135437D02*
D03*
X1080937Y534200D02*
D03*
X1073063D02*
D03*
X1084437Y447700D02*
D03*
X1076563D02*
D03*
X1080437Y439700D02*
D03*
X1072563D02*
D03*
X1084437Y431700D02*
D03*
X1076563D02*
D03*
D17*
X978426Y552800D02*
D03*
X1076126Y559000D02*
D03*
D18*
X1010316Y561855D02*
D03*
Y543745D02*
D03*
X1108016Y568055D02*
D03*
Y549945D02*
D03*
D19*
X1147000Y562974D02*
D03*
D20*
X1156055Y531084D02*
D03*
X1137945D02*
D03*
D21*
X1107445Y451700D02*
D03*
X1100555D02*
D03*
X1095445Y455700D02*
D03*
X1088555D02*
D03*
X1149945Y449700D02*
D03*
X1143055D02*
D03*
X1149945Y429700D02*
D03*
X1143055D02*
D03*
X1095445Y423700D02*
D03*
X1088555D02*
D03*
X1107445Y427700D02*
D03*
X1100555D02*
D03*
X999445Y430000D02*
D03*
X992555D02*
D03*
X942945Y429500D02*
D03*
X936055D02*
D03*
X854945Y460900D02*
D03*
X848055D02*
D03*
X999445Y450000D02*
D03*
X992555D02*
D03*
X942945Y449500D02*
D03*
X936055D02*
D03*
X848055Y418650D02*
D03*
X854945D02*
D03*
X1012955Y439900D02*
D03*
X1019845D02*
D03*
X1037945Y412500D02*
D03*
X1031055D02*
D03*
X1037945Y466733D02*
D03*
X1031055D02*
D03*
X1083445Y455700D02*
D03*
X1076555D02*
D03*
X1083445Y423700D02*
D03*
X1076555D02*
D03*
X987445Y430000D02*
D03*
X980555D02*
D03*
X928945Y429500D02*
D03*
X922055D02*
D03*
X914945D02*
D03*
X908055D02*
D03*
X900945D02*
D03*
X894055D02*
D03*
X987445Y450000D02*
D03*
X980555D02*
D03*
X928945Y449500D02*
D03*
X922055D02*
D03*
X914945D02*
D03*
X908055D02*
D03*
X900945D02*
D03*
X894055D02*
D03*
X1071445Y455700D02*
D03*
X1064555D02*
D03*
X1071445Y423700D02*
D03*
X1064555D02*
D03*
X1037945Y459700D02*
D03*
X1031055D02*
D03*
X928945Y423500D02*
D03*
X922055D02*
D03*
X914945D02*
D03*
X908055D02*
D03*
X900945D02*
D03*
X894055D02*
D03*
X928945Y455500D02*
D03*
X922055D02*
D03*
X914945D02*
D03*
X908055D02*
D03*
X900945D02*
D03*
X894055D02*
D03*
X851745Y439800D02*
D03*
X844855D02*
D03*
D22*
X1188600Y418855D02*
D03*
Y425745D02*
D03*
X999200Y443345D02*
D03*
Y436455D02*
D03*
X1182200Y462355D02*
D03*
Y469245D02*
D03*
X1008200Y531245D02*
D03*
Y524355D02*
D03*
Y517845D02*
D03*
Y510955D02*
D03*
X1118300Y482855D02*
D03*
Y489745D02*
D03*
X894100Y574955D02*
D03*
Y581845D02*
D03*
X862900Y418945D02*
D03*
Y412055D02*
D03*
Y460605D02*
D03*
Y467494D02*
D03*
X1007000Y442955D02*
D03*
Y449845D02*
D03*
Y430155D02*
D03*
Y437045D02*
D03*
X1046500Y495355D02*
D03*
Y502245D02*
D03*
X1096800Y534745D02*
D03*
Y527855D02*
D03*
X1096700Y521945D02*
D03*
Y515055D02*
D03*
X846300Y533555D02*
D03*
Y540445D02*
D03*
X846700Y572855D02*
D03*
Y579745D02*
D03*
X856525Y533555D02*
D03*
Y540445D02*
D03*
X856800Y572855D02*
D03*
Y579745D02*
D03*
X866750Y533555D02*
D03*
Y540445D02*
D03*
X866900Y572855D02*
D03*
Y579745D02*
D03*
X1124500Y547645D02*
D03*
Y540755D02*
D03*
X876975Y533555D02*
D03*
Y540445D02*
D03*
X877000Y572855D02*
D03*
Y579745D02*
D03*
X887200Y533555D02*
D03*
Y540445D02*
D03*
X1124500Y533945D02*
D03*
Y527055D02*
D03*
X1058500Y443145D02*
D03*
Y436255D02*
D03*
X1149500Y443145D02*
D03*
Y436255D02*
D03*
X1141500Y443145D02*
D03*
Y436255D02*
D03*
X1064500D02*
D03*
Y443145D02*
D03*
X992000Y443445D02*
D03*
Y436555D02*
D03*
X980000Y443445D02*
D03*
Y436555D02*
D03*
X936000Y443445D02*
D03*
Y436555D02*
D03*
X922000Y443445D02*
D03*
Y436555D02*
D03*
X908000Y443445D02*
D03*
Y436555D02*
D03*
X894350Y443145D02*
D03*
Y436255D02*
D03*
X944000Y436555D02*
D03*
Y443445D02*
D03*
D23*
X962100Y440000D02*
D03*
D24*
X968005Y430453D02*
D03*
X966037D02*
D03*
X964069D02*
D03*
X962100D02*
D03*
X960131D02*
D03*
X958163D02*
D03*
X956194D02*
D03*
Y449547D02*
D03*
X958163D02*
D03*
X960131D02*
D03*
X962100D02*
D03*
X964069D02*
D03*
X966037D02*
D03*
X968005D02*
D03*
D25*
X952553Y434094D02*
D03*
Y436063D02*
D03*
Y438031D02*
D03*
Y440000D02*
D03*
Y441968D02*
D03*
Y443937D02*
D03*
Y445905D02*
D03*
X971647D02*
D03*
Y443937D02*
D03*
Y441968D02*
D03*
Y440000D02*
D03*
Y438031D02*
D03*
Y436063D02*
D03*
Y434094D02*
D03*
D26*
X1104000Y439700D02*
D03*
D27*
X1110299Y442653D02*
D03*
Y440684D02*
D03*
Y438716D02*
D03*
Y436747D02*
D03*
X1097701D02*
D03*
Y438716D02*
D03*
Y440684D02*
D03*
Y442653D02*
D03*
D28*
X1106953Y433401D02*
D03*
X1104984D02*
D03*
X1103016D02*
D03*
X1101047D02*
D03*
Y445999D02*
D03*
X1103016D02*
D03*
X1104984D02*
D03*
X1106953D02*
D03*
D29*
X823000Y416050D02*
D03*
Y388550D02*
D03*
X823016Y463850D02*
D03*
Y491350D02*
D03*
D30*
X823000Y402300D02*
D03*
X823016Y477600D02*
D03*
D34*
X811700Y372500D02*
X1204200D01*
Y605600D01*
X811700D02*
X1204200D01*
X811700Y372500D02*
Y605600D01*
M02*
