%FSLAX25Y25*%
%MOIN*%
G70*
G01*
G75*
G04 Layer_Color=128*
%ADD10R,0.20000X0.07000*%
%ADD11R,0.20000X0.10500*%
%ADD12R,0.03740X0.02953*%
%ADD13R,0.02953X0.03740*%
%ADD14R,0.05709X0.04331*%
%ADD15R,0.04331X0.05709*%
%ADD16O,0.00984X0.03543*%
%ADD17O,0.03543X0.00984*%
%ADD18R,0.05906X0.05906*%
%ADD19O,0.03740X0.00984*%
%ADD20O,0.00984X0.03740*%
%ADD21R,0.12598X0.12598*%
%ADD22R,0.04331X0.14173*%
%ADD23R,0.31496X0.23622*%
%ADD24R,0.14173X0.04331*%
%ADD25R,0.23622X0.31496*%
G04:AMPARAMS|DCode=26|XSize=118.11mil|YSize=62.99mil|CornerRadius=15.75mil|HoleSize=0mil|Usage=FLASHONLY|Rotation=270.000|XOffset=0mil|YOffset=0mil|HoleType=Round|Shape=RoundedRectangle|*
%AMROUNDEDRECTD26*
21,1,0.11811,0.03150,0,0,270.0*
21,1,0.08661,0.06299,0,0,270.0*
1,1,0.03150,-0.01575,-0.04331*
1,1,0.03150,-0.01575,0.04331*
1,1,0.03150,0.01575,0.04331*
1,1,0.03150,0.01575,-0.04331*
%
%ADD26ROUNDEDRECTD26*%
%ADD27R,0.06299X0.11811*%
G04:AMPARAMS|DCode=28|XSize=118.11mil|YSize=62.99mil|CornerRadius=15.75mil|HoleSize=0mil|Usage=FLASHONLY|Rotation=0.000|XOffset=0mil|YOffset=0mil|HoleType=Round|Shape=RoundedRectangle|*
%AMROUNDEDRECTD28*
21,1,0.11811,0.03150,0,0,0.0*
21,1,0.08661,0.06299,0,0,0.0*
1,1,0.03150,0.04331,-0.01575*
1,1,0.03150,-0.04331,-0.01575*
1,1,0.03150,-0.04331,0.01575*
1,1,0.03150,0.04331,0.01575*
%
%ADD28ROUNDEDRECTD28*%
%ADD29R,0.11811X0.06299*%
%ADD30R,0.10000X0.06496*%
%ADD31C,0.03937*%
%ADD32C,0.00787*%
%ADD33C,0.05906*%
%ADD34C,0.01000*%
%ADD35C,0.11811*%
%ADD36C,0.07874*%
%ADD37C,0.02362*%
%ADD38P,0.10653X8X202.5*%
%ADD39P,0.10653X8X292.5*%
%ADD40O,0.05906X0.07874*%
%ADD41R,0.05906X0.07874*%
%ADD42O,0.05906X0.07874*%
%ADD43C,0.02300*%
%ADD44C,0.02000*%
%ADD45C,0.02500*%
%ADD46C,0.02598*%
%ADD47C,0.00984*%
%ADD48C,0.02362*%
%ADD49C,0.00500*%
%ADD50R,0.21000X0.08000*%
%ADD51R,0.21000X0.11500*%
%ADD52R,0.04740X0.03953*%
%ADD53R,0.03953X0.04740*%
%ADD54R,0.06709X0.05331*%
%ADD55R,0.05331X0.06709*%
%ADD56R,0.05331X0.15173*%
%ADD57R,0.32496X0.24622*%
%ADD58R,0.15173X0.05331*%
%ADD59R,0.24622X0.32496*%
G04:AMPARAMS|DCode=60|XSize=128.11mil|YSize=72.99mil|CornerRadius=20.75mil|HoleSize=0mil|Usage=FLASHONLY|Rotation=270.000|XOffset=0mil|YOffset=0mil|HoleType=Round|Shape=RoundedRectangle|*
%AMROUNDEDRECTD60*
21,1,0.12811,0.03150,0,0,270.0*
21,1,0.08661,0.07299,0,0,270.0*
1,1,0.04150,-0.01575,-0.04331*
1,1,0.04150,-0.01575,0.04331*
1,1,0.04150,0.01575,0.04331*
1,1,0.04150,0.01575,-0.04331*
%
%ADD60ROUNDEDRECTD60*%
%ADD61R,0.07299X0.12811*%
G04:AMPARAMS|DCode=62|XSize=128.11mil|YSize=72.99mil|CornerRadius=20.75mil|HoleSize=0mil|Usage=FLASHONLY|Rotation=0.000|XOffset=0mil|YOffset=0mil|HoleType=Round|Shape=RoundedRectangle|*
%AMROUNDEDRECTD62*
21,1,0.12811,0.03150,0,0,0.0*
21,1,0.08661,0.07299,0,0,0.0*
1,1,0.04150,0.04331,-0.01575*
1,1,0.04150,-0.04331,-0.01575*
1,1,0.04150,-0.04331,0.01575*
1,1,0.04150,0.04331,0.01575*
%
%ADD62ROUNDEDRECTD62*%
%ADD63R,0.12811X0.07299*%
%ADD64R,0.11000X0.07496*%
%ADD65C,0.12811*%
%ADD66C,0.08874*%
%ADD67C,0.03362*%
%ADD68P,0.11736X8X202.5*%
%ADD69P,0.11736X8X292.5*%
%ADD70O,0.06906X0.08874*%
%ADD71R,0.06906X0.08874*%
%ADD72O,0.06906X0.08874*%
D11*
X11316Y118850D02*
D03*
Y91350D02*
D03*
X11300Y16050D02*
D03*
Y43550D02*
D03*
D12*
X358800Y74645D02*
D03*
Y67755D02*
D03*
X152200Y40755D02*
D03*
Y47645D02*
D03*
X145200Y40755D02*
D03*
Y47645D02*
D03*
X294900Y40945D02*
D03*
Y34055D02*
D03*
D13*
X283745Y63700D02*
D03*
X276855D02*
D03*
X283745Y69600D02*
D03*
X276855D02*
D03*
D14*
X327200Y124663D02*
D03*
Y132537D02*
D03*
X319200Y124663D02*
D03*
Y132537D02*
D03*
X311200Y124663D02*
D03*
Y132537D02*
D03*
X266100Y123563D02*
D03*
Y131437D02*
D03*
X257150Y123563D02*
D03*
Y131437D02*
D03*
X248200Y123563D02*
D03*
Y131437D02*
D03*
X174050Y124663D02*
D03*
Y132537D02*
D03*
X182925Y124663D02*
D03*
Y132537D02*
D03*
X191800Y124663D02*
D03*
Y132537D02*
D03*
X175000Y85437D02*
D03*
Y77563D02*
D03*
X167000Y85437D02*
D03*
Y77563D02*
D03*
X176300Y42500D02*
D03*
Y50374D02*
D03*
X168300Y42500D02*
D03*
Y50374D02*
D03*
X345800Y132837D02*
D03*
Y124963D02*
D03*
X277400Y131624D02*
D03*
Y123750D02*
D03*
X270600Y163137D02*
D03*
Y155263D02*
D03*
X210600Y132937D02*
D03*
Y125063D02*
D03*
D15*
X259363Y63300D02*
D03*
X267237D02*
D03*
X259363Y71300D02*
D03*
X267237D02*
D03*
X158463Y132700D02*
D03*
X166337D02*
D03*
D34*
X0Y0D02*
Y233100D01*
X392500D01*
Y0D02*
Y233100D01*
X0Y0D02*
X392500D01*
M02*
